/* XPM */
static char *rx_mark_up[]={
"10 10 4 1",
"b c None",
". c None",
"# c #808080",
"a c #ffffff",
"..........",
"....#a....",
"...#..a...",
"...#..a...",
"..#....a..",
"..#....a..",
".#......a.",
".aaaaaaaa.",
".bbbbbbbb.",
".........."};
