/* XPM */
static char *rx_mark_down[]={
"10 10 3 1",
". c None",
"# c #808080",
"a c #ffffff",
"..........",
".#######a.",
".#......a.",
"..#....a..",
"..#....a..",
"...#..a...",
"...#..a...",
"....#a....",
"..........",
".........."};
