<?xml version="1.0" encoding="UTF-8" standalone="no"?>
<!-- Created with Inkscape (http://www.inkscape.org/) -->

<svg
   xmlns:osb="http://www.openswatchbook.org/uri/2009/osb"
   xmlns:dc="http://purl.org/dc/elements/1.1/"
   xmlns:cc="http://creativecommons.org/ns#"
   xmlns:rdf="http://www.w3.org/1999/02/22-rdf-syntax-ns#"
   xmlns:svg="http://www.w3.org/2000/svg"
   xmlns="http://www.w3.org/2000/svg"
   xmlns:xlink="http://www.w3.org/1999/xlink"
   xmlns:sodipodi="http://sodipodi.sourceforge.net/DTD/sodipodi-0.dtd"
   xmlns:inkscape="http://www.inkscape.org/namespaces/inkscape"
   width="48"
   height="48"
   id="svg2"
   sodipodi:version="0.32"
   inkscape:version="0.48.0 r9654"
   sodipodi:docname="head.svg"
   inkscape:output_extension="org.inkscape.output.svg.inkscape"
   version="1.1"
   inkscape:export-filename="W:\home\pictures\cliparts\lazarus-logo\head.png"
   inkscape:export-xdpi="391.15384"
   inkscape:export-ydpi="391.15384">
  <title
     id="title3059">Cheetah Head</title>
  <defs
     id="defs4">
    <linearGradient
       id="linearGradient5682">
      <stop
         id="stop5684"
         offset="0"
         style="stop-color:#930a0a;stop-opacity:0.54867256;" />
      <stop
         style="stop-color:#920000;stop-opacity:0.16814159;"
         offset="0.81283063"
         id="stop5686" />
      <stop
         id="stop5688"
         offset="1"
         style="stop-color:#ffffff;stop-opacity:0;" />
    </linearGradient>
    <linearGradient
       id="linearGradient5674">
      <stop
         style="stop-color:#930a0a;stop-opacity:0.54867256;"
         offset="0"
         id="stop5676" />
      <stop
         id="stop5678"
         offset="0.54232275"
         style="stop-color:#920000;stop-opacity:0.16814159;" />
      <stop
         style="stop-color:#ffffff;stop-opacity:0;"
         offset="1"
         id="stop5680" />
    </linearGradient>
    <linearGradient
       id="linearGradient5662">
      <stop
         id="stop5664"
         offset="0"
         style="stop-color:#930a0a;stop-opacity:0;" />
      <stop
         style="stop-color:#920707;stop-opacity:0.09734514;"
         offset="0.26848221"
         id="stop5666" />
      <stop
         style="stop-color:#920505;stop-opacity:0.20353982;"
         offset="0.66719043"
         id="stop5668" />
      <stop
         style="stop-color:#920000;stop-opacity:0.05309734;"
         offset="0.864788"
         id="stop5670" />
      <stop
         id="stop5672"
         offset="1"
         style="stop-color:#ffffff;stop-opacity:0;" />
    </linearGradient>
    <linearGradient
       id="linearGradient5654">
      <stop
         id="stop5656"
         offset="0"
         style="stop-color:#930a0a;stop-opacity:0.54867256;" />
      <stop
         style="stop-color:#920000;stop-opacity:0.16814159;"
         offset="0.38335639"
         id="stop5658" />
      <stop
         id="stop5660"
         offset="1"
         style="stop-color:#ffffff;stop-opacity:0;" />
    </linearGradient>
    <linearGradient
       id="linearGradient5646">
      <stop
         style="stop-color:#ffcc00;stop-opacity:1"
         offset="0"
         id="stop5648" />
      <stop
         id="stop5650"
         offset="0.74942917"
         style="stop-color:#ffe57f;stop-opacity:1;" />
      <stop
         id="stop5652"
         offset="1"
         style="stop-color:#ffffff;stop-opacity:1;" />
    </linearGradient>
    <linearGradient
       osb:paint="gradient"
       id="linearGradient5638">
      <stop
         id="stop5640"
         offset="0"
         style="stop-color:#ffffff;stop-opacity:0.62831861;" />
      <stop
         style="stop-color:#ffffff;stop-opacity:0.49557522;"
         offset="0.45584768"
         id="stop5642" />
      <stop
         id="stop5644"
         offset="1"
         style="stop-color:#ffffff;stop-opacity:0;" />
    </linearGradient>
    <linearGradient
       id="linearGradient5630">
      <stop
         id="stop5632"
         offset="0"
         style="stop-color:#ffffff;stop-opacity:0.76106197;" />
      <stop
         style="stop-color:#ffffff;stop-opacity:0.19215686;"
         offset="0.60575384"
         id="stop5634" />
      <stop
         id="stop5636"
         offset="1"
         style="stop-color:#ffffff;stop-opacity:0;" />
    </linearGradient>
    <linearGradient
       id="linearGradient5610"
       osb:paint="gradient">
      <stop
         style="stop-color:#ffffff;stop-opacity:0.62831861;"
         offset="0"
         id="stop5612" />
      <stop
         id="stop5614"
         offset="0.67996919"
         style="stop-color:#ffffff;stop-opacity:0.49557522;" />
      <stop
         style="stop-color:#ffffff;stop-opacity:0;"
         offset="1"
         id="stop5616" />
    </linearGradient>
    <linearGradient
       id="linearGradient3998"
       osb:paint="gradient">
      <stop
         style="stop-color:#ffcc00;stop-opacity:1"
         offset="0"
         id="stop4000" />
      <stop
         id="stop4002"
         offset="0.53951544"
         style="stop-color:#ffe57f;stop-opacity:1" />
      <stop
         id="stop4004"
         offset="1"
         style="stop-color:#ffffff;stop-opacity:1;" />
    </linearGradient>
    <linearGradient
       osb:paint="gradient"
       id="linearGradient3966">
      <stop
         id="stop3968"
         offset="0"
         style="stop-color:#ffffff;stop-opacity:0.62831861;" />
      <stop
         style="stop-color:#ffffff;stop-opacity:0.49557522;"
         offset="0.67996919"
         id="stop3970" />
      <stop
         id="stop3972"
         offset="1"
         style="stop-color:#ffffff;stop-opacity:0;" />
    </linearGradient>
    <linearGradient
       id="linearGradient3866"
       osb:paint="gradient">
      <stop
         style="stop-color:#ffffff;stop-opacity:0.62831861;"
         offset="0"
         id="stop3868" />
      <stop
         id="stop3897"
         offset="0.45584768"
         style="stop-color:#ffffff;stop-opacity:0.49557522;" />
      <stop
         style="stop-color:#ffffff;stop-opacity:0;"
         offset="1"
         id="stop3870" />
    </linearGradient>
    <linearGradient
       inkscape:collect="always"
       xlink:href="#linearGradient5646"
       id="linearGradient3898"
       x1="24.59668"
       y1="1022.9152"
       x2="34.165928"
       y2="1015.1938"
       gradientUnits="userSpaceOnUse"
       gradientTransform="matrix(1.0307413,0,0,1.0307413,-3.4960894,-34.941818)" />
    <linearGradient
       inkscape:collect="always"
       xlink:href="#linearGradient5674"
       id="linearGradient3882"
       x1="19.17877"
       y1="1014.2476"
       x2="19.262575"
       y2="1018.1637"
       gradientUnits="userSpaceOnUse"
       gradientTransform="matrix(1.0307413,0,0,1.0307413,-3.4960894,-34.941818)" />
    <linearGradient
       inkscape:collect="always"
       xlink:href="#linearGradient5630"
       id="linearGradient3991"
       x1="20.805763"
       y1="1039.2732"
       x2="27.696302"
       y2="1033.6414"
       gradientUnits="userSpaceOnUse"
       gradientTransform="matrix(1.0307413,0,0,1.0307413,-3.4960894,-34.941818)" />
    <linearGradient
       gradientTransform="matrix(1.1180873,1.520582,-1.7588081,0.96664524,1800.431,14.71017)"
       y2="1018.1637"
       x2="19.262575"
       y1="1014.1828"
       x1="19.500187"
       gradientUnits="userSpaceOnUse"
       id="linearGradient4017"
       xlink:href="#linearGradient5682"
       inkscape:collect="always" />
    <linearGradient
       id="linearGradient3866-0"
       osb:paint="gradient">
      <stop
         style="stop-color:#ffffff;stop-opacity:0.62831861;"
         offset="0"
         id="stop3868-9" />
      <stop
         id="stop3897-4"
         offset="0.45584768"
         style="stop-color:#ffffff;stop-opacity:0.49557522;" />
      <stop
         style="stop-color:#ffffff;stop-opacity:0;"
         offset="1"
         id="stop3870-8" />
    </linearGradient>
    <linearGradient
       inkscape:collect="always"
       xlink:href="#linearGradient5662"
       id="linearGradient4057"
       x1="34.314472"
       y1="1014.7882"
       x2="27.444017"
       y2="1020.5876"
       gradientUnits="userSpaceOnUse"
       gradientTransform="matrix(1.0152185,-0.17821082,0.17821082,1.0152185,-208.40161,-6.5436602)" />
    <radialGradient
       inkscape:collect="always"
       xlink:href="#linearGradient5654"
       id="radialGradient5582"
       cx="42.493114"
       cy="1018.2738"
       fx="42.493114"
       fy="1018.2738"
       r="5.3874297"
       gradientTransform="matrix(1.4629778,0.44342763,-0.29155516,0.96191289,258.03067,28.356713)"
       gradientUnits="userSpaceOnUse" />
    <linearGradient
       inkscape:collect="always"
       xlink:href="#linearGradient5638"
       id="linearGradient5608"
       x1="1.3744972"
       y1="1031.3292"
       x2="16.697128"
       y2="1027.6648"
       gradientUnits="userSpaceOnUse" />
    <radialGradient
       inkscape:collect="always"
       xlink:href="#linearGradient5610"
       id="radialGradient5628"
       cx="11.658085"
       cy="1018.2615"
       fx="11.658085"
       fy="1018.2615"
       r="2.517016"
       gradientTransform="matrix(1,0,0,1.0414099,0,-42.166083)"
       gradientUnits="userSpaceOnUse" />
  </defs>
  <sodipodi:namedview
     id="base"
     pagecolor="#ffffff"
     bordercolor="#666666"
     borderopacity="1.0"
     gridtolerance="10000"
     guidetolerance="10"
     objecttolerance="10"
     inkscape:pageopacity="0.0"
     inkscape:pageshadow="2"
     inkscape:zoom="13.518583"
     inkscape:cx="16.920922"
     inkscape:cy="20.300563"
     inkscape:document-units="px"
     inkscape:current-layer="layer1"
     showgrid="true"
     inkscape:window-width="1440"
     inkscape:window-height="844"
     inkscape:window-x="-4"
     inkscape:window-y="-4"
     inkscape:window-maximized="1"
     showguides="false"
     inkscape:snap-global="false">
    <inkscape:grid
       type="xygrid"
       id="grid3876"
       empspacing="5"
       visible="true"
       enabled="true"
       snapvisiblegridlinesonly="true" />
  </sodipodi:namedview>
  <metadata
     id="metadata7">
    <rdf:RDF>
      <cc:Work
         rdf:about="">
        <dc:format>image/svg+xml</dc:format>
        <dc:type
           rdf:resource="http://purl.org/dc/dcmitype/StillImage" />
        <dc:title>Cheetah Head</dc:title>
        <cc:license
           rdf:resource="http://creativecommons.org/licenses/by-nd/3.0/" />
        <dc:creator>
          <cc:Agent>
            <dc:title>Zaher Dirkey</dc:title>
          </cc:Agent>
        </dc:creator>
        <dc:subject>
          <rdf:Bag />
        </dc:subject>
        <dc:description>guid line based on
http://nature.ca/notebooks/english/cheetah_p1.htm</dc:description>
      </cc:Work>
      <cc:License
         rdf:about="http://creativecommons.org/licenses/by-nd/3.0/">
        <cc:permits
           rdf:resource="http://creativecommons.org/ns#Reproduction" />
        <cc:permits
           rdf:resource="http://creativecommons.org/ns#Distribution" />
        <cc:requires
           rdf:resource="http://creativecommons.org/ns#Notice" />
        <cc:requires
           rdf:resource="http://creativecommons.org/ns#Attribution" />
      </cc:License>
    </rdf:RDF>
  </metadata>
  <g
     inkscape:label="Layer 1"
     inkscape:groupmode="layer"
     id="layer1"
     style="display:inline"
     transform="translate(0,-1004.362)">
    <path
       style="fill:#ffcc00;display:inline"
       d="m 47.697236,1044.286 c -1.446051,-1.8429 -4.331008,-7.2222 -5.372653,-9.2205 -3.447961,-6.5653 -7.245032,-12.5989 -11.285384,-18.6323 -0.995304,-1.1847 -0.697625,-2.1494 -3.294725,-3.8249 -2.286938,-1.4753 -5.644671,-1.4048 -8.977848,-1.4432 l -0.407203,-0.018 c -5.483057,0.195 -8.4105601,1.6238 -12.4317299,4.9998 -0.2855103,0.2247 -0.4270593,0.6352 -0.3997708,1.1202 0.026934,0.4788 3.799e-4,0.6639 0.1523339,0.9837 -0.2879916,0.3573 -3.1689942,3.6629 -4.2406332,5.1689 -0.8344502,1.1725 -1.07459034,2.0431 -0.90974265,2.4625 0.18519236,0.7023 1.18553855,2.351 1.84140615,3.0489 0.055794,0.058 0.3485579,0.4375 0.5435983,0.5671 -0.1207367,0.114 1.470306,1.4188 1.9524103,1.5811 0.5248009,0.1767 1.0573793,0.5877 2.1241547,0.5664 2.6772256,-0.1214 5.8311032,-2.9405 8.1421392,-2.3093 5.07102,1.6074 4.604051,10.9419 4.678801,14.95 l 27.995022,0.041 z"
       id="path3127-0"
       inkscape:connector-curvature="0"
       sodipodi:nodetypes="cccccccccsccccccccc" />
    <path
       style="fill:url(#radialGradient5582);fill-opacity:1.0;stroke:none;display:inline"
       d="m 24.12557,1023.9581 c 1.086382,1.7306 1.445444,1.6673 0.970565,3.5635 -0.81093,3.2384 -4.988714,2.1247 -5.002935,3.1272 -0.04223,2.9768 8.506715,1.0389 9.304862,-2.034 0.589478,-2.2695 -2.235188,-6.7679 -5.272492,-4.6567 z"
       id="path3646-1-9-2"
       inkscape:connector-curvature="0"
       sodipodi:nodetypes="cssac" />
    <path
       style="fill:url(#linearGradient4057);fill-opacity:1.0;stroke:none;display:inline"
       d="m 0.86702109,1025.6741 c 1.82335631,-3.1293 5.25685981,-6.1595 6.41325161,-8.1865 0.7760925,-0.095 1.9599297,-0.055 1.7061251,0.3433 -0.6219018,0.976 -3.6357998,6.051 -5.1244422,8.2165 -0.8893909,0.3778 -2.96482285,0.5153 -2.99493451,-0.3733 z"
       id="path3646-1-9-9"
       inkscape:connector-curvature="0"
       sodipodi:nodetypes="ccscc" />
    <path
       style="fill:url(#linearGradient3991);fill-opacity:1.0;stroke:none;display:inline"
       d="m 20.451714,1044.3261 c 0,0 -0.333677,-0.801 -0.500254,-4.1683 -0.182993,-3.6995 -1.774249,-8.0646 -1.787321,-8.7513 0.0051,-0.6619 1.69317,-1.36 3.143711,-1.6523 6.252628,-1.3955 14.230662,15.0025 10.542072,14.5719 z"
       id="path3646-1-6"
       inkscape:connector-curvature="0"
       sodipodi:nodetypes="cscccc" />
    <path
       style="fill:url(#linearGradient4017);fill-opacity:1;stroke:none;display:inline"
       d="m 30.397094,1018.541 c 6.91443,2.6692 13.500918,21.7111 17.410318,25.7851 -4.928741,-8e-4 -10.258386,0 -14.78169,0.015 -1.1758,-0.015 -0.287552,-1.3325 0.09687,-1.9852 2.004394,-3.4033 -5.131142,-9.9599 -2.690956,-17.2564 0.522171,-1.5614 -3.013203,-1.8803 -2.853672,-2.6359 0.275743,-1.3065 1.695838,-2.1608 2.819112,-3.923 z"
       id="path3646-1-9-1"
       inkscape:connector-curvature="0"
       sodipodi:nodetypes="cccssscc" />
    <path
       style="opacity:0.88516750000000000;fill:url(#radialGradient5628);fill-opacity:1;stroke:none;display:inline"
       d="m 10.371168,1018.7135 c 2.664538,1.228 0.936456,-2.1209 3.803933,-3.0732 -0.392063,2.7363 -0.436702,4.1101 -1.331207,4.8598 -0.999672,0.8378 -2.374323,0.027 -3.5747019,0.106 -0.3616697,0.023 0.053764,-0.9728 1.1019759,-1.8935 z"
       id="path3646-1-8"
       inkscape:connector-curvature="0"
       sodipodi:nodetypes="ccsscc" />
    <path
       style="fill:url(#linearGradient3882);fill-opacity:1.0;stroke:none;display:inline"
       d="m 8.2498116,1014.4279 c 1.6548634,-1.4298 3.9202744,-2.259 7.2214994,-2.9458 8.068874,-1.1097 17.602983,1.0858 10.467471,5.7317 -1.220399,2.1686 0.607671,4.5866 -0.328121,3.0024 -1.111095,-1.881 -6.709358,-6.6213 -11.014587,-5.1488 -3.853427,1.318 -5.9554631,1.1333 -6.3462624,-0.6395 z"
       id="path3646-1-9"
       inkscape:connector-curvature="0"
       sodipodi:nodetypes="cccssc" />
    <path
       style="fill:#000000"
       d="m 42.312382,1040.3936 c 0.244262,-0.9382 1.803293,0.9476 1.825601,1.1792 0.0103,0.071 -0.05495,0.2935 -0.26278,0.1818 -0.343503,-0.1846 -0.953146,-0.7582 -1.345836,-0.5768 -0.571612,0.3425 -0.223227,-0.6977 -0.216985,-0.7842 z"
       id="path3750"
       inkscape:connector-curvature="0"
       sodipodi:nodetypes="ccscc" />
    <path
       style="fill:#000000"
       d="m 23.197691,1042.0175 c 0.522858,-0.7707 0.777115,-0.9256 0.39674,-0.2707 -0.08629,0.1486 -0.16233,0.3682 -0.285035,0.6221 -0.254656,0.6685 -0.63023,1.5924 -0.940025,1.5514 -0.540649,-0.072 -0.318353,-0.4629 0.82832,-1.9028 z"
       id="path3748"
       inkscape:connector-curvature="0"
       sodipodi:nodetypes="cscsc" />
    <path
       style="fill:#000000"
       d="m 36.175837,1038.1101 c -1.204127,0.1901 -1.660456,-1.0498 -0.705922,-1.9182 0.185786,-0.169 0.514583,0.047 0.357846,0.3186 -0.188791,0.3281 0.02419,0.5526 0.225662,0.3644 0.600106,-0.5603 1.408957,0.5893 0.727305,1.0229 -0.227196,0.1403 -0.441471,0.1865 -0.604891,0.2123 z m 3.313961,2.5874 c 0.225817,0.285 1.369799,2.1755 1.17375,2.3202 -0.239412,0.1763 -1.143834,-0.5483 -1.94105,-2.0403 -0.173621,-0.639 0.445021,-0.7229 0.7673,-0.2799 z m -1.994136,-2.0448 c 0.772093,0.042 1.666437,1.1163 1.226745,1.4896 -0.176845,0.15 -1.590461,0.1616 -1.014192,-0.1619 0.89105,-0.286 -0.949975,-1.1985 -0.212553,-1.3277 z m 0.626622,2.8709 c 0.37738,0.4655 -0.113914,0.3167 -0.466953,0.105 -0.8407,-0.1654 0.10418,0.9912 -0.786294,0.1979 -0.946602,-0.8565 -1.016948,-1.3862 -0.184125,-1.3862 0.804389,0.1596 1.078627,0.6449 1.437372,1.0833 z"
       id="path3744"
       inkscape:connector-curvature="0"
       sodipodi:nodetypes="cssscccscccsccccccc" />
    <path
       style="fill:#000000"
       d="m 40.801878,1039.2624 c -0.07445,-0.129 -0.482711,-0.3392 -0.569582,-0.2525 -0.103815,0.1038 -0.07786,0.4715 0.07229,0.6115 0.580211,0.5406 0.70993,0.011 0.497283,-0.359 z"
       id="path3742"
       inkscape:connector-curvature="0"
       sodipodi:nodetypes="scss" />
    <path
       style="fill:#000000"
       d="m 24.229008,1041.7497 c 0,-0.7162 0.191036,-1.0774 0.768849,-0.9902 2.61144,0.4547 -0.743978,3.1139 -0.768849,0.9902 z"
       id="path3740"
       inkscape:connector-curvature="0"
       sodipodi:nodetypes="ccc" />
    <path
       style="fill:#000000"
       d="m 24.864445,1041.2629 c -0.131626,-0.1316 -0.225247,0.1031 -0.208048,0.52 0.106743,0.9552 0.486724,-0.2146 0.208048,-0.52 z"
       id="path3738"
       inkscape:connector-curvature="0"
       sodipodi:nodetypes="ccc" />
    <path
       style="fill:#000000"
       d="m 32.607765,1040.9428 c 0.257403,0 0.357838,-0.1784 0.223189,-0.3962 -0.373166,-0.6038 0.0651,-0.4725 0.767578,0.2301 0.783126,0.8899 0.522911,1.0913 0.03551,1.014 -0.416247,-0.1548 -2.191652,-0.6624 -1.026272,-0.8479 z"
       id="path3736"
       inkscape:connector-curvature="0"
       sodipodi:nodetypes="csccc" />
    <path
       style="fill:#000000"
       d="m 21.867509,1040.2507 c 0.104761,-0.9259 0.19496,-1.9994 0.200439,-2.3852 0.07019,-1.4852 0.780382,-0.8218 0.834695,-0.6012 0.05755,0.2338 -0.08042,0.805 -0.08042,1.3497 0,0.6771 0.156525,0.9019 0.495143,0.7105 0.39611,-0.2234 0.39611,-0.1727 0,0.2541 -0.272332,0.2934 -0.488448,0.7206 -0.480267,0.9494 0.0083,0.2288 0.629406,-0.297 1.380504,-1.1685 0.751099,-0.8714 1.368277,-1.3616 1.371523,-1.0893 0.0065,0.572 -2.978418,3.664 -3.537543,3.664 -0.206414,0 0.749693,-1.6835 -0.184042,-1.6835 z"
       id="path3734"
       inkscape:connector-curvature="0"
       sodipodi:nodetypes="ccsssssscssc" />
    <path
       style="fill:#000000"
       d="m 29.998128,1039.6871 c -0.214962,-0.5644 -0.169461,-0.6098 0.221751,-0.2217 0.27071,0.2688 0.392421,0.5884 0.270452,0.7103 -0.12196,0.1219 -0.343443,-0.098 -0.492203,-0.4886 z"
       id="path3732"
       inkscape:connector-curvature="0"
       sodipodi:nodetypes="cccc" />
    <path
       style="fill:#000000"
       d="m 33.727363,1039.7794 c -0.364108,-0.225 -0.341759,-0.586 -0.03392,-0.7764 0.241128,-0.1489 0.441143,-0.037 0.444471,0.2476 0.0046,0.377 0.11103,0.356 0.390051,-0.074 0.230722,-0.3569 0.386408,-0.4059 0.39005,-0.1224 -0.151986,0.9959 -0.605065,1.0585 -1.190651,0.7253 z"
       id="path3730"
       inkscape:connector-curvature="0"
       sodipodi:nodetypes="cccccc" />
    <path
       style="fill:#000000"
       d="m 30.487131,1035.7028 c 0.245489,-0.2888 0.657344,-0.3081 0.516628,0.3726 0.356541,2.1767 1.609732,0.017 1.719743,1.0442 -0.05948,2.8385 -3.576511,0.3972 -2.236371,-1.4168 z"
       id="path3728"
       inkscape:connector-curvature="0"
       sodipodi:nodetypes="cccc" />
    <path
       style="fill:#000000"
       d="m 41.533758,1038.6877 c -0.258712,-0.4144 -0.758311,-0.6613 -1.137074,-0.5624 -0.373506,0.098 -0.780849,-0.097 -0.910989,-0.4365 -0.329341,-0.8583 0.203372,-1.0707 1.29382,-0.5158 1.078818,0.5492 2.331921,2.2535 1.656784,2.2535 -0.242591,0 -0.648735,-0.3326 -0.902541,-0.7388 z"
       id="path3726"
       inkscape:connector-curvature="0"
       sodipodi:nodetypes="ccccsc" />
    <path
       style="fill:#000000"
       d="m 24.568198,1037.2255 c -0.644475,-0.6444 -0.600752,-1.5052 0.07646,-1.5052 0.666007,0 1.190792,1.1887 0.728762,1.6506 -0.18143,0.1815 -0.543778,0.1163 -0.805222,-0.1454 z"
       id="path3724"
       inkscape:connector-curvature="0"
       sodipodi:nodetypes="cscc" />
    <path
       style="fill:#000000"
       d="m 33.553228,1036.6799 c -0.25826,-0.673 0.0888,-1.4306 0.655449,-1.4306 0.499552,0 0.477944,1.4728 -0.02619,1.7843 -0.345958,0.1744 -0.51921,-0.2917 -0.629257,-0.3537 z"
       id="path3722"
       inkscape:connector-curvature="0"
       sodipodi:nodetypes="cscc" />
    <path
       style="fill:#000000"
       d="m 27.26112,1038.1093 c -0.560415,-0.5603 -0.249165,-1.7164 0.462131,-1.7164 0.973836,0 1.207298,0.2925 0.967021,1.2115 -0.199074,0.7612 -0.918706,1.0154 -1.429152,0.5049 z"
       id="path3720"
       inkscape:connector-curvature="0"
       sodipodi:nodetypes="cscc" />
    <path
       style="fill:#000000"
       d="m 21.984148,1035.5248 c -0.0074,-0.899 0.775678,-2.0733 0.745593,-2.6033 -0.01414,-0.2491 -0.818104,0.9255 -1.050174,0.8951 -0.638255,-0.083 0.98033,-3.2694 -0.386501,-1.7269 -0.459354,0.5185 -1.025203,0.1315 -1.025203,-0.5303 0,-0.1944 0.174582,-0.2022 0.46344,-0.1224 0.409001,0.1129 0.283158,-0.3738 0.265615,-0.609 -0.08048,-0.9738 1.358135,-0.4316 1.226332,0.2489 -0.03692,0.1906 -0.100582,0.386 0.183622,0.3413 0.664755,-0.2703 0.179846,1.4756 0.576584,1.2561 0.496,-0.028 0.288886,1.068 -0.200088,2.8505 -0.110689,1.2157 -0.795484,1.0224 -0.79922,0 z"
       id="path3718"
       inkscape:connector-curvature="0"
       sodipodi:nodetypes="cssssscscccc" />
    <path
       style="fill:#000000"
       d="m 35.324588,1034.5205 c -0.573219,-0.527 -0.855871,-0.9968 0.196851,-1.0814 0.889989,-0.072 1.480508,0.4801 1.491574,1.383 0.0094,0.7568 -0.824553,0.4927 -1.688425,-0.3016 z"
       id="path3716"
       inkscape:connector-curvature="0"
       sodipodi:nodetypes="ssss" />
    <path
       style="fill:#000000"
       d="m 38.621927,1034.6895 c -0.361177,-0.3611 -0.389332,-1.5779 0.04391,-1.6822 0.436382,-0.2593 1.837403,1.1541 1.328814,1.1541 -0.27236,0 -0.385033,0.1782 -0.250384,0.3959 0.270543,0.4379 -0.702186,0.5523 -1.122337,0.1322 z"
       id="path3714"
       inkscape:connector-curvature="0"
       sodipodi:nodetypes="ccscc" />
    <path
       style="fill:#000000"
       d="m 25.004736,1033.0603 c 0.544805,0.097 0.444552,0.5796 0.944337,0.4489 0.520605,-0.1361 0.771378,-9e-4 0.771378,0.4152 0,0.7962 -0.519481,1.0915 -1.012431,0.6281 -0.248901,-0.2342 -0.396354,-0.099 -0.85401,0.092 -1.302728,0.2753 -1.195094,-1.6554 0.150726,-1.5845 z"
       id="path3712"
       inkscape:connector-curvature="0"
       sodipodi:nodetypes="cssscc" />
    <path
       style="fill:#000000"
       d="m 31.707909,1034.3749 c -0.161727,-0.4214 -0.04859,-0.8381 0.284101,-1.046 0.684673,-0.4283 1.0296,0.7014 0.404934,1.3262 -0.296292,0.2961 -0.499562,0.2136 -0.689035,-0.2802 z"
       id="path3710"
       inkscape:connector-curvature="0"
       sodipodi:nodetypes="cccc" />
    <path
       style="fill:#000000"
       d="m 37.203521,1033.0199 c -0.382239,-0.9961 -0.269473,-1.2532 0.197478,-0.4501 0.231213,0.3976 0.336934,0.8064 0.234947,0.9083 -0.101992,0.1032 -0.296577,-0.1036 -0.432425,-0.4582 z"
       id="path3708"
       inkscape:connector-curvature="0"
       sodipodi:nodetypes="cccc" />
    <path
       style="fill:#000000"
       d="m 27.627933,1032.0647 c 0.163116,-0.1003 0.322509,0.1609 0.354195,0.5815 0.0637,0.8458 -0.09324,0.9744 -0.36435,0.34 -0.20161,-0.2879 -0.217364,-0.883 0.0102,-0.9215 z"
       id="path3706"
       inkscape:connector-curvature="0"
       sodipodi:nodetypes="cccc" />
    <path
       style="fill:#000000"
       d="m 19.506915,1032.5957 c -0.01715,-0.9925 0.07646,-1.5486 0.208048,-1.2357 0.131624,0.3129 0.129655,1.4633 0.211117,1.8046 0.291758,0.9418 -0.359749,1.0822 -0.419165,-0.5689 z"
       id="path3704"
       inkscape:connector-curvature="0"
       sodipodi:nodetypes="cccc" />
    <path
       style="fill:#000000"
       d="m 24.840644,1032.0721 c -0.553105,-0.5531 -0.617897,-1.4959 -0.102816,-1.4959 0.19971,0 0.441288,0.223 0.536844,0.4954 0.09555,0.2722 0.177256,0.021 0.181553,-0.5578 0.0046,-0.5788 0.192784,-1.7102 0.868133,-2.3798 0.169869,-0.1686 0.382563,-0.3403 0.662403,-0.3454 1.950946,-0.018 1.134658,3.2699 -0.484927,1.9527 -0.785755,-0.5571 -0.957249,-0.5365 -0.378504,0.6807 0.626472,1.3176 -0.483403,2.4495 -1.282691,1.6501 z"
       id="path3702"
       inkscape:connector-curvature="0"
       sodipodi:nodetypes="ssscsccss" />
    <path
       style="fill:#000000"
       d="m 29.370337,1032.0399 c -0.453001,-0.28 -0.474931,-0.4625 -0.100532,-0.8369 0.374382,-0.3745 0.535555,-0.3311 0.738815,0.1985 0.330975,0.8627 0.09934,1.0941 -0.638282,0.6384 z"
       id="path3700"
       inkscape:connector-curvature="0"
       sodipodi:nodetypes="cccc" />
    <path
       style="fill:#000000"
       d="m 33.580076,1031.8145 c -0.397806,-1.0367 -0.278419,-1.3541 0.50941,-1.3541 0.905688,0 1.339891,0.9206 0.724429,1.5363 -0.608168,0.608 -0.949914,0.5577 -1.233839,-0.1822 z"
       id="path3698"
       inkscape:connector-curvature="0"
       sodipodi:nodetypes="cscc" />
    <path
       style="fill:url(#linearGradient5608);fill-opacity:1.0;stroke:none;display:inline"
       d="m 3.6274333,1030.1165 c -0.1492214,-0.3137 -0.2322941,-0.4325 0.6363652,-0.6598 1.1616699,1.105 5.8110075,-0.2227 8.5713805,-1.0369 1.962875,-0.5789 0.212907,-0.2014 3.044684,-1.2326 0.680702,1.0352 -0.9815,1.1236 -0.781067,1.8294 0.03914,0.1378 -0.373426,-0.044 -0.703202,0.071 -0.986714,0.3409 -2.333321,0.8769 -4.223631,1.5847 -3.6816376,1.3785 -4.5363689,0.6519 -6.5445297,-0.5546 z"
       id="path3646-1"
       inkscape:connector-curvature="0"
       sodipodi:nodetypes="ccscssscc" />
    <path
       style="fill:#000000"
       d="m 18.777602,1011.022 c -5.483057,0.1949 -8.8374335,1.6464 -12.8586028,5.0223 -0.2855112,0.2248 -0.5259592,0.7617 -0.4986717,1.2467 0.026929,0.4788 0.026145,0.642 0.1780971,0.9617 -0.2879918,0.3572 -3.1314502,3.6589 -4.2030891,5.1647 -0.83445066,1.1726 -1.12657129,2.0741 -0.96172371,2.4935 0.18519195,0.7022 1.14944891,2.1127 1.92344751,3.0277 0.7354435,0.8692 1.5556001,1.7521 2.5645967,2.2795 0.6335084,0.3313 1.3511095,0.5083 2.0659252,0.4987 2.8500121,-0.039 5.9526658,-2.8395 8.2636998,-2.2084 1.305955,0.3172 1.735921,1.0881 2.244023,2.0303 0.732896,1.3426 1.542394,2.5907 1.816589,4.9155 0.348378,2.9541 0.442152,7.5476 0.427433,7.8719 l 1.15433,0 c 0,0 -0.440049,-4.8296 -0.853546,-7.9431 -0.288555,-2.173 -1.206678,-3.7126 -1.548783,-4.7901 0.599371,-0.7846 0.559053,-0.9058 1.604193,-1.3008 -0.96885,-0.068 -2.315804,-0.1764 -3.383843,-0.6412 -0.501738,-0.2224 -0.767023,-0.5559 -1.81659,-0.6411 -1.751215,-0.152 -4.9979065,1.6657 -7.5513114,2.1728 -1.8181695,0.2616 -2.9799357,-0.663 -4.2743283,-1.7454 l -0.2493358,-0.2493 c 0.9293128,0.6005 1.3650015,0.5458 0.6767685,-0.1424 -0.8462413,-0.8463 -0.809392,-1.9169 0.1424776,-2.7784 0.4357271,-0.3944 0.7836269,-0.9555 0.7836269,-1.2824 0,-0.1628 -0.044868,-0.4187 -0.1068583,-0.3917 -0.097595,0.043 -0.2904612,0.1686 -0.7480073,0.5698 -0.5376942,0.4716 -0.712519,0.5139 -0.4986716,0.1426 0.2942075,-0.5109 0.2157134,-0.4996 -0.356194,-0.037 -0.3658434,0.2967 -0.931003,0.406 -1.246679,0.285 -0.48428985,-0.1859 -0.57473204,-0.6787 0.2493358,-1.8167 0.6111507,-0.85 0.9662464,-1.3489 1.5316341,-1.9945 0.5653967,-0.6457 2.1814135,-2.5385 2.849552,-3.4552 0.314357,-0.431 0.5136392,-0.4731 0.5699105,-0.7836 0.056254,-0.3106 -0.017483,-0.4662 0.035619,-0.9261 0.052752,-0.4598 0.2442316,-0.6156 0.676769,-0.7124 0.3674376,-0.1038 0.6055296,-0.2801 0.6055296,-0.5343 0,-0.2541 0.1021052,-0.3253 0.2493353,-0.1781 0.1472383,0.1473 0.4197559,-0.3437 0.9261046,-0.8192 0.5063588,-0.4758 1.2831468,-0.5108 1.2822988,-0.3562 0.469905,0.3469 1.314195,-0.7304 1.709731,-0.1425 0.1317,0.2131 0.753416,0.2878 1.389157,0.2137 0.556046,-0.087 1.337749,-0.2643 1.496015,-0.3918 -0.04141,-0.2179 -0.756011,-0.035 -1.424776,0 -0.886449,0.042 -1.150685,-0.064 -0.997343,-0.4631 0.11567,-0.3015 0.418937,-0.485 0.56991,-0.3918 0.360301,0.2226 1.415252,-0.3301 1.13982,-0.6055 0.822098,-0.2531 2.61294,-0.5791 2.956411,-0.4631 0.287263,0.9024 0.932191,0.5772 1.531634,0 0.367669,-0.012 0.71148,0 1.068582,0 -0.107313,0.9976 1.027766,0.613 0.463052,-0.034 0.686251,-0.018 1.369513,0.012 1.994686,0.071 -0.06981,0.093 -0.07124,0.2724 -0.07124,0.3918 0,0.3087 0.204351,0.4779 0.463053,0.3918 0.391471,-0.1305 0.572279,-0.3802 0.569911,-0.6055 0.2471,0.024 0.49996,0.08 0.712387,0.1424 -0.108841,0.1403 0.286664,0.3918 0.07125,0.5343 -0.83985,0.556 1.110691,0.3564 1.032962,-0.463 0.393663,0.036 0.807827,0.2035 1.246679,0.4274 -1.601178,0.439 -3.523321,1.9205 -2.457739,4.1319 -0.13684,0.2215 -0.440297,0.3242 -0.676768,0.1781 -0.244355,-0.151 -0.326846,-0.099 -0.178096,0.1424 0.143953,0.2329 0.273579,0.2459 0,0.3563 -0.586998,0.053 1.738403,3.7381 2.453284,5.4319 2.250471,1.2729 2.10353,-1.1706 2.782767,-1.6207 0.745525,-0.8323 1.418756,-1.61 1.959067,-2.4221 1.538732,0.8408 2.989188,2.0725 3.633178,3.5619 0.115321,0.4899 0.05497,0.9822 -0.142477,1.1042 -0.623891,0.3855 -0.352291,0.9618 0.427432,0.9618 0.486846,-0.012 0.764792,-0.4553 1.211061,-0.3562 0.281397,0.1503 0.343536,0.2299 0.391813,0.6412 0.110631,0.2166 -0.686363,0.9419 -1.923447,0.7479 -1.060543,-0.078 -1.657916,0.1082 -1.959068,0.4987 -0.317834,0.65 0.02759,1.1553 1.068582,0.748 0.270268,-0.1627 0.476336,-0.6516 1.032963,-0.6055 0.556608,0.046 0.668165,0.4808 0.997342,0.7124 0.362025,0.2546 1.552869,-0.393 1.887829,-0.2138 0.499865,0.3162 1.408451,1.9024 1.389157,2.2797 -0.01263,0.2473 -1.077331,1.1471 -1.424776,1.4604 -1.022713,0.8213 0.09088,1.2541 1.246678,0.5343 0.207483,-0.142 0.551747,0.011 0.498672,0.3561 -0.09112,0.5915 0.61064,0.2953 1.13982,0.1781 0.09724,-0.055 0.712715,1.0898 1.496016,2.529 -0.20942,0.077 -0.4519,0.2917 -0.498672,0.4988 -0.183008,0.8102 1.288357,1.0922 1.17544,2.2083 -0.163481,0.3465 0.204483,0.8505 0.569911,1.033 0.38777,0.1404 0.467622,0.1696 0.66094,0.1253 1.407569,2.5526 2.697562,5.3709 3.652967,6.5355 0.141373,0.012 0.796079,-0.013 1.029002,0 -1.446049,-1.843 -4.301265,-7.227 -5.342909,-9.2253 -3.406993,-6.4876 -7.162256,-12.4535 -11.148872,-18.4154 0.210246,-0.572 0.378621,-1.1666 0.463052,-1.8166 0.110152,-2.3321 -2.938484,-2.5532 -4.345567,-2.4577 -2.278376,-1.2354 -5.524327,-1.3531 -8.655524,-1.3891 z m -5.521007,5.3073 c -0.605088,0.037 -2.016155,0.4012 -2.671454,0.3918 -0.525962,0 -0.458264,1.3037 -0.6055301,1.8878 -2.7699543,2.2477 -3.1125559,3.6301 -2.5645967,5.521 0.2841176,0.9803 1.0079433,3.6117 0.9973432,4.1318 -0.010483,0.5201 -0.1410363,0.9098 -0.4986715,1.1755 -0.3576353,0.2657 -1.3891569,0.1424 -1.3891569,0.1424 -0.6252557,-0.056 -1.6552516,-0.2493 -1.8165894,-0.2493 -0.6052078,-0.01 -0.7729991,0.1003 -0.7480074,0.2138 0.015437,0.07 0.1123739,0.2912 0.5699104,0.3561 1.3933788,0.3164 2.8507232,0.7489 4.4524251,0.2494 0.6534693,-0.1781 3.2722893,-1.722 4.9510963,-2.0303 0.108932,-0.019 -0.07676,-0.1924 -0.391813,-0.3918 -0.338197,-0.2173 -0.821479,-0.2441 -1.211061,-0.035 -0.834344,0.4465 -2.6017461,-1.262 -2.137163,-2.0659 0.08237,-0.1427 0.14829,-0.2807 0.142478,-0.3206 -0.0061,-0.041 -0.08307,0.04 -0.178098,0.1068 -0.5185912,0.3688 -1.8449728,-2.6452 -1.4960143,-3.9181 0.2748131,-1.0024 1.4186473,-2.5435 2.3865003,-2.2797 0.386887,0.1047 0.814251,0.1426 1.068582,-0.037 0.717603,-0.4675 1.451516,-2.5842 1.424776,-2.7782 0.03788,-0.086 -0.08327,-0.083 -0.284956,-0.071 z"
       id="path3127"
       inkscape:connector-curvature="0"
       sodipodi:nodetypes="ccccccsccccsccccccccccccscccccccccccscccccccccccccccscccccccccccccccccccccccccccsccscccccccccccccccscccccccccccsccccc" />
    <path
       style="fill:#ffcc00"
       d="m 0.71074751,1026.063 c 0.12600844,0.1974 0.67218969,0.6099 0.91422839,0.7817 0.8261285,0.5863 1.4189167,1.9 1.098058,2.0718 -0.3819265,-0.309 -1.6119623,-2.1309 -2.01228639,-2.8535 z"
       id="path3125"
       inkscape:connector-curvature="0"
       sodipodi:nodetypes="cccc" />
    <path
       style="fill:#000000"
       d="m 33.63893,1027.1345 c -0.01735,0.2879 -0.05874,0.3644 -0.312762,0.2073 -0.25151,-0.1553 -0.362053,-0.088 -0.338076,0.1354 0.02101,0.1971 0.07268,0.4321 0.31161,0.8716 0.272692,0.5011 1.018922,1.0149 0.764066,0.042 -0.214163,-0.8525 0.895292,-0.3502 0.770259,-1.1015 -0.225171,-0.4005 -0.621805,0.1928 -0.781327,-0.2029 -0.153611,-0.2636 -0.441694,-0.2864 -0.41377,0.051 z"
       id="path3123"
       inkscape:connector-curvature="0"
       sodipodi:nodetypes="csssccccc" />
    <path
       style="fill:#000000"
       d="m 30.681594,1029.9295 c 0,-0.7635 0.90055,-1.4006 1.347666,-0.9534 0.431844,0.4318 0.246188,0.8641 -0.555437,1.293 -0.66491,0.3559 -0.792229,0.3013 -0.792229,-0.3396 z"
       id="path3688"
       inkscape:connector-curvature="0"
       sodipodi:nodetypes="sscs" />
    <path
       style="fill:#000000"
       d="m 9.2678469,1016.8363 c 0.4634955,-1.412 1.6333461,-1.9789 2.8665381,-2.3206 0.114836,0.1049 -0.365798,0.4536 -0.491565,0.7751 -1.090384,0.3284 -2.224792,1.7172 -2.3749731,1.5455 z"
       id="path3686"
       inkscape:connector-curvature="0"
       sodipodi:nodetypes="cccc" />
    <path
       style="fill:#000000"
       d="m 14.176923,1016.5717 c 0.338021,-0.6127 0.767551,0.8989 0.765679,1.3346 -0.05395,0.9283 -0.926463,-0.4433 -0.968257,-0.8514 -0.0097,-0.1491 0.202578,-0.4832 0.202578,-0.4832 z"
       id="path3682"
       inkscape:connector-curvature="0"
       sodipodi:nodetypes="sccs" />
    <path
       style="fill:#ffdd55"
       d="m 9.3650675,1027.7093 c 0.011286,-0.066 0.7624485,-0.174 0.8305505,-0.2412 -0.01614,-0.046 -0.222308,-0.019 -0.5080676,-0.011 -0.6648663,0.034 -0.9264293,0.2568 -0.4421849,0.5091 0.3107478,0.1784 0.8763665,0.2851 0.9390015,0.2618 -0.2994843,-0.106 -0.878597,-0.431 -0.8192995,-0.5209 z"
       id="path3680"
       inkscape:connector-curvature="0"
       sodipodi:nodetypes="ccccccc" />
    <path
       style="fill:#000000"
       d="m 22.972536,1028.8391 c -0.12753,-0.3325 -0.05469,-0.6042 0.161974,-0.6042 0.21773,0 0.227644,-0.6235 -0.331861,-1.0346 -0.628714,-0.4621 -0.409655,-1.2377 0.746591,-1.068 1.076779,0.158 1.695424,1.3104 0.708631,1.3104 -0.241173,0 -0.340889,0.2543 -0.221604,0.5653 0.119283,0.3107 0.128684,0.7281 -0.155278,0.9726 -0.281749,0.2426 -0.734897,0.3108 -0.908453,-0.1415 z"
       id="path3676"
       inkscape:connector-curvature="0"
       sodipodi:nodetypes="ssssscss" />
    <path
       style="fill:#000000"
       d="m 20.676054,1027.6651 c 0.373248,-0.6974 0.540248,-0.7646 0.816667,-0.328 0.576841,0.9108 0.417303,2.1992 -0.272333,2.1992 -1.038049,-0.094 -0.856496,-1.2655 -0.544334,-1.8712 z"
       id="path3672"
       inkscape:connector-curvature="0"
       sodipodi:nodetypes="cscc" />
    <path
       style="fill:#000000"
       d="m 34.533055,1029.3855 c 0,-0.3268 0.147556,-0.5941 0.474355,-0.5941 0.326788,0 0.507025,0.2673 0.507025,0.5941 0,0.3268 0.02673,0.6159 -0.300057,0.6159 -0.326798,0 -0.681323,-0.2891 -0.681323,-0.6159 z"
       id="path3668"
       inkscape:connector-curvature="0"
       sodipodi:nodetypes="sssss" />
    <path
       style="fill:#000000"
       d="m 35.978562,1028.7588 c -0.08714,-0.927 0.682737,-1.079 0.908167,-0.217 0.133507,0.5104 0.0099,0.7877 -0.351078,0.7877 -0.3064,0 -0.527715,-0.2583 -0.557089,-0.5707 z"
       id="path3666"
       inkscape:connector-curvature="0"
       sodipodi:nodetypes="scss" />
    <path
       style="fill:#000000"
       d="m 17.223878,1027.6245 c -0.66623,-0.8917 -0.330145,-1.6363 0.615824,-1.5041 0.636311,0.088 0.847126,-0.094 0.851479,-0.608 -0.119561,-0.4934 0.153876,-0.6295 0.452999,-0.1567 0.200153,0.3164 0.240589,0.773 0.06159,0.9385 -0.239387,0.2214 -0.119307,0.2729 0.238333,0.1117 0.573426,-0.3546 1.034164,0.5029 0.54164,0.9955 -0.252009,0.2519 -0.639984,0.2015 -1.036222,-0.1948 -1.013764,-1.0485 -0.483718,0.1236 -0.672308,0.5851 -0.139442,0.3414 -0.743555,0.1675 -1.053346,-0.1671 z"
       id="path3664"
       inkscape:connector-curvature="0"
       sodipodi:nodetypes="cscsscscscc" />
    <path
       style="fill:#000000"
       d="m 23.319918,1023.8975 c -0.156524,-0.3329 0.02866,-0.6878 0.393615,-0.6878 0.388767,0 0.726316,0.3736 0.376606,0.7923 -0.460193,0.5509 -0.03091,0.792 0.433209,0.792 0.352203,0 0.623397,0.1853 0.640361,0.4101 0.05647,0.7486 0.283788,0.5125 0.792228,-0.013 0.343397,-0.3555 0.532372,-0.2855 0.825244,-0.3109 1.024704,-0.088 1.088003,1.6582 0.15419,1.706 -0.248844,0.013 -0.370519,-0.052 -0.663749,-0.3438 -0.29322,-0.2931 -0.920855,-0.4739 -1.394734,-0.4015 -0.964879,0.085 -1.594715,-0.4453 -1.276387,-0.842 0.337482,-0.6345 -0.07906,-0.7006 -0.280583,-1.1008 z m -2.539853,-0.6149 c -0.978084,-1.2904 -1.446706,-3.1508 -0.673429,-2.8543 0.280663,0.1072 0.401699,0.4901 0.271162,0.8553 -0.129881,0.3632 -0.09368,0.5315 0.08049,0.3738 0.30686,-0.2775 1.571114,1.5523 2.045268,2.9604 0.258399,0.9356 -0.124938,0.9162 -0.411178,0.7197 -0.455544,-0.7348 -0.878318,-1.4006 -1.312317,-2.0549 z"
       id="path3662"
       inkscape:connector-curvature="0"
       sodipodi:nodetypes="cssssssssccccsccccc" />
    <path
       id="path3660"
       style="fill:#000000"
       d="m 4.9383392,1026.4788 c 1.5371172,0.062 1.8340059,-0.2872 1.8340059,-0.2872 0,0 0.2505067,-0.5499 0.41071,-0.1329 0.1583683,0.4126 -0.2033344,0.5671 -1.4302943,0.611 -1.2086635,0.045 -1.967398,-0.099 -1.2774738,-0.1649 z"
       inkscape:connector-curvature="0"
       sodipodi:nodetypes="cccccc" />
    <path
       style="fill:#000000"
       d="m 15.644374,1025.938 c -0.01714,-0.4175 0.156578,-0.6514 0.28818,-0.5198 0.704417,0.7126 -0.174851,1.3774 -0.28818,0.5198 z"
       id="path3656"
       inkscape:connector-curvature="0"
       sodipodi:nodetypes="ccc" />
    <path
       style="fill:#000000"
       d="m 29.828012,1023.0559 c -0.346543,-1.8298 0.724539,-1.6911 1.094866,-0.3197 0.144663,0.9137 0.927791,1.4944 0.84955,1.906 -0.184946,0.9728 -1.609023,0.5834 -1.944416,-1.5863 z"
       id="path3654"
       inkscape:connector-curvature="0"
       sodipodi:nodetypes="ccsc" />
    <path
       style="fill:#000000"
       d="m 20.224558,1025.1584 c -0.272113,-0.4359 -0.350635,-0.7924 -0.174498,-0.7924 0.412653,0 1.270911,0.856 1.270911,1.2676 0,0.5837 -0.596604,0.3251 -1.096413,-0.4752 z"
       id="path3650"
       inkscape:connector-curvature="0"
       sodipodi:nodetypes="ssss" />
    <path
       style="fill:#000000"
       d="m 16.960971,1024.3343 c -0.111954,-0.2916 -0.109286,-0.6245 0.0056,-0.74 0.280558,-0.2805 1.320377,0.1355 1.320377,0.5282 0.01275,0.8487 -1.237964,0.6345 -1.325962,0.2118 z"
       id="path3646"
       inkscape:connector-curvature="0"
       sodipodi:nodetypes="cccc" />
    <path
       style="fill:#000000"
       d="m 31.755185,1023.4095 c 0,-0.1742 0.208054,-0.5249 0.46235,-0.7791 0.352389,-0.3524 0.305293,-0.5225 -0.198059,-0.7159 -0.363225,-0.1392 -0.660412,-0.5016 -0.660412,-0.8051 0,-0.6552 0.203751,-0.6825 1.181387,-0.1593 0.633371,0.3388 0.671928,0.5547 0.283224,1.5843 -0.412673,1.0934 -1.06849,1.6306 -1.06849,0.8751 z"
       id="path3640"
       inkscape:connector-curvature="0"
       sodipodi:nodetypes="sccsccs" />
    <path
       style="fill:#000000"
       d="m 17.98654,1020.2108 c 0.249004,-0.052 0.404843,0.1926 0.346311,0.5398 -0.05855,0.3471 0.147027,1.033 0.456801,1.5242 0.612282,0.9707 1.336231,1.7957 0.493041,1.2134 -0.735071,-0.7456 -1.939769,-3.0755 -1.296153,-3.2774 z"
       id="path3880"
       inkscape:connector-curvature="0"
       sodipodi:nodetypes="ccccc" />
    <path
       style="fill:#000000"
       d="m 16.362402,1021.7439 c 0.369718,0.737 0.338841,0.8913 -0.178342,0.8911 -0.344008,-2e-4 -0.574195,-0.2231 -0.511515,-0.4954 0.06271,-0.2723 -0.06308,-0.4952 -0.279469,-0.4952 -0.216384,-10e-5 -0.348931,0.1334 -0.29455,0.297 0.19557,0.5876 -0.614003,0.2825 -0.844175,-0.3182 -0.129577,-0.3381 -0.07175,-0.5135 0.128507,-0.3896 0.200244,0.124 0.42622,-0.095 0.608243,-0.2576 0.593754,-0.444 0.977718,0.217 1.371301,0.7679 z"
       id="path3638"
       inkscape:connector-curvature="0"
       sodipodi:nodetypes="cccccsccc" />
    <path
       style="fill:#000000"
       d="m 28.259817,1023.2891 c 0,-0.218 0.156464,-0.4289 0.374332,-0.4289 0.217859,0 0.39611,0.1783 0.39611,0.3961 0,0.2179 -0.0041,0.5596 -0.221822,0.5596 -0.217867,0 -0.54862,-0.3089 -0.54862,-0.5268 z"
       id="path3636"
       inkscape:connector-curvature="0"
       sodipodi:nodetypes="sssss" />
    <path
       style="fill:#000000"
       d="m 22.180658,1022.0916 c -0.118483,-0.3089 0.02047,-0.652 0.308898,-0.7628 0.357959,-0.1373 0.49667,0.1129 0.360527,0.6327 -0.238008,0.9102 -0.383942,0.874 -0.669425,0.1301 z"
       id="path3634"
       inkscape:connector-curvature="0"
       sodipodi:nodetypes="cccc" />
    <path
       style="fill:#000000"
       d="m 13.995233,1019.4881 c 0.353429,0.566 0.330579,0.9677 -0.107553,0.9677 -0.893623,-0.032 -0.196601,-1.6021 0.107553,-0.9677 z"
       id="path3628"
       inkscape:connector-curvature="0"
       sodipodi:nodetypes="ccc" />
    <path
       style="fill:#000000"
       d="m 22.644548,1019.7654 c -0.233185,-0.4357 -0.334855,-0.7924 -0.225928,-0.7924 0.108934,0 0.388854,0.3567 0.622049,0.7924 0.233195,0.4357 0.334865,0.7922 0.225927,0.7922 -0.108932,0 -0.388852,-0.3565 -0.622048,-0.7922 z"
       id="path3626"
       inkscape:connector-curvature="0"
       sodipodi:nodetypes="cscsc" />
    <path
       style="fill:#000000"
       d="m 20.143515,1018.7465 c -0.635308,-0.5084 -0.983307,-1.0305 -0.773315,-1.1605 0.489556,-0.3025 1.008383,0.077 1.634699,1.1974 0.619492,1.1074 0.566135,1.1052 -0.861384,-0.037 z"
       id="path3624"
       inkscape:connector-curvature="0"
       sodipodi:nodetypes="ccccc" />
    <path
       style="fill:#000000"
       d="m 16.098314,1017.8524 c -0.481506,-0.58 -0.208196,-1.0485 0.611875,-1.0485 0.590082,0 0.723055,1.0211 0.176913,1.3586 -0.193173,0.12 -0.548134,-0.02 -0.788788,-0.3101 z"
       id="path3622"
       inkscape:connector-curvature="0"
       sodipodi:nodetypes="cscc" />
    <path
       style="fill:#000000"
       d="m 17.495068,1019.3925 c 0,-0.205 0.176212,-0.4815 0.391582,-0.6147 0.224536,-0.1388 0.290943,0.02 0.155676,0.3728 -0.263332,0.6862 -0.547258,0.8118 -0.547258,0.2419 z"
       id="path3620"
       inkscape:connector-curvature="0"
       sodipodi:nodetypes="sccs" />
    <path
       style="fill:#000000"
       d="m 7.6129825,1018.104 c 0.1579075,-0.3146 0.8150258,-0.8263 1.0961934,-0.7554 0.02047,0.04 -0.5884245,0.3099 -0.6001728,0.7979 -0.00835,0.3356 -0.5660698,0.6006 -0.6426951,0.5561 -0.056721,-0.033 0.068246,-0.4425 0.1466745,-0.5986 z"
       id="path3616"
       inkscape:connector-curvature="0"
       sodipodi:nodetypes="scsss" />
    <path
       style="fill:#000000"
       d="m 17.891176,1016.5926 c 0,-0.2308 0.178252,-0.4195 0.396121,-0.4195 0.217859,0 0.396118,0.078 0.396118,0.1747 0,0.096 -0.178259,0.2848 -0.396118,0.4196 -0.217869,0.1344 -0.396121,0.056 -0.396121,-0.1748 z"
       id="path3610"
       inkscape:connector-curvature="0"
       sodipodi:nodetypes="ssscs" />
    <path
       style="fill:#000000"
       d="m 13.338677,1015.0164 c -0.13878,-0.2246 0.02018,-0.2908 0.372733,-0.1556 0.686231,0.2633 0.811789,0.5473 0.242012,0.5473 -0.205014,0 -0.481645,-0.1762 -0.614745,-0.3917 z"
       id="path3606"
       inkscape:connector-curvature="0"
       sodipodi:nodetypes="ccsc" />
    <path
       style="fill:#000000"
       d="m 18.672959,1014.9254 c 0.321994,-0.1347 0.435801,-0.342 0.02008,-0.463 -0.229184,-0.064 -0.350147,-0.318 0.133157,-0.3397 0.381262,-0.017 0.693204,0.236 0.693204,0.5627 0,0.3269 -0.311942,0.5916 -0.693204,0.5884 -0.542499,-0.012 -0.368276,-0.2944 -0.15324,-0.3484 z"
       id="path3604"
       inkscape:connector-curvature="0"
       sodipodi:nodetypes="cccscc" />
    <path
       style="fill:#000000"
       d="m 21.564154,1013.638 c -0.13465,-0.2181 0.033,-0.3963 0.372732,-0.3963 0.339653,0 0.617558,0.1782 0.617558,0.3963 0,0.2177 -0.16774,0.396 -0.372735,0.396 -0.205012,0 -0.482906,-0.1783 -0.617555,-0.396 z"
       id="path3602"
       inkscape:connector-curvature="0"
       sodipodi:nodetypes="csssc" />
    <path
       style="fill:#000000"
       d="m 16.018553,1014.1884 c 0.13465,-0.2177 0.501664,-0.3961 0.815607,-0.3961 0.313931,0 0.570792,0.1784 0.570792,0.3961 0,0.218 -0.367025,0.3962 -0.815607,0.3962 -0.448582,0 -0.705442,-0.1782 -0.570792,-0.3962 z"
       id="path3600"
       inkscape:connector-curvature="0"
       sodipodi:nodetypes="csssc" />
    <path
       style="fill:#000000"
       d="m 18.626286,1013.0831 c 0.271457,-0.4392 1.335574,-0.3934 1.335574,0.057 0,0.2044 -0.344143,0.3456 -0.764773,0.3139 -0.482751,0.052 -0.658175,-0.3 -0.570801,-0.3708 z"
       id="path3598"
       inkscape:connector-curvature="0"
       sodipodi:nodetypes="cscc" />
    <path
       style="fill:#000000"
       d="m 15.72105,1012.7571 c 0.386488,-0.2361 0.972263,-0.457 1.301864,-0.3894 0.559605,0.1139 0.205714,0.6412 -0.361888,0.5385 -0.142987,-0.025 -0.554994,0.061 -0.915627,0.1936 -0.626861,0.1681 -0.178481,-0.2485 -0.02435,-0.3427 z"
       id="path3596"
       inkscape:connector-curvature="0"
       sodipodi:nodetypes="scccs" />
    <path
       id="path3660-1"
       style="fill:#000000"
       d="m 4.4211966,1027.7717 c 0.8266909,0.097 2.9113831,-0.4163 3.1027206,-0.091 -0.2334465,0.1811 -1.007901,0.3006 -2.2348608,0.3445 -1.2086635,0.044 -0.8678598,-0.8853 -0.8678598,-0.2537 z"
       inkscape:connector-curvature="0"
       sodipodi:nodetypes="ccssc" />
    <path
       style="fill:#000000"
       d="m 28.278625,1027.2212 c -0.459639,-0.6216 -0.204357,-1.904 0.37904,-1.904 0.798731,0 0.990215,0.3246 0.793143,1.3437 -0.163284,0.8443 -0.753515,1.1265 -1.172183,0.5603 z"
       id="path3720-1"
       inkscape:connector-curvature="0"
       sodipodi:nodetypes="ssss" />
    <path
       inkscape:connector-curvature="0"
       style="fill:#000000"
       d="m 13.434697,1025.2541 c -0.127641,-0.4216 -0.02453,-0.8658 0.238064,-1.0739 0.540378,-0.428 0.950983,0.6325 0.45796,1.2571 -0.23385,0.2963 -0.546481,0.3104 -0.696024,-0.1832 z"
       id="path3710-7"
       sodipodi:nodetypes="cssc" />
    <path
       style="fill:url(#linearGradient3898);fill-opacity:1.0;stroke:none"
       d="m 22.904616,1017.924 c 1.042862,0.038 1.949779,-1.0563 1.584739,-1.9711 -0.579871,-1.4529 0.364672,-2.5143 2.948093,-2.4476 1.451127,0.038 1.860224,0.4675 1.568712,1.5822 -0.293209,1.1213 -0.942062,1.1441 -1.230627,0.042 -0.203459,-0.7783 -0.279239,-0.7461 -0.973682,0.4868 -0.415806,0.7381 -0.667241,1.0369 -0.554458,0.6626 0.270216,-0.8968 -0.222373,-1.1556 -0.865496,-0.4598 -0.280919,0.304 -0.333735,0.5545 -0.121711,0.5545 0.608539,0 0.09196,1.9906 -0.865496,3.3266 -0.559815,1.3775 0.964225,0.8229 0.581506,0.5876 -0.128106,-0.078 -0.399648,-0.1407 -0.256945,-0.3711 0.163973,-0.2653 0.454377,-0.1556 0.797879,0.2975 0.500451,0.6602 0.556384,0.6539 0.567981,0.026 0.0086,-0.4678 0.213541,-0.605 0.662646,-0.4327 0.549876,0.211 0.605272,0.078 0.365131,-0.8925 -0.187588,-0.7588 -0.148107,-1.0177 0.108192,-0.7573 0.158974,0.1614 0.611477,1.661 0.833892,1.2608 0.366793,-1.4198 1.098085,-3.4515 1.870782,-3.4515 0.312981,0 0.459211,-0.1745 0.324561,-0.3923 -0.134645,-0.2179 -0.07509,-0.3922 0.135233,-0.3922 1.054192,-1.4417 -0.912896,-2.1072 -2.291226,-2.2891 0.196684,-0.1106 1.549345,0.1071 2.101899,0.3554 2.92126,1.1987 -1.696099,7.7465 -3.015712,7.7757 -0.27038,-0.089 -0.722416,0.073 -1.014253,0.3652 -0.291835,0.2918 -0.692244,0.4349 -0.892542,0.3111 -0.200301,-0.1238 -0.352149,0 -0.196342,0.1893 0.431277,0.6786 1.795611,-0.3761 1.417598,0.7375 -0.457767,0.3471 -1.077879,-0.2486 -1.005381,0.1823 -0.892346,-1.6049 -1.904293,-3.2679 -2.584973,-4.8863 z"
       id="path3644-1"
       inkscape:connector-curvature="0"
       sodipodi:nodetypes="csssssssscssssccccsccccccccccc" />
    <path
       style="fill:#d4aa00;fill-opacity:1;stroke:none"
       d="m 11.753871,1017.1143 c 0.431609,0.3269 0.488953,1.128 0.03064,1.5197 -0.287525,0.2459 -0.609126,0.1252 -0.739327,-0.3752 -0.163495,-0.6282 0.1085,-1.1141 0.384797,-1.1694 0.09575,0.4085 0.07057,1.1696 0.08532,1.4038 0.159249,-0.3485 0.227162,-1.0849 0.238565,-1.3789 z"
       id="path3151"
       inkscape:connector-curvature="0"
       sodipodi:nodetypes="cssccc" />
    <path
       style="fill:#ffcc00;fill-opacity:1;stroke:none"
       d="m 11.207437,1017.6148 c -6.11e-4,-0.093 -0.0049,-0.2081 0.071,-0.218 0.04486,-0.01 0.07303,0.021 0.07373,0.1141 7.68e-4,0.091 0.0049,0.208 -0.071,0.2179 -0.04487,0.01 -0.07427,-0.024 -0.07374,-0.114 z"
       id="path3154"
       inkscape:connector-curvature="0"
       sodipodi:nodetypes="casacc" />
    <path
       inkscape:connector-curvature="0"
       style="fill:#000000;display:inline"
       d="m 42.679293,1043.2658 c -0.127641,-0.4215 -0.02453,-0.8657 0.238064,-1.0738 0.540378,-0.4281 0.950984,0.6325 0.457961,1.2571 -0.233851,0.2963 -0.546482,0.3105 -0.696025,-0.1833 z"
       id="path3710-7-1"
       sodipodi:nodetypes="cssc" />
    <path
       style="fill:#000000;display:inline"
       d="m 30.876638,1043.013 c -0.118483,-0.3088 0.02047,-0.6519 0.308898,-0.7626 0.357958,-0.1374 0.461052,0.042 0.324908,0.5613 -0.238009,0.9102 -0.348322,0.9453 -0.633806,0.2013 z"
       id="path3634-7"
       inkscape:connector-curvature="0"
       sodipodi:nodetypes="cccc" />
    <path
       style="fill:#000000;display:inline"
       d="m 35.827328,1042.9057 c -0.394243,-0.1233 -0.407136,0.198 -0.237624,0.352 0.352585,0.2356 0.11136,0.4865 -0.31222,0.2526 -0.334021,-0.1846 -0.467938,-0.5631 -0.297344,-0.8419 0.170658,-0.2787 0.574895,-0.3414 0.898347,-0.1396 0.456345,0.2935 0.201708,0.456 -0.05116,0.3769 z"
       id="path3604-4"
       inkscape:connector-curvature="0"
       sodipodi:nodetypes="cccscc" />
    <path
       style="fill:#000000;display:inline"
       d="m 28.863007,1033.9774 c 0.283039,0.014 0.383947,0.2205 0.224178,0.4568 -0.0082,0.2252 0.219921,0.2004 0.331936,0.1614 0.392959,-0.1618 0.615254,-0.043 0.456717,0.1928 -0.33418,0.6988 -1.114294,1.0603 -1.458387,-0.011 -0.02165,-0.3173 0.07709,-0.7251 0.445556,-0.7996 z"
       id="path3730-1"
       inkscape:connector-curvature="0"
       sodipodi:nodetypes="cccccc" />
    <path
       style="fill:#000000;display:inline"
       d="m 28.692682,1040.9948 c -0.371438,0.1807 -0.160374,0.4233 0.0686,0.4192 0.418157,-0.07 0.414695,0.2774 -0.05385,0.3979 -0.369618,0.095 -0.726825,-0.088 -0.793909,-0.4085 -0.06703,-0.3199 0.183972,-0.6429 0.557788,-0.7179 0.533371,-0.099 0.459547,0.1933 0.221383,0.3093 z"
       id="path3604-4-7"
       inkscape:connector-curvature="0"
       sodipodi:nodetypes="cccscc" />
  </g>
  <g
     inkscape:groupmode="layer"
     id="layer2"
     inkscape:label="Main"
     style="display:inline"
     transform="translate(0,-1004.362)" />
</svg>
