<?xml version="1.0" standalone="no"?>
<!-- Generator: OCAD Versio 10.4.12 -->
<!DOCTYPE svg PUBLIC "-//W3C//DTD SVG 20010904//EN"
"http://www.w3.org/TR/2001/REC-SVG-20010904/DTD/svg10.dtd" [
<!ENTITY stR "stroke-linejoin:round;stroke-linecap:round">
<!ENTITY stB "stroke-linejoin:bevel">
]>
<svg id="mainMap" width="16.3845cm" height="9.3570cm" viewBox="0 0 163.8450 93.5700" style="fill:none;stroke-width:0;fill-rule:evenodd" xmlns:xlink="http://www.w3.org/1999/xlink" xmlns="http://www.w3.org/2000/svg" >
<desc>Map</desc>
<g id="scaleTransform" transform="scale(1.50000000)">
<g id="mainMapContent">
<!-- map fill color -->
<rect id="mapBg" x="-100%" y="-100%" width="200%" height="200%" fill="white" />
<g id="nivel3">
<clipPath id="Clip" fill="none" stroke="none">
<rect x="0" y="0" width="109.2300" height="62.3800" fill="none" />
</clipPath>
<g clip-path="url(#Clip)" id="nivel4">
<g opacity="1.00" id="nivel5.1">
</g>
<g opacity="1.00">
</g>
<g id="701.0 L\344ht\366 17" >
<g stroke="rgb(204,0,255)">
<g stroke-width="0.35"
style="&stR;"
>
<path 
d="M14.22,7.41
L7.96,10.51
L8.42,3.50
L14.22,7.41
L7.96,10.51
" />
</g>
</g>
</g>
<g id="702.0 Rasti 17" >
<g stroke="rgb(204,0,255)">
<g stroke-width="0.35"
style="&stR;"
>
<path 
d="M35.01,8.95
C35.01,10.51 36.27,11.77 37.83,11.77
C39.38,11.77 40.65,10.51 40.65,8.95
C40.65,7.40 39.38,6.13 37.83,6.13
C36.27,6.13 35.01,7.40 35.01,8.95
" />
</g>
<g stroke-width="0.35"
style="&stR;"
>
<path 
d="M42.46,17.54
C42.46,19.10 43.72,20.36 45.28,20.36
C46.83,20.36 48.10,19.10 48.10,17.54
C48.10,15.99 46.83,14.72 45.28,14.72
C43.72,14.72 42.46,15.99 42.46,17.54
" />
</g>
<g stroke-width="0.35"
style="&stR;"
>
<path 
d="M33.90,36.92
C33.90,38.48 35.16,39.74 36.72,39.74
C38.27,39.74 39.54,38.48 39.54,36.92
C39.54,35.37 38.27,34.10 36.72,34.10
C35.16,34.10 33.90,35.37 33.90,36.92
" />
</g>
<g stroke-width="0.35"
style="&stR;"
>
<path 
d="M31.96,22.84
C31.96,24.40 33.22,25.66 34.78,25.66
C36.33,25.66 37.60,24.40 37.60,22.84
C37.60,21.29 36.33,20.02 34.78,20.02
C33.22,20.02 31.96,21.29 31.96,22.84
" />
</g>
<g stroke-width="0.35"
style="&stR;">
<path 
d="M25.13,15.13
C25.13,16.69 26.39,17.95 27.95,17.95
C29.50,17.95 30.77,16.69 30.77,15.13
C30.77,13.58 29.50,12.31 27.95,12.31
C26.39,12.31 25.13,13.58 25.13,15.13
" />
</g>
<g stroke-width="0.35"
style="&stR;"
>
<path 
d="M11.70,24.35
C11.70,25.91 12.96,27.17 14.52,27.17
C16.07,27.17 17.34,25.91 17.34,24.35
C17.34,22.80 16.07,21.53 14.52,21.53
C12.96,21.53 11.70,22.80 11.70,24.35
" />
</g>
</g>
</g>
<g opacity="1.00">
</g>
</g>
</g>
</g>
</g>
</svg>
