/* XPM */
static char * hammer_xpm[] = {
"162 39 88 1",
" 	c None",
".	c #050904",
"+	c #010100",
"@	c #0D1009",
"#	c #4C4C42",
"$	c #403F2F",
"%	c #474738",
"&	c #454448",
"*	c #151419",
"=	c #797865",
"-	c #918E72",
";	c #919071",
">	c #908E6D",
",	c #8E906D",
"'	c #91906E",
")	c #8C8B73",
"!	c #0B0B0A",
"~	c #876815",
"{	c #9D8116",
"]	c #1B1B13",
"^	c #8C8B6C",
"/	c #191512",
"(	c #0A0100",
"_	c #B07B13",
":	c #B08000",
"<	c #AC8102",
"[	c #AC7D03",
"}	c #8E9072",
"|	c #1D2119",
"1	c #9D800C",
"2	c #B17E02",
"3	c #302E25",
"4	c #575747",
"5	c #19190D",
"6	c #908E8F",
"7	c #150701",
"8	c #341C03",
"9	c #A57D15",
"0	c #06080A",
"a	c #6E705A",
"b	c #3C3C41",
"c	c #654A12",
"d	c #977722",
"e	c #1D1100",
"f	c #B28214",
"g	c #6A5313",
"h	c #9A770B",
"i	c #0B0A04",
"j	c #987716",
"k	c #382503",
"l	c #676767",
"m	c #292728",
"n	c #605E61",
"o	c #5A440A",
"p	c #030309",
"q	c #25251A",
"r	c #13130B",
"s	c #493407",
"t	c #432B05",
"u	c #949385",
"v	c #73735C",
"w	c #A68215",
"x	c #1B1B1B",
"y	c #755814",
"z	c #55595A",
"A	c #2C2C22",
"B	c #765C21",
"C	c #373735",
"D	c #676756",
"E	c #4D503D",
"F	c #48444A",
"G	c #7E806C",
"H	c #151914",
"I	c #9C8024",
"J	c #A48224",
"K	c #525252",
"L	c #62614D",
"M	c #5A4412",
"N	c #2E2D31",
"O	c #09050A",
"P	c #706E59",
"Q	c #926D16",
"R	c #201D17",
"S	c #706E64",
"T	c #3E4034",
"U	c #654B09",
"V	c #3C4040",
"W	c #0B0A11",
"                    .+@#$%%.++&                                          +              +                                          &++.%%$#@+.                    ",
"                 *.=-;>,''''';).!                                       +~{!          !{~+                                       !.);''''',>;-=.*                 ",
"               *]),;;;'';;;;;;'^-/                                     (_:<[(        ([<:_(                                     /-^';;;;;;'';;;,)]*               ",
"              +);;>;;;;;;;,,}%|+++                                    (1<:<2<(      (<2<:<1(                                    +++|%},,;;;;;;;>;;)+              ",
"            +3;;;;;;;;',}^4++]5+6                                    +[:::22_<7    7<_22:::[+                                    6+5]++4^},';;;;;;;;3+            ",
"           +);;;;;;;;;-+++=,})#++                                   .~:28+9:::<(  (<:::9+82:~.                                   ++#)},=+++-;;;;;;;;;)+           ",
"          0),;;;;;;;;;'a++++++b                                    @c22defgh:<<9  9<<:hgfed22c@                                    b++++++a';;;;;;;;;,)0          ",
"          +^;;;;;;;;;;;)+                                          i2:j([2:[:::[  [:::[:2[(j:2i                                          +);;;;;;;;;;;^+          ",
"         !);';;;;;;;;';;+                                         +:::+[<2:::::k  k:::::2<[+:::+                                         +;;';;;;;;;;';)!         ",
"    lmn  +^;;;;;;;;;;;;^+                                        .o:[(1<:::::::(  (:::::::<1([:o.                                        +^;;;;;;;;;;;;^+  nml    ",
"   pq^}r++^;;;;;;;;;;;;'+                      ++++0             (:[st:::::::2d&  &d2:::::::ts[:(             0++++                      +';;;;;;;;;;;;^++r}^qp   ",
"  +);^';}r+';;;;;;;;;;;'+                     +u;,^v+           +w[j([:::::::<(    (<:::::::[(j[w+           +v^,;u+                     +';;;;;;;;;;;'+r};'^;)+  ",
" +)^>;-;'-+);;;;;;;;;';}+                    +^';';')+         x72<+[<:::::::yz    zy:::::::<[+<27x         +)';';'^+                    +};';;;;;;;;;)+-';-;>^)+ ",
" i'-A}'';-)+;;;;;;;;;;;)*                   +);;;'';;+         ([2sB:::::<:<:(      (:<:<:::::Bs2[(         +;;'';;;)+                   *);;;;;;;;;;;+)-;''}A-'i ",
"CD',)+}>-;'+E';;;;;;;;;++                  F5';;;;'v'G0       +s<<([::::::::c        c::::::::[(<<s+       0G'v';;;;'5F                  ++;;;;;;;;;'E+';->}+),'DC",
"H)'-,;+-;;;%+;;;;;;;;')+I7+                +}';;;;'/--+       +[:e9::::::2:J0        0J:2::::::9e:[+       +--/';;;;'}+                +7I+)';;;;;;;;+%;;;-+;,-')H",
"KD''-;}+-;'-+L;;;;;'',+M2:f(N              5;;;;;;;+;-+      Og<:j:::::::::p          p:::::::::j:<gO      +-;+;;;;;;;5              N(f:2M+,'';;;;;L+-';-+};-''DK",
" P';;;')+^;;++,;;;;-v+o<:<::Q.            pG;;;;;;}+;-+      +::::::::::::(            (::::::::::::+      +-;+};;;;;;Gp            .Q::<:<o+v-;;;;,++;;^+)';;;'P ",
" R;;;;;;aS'-T+)PET.++w:2<:<<:[(           +;;;;;;;43>)+     +U::2::::::2<7              7<2::::::2::U+     +)>34;;;;;;;+           ([:<<:<2:w++.TEP)+T-'Sa;;;;;;R ",
" +;;;;;;;+-;G++V++W+[2<2:::::2<(          +;;;;;;;+-;G++V++W+[2<2:::::2<(                (<2:::::2<2[+W++V++G;-+;;;;;;;+          (<2:::::2<2[+W++V++G;-+;;;;;;;+ ",
" +;;;;;;;43>)+     +U::2::::::2<7         R;;;;;;aS'-T+)PET.++w:2<:<<:[(                  ([:<<:<2:w++.TEP)+T-'Sa;;;;;;R         7<2::::::2::U+     +)>34;;;;;;;+ ",
" pG;;;;;;}+;-+      +::::::::::::(        P';;;')+^;;++,;;;;-v+o<:<::Q.                    .Q::<:<o+v-;;;;,++;;^+)';;;'P        (::::::::::::+      +-;+};;;;;;Gp ",
"  5;;;;;;;+;-+      Og<:j:::::::::p      KD''-;}+-;'-+L;;;;;'',+M2:f(N                      N(f:2M+,'';;;;;L+-';-+};-''DK      p:::::::::j:<gO      +-;+;;;;;;;5  ",
"  +}';;;;'/--+       +[:e9::::::2:J0     H)'-,;+-;;;%+;;;;;;;;')+I7+                          +7I+)';;;;;;;;+%;;;-+;,-')H     0J:2::::::9e:[+       +--/';;;;'}+  ",
"  F5';;;;'v'G0       +s<<([::::::::c     CD',)+}>-;'+E';;;;;;;;;++                              ++;;;;;;;;;'E+';->}+),'DC     c::::::::[(<<s+       0G'v';;;;'5F  ",
"   +);;;'';;+         ([2sB:::::<:<:(     i'-A}'';-)+;;;;;;;;;;;)*                              *);;;;;;;;;;;+)-;''}A-'i     (:<:<:::::Bs2[(         +;;'';;;)+   ",
"    +^';';')+         x72<+[<:::::::yz    +)^>;-;'-+);;;;;;;;;';}+                              +};';;;;;;;;;)+-';-;>^)+    zy:::::::<[+<27x         +)';';'^+    ",
"     +u;,^v+           +w[j([:::::::<(     +);^';}r+';;;;;;;;;;;'+                              +';;;;;;;;;;;'+r};'^;)+     (<:::::::[(j[w+           +v^,;u+     ",
"      ++++0             (:[st:::::::2d&     pq^}r++^;;;;;;;;;;;;'+                              +';;;;;;;;;;;;^++r}^qp     &d2:::::::ts[:(             0++++      ",
"                        .o:[(1<:::::::(      lmn  +^;;;;;;;;;;;;^+                              +^;;;;;;;;;;;;^+  nml      (:::::::<1([:o.                        ",
"                         +:::+[<2:::::k           !);';;;;;;;;';;+                              +;;';;;;;;;;';)!           k:::::2<[+:::+                         ",
"                          i2:j([2:[:::[            +^;;;;;;;;;;;)+                              +);;;;;;;;;;;^+            [:::[:2[(j:2i                          ",
"                          @c22defgh:<<9            0),;;;;;;;;;'a++++++b                  b++++++a';;;;;;;;;,)0            9<<:hgfed22c@                          ",
"                           .~:28+9:::<(             +);;;;;;;;;-+++=,})#++              ++#)},=+++-;;;;;;;;;)+             (<:::9+82:~.                           ",
"                            +[:::22_<7               +3;;;;;;;;',}^4++]5+6              6+5]++4^},';;;;;;;;3+               7<_22:::[+                            ",
"                             (1<:<2<(                  +);;>;;;;;;;,,}%|+++            +++|%},,;;;;;;;>;;)+                  (<2<:<1(                             ",
"                              (_:<[(                    *]),;;;'';;;;;;'^-/            /-^';;;;;;'';;;,)]*                    ([<:_(                              ",
"                               +~{!                       *.=-;>,''''';).!              !.);''''',>;-=.*                       !{~+                               ",
"                                +                            .+@#$%%.++&                  &++.%%$#@+.                            +                                "};
