/* XPM */
static char * hurt_xpm[] = {
"90 64 226 2",
"  	c None",
". 	c #000000",
"+ 	c #080000",
"@ 	c #180000",
"# 	c #100000",
"$ 	c #200000",
"% 	c #390000",
"& 	c #410000",
"* 	c #4A0408",
"= 	c #390400",
"- 	c #310000",
"; 	c #310400",
"> 	c #5A0808",
", 	c #730C10",
"' 	c #7B1010",
") 	c #8B1818",
"! 	c #941818",
"~ 	c #831010",
"{ 	c #6A0C08",
"] 	c #290000",
"^ 	c #520408",
"/ 	c #6A0808",
"( 	c #8B1418",
"_ 	c #620808",
": 	c #6A0C10",
"< 	c #9C1C20",
"[ 	c #7B0C10",
"} 	c #5A0400",
"| 	c #9C1C18",
"1 	c #4A0400",
"2 	c #CD4441",
"3 	c #B42C31",
"4 	c #B42829",
"5 	c #FFC2C5",
"6 	c #FFBEBD",
"7 	c #FFA1A4",
"8 	c #DE555A",
"9 	c #730C08",
"0 	c #831410",
"a 	c #310408",
"b 	c #DE5552",
"c 	c #EE8183",
"d 	c #FFAEB4",
"e 	c #FFCECD",
"f 	c #FFA5A4",
"g 	c #731010",
"h 	c #520400",
"i 	c #8B1410",
"j 	c #A42020",
"k 	c #FFEAEE",
"l 	c #FFDEDE",
"m 	c #BD3031",
"n 	c #941C18",
"o 	c #410408",
"p 	c #FFBEC5",
"q 	c #FFF2F6",
"r 	c #C53839",
"s 	c #4A0000",
"t 	c #7B0C08",
"u 	c #410400",
"v 	c #F6999C",
"w 	c #FFEEEE",
"x 	c #E66162",
"y 	c #8B2400",
"z 	c #D55000",
"A 	c #FF8108",
"B 	c #FF9D10",
"C 	c #FFAE20",
"D 	c #FF7518",
"E 	c #BD2008",
"F 	c #9C1818",
"G 	c #F6858B",
"H 	c #DE595A",
"I 	c #831418",
"J 	c #5A0408",
"K 	c #941000",
"L 	c #E64408",
"M 	c #FF9D00",
"N 	c #FFCA10",
"O 	c #FFCA18",
"P 	c #FFCA29",
"Q 	c #FFC229",
"R 	c #FFC629",
"S 	c #FFC220",
"T 	c #FF9939",
"U 	c #EE3C10",
"V 	c #A41810",
"W 	c #E63010",
"X 	c #FF955A",
"Y 	c #FFA54A",
"Z 	c #FFAE4A",
"` 	c #FF9D62",
" .	c #FF9962",
"..	c #FF995A",
"+.	c #FF9D41",
"@.	c #FF8D41",
"#.	c #FF7541",
"$.	c #C52410",
"%.	c #7B0800",
"&.	c #F64818",
"*.	c #FF5929",
"=.	c #FF6129",
"-.	c #FF6131",
";.	c #F65529",
">.	c #FF5920",
",.	c #F65518",
"'.	c #EE3810",
").	c #F64018",
"!.	c #B41C08",
"~.	c #6A0400",
"{.	c #941008",
"].	c #C51C08",
"^.	c #DE3010",
"/.	c #F63C18",
"(.	c #A41408",
"_.	c #520808",
":.	c #390408",
"<.	c #A42420",
"[.	c #AC2829",
"}.	c #AC2429",
"|.	c #BD3431",
"1.	c #C53439",
"2.	c #B43031",
"3.	c #B42C29",
"4.	c #BD3439",
"5.	c #AC2420",
"6.	c #FF8100",
"7.	c #8E3975",
"8.	c #CD3C41",
"9.	c #CD3C08",
"0.	c #F66900",
"a.	c #D55052",
"b.	c #9C2020",
"c.	c #DE5900",
"d.	c #FF9D18",
"e.	c #AC2808",
"f.	c #FF9918",
"g.	c #FFB629",
"h.	c #730808",
"i.	c #7B1008",
"j.	c #941C00",
"k.	c #FFBA20",
"l.	c #7B1400",
"m.	c #E66500",
"n.	c #FFBE29",
"o.	c #7B1000",
"p.	c #BD3800",
"q.	c #FFB220",
"r.	c #C53C00",
"s.	c #731000",
"t.	c #BD3400",
"u.	c #FFB620",
"v.	c #EE6500",
"w.	c #C53C39",
"x.	c #FF9110",
"y.	c #CD4041",
"z.	c #B42C00",
"A.	c #BD3839",
"B.	c #FFB218",
"C.	c #FFAA20",
"D.	c #AC2C00",
"E.	c #731008",
"F.	c #4A0808",
"G.	c #FFAA18",
"H.	c #FFA118",
"I.	c #4A0800",
"J.	c #A42800",
"K.	c #FF9908",
"L.	c #620400",
"M.	c #FF7D08",
"N.	c #FF8D08",
"O.	c #9C2400",
"P.	c #9C1C00",
"Q.	c #E66900",
"R.	c #D54C00",
"S.	c #000083",
"T.	c #8B1800",
"U.	c #D54C08",
"V.	c #F67500",
"W.	c #DE5008",
"X.	c #A42400",
"Y.	c #E65508",
"Z.	c #C54000",
"`.	c #520800",
" +	c #AC2400",
".+	c #831400",
"++	c #EE5008",
"@+	c #FF7910",
"#+	c #FF7108",
"$+	c #E65900",
"%+	c #DE3808",
"&+	c #C52808",
"*+	c #A41C08",
"=+	c #9C1000",
"-+	c #AC1808",
";+	c #A41400",
">+	c #730800",
",+	c #5A0800",
"'+	c #C52008",
")+	c #FF5010",
"!+	c #FFAE31",
"~+	c #FFB231",
"{+	c #FFA531",
"]+	c #FF9D29",
"^+	c #FFAA39",
"/+	c #FFAE39",
"(+	c #FFA141",
"_+	c #FF914A",
":+	c #FF8952",
"<+	c #FF7D41",
"[+	c #FF6D39",
"}+	c #CD2408",
"|+	c #BD1C00",
"1+	c #830C08",
"2+	c #CD2C08",
"3+	c #FF7D31",
"4+	c #FF6931",
"5+	c #FF4C20",
"6+	c #FF5520",
"7+	c #FF5529",
"8+	c #F64418",
"9+	c #DE2C10",
"0+	c #BD1C08",
"a+	c #9C1408",
"b+	c #830C00",
"c+	c #7B0808",
"                                      . + + @ @                                                                                     @ @ + + .                                       ",
"                                . # $ % & * & = - - @                                                                         @ - - = & * & % $ # .                                 ",
"                              # ; > , ' ) ! ! ~ ' { > - #                                                                 # - > { ' ~ ! ! ) ' , > ; #                               ",
"                            ] ^ / , / , / ' ~ ( ! ! ~ _ ] #                                                             # ] _ ~ ! ! ( ~ ' / , / , / ^ ]                             ",
"                          $ > / : > _ > > / ~ ) < < < [ ^ - +                                                         + - ^ [ < < < ) ~ / > > _ > : / > $                           ",
"                        # % } > > { / { _ _ _ ' ( < | | _ ^ ] +                                                     + ] ^ _ | | < ( ' _ _ _ { / { > > } % #                         ",
"                        $ 1 _ | 2 3 ' / , / , ~ ) ! < < ( 1 _ #                                                     # _ 1 ( < < ! ) ~ , / , / ' 3 2 | _ 1 $                         ",
"                        ] ^ 4 5 6 7 8 / _ { 9 0 ) | ! ! ! _ _ - .                                                 . - _ _ ! ! ! | ) 0 9 { _ / 8 7 6 5 4 ^ ]                         ",
"                      # a _ b c d e f < > / g ~ ! ! < ( ( , > h #                                                 # h > , ( ( < ! ! ~ g / > < f e d c b _ a #                       ",
"                      @ % { i _ j k l m 1 / 9 ( ( n ! ! ~ ~ & > @                                                 @ > & ~ ~ ! ! n ( ( 9 / 1 m l k j _ i { % @                       ",
"                      # o / ^ % _ p q r ^ _ ' 0 ! ! < | ) ~ * _ -                                                 - _ * ~ ) | < ! ! 0 ' _ ^ r q p _ % ^ / o #                       ",
"                    - - s t h u } v w x { { 9 0 i ! n < ) 0 h _ $                                                 $ _ h 0 ) < n ! i 0 9 { { x w v } u h t s - -                     ",
"                y z A B C D E h F c G H I / , ' ( ! < j < ~ _ J ]                                                 ] J _ ~ < j < ! ( ' , / I H G c F h E D C B A z y                 ",
"      h K L M N O P Q R S Q T U V ! | ! / { / , ~ ! | j ! ~ 9 > @ .                                             . @ > 9 ~ ! j | ! ~ , / { / ! | ! V U T Q S R Q P O N M L K h       ",
"      W X Y Z Y `  .` ..Y +.@.#.$.h , 9 , / : 9 ' 0 < < ! i ( 1 @ .                                             . @ 1 ( i ! < < 0 ' 9 : / , 9 , h $.#.@.+.Y ..`  .` Y Z Y X W       ",
"      %.E W &.*.=.-.;.>.,.&.'.).!.^ / , / / _ { 9 ~ ( < 0 ( ' * # .                                             . # * ' ( 0 < ( ~ 9 { _ / / , / ^ !.).'.&.,.>.;.-.=.*.&.W E %.      ",
"              ~.{.].^.'.'.W /.(.* 1 : { , / { _ , ' ( i ~ ~ ' - #                                                 # - ' ~ ~ i ( ' , _ { / , { : 1 * (./.W '.'.^.].{.~.              ",
"                      } } h & u h _ / { / { _ { / ' ' , / ' _ - @                                                 @ - _ ' / , ' ' / { _ { / { / _ h u & h } }                       ",
"                        * - $ & > > _ > _ > : / : _ _ _ { > _.% $                                                 $ % _.> { _ _ _ : / : > _ > _ > > & $ - *                         ",
"                          > h u & u & * 1 ^ J _ } > h _ } ^ } u ] +                                             + ] u } ^ } _ h > } _ J ^ 1 * & u & u h >                           ",
"                          ^ > - :.% o u * 1 ^ h > ^ > h > J > 1 o +                                             + o 1 > J > h > ^ > h ^ 1 * u o % :.- > ^                           ",
"                            } > % * 1 1 1 * & ^ h _ _ { 9 ~ 9 * & $                                             $ & * 9 ~ 9 { _ _ h ^ & * 1 1 1 * % > }                             ",
"                            > / * h ^ ^ > _ : , ~ ~ ' ' n n ! / * u $                                         $ u * / ! n n ' ' ~ ~ , : _ > ^ ^ h * / >                             ",
"                          + h _ & ^ s * 1 _ { ~ 0 0 ( j <.[.}.j / 1 -                                         - 1 / j }.[.<.j ( 0 0 ~ { _ 1 * s ^ & _ h +                           ",
"                          + ^ > * h o u _._ ' 0 ! | <.[.m |.1.2.< _ ; -                                     - ; _ < 2.1.|.m [.<.| ! 0 ' _ _.u o h * > ^ +                           ",
"                          + _ > % u % u 1 { ~ ) ! < | }.3.4.|.4.5.0 & -                                     - & 0 5.4.|.4.3.}.| < ! ) ~ { 1 u % u % > _ +                           ",
"                          1 ' & = u o & ^ _ ' ' ( i ! | }.3.1.4.3 ) : ] ;                                 ; ] : ) 3 4.1.3.}.| ! i ( ' ' _ ^ & o u = & ' 1                           ",
"                        } 6.n > - u % u 1 > _ , 9 ~ ~ ( ! }.3.m [.< / o - @                             @ - o / < [.m 3.}.! ( ~ ~ 9 , _ > 1 u % u - > n 7.}                         ",
"                        ! 6.6./ a 1 * & * h > _ , , ' ' ! j 3.2.m j ' > o %                             % o > ' j m 2.3.j ! ' ' , , _ > h * & * 1 a / 7.7.!                         ",
"                      ^ 6.6.6.6.] u & u % * h > _ , { , ' ! <.3 3 [.i , h u @                         @ u h , i [.3 3 <.! ' , { , _ > h * % u & u ] 7.7.7.7.^                       ",
"                    o 3.6.6.6.6.6.] ^ 1 * 1 ^ ^ _ / , _ _ ' F }.2.3.j ' , h :.                        :.h , ' j 3.2.}.F ' _ _ , / _ ^ ^ 1 * 1 ^ ] 7.7.7.7.7.3.o                     ",
"                    | 6.6.6.6.6.6.$ % * & u & ^ } _ _ _ 1 _ [ < [.r 3.( ' 9 & @                     @ & 9 ' ( 3.r [.< [ _ 1 _ _ _ } ^ & u & * % $ 7.7.7.7.7.7.|                     ",
"                  + 6.6.6.6.6.6.6.6.] - o & o 1 > > _ _ > 1 / ~ F 3.8.! ( ' ^ ]                     ] ^ ' ( ! 8.3.F ~ / 1 > _ _ > > 1 o & o - ] 7.7.7.7.7.7.7.7.+                   ",
"                  ( 6.6.6.6.6.6.6.6.6.u % * & ^ J _ _ { J 1 1 / / ! 2 [.! ( } $                     $ } ( ! [.2 ! / / 1 1 J { _ _ J ^ & * % u 7.7.7.7.7.7.7.7.7.(                   ",
"9.0.            + 6.6.6.6.6.6.6.6.6.6.a.= % ^ ^ > / , 9 { 1 o h _ / 4 m b.! : $ -                 - $ : ! b.m 4 / _ h o 1 { 9 , / > ^ ^ % = a.7.7.7.7.7.7.7.7.7.7.+             0.9.",
"c.C d.            6.6.6.6.6.6.6.6.6.6.6.' - h > 1 / 9 , / _.& * u _._ j b.| _ ] ]                 ] ] _ | b.j _ _.u * & _./ , 9 / 1 > h - ' 7.7.7.7.7.7.7.7.7.7.7.            d.C c.",
"e.f.g.          6.6.6.6.6.6.6.6.6.6.6.6.6.% * > _.J ' h.: J * u * 1 _.i.3 | : ] ]                 ] ] : | 3 i._.1 * u * J : h.' J _.> * % 7.7.7.7.7.7.7.7.7.7.7.7.7.          g.f.e.",
"j.A k.1         6.6.6.6.6.6.6.6.6.6.6.6.6.! % > h ^ i 9 h _.& u & 1 & _ 4 < 9 - @                 @ - 9 < 4 _ & 1 & u & _.h 9 i ^ h > % ! 7.7.7.7.7.7.7.7.7.7.7.7.7.        1 k.A j.",
"l.m.n.o.      ! 6.6.6.6.6.6.6.6.6.6.6.6.6.6.o ^ _.% [ i > 1 _.1 * 1 * > j | I ] #                 # ] I | j > * 1 * 1 _.1 > i [ % _.^ o 7.7.7.7.7.7.7.7.7.7.7.7.7.7.!       o.n.m.l.",
"o.p.q.r.    . 6.6.6.6.6.6.6.6.6.6.6.6.6.6.6.& * h - h | i./ } * & 1 1 J ~ <.' ] +                 + ] ' <.~ J 1 1 & * } / i.| h - h * & 7.7.7.7.7.7.7.7.7.7.7.7.7.7.7..     r.q.p.o.",
"s.t.u.v.# ] o 6.6.6.6.6.6.6.6.6.6.6.6.6.6.6.6.u > - u 1 < ~ , h * 1 ^ h ' w.I ] +                 + ] I w.' h ^ 1 * h , ~ < 1 u - > u 7.7.7.7.7.7.7.7.7.7.7.7.7.7.7.7.o ] # v.u.t.s.",
"s.r.C x._ { 9 6.6.6.6.6.6.6.6.6.6.6.6.6.6.6.6.u h % u % h.< i ' h * 1 _.9 y.t ] .                 . ] t y.9 _.1 * h ' i < h.% u % h u 7.7.7.7.7.7.7.7.7.7.7.7.7.7.7.7.9 { _ x.C r.s.",
"s.z.C x.! ! j 6.6.6.6.6.6.6.6.6.6.6.6.6.6.6.6.& > & _.% = n 4 j [ 1 * 1 { A.' @ + .             . + @ ' A.{ 1 * 1 [ j 4 n = % _.& > & 7.7.7.7.7.7.7.7.7.7.7.7.7.7.7.7.j ! ! x.C z.s.",
"s.t.B.C.t 0 ! 6.6.6.6.6.6.6.6.6.6.6.6.6.6.6.6.* } ^ h ^ ] _.4 4 ! ^ s * _ 3 ~ @ . .             . . @ ~ 3 _ * s ^ ! 4 4 _.] ^ h ^ } * 7.7.7.7.7.7.7.7.7.7.7.7.7.7.7.7.! 0 t C.B.t.s.",
"  D.C C E.{ ( 6.6.6.6.6.6.6.6.6.6.6.6.6.6.6.6.1 _ J ^ h = - [ m 4 9 F.1 _ <.j # .                 . # j <._ 1 F.9 4 m [ - = h ^ J _ 1 7.7.7.7.7.7.7.7.7.7.7.7.7.7.7.7.( { E.C C D.  ",
"  z.G.C 1 $ _ 6.6.6.6.6.6.6.6.6.6.6.6.6.6.6.6.* } _ h h - u - j 4 b.h 1 h n j @ .                 . @ j n h 1 h b.4 j - u - h h _ } * 7.7.7.7.7.7.7.7.7.7.7.7.7.7.7.7._ $ 1 C G.z.  ",
"  D.H.H.I.. a 6.6.6.6.6.6.6.6.6.6.6.6.6.6.6.6.1 _ / _ u = 1 o / 3 5.~ h _.' 3 # .                 . # 3 ' _.h ~ 5.3 / o 1 = u _ / _ 1 7.7.7.7.7.7.7.7.7.7.7.7.7.7.7.7.a . I.H.H.D.  ",
"  J.K.f.1 . $ 6.6.6.6.6.6.6.6.6.6.6.6.6.6.6.6.^ _ { L.% ] u 1 / n |.! > 1 ~ A.+ .                 . + A.~ 1 > ! |.n / 1 u ] % L.{ _ ^ 7.7.7.7.7.7.7.7.7.7.7.7.7.7.7.7.$ . 1 f.K.J.  ",
"  j.M.N.O.# # <.6.6.6.6.6.6.6.6.6.6.6.6.6.6.6.^ _ _ > - o & > 9 ~ 3.3.~ / [.~ . .                 . . ~ [./ ~ 3.3.~ 9 > & o - > _ _ ^ 7.7.7.7.7.7.7.7.7.7.7.7.7.7.7.<.# # O.N.M.j.  ",
"  P.Q.x.R.. . u S.S.S.S.S.S.S.S.S.S.S.S.S.S.S.^ J _ } h h u } , ~ ! A.r |.r + . .                 . . + r |.r A.! ~ , } u h h } _ J ^ S.S.S.S.S.S.S.S.S.S.S.S.S.S.S.u . . R.x.Q.P.  ",
"  T.U.V.W.+ . # S.S.S.S.S.S.S.S.S.S.S.S.S.S.S.^ _ > * _ * % _ / ~ i ! r r h + . .                 . . + h r r ! i ~ / _ % * _ * > _ ^ S.S.S.S.S.S.S.S.S.S.S.S.S.S.S.# . + W.V.U.T.  ",
"  o.X.Y.Z.$ . + h S.S.S.S.S.S.S.S.S.S.S.S.S.S.^ } _ _ _ h _._ / / / 9 ( _ ] . . .                 . . . ] _ ( 9 / / / _ _.h _ _ _ } ^ S.S.S.S.S.S.S.S.S.S.S.S.S.S.h + . $ Z.Y.X.o.  ",
"  T.T.r.O.+ + . $ ' S.S.S.S.S.S.S.S.S.S.S.S.* h > J _ _ _ _ _ `.o 1 { ' o $ + .                     . + $ o ' { 1 o `._ _ _ _ _ J > h * S.S.S.S.S.S.S.S.S.S.S.S.' $ . + + O.r.T.T.  ",
"   +.+t.T.@ + + # $ _ S.S.S.S.S.S.S.S.S.S.S.& ^ h > } > J > & 1 ] % & { $ ] . .                     . . ] $ { & % ] 1 & > J > } > h ^ & S.S.S.S.S.S.S.S.S.S.S._ $ # + + @ T.t..+ +  ",
"    s.`.@ # @ # @ # ] ' S.S.S.S.S.S.S.S.S.S.o h > J _ J > 1 o & $ $ _ & ; - $                         $ - ; & _ $ $ & o 1 > J _ J > h o S.S.S.S.S.S.S.S.S.S.' ] # @ # @ # @ `.s.    ",
"                    # ] t S.S.S.S.S.S.S.S.= & ^ h > J > 1 u u = # @ % % 1 ^ - -                     - - ^ 1 % % @ # = u u 1 > J > h ^ & = S.S.S.S.S.S.S.S.t ] #                     ",
"                        # J S.S.S.S.S.S._ % * h > J > h ^ 1 = - $ + o / I , _.]                     ] _., I / o + $ - = 1 ^ h > J > h * % _ S.S.S.S.S.S.J #                         ",
"                          @ @ S.S.S._ ^ % u 1 ^ 1 * h > _ ^ % ] + # _ ( ! < ~ > -                 - > ~ < ! ( _ # + ] % ^ _ > h * 1 ^ 1 u % ^ _ S.S.S.@ @                           ",
"                            @ + @ ] :.% o 1 ^ ^ > > / _ * ] $ - $ @ _ ( < | ! ( ^ u             u ^ ( ! | < ( _ @ $ - $ ] * _ / > > ^ ^ 1 o % :.] @ + @                             ",
"                          h % % - ] ] - % ] + @ @ _ 1 * - % ] ] % $ - ' ~ ! i ( ~ ^ h         h ^ ~ ( i ! ~ ' - $ % ] ] % - * 1 _ @ @ + ] % - ] ] - % % h                           ",
"                          ++H.@+#+$+%+&+*+=+-+;+{.>+_ ~.h.L.,+% = - ; > _ 9 ' ' I ' ^         ^ ' I ' ' 9 _ > ; - = % ,+L.h.~._ >+{.;+-+=+*+&+%+$+#+@+H.++                          ",
"                        '+)+!+~+{+]+^+/+(+(+_+:+<+[+'.W }+'+|+!.=+1+} 1 % - 1 ^ h _ 1 %     % 1 _ h ^ 1 - % 1 } 1+=+!.|+'+}+W '.[+<+:+_+(+(+/+^+]+{+~+!+)+'+                        ",
"                        1+2+3+4+5+&.*.6+7+8+/.9+}+0+0+(.a+b+1+%.c+L.> & $ + $ - :.% :.$     $ :.% :.- $ + $ & > L.c+%.1+b+a+(.0+0+}+9+/.8+7+6+*.&.5+4+3+2+1+                        ",
"                          % 1 ] # @ # @ # # # # # @ @ $ $ ] ] - - & %             - -         - -             % & - - ] ] $ $ @ @ # # # # # @ # @ # ] 1 %                           "};
