/* XPM */
static char *dummy[]={
"116 65 260 2",
"Qt c None",
".e c #000000",
"aU c #0000ff",
".# c #000400",
"aX c #080400",
".d c #080408",
"bh c #080800",
".a c #080808",
".c c #080c08",
"b7 c #100800",
"b8 c #100808",
"bi c #100c08",
".b c #100c10",
".f c #101010",
".E c #101410",
"c# c #180c08",
"bf c #181008",
"a1 c #181010",
"bg c #181408",
"a0 c #181410",
".A c #181418",
"aY c #181810",
".j c #181818",
".g c #181c18",
"b6 c #201408",
"ca c #201410",
"bZ c #201808",
"b1 c #201810",
"aZ c #201818",
"#d c #201c08",
".m c #201c20",
".k c #202020",
".h c #202420",
"#n c #291c08",
"a2 c #291c10",
"#c c #292008",
"aA c #292420",
".i c #292429",
".l c #292829",
".v c #292c29",
"aW c #312010",
"aV c #312018",
"#m c #312410",
"bH c #312418",
"#e c #312818",
"#x c #312820",
"aH c #312c20",
"#g c #312c29",
".w c #312c31",
".n c #313031",
".D c #313431",
"b9 c #392410",
"bK c #392418",
"#V c #392818",
"aI c #392c18",
"#v c #392c20",
".F c #393439",
".B c #393839",
".o c #393c39",
"aJ c #412c18",
"bY c #413018",
"cb c #413408",
"b5 c #413410",
".u c #413c41",
".z c #414041",
".t c #414441",
"bI c #4a3018",
"b0 c #4a3020",
"bJ c #4a3418",
"aG c #4a3420",
"bd c #4a3820",
"#f c #4a4031",
".x c #4a444a",
".p c #4a484a",
".C c #4a4c4a",
"aw c #523420",
"ac c #523820",
"bl c #523829",
"bc c #523c29",
"#l c #524039",
".q c #524c52",
".s c #525052",
".y c #525552",
"av c #5a3c20",
"c. c #5a3c29",
"bR c #5a4020",
"bk c #5a4029",
"#w c #5a5552",
".r c #5a555a",
".G c #5a595a",
".I c #5a5d5a",
"bG c #624020",
"b4 c #624029",
"be c #624429",
"bb c #624829",
".H c #625d62",
".J c #626162",
".4 c #626562",
"ax c #6a4429",
"aF c #6a4829",
"#U c #6a4c29",
"bj c #6a4c31",
"#P c #6a594a",
"aN c #6a656a",
"aK c #6a696a",
".W c #6a6d6a",
"#E c #734c29",
"b2 c #735029",
"aB c #735541",
"az c #735941",
".N c #736d73",
".L c #737173",
".7 c #737573",
"bX c #7b5031",
"bn c #7b5529",
"bm c #7b5531",
"b# c #7b5929",
"ao c #7b5d41",
"an c #7b614a",
"aL c #7b757b",
"#a c #7b797b",
"aM c #7b7d7b",
"ba c #835931",
"bL c #835d31",
"#u c #835d39",
"b. c #836129",
"#o c #837908",
"## c #837d83",
"aS c #838183",
".K c #838583",
"au c #8b6131",
"#y c #8b6141",
"bo c #8b6531",
"#7 c #8b654a",
"#8 c #8b694a",
".M c #8b858b",
"aT c #8b898b",
"aR c #8b8d8b",
"ad c #946539",
".X c #949194",
"bv c #9c6939",
"a3 c #9c6d39",
"a9 c #9c7131",
".S c #9c959c",
".R c #9c999c",
"bu c #a46d41",
"bS c #a47139",
"ay c #a47141",
"#i c #a49da4",
"#j c #a4a1a4",
"aE c #ac7141",
"ab c #ac7541",
"aD c #ac7941",
"a8 c #ac7d31",
"bp c #ac8131",
"aq c #b47941",
"#W c #b4794a",
"#O c #b47d4a",
"aC c #b48152",
"#F c #b48d31",
"#D c #b49d18",
"aQ c #b4b2b4",
"bW c #bd7d41",
"am c #bd7d4a",
"ap c #bd814a",
"al c #bd854a",
"bt c #bd9531",
"#p c #bd9d20",
"bq c #bda120",
".Y c #bdbabd",
"at c #c5854a",
"ae c #c5894a",
"bw c #c58d41",
"bQ c #c59141",
"a4 c #c59531",
"a7 c #c5a120",
"#h c #c5c6c5",
"bV c #cd894a",
"aj c #cd8d4a",
"ai c #cd8d52",
"ar c #cd914a",
"as c #cd9152",
"a6 c #cdae29",
"#k c #cdc6cd",
".Q c #cdcacd",
".1 c #cdcecd",
"af c #d58d52",
"ak c #d5914a",
"ah c #d59152",
"#z c #d5a541",
"br c #d5ae29",
"bs c #d5ae31",
".T c #d5ced5",
".Z c #d5d2d5",
"ag c #de9552",
"bF c #de955a",
"bU c #de9952",
"bT c #dea541",
"#t c #deaa41",
"a5 c #deae39",
"#q c #deba20",
"#C c #debe20",
".3 c #ded6de",
".U c #dedade",
".O c #dedede",
"#6 c #e69d5a",
"b3 c #e6aa4a",
"#T c #e6ca18",
"#G c #e6ca20",
".P c #e6dee6",
".V c #e6e2e6",
".2 c #e6e6e6",
"bM c #eea15a",
"#5 c #eeae52",
"bA c #eec239",
"#B c #eec629",
"#r c #eeca29",
".0 c #eee6ee",
".8 c #eeeeee",
"bN c #f6a55a",
"bE c #f6a562",
"bD c #f6aa5a",
"#9 c #f6ae52",
"#Q c #f6ba41",
"#N c #f6be4a",
"bO c #f6c239",
"#s c #f6ce29",
"#A c #f6d229",
"#H c #f6e210",
".6 c #f6eef6",
".5 c #f6f2f6",
".9 c #f6f6f6",
"aO c #ff0000",
"#X c #ffaa62",
"#3 c #ffae62",
"#1 c #ffb25a",
"#2 c #ffb262",
"a# c #ffb26a",
"a. c #ffba4a",
"#4 c #ffba52",
"bC c #ffbe4a",
"#Y c #ffc24a",
"#0 c #ffc252",
"bP c #ffc639",
"#Z c #ffc641",
"bB c #ffca39",
"bz c #ffca41",
"aa c #ffca4a",
"by c #ffce31",
"bx c #ffce39",
"#M c #ffd629",
"#R c #ffda20",
"#K c #ffda29",
"#J c #ffde20",
"#L c #ffde29",
"#S c #ffe218",
"#I c #ffe220",
"#. c #fff6ff",
"#b c #fffaff",
"aP c #ffff00",
"QtQtQtQtQtQtQtQtQtQtQtQtQtQtQtQtQtQtQtQtQtQtQtQtQtQtQtQtQtQtQtQtQtQt.#.#.a.a.bQtQtQtQtQtQtQtQtQtQtQtQtQtQtQtQtQtQtQtQtQtQtQtQtQtQtQtQtQtQtQtQtQtQtQtQtQtQtQtQtQtQt.c.c.d.d.eQtQtQtQtQtQtQtQtQtQtQtQtQtQtQtQtQtQtQtQtQtQtQtQtQtQtQtQtQtQt",
"QtQtQtQtQtQtQtQtQtQtQtQtQtQtQtQtQtQtQtQtQtQtQtQtQtQtQtQtQtQtQt.e.d.f.g.h.i.i.g.g.j.fQtQtQtQtQtQtQtQtQtQtQtQtQtQtQtQtQtQtQtQtQtQtQtQtQtQtQtQtQtQtQtQtQtQtQtQt.c.j.j.k.h.l.k.m.f.a.eQtQtQtQtQtQtQtQtQtQtQtQtQtQtQtQtQtQtQtQtQtQtQtQtQtQtQt",
"QtQtQtQtQtQtQtQtQtQtQtQtQtQtQtQtQtQtQtQtQtQtQtQtQtQtQtQtQtQt.b.j.n.o.p.q.r.s.p.t.u.v.m.dQtQtQtQtQtQtQtQtQtQtQtQtQtQtQtQtQtQtQtQtQtQtQtQtQtQtQtQtQtQtQtQt.a.j.w.o.x.p.s.y.s.x.z.n.g.aQtQtQtQtQtQtQtQtQtQtQtQtQtQtQtQtQtQtQtQtQtQtQtQtQtQt",
"QtQtQtQtQtQtQtQtQtQtQtQtQtQtQtQtQtQtQtQtQtQtQtQtQtQtQtQtQt.A.l.B.o.o.o.o.z.p.C.r.s.p.n.j.#QtQtQtQtQtQtQtQtQtQtQtQtQtQtQtQtQtQtQtQtQtQtQtQtQtQtQtQtQtQt.a.j.D.p.y.y.s.p.z.B.u.B.z.B.l.EQtQtQtQtQtQtQtQtQtQtQtQtQtQtQtQtQtQtQtQtQtQtQtQtQt",
"QtQtQtQtQtQtQtQtQtQtQtQtQtQtQtQtQtQtQtQtQtQtQtQtQtQtQtQt.f.w.o.B.F.n.F.w.u.x.r.G.H.r.x.l.j.#QtQtQtQtQtQtQtQtQtQtQtQtQtQtQtQtQtQtQtQtQtQtQtQtQtQtQtQt.d.j.l.z.G.I.H.s.p.B.n.n.F.n.B.B.n.fQtQtQtQtQtQtQtQtQtQtQtQtQtQtQtQtQtQtQtQtQtQtQtQt",
"QtQtQtQtQtQtQtQtQtQtQtQtQtQtQtQtQtQtQtQtQtQtQtQtQtQtQt.a.j.D.n.D.B.B.B.B.n.B.t.s.G.J.y.F.l.A.eQtQtQtQtQtQtQtQtQtQtQtQtQtQtQtQtQtQtQtQtQtQtQtQtQtQt.#.E.l.D.G.I.G.s.x.B.D.F.B.B.B.n.n.n.g.aQtQtQtQtQtQtQtQtQtQtQtQtQtQtQtQtQtQtQtQtQtQtQt",
"QtQtQtQtQtQtQtQtQtQtQtQtQtQtQtQtQtQtQtQtQtQtQtQtQtQtQt.b.l.n.G.K.L.z.B.B.B.u.p.q.r.G.H.q.l.D.aQtQtQtQtQtQtQtQtQtQtQtQtQtQtQtQtQtQtQtQtQtQtQtQtQtQt.a.F.l.s.I.G.y.s.p.z.B.u.B.z.L.M.G.F.i.fQtQtQtQtQtQtQtQtQtQtQtQtQtQtQtQtQtQtQtQtQtQtQt",
"QtQtQtQtQtQtQtQtQtQtQtQtQtQtQtQtQtQtQtQtQtQtQtQtQtQtQt.A.v.N.O.P.Q.R.F.B.B.z.p.r.y.G.s.G.n.F.E.#QtQtQtQtQtQtQtQtQtQtQtQtQtQtQtQtQtQtQtQtQtQtQtQt.e.j.D.D.y.y.y.G.s.p.o.B.D.B.S.T.U.V.W.w.EQtQtQtQtQtQtQtQtQtQtQtQtQtQtQtQtQtQtQtQtQtQtQt",
"QtQtQtQtQtQtQtQtQtQtQtQtQtQtQtQtQtQtQtQtQtQtQtQtQtQt.c.j.F.X.Y.Z.0.1.H.w.B.z.C.s.G.G.s.C.z.n.v.aQtQtQtQtQtQtQtQtQtQtQtQtQtQtQtQtQtQtQtQtQtQtQtQt.a.l.n.z.s.s.G.r.r.p.z.B.n.I.T.2.3.Y.S.D.j.aQtQtQtQtQtQtQtQtQtQtQtQtQtQtQtQtQtQtQtQtQtQt",
"QtQtQtQtQtQtQtQtQtQtQtQtQtQtQtQtQtQtQtQtQtQtQtQtQtQt.a.k.B.s.D.4.5.6.L.l.F.t.C.y.y.G.y.C.x.i.n.fQtQtQtQtQtQtQtQtQtQtQtQtQtQtQtQtQtQtQtQtQtQtQtQt.c.n.h.p.p.r.y.G.s.q.z.B.i.7.8.9.J.F.C.B.g.bQtQtQtQtQtQtQtQtQtQtQtQtQtQtQtQtQtQtQtQtQtQt",
"QtQtQtQtQtQtQtQtQtQtQtQtQtQtQtQtQtQtQtQtQtQtQtQtQtQt.a.k.u.l.m.D.P#.##.l.B.z.q.s.G.G.G.s.C.i.F.AQtQtQtQtQtQtQtQtQtQtQtQtQtQtQtQtQtQtQtQtQtQtQtQt.j.n.l.p.s.G.G.r.r.C.x.B.l#a#b.O.F.g.w.B.k.aQtQtQtQtQtQtQtQtQtQtQtQtQtQtQtQtQtQtQtQtQtQt",
"QtQtQtQtQtQtQtQtQtQtQtQtQtQtQtQtQtQtQtQtQtQtQtQtQt#c#d#e#f#g.k.D#h#b#i.u.B.z.p.s.y.G.G.r.p.n.n.AQtQtQtQtQtQtQtQtQtQtQtQtQtQtQtQtQtQtQtQtQtQtQtQt.f.n.v.C.s.I.G.r.s.p.z.B.o#j.9#k.n.k#g#l#m#c#nQtQtQtQtQtQtQtQtQtQtQtQtQtQtQtQtQtQtQtQtQt",
"QtQtQtQtQtQtQtQtQtQtQtQtQtQtQtQtQtQtQtQtQtQtQt#o#p#q#r#s#t#u#v#w.Y.Y.R.p.B.o.p.C.r.G.J.y.p.D.n.fQtQtQtQtQtQtQtQtQtQtQtQtQtQtQtQtQtQtQtQtQtQtQtQt.A.w.F.p.G.J.H.y.q.x.u.B.p.R.Y.Y.G#x#y#z#A#B#C#D#oQtQtQtQtQtQtQtQtQtQtQtQtQtQtQtQtQtQtQt",
"QtQtQtQtQtQtQtQtQtQtQtQtQtQtQtQtQtQt#m#E#F#G#H#I#J#K#K#L#M#N#O#P.s.I.y.B.B.o.z.p.s.I.I.G.x.z.v.b.eQtQtQtQtQtQtQtQtQtQtQtQtQtQtQtQtQtQtQtQtQtQt.e.c.w.z.p.y.J.G.s.p.z.B.B.B.r.G.y#P#O#Q#K#R#L#K#L#S#S#T#F#U#VQtQtQtQtQtQtQtQtQtQtQtQtQtQt",
"QtQtQtQtQtQtQtQtQtQtQtQtQtQtQtQtQtQt#W#X#Y#Z#0#1#2#3#2#Y#4#5#6#7#g.o.u.o.B.B.u.t.q.r.H.s.s.p.i.a.eQtQtQtQtQtQtQtQtQtQtQtQtQtQtQtQtQtQtQtQtQtQt.e.b.h.q.q.r.I.G.C.x.o.B.B.u.o.u#g#8#6#9a.#Y#2a##3#2#Yaa#Y#3abQtQtQtQtQtQtQtQtQtQtQtQtQtQt",
"QtQtQtQtQtQtQtQtQtQtQtQtQtQtQtQtQtQtacadabaeafagahaiajakal#Oaman.l.B.o.u.D.B.B.z.p.y.G.q.C.p.k.a.eQtQtQtQtQtQtQtQtQtQtQtQtQtQtQtQtQtQtQtQtQtQt.e.a.h.t.q.C.G.s.p.z.B.D.B.B.u.B.laoapaqaearasaiahahahatabauavQtQtQtQtQtQtQtQtQtQtQtQtQtQt",
"QtQtQtQtQtQtQtQtQtQtQtQtQtQtQtQtQtQtQtQtQtQtawaxadayam#W#W#OazaA.l.B.u.B.B.F.B.o.p.C.s.t.q.z.g.aQtQtQtQtQtQtQtQtQtQtQtQtQtQtQtQtQtQtQtQtQtQtQtQt.a.j.x.p.x.q.q.t.z.B.B.B.u.o.o.i.laBaCaD#O#OaEadaFaGQtQtQtQtQtQtQtQtQtQtQtQtQtQtQtQtQtQt",
"QtQtQtQtQtQtQtQtQtQtQtQtQtQtQtQtQtQtQtQtQtQtQtQtQtQt#V#v#xaA.g.v.D.B.B.B.B.B.B.u.z.x.z.u.z.F.j.bQtQtQtQtQtQtQtQtQtQtQtQtQtQtQtQtQtQtQtQtQtQtQtQt.c.j.D.z.o.z.t.t.o.B.D.B.B.u.B.F.l.k.kaHaIaJQtQtQtQtQtQtQtQtQtQtQtQtQtQtQtQtQtQtQtQtQtQt",
"QtQtQtQtQtQtQtQtQtQtQtQtQtQtQtQtQtQtQtQtQtQtQtQtQtQtQt.i.m.f.i.v.n.n.F.n.F.F.B.B.B.n.F.B.F.l.k.fQtQtQtQtQtQtQtQtQtQtQtQtQtQtQtQtQtQtQtQtQtQtQtQt.f.m.w.n.B.D.F.B.B.B.B.n.D.n.F.n.w.k.f.j.lQtQtQtQtQtQtQtQtQtQtQtQtQtQtQtQtQtQtQtQtQtQtQt",
"QtQtQtQtQtQtQtQtQtQtQtQtQtQtQtQtQtQtQtQtQtQtQtQtQtQtQtQt.n.v.k.i.k.h.k.l.v.n.n.n.v.w.n.n.l.n.k.A.eQtQtQtQtQtQtQtQtQtQtQtQtQtQtQtQtQtQtQtQtQtQt.#.E.k.w.l.n.D.v.w.v.D.n.w.h.h.k.i.h.k.l.nQtQtQtQtQtQtQtQtQtQtQtQtQtQtQtQtQtQtQtQtQtQtQtQt",
"QtQtQtQtQtQtQtQtQtQtQtQtQtQtQtQtQtQtQtQtQtQtQtQtQtQtQtQt.n.w.m.g.k.k.i.i.l.l.w.v.w.v.w.v.n.w.l.m.aQtQtQtQtQtQtQtQtQtQtQtQtQtQtQtQtQtQtQtQtQtQt.d.k.i.n.n.n.v.w.l.w.l.v.l.l.h.k.m.m.j.n.vQtQtQtQtQtQtQtQtQtQtQtQtQtQtQtQtQtQtQtQtQtQtQtQt",
"QtQtQtQtQtQtQtQtQtQtQtQtQtQtQtQtQtQtQtQtQtQtQtQtQtQtQtQtQt.n.v.k.h.l.h.l.h.i.l.w.n.B.B.z.x.z.h.h.fQtQtQtQtQtQtQtQtQtQtQtQtQtQtQtQtQtQtQtQtQtQt.f.k.l.o.p.o.o.B.D.v.l.h.i.h.i.h.i.m.n.nQtQtQtQtQtQtQtQtQtQtQtQtQtQtQtQtQtQtQtQtQtQtQtQtQt",
"QtQtQtQtQtQtQtQtQtQtQtQtQtQtQtQtQtQtQtQtQtQtQtQtQtQtQtQtQt.w.B.h.w.l.w.n.F.B.x.x.C.t.p.r.G.y.u.i.i.cQtQtQtQtQtQtQtQtQtQtQtQtQtQtQtQtQtQtQtQt.f.k.l.B.r.G.G.x.x.p.p.z.B.D.n.l.w.v.i.B.nQtQtQtQtQtQtQtQtQtQtQtQtQtQtQtQtQtQtQtQtQtQtQtQtQt",
"QtQtQtQtQtQtQtQtQtQtQtQtQtQtQtQtQtQtQtQtQtQtQtQtQtQtQtQt.e.w.n.h.l.i.h.l.n.u.x.q.p.y.HaKaKaK.I.u.h.gQtQtQtQtQtQtQtQtQtQtQtQtQtQtQtQtQtQtQtQt.j.i.B.HaKaK.4.J.s.q.C.p.o.D.l.i.h.l.k.D.v.dQtQtQtQtQtQtQtQtQtQtQtQtQtQtQtQtQtQtQtQtQtQtQtQt",
"QtQtQtQtQtQtQtQtQtQtQtQtQtQtQtQtQtQtQtQtQtQtQtQtQtQtQtQt.d.l.n.h.w.k.i.l.F.z.q.s.H.JaK.L#a#aaL.G.B.j.jQtQtQtQtQtQtQtQtQtQtQtQtQtQtQtQtQtQt.j.j.F.G.L#aaL.LaK.J.G.r.C.x.D.w.h.k.l.i.n.v.#QtQtQtQtQtQtQtQtQtQtQtQtQtQtQtQtQtQtQtQtQtQtQtQt",
"QtQtQtQtQtQtQtQtQtQtQtQtQtQtQtQtQtQtQtQtQtQtQtQtQtQtQtQt.#.B.n.k.k.k.k.l.B.C.s.r.G.J.4.L.7aM.7aK.p.h.EQtQtQtQtQtQtQtQtQtQtQtQtQtQtQtQtQtQt.j.k.C.4#a#a#a.WaN.I.G.y.s.p.B.l.h.g.k.g.n.D.dQtQtQtQtQtQtQtQtQtQtQtQtQtQtQtQtQtQtQtQtQtQtQtQt",
"QtQtQtQtQtQtQtQtQtQtQtQtQtQtQtQtQtQtQtQtQtQtQtQtQtQtQtQt.l.z.i.g.i.k.i.l.B.z.p.C.s.y.H.4.LaL#a.W.r.F.j.jQtQtQtQtQtQtQtQtQtQtQtQtQtQtQtQt.g.E.B.s.N#a#a.NaN.G.r.s.q.x.z.F.l.k.k.h.m.k.z.iQtQtQtQtQtQtQtQtQtQtQtQtQtQtQtQtQtQtQtQtQtQtQtQt",
"QtQtQtQtQtQtQtQtQtQtQtQtQtQtQtQtQtQtQtQtQtQtQtQtQtQtQt.naO.G.n.j.k.k.k.l.n.B.o.t.t.p.C.G.4.L.7.N.G.B.k.m.cQtQtQtQtQtQtQtQtQtQtQtQtQtQt.b.j.h.B.G.WaL.LaN.G.s.p.p.z.u.B.n.h.k.k.h.j.n.G##.vQtQtQtQtQtQtQtQtQtQtQtQtQtQtQtQtQtQtQtQtQtQtQt",
"QtQtQtQtQtQtQtQtQtQtQtQtQtQtQtQtQtQtQtQtQtQtQtQtQtQtQtaOaOaO.u.j.l.h.k.k.w.w.B.o.z.z.p.s.J.WaL.LaN.z.n.k.mQtQtQtQtQtQtQtQtQtQtQtQtQtQt.g.i.n.t.J.L.L.N.H.s.p.x.z.u.F.n.l.i.k.i.l.j.BaPaQ.sQtQtQtQtQtQtQtQtQtQtQtQtQtQtQtQtQtQtQtQtQtQtQt",
"QtQtQtQtQtQtQtQtQtQtQtQtQtQtQtQtQtQtQtQtQtQtQtQtQtQt.laOaOaOaO.j.k.h.k.k.i.w.n.B.o.z.z.C.yaN.W.LaK.y.o.n.k.fQtQtQtQtQtQtQtQtQtQtQtQt.c.k.v.u.saK.L.L.4.G.p.t.o.u.F.n.l.l.k.k.k.k.AaPaPaPaR.lQtQtQtQtQtQtQtQtQtQtQtQtQtQtQtQtQtQtQtQtQtQt",
"QtQtQtQtQtQtQtQtQtQtQtQtQtQtQtQtQtQtQtQtQtQtQtQt.G.maOaOaOaOaOaO.j.l.l.h.l.l.w.D.B.o.z.x.y.J.N.L.L.I.p.u.w.jQtQtQtQtQtQtQtQtQtQtQtQt.m.l.z.t.H.N.7.W.J.s.p.u.u.B.F.v.l.l.i.h.w.jaPaPaPaPaP.N.kQtQtQtQtQtQtQtQtQtQtQtQtQtQtQtQtQtQtQtQtQt",
"QtQtQtQtQtQtQtQtQtQtQtQtQtQtQtQtQtQtQtQtQtQtQtQt.IaOaOaOaOaOaOaOaO.k.k.h.k.h.l.n.D.B.o.t.C.IaK.L.WaN.C.p.o.k.aQtQtQtQtQtQtQtQtQtQt.c.k.u.t.q.4.L.LaK.G.q.z.u.B.F.v.l.k.k.k.h.m.faPaPaPaPaP.1.IQtQtQtQtQtQtQtQtQtQtQtQtQtQtQtQtQtQtQtQtQt",
"QtQtQtQtQtQtQtQtQtQtQtQtQtQtQtQtQtQtQtQtQtQtQtQt.aaOaOaOaOaOaOaOaOaO.m.k.i.k.l.v.F.D.u.z.q.GaN.W.LaK.G.C.p.l.AQtQtQtQtQtQtQtQtQtQt.E.l.t.s.G.W.N.N.4.G.C.x.B.F.n.n.l.i.k.k.g.AaPaPaPaPaPaPaP.Y.dQtQtQtQtQtQtQtQtQtQtQtQtQtQtQtQtQtQtQtQt",
"QtQtQtQtQtQtQtQtQtQtQtQtQtQtQtQtQtQtQtQtQtQtQtQtaOaOaOaOaOaOaOaOaOaOaO.k.k.i.l.w.n.o.B.z.p.G.IaN.W.N.J.r.C.n.fQtQtQtQtQtQtQtQtQtQt.f.v.q.y.4.W.N.4.H.y.C.z.u.B.n.v.l.h.h.g.haPaPaPaPaPaPaPaPaP.qQtQtQtQtQtQtQtQtQtQtQtQtQtQtQtQtQtQtQtQt",
"QtQtQtQtQtQtQtQtQtQtQtQtQtQtQtQtQtQtQtQtQtQtQt.eaOaOaOaOaOaOaOaOaOaOaO.g.k.l.w.w.n.z.z.z.q.y.r.s.W.N.N.I.r.F.f.AQtQtQtQtQtQtQtQt.j.f.B.y.HaK.LaK.s.s.r.p.x.z.x.n.n.v.l.k.maPaPaPaPaPaPaPaPaPaPaP.dQtQtQtQtQtQtQtQtQtQtQtQtQtQtQtQtQtQtQt",
"QtQtQtQtQtQtQtQtQtQtQtQtQtQtQtQtQtQtQtQtQtQtQtaOaOaOaOaOaOaOaOaOaOaOaOaO.j.v.v.w.l.C.s.C.p.s.s.p.J.L.N.J.y.B.E.AQtQtQtQtQtQtQtQt.E.A.F.G.J.L.L.J.t.y.s.q.p.s.p.l.l.n.l.j.paPaPaPaPaPaPaPaPaPaPaP.gQtQtQtQtQtQtQtQtQtQtQtQtQtQtQtQtQtQtQt",
"QtQtQtQtQtQtQtQtQtQtQtQtQtQtQtQtQtQtQtQt.i.n.paOaOaOaOaOaOaOaOaOaOaOaOaO.k.i.n.v.i.C.4.y.q.q.y.t.H.LaK.H.H.B.j.fQtQtQtQtQtQtQtQt.A.A.o.G.JaK.L.I.x.s.s.C.r.J.q.h.w.n.l.gaPaPaPaPaPaPaPaPaPaPaPaPaP.o.F.l.j.#QtQtQtQtQtQtQtQtQtQtQtQtQtQt",
"QtQtQtQtQtQtQtQtQtQtQtQtQtQtQtQtQtQtQt.k.k.i.naOaOaOaOaOaOaOaOaOaOaOaOaOaO.k.v.w.m.raK.G.p.q.C.o.G.N.J.I.G.z.E.fQtQtQtQtQtQtQtQt.c.j.z.I.GaN.W.I.B.q.p.C.y.N.y.k.v.n.g.raPaPaPaPaPaPaPaPaPaPaPaPaP.s.C.p.z.w.c.eQtQtQtQtQtQtQtQtQtQtQtQt",
"QtQtQtQtQtQtQtQtQtQtQtQtQtQt.d.A.w.D.u.w.v.laOaOaOaOaOaOaOaOaOaOaOaOaOaOaOaO.n.v.m.G.L.r.C.p.x.F.GaKaK.G.H.p.j.aQtQtQtQtQtQtQtQt.a.E.p.I.H.4aK.G.B.z.p.p.G.L.H.g.w.v.kaPaPaPaPaPaPaPaPaPaPaPaPaPaP.G.p.q.s.C.x.D.AQtQtQtQtQtQtQtQtQtQtQt",
"QtQtQtQtQtQtQtQtQtQtQtQt.e.b.v.z.t.s.C.u.v.daOaOaOaOaOaOaOaOaOaOaOaOaOaOaOaO.i.w.g.H.L.r.p.p.F.D.s.J.J.r.G.C.E.dQtQtQtQtQtQtQtQt.#.A.p.I.y.4.J.r.n.B.t.p.y.7.I.m.v.l.haPaPaPaPaPaPaPaPaPaPaPaPaPaPaP.#.u.t.s.y.I.s.z.h.j.#QtQtQtQtQtQtQt",
"QtQtQtQtQtQtQtQtQtQtQt.E.F.t.q.s.s.x.B.v.k.kaOaOaOaOaOaOaOaOaOaOaOaOaOaOaOaO.i.v.k.4aL.s.x.t.n.D.s.I.4.y.G.p.j.#QtQtQtQtQtQtQtQt.d.A.q.G.r.J.H.C.F.w.x.t.r.LaN.g.n.h.raPaPaPaPaPaPaPaPaPaPaPaPaPaPaP.k.D.u.z.s.s.G.H.4.G.p.w.A.a.bQtQtQt",
"QtQtQtQtQtQtQt.a.j.l.z.s.G.G.C.p.B.n.h.E.faOaOaOaOaOaOaOaOaOaOaOaOaOaOaOaOaO.k.n.k.L.L.y.p.z.h.B.p.G.J.r.y.p.f.#QtQtQtQtQtQtQtQt.e.A.p.G.y.J.y.C.D.l.z.C.s.L.W.h.w.kaPaPaPaPaPaPaPaPaPaPaPaPaPaPaPaP.z.n.D.F.z.p.p.r.G.H.I.G.p.z.z.B.v.k",
"QtQtQt.a.c.E.n.p.H.J.J.G.r.C.x.o.B.D.l.f.caOaOaOaOaOaOaOaOaOaOaOaOaOaOaOaOaO.i.n.v##.L.s.q.D.i.B.C.raN.r.G.p.f.e.#QtQtQtQtQtQt.e.#.f.p.r.G.J.G.p.u.k.F.C.r.NaS.l.n.kaPaPaPaPaPaPaPaPaPaPaPaPaPaPaPaP.J.d.a.c.m.i.n.o.z.t.p.x.x.z.z.u.z.q",
".g.n.B.z.z.C.y.H.I.G.y.q.t.t.D.F.v.i.f.d.eaOaOaOaOaOaOaOaOaOaOaOaOaOaOaOaOaO.k.n.v.K.N.G.C.D.l.z.p.G.J.G.y.x.c.e.eQtQtQtQtQtQt.e.e.b.t.r.y.4.G.q.o.v.n.q.y.LaS.n.n.haPaPaPaPaPaPaPaPaPaPaPaPaPaPaPaP.r.e.e.e.e.d.a.a.a.f.j.k.h.i.k.k.g.d",
".s.z.z.o.z.t.p.p.x.u.u.v.l.g.b.d.a.#.#.e.d.CaOaOaOaOaOaOaOaOaOaOaOaOaOaOaOaO.l.n.B##.L.y.p.l.D.z.q.GaK.G.r.o.a.eQtQtQtQtQtQtQtQt.e.a.u.s.GaN.H.C.z.n.l.p.r.NaS.D.n.iaPaPaPaPaPaPaPaPaPaPaPaPaPaPaPaP.q.c.b.d.#.e.e.e.e.e.e.e.d.#.d.e.eQt",
".#.m.g.k.h.i.g.j.f.c.a.c.e.e.e.e.e.e.e.e.a.BaOaOaOaOaOaOaOaOaOaOaOaOaOaOaOaO.h.n.FaT.W.y.p.l.D.t.C.J.4.r.q.F.#.eQtQtQtQtQtQtQtQt.e.d.n.s.yaK.I.s.z.B.l.C.s.N.K.B.w.laPaPaPaPaPaPaPaPaPaPaPaPaPaPaPaP.B.D.i.j.#.e.e.e.e.e.e.e.e.e.eQtQtQt",
"Qt.e.e.e.d.#.d.e.e.e.e.e.e.e.a.a.f.f.A.m.w.gaOaOaOaOaOaOaOaOaOaOaOaOaOaOaOaO.l.n.u.XaK.s.r.v.u.x.y.JaK.r.p.l.d.eQtQtQtQtQtQtQtQt.e.e.w.p.GaN.J.s.p.B.n.s.raK.S.B.F.laPaPaPaPaPaPaPaPaPaPaPaPaPaPaPaP.m.s.u.l.A.a.d.e.e.e.e.eQtQtQtQtQtQt",
"QtQtQt.e.e.e.e.e.e.e.e.e.e.d.E.l.n.z.o.x.z.jaOaOaOaOaOaOaOaOaOaOaOaOaOaOaOaO.l.F.BaR.J.r.t.n.o.p.y.4.J.s.B.k.e.eQtQtQtQtQtQtQtQt.e.e.m.o.s.4.J.r.t.z.n.p.y.JaT.B.D.vaPaPaPaPaPaPaPaPaPaPaPaPaPaPaPaP.AQtQtQtQtQtQtQtQtQtQtQtQtQtQtQtQtQt",
"QtQtQtQtQtQt.e.e.e.e.e.#.b.E.l.o.s.J.H.C.z.DaKaOaOaOaOaOaOaOaOaOaOaOaOaOaOaO.n.D.B#aaN.G.x.B.t.p.G.J.H.x.B.E.e.eQtQtQtQtQtQtQtQt.e.e.A.F.p.I.4.r.p.z.B.z.H.4aM.D.F.waPaPaPaPaPaPaPaPaPaPaPaPaPaPaPaPQtQtQtQtQtQtQtQtQtQtQtQtQtQtQtQtQtQt",
"QtQtQtQtQtQtQtQtQtQtQtQtQtQtQtQtQtQtQtQt.EQt.laUaUaUaUaUaUaUaUaUaUaUaUaUaUaU.v.D.n.H.GaN.z.u.z.C.r.J.y.z.v.d.e.eQtQtQtQtQtQtQtQt.e.e.#.w.z.G.I.G.p.t.o.z.4.H.I.n.n.waUaUaUaUaUaUaUaUaUaUaUaUaUaUaU.lQtQtQtQtQtQtQtQtQtQtQtQtQtQtQtQtQtQt",
"QtQtQtQtQtQtQtQtQtQtQtQtQtQtQtQtQtQtQtQtQtQt.AaUaUaUaUaUaUaUaUaUaUaUaUaUaUaU.w.n.F.n.p.u.B.z.x.q.G.y.s.t.m.e.e.eQtQtQtQtQtQtQtQt.e.e.d.g.x.s.G.r.s.t.z.F.z.p.F.n.D.vaUaUaUaUaUaUaUaUaUaUaUaUaUaUaU.fQtQtQtQtQtQtQtQtQtQtQtQtQtQtQtQtQtQt",
"QtQtQtQtQtQtQtQtQtQtQtQtQtQtQtQtQtQtQtQtQtQtQt.BaUaUaUaUaUaUaUaUaUaUaUaUaUaU.l.n.n.F.F.B.o.z.t.s.s.p.C.B.f.e.e.eQtQtQtQtQtQtQtQt.e.e.e.A.D.q.p.s.C.x.z.u.B.B.D.D.v.vaUaUaUaUaUaUaUaUaUaUaUaUaUaU.DQtQtQtQtQtQtQtQtQtQtQtQtQtQtQtQtQtQtQt",
"QtQtQtQtQtQtQtQtQtQtQtQtQtQtQtQtQtQtQtQtQtQtQtQt.qaUaUaUaUaUaUaUaUaUaUaUaU.i.w.v.n.n.B.B.u.z.p.C.q.p.q.k.A.e.eQtQtQtQtQtQtQtQtQtQt.e.#.f.k.C.q.p.q.p.z.o.u.F.F.n.w.laUaUaUaUaUaUaUaUaUaUaUaUaUaUQtQtQtQtQtQtQtQtQtQtQtQtQtQtQtQtQtQtQtQt",
"QtQtQtQtQtQtQtQtQtQtQtQtQtQtQtQtQtQtQtQtQtQtQtQtQtQtaUaUaUaUaUaUaUaUaUaUaU.k.l.v.v.n.D.B.B.z.z.z.t.s.o.E.f.d.eQtQtQtQtQtQtQtQtQtQt.e.e.E.f.u.s.p.z.x.o.o.B.F.n.n.l.l.kaUaUaUaUaUaUaUaUaUaUaUaUQtQtQtQtQtQtQtQtQtQtQtQtQtQtQtQtQtQtQtQtQt",
"QtQtQtQtQtQtQtQtQtQtQtQtQtQtQtQtQtQtQtQtQtQtQtQtQt.j.saUaUaUaUaUaUaUaUaU.z.k.w.v.n.n.B.B.o.F.B.u.q.p.i.j.m.bQtQtQtQtQtQtQtQtQtQtQtQt.f.g.g.k.p.C.z.D.B.B.B.D.F.w.w.l.k.uaUaUaUaUaUaUaUaUaUaU.mQtQtQtQtQtQtQtQtQtQtQtQtQtQtQtQtQtQtQtQtQt",
"QtQtQtQtQtQtQtQtQtQtQtQtQtQtQtQtQtQtQtQtQtQtQtQtQtQt.E.qaUaUaUaUaUaUaUaU.g.h.l.n.n.D.D.F.v.n.B.x.t.n.j.l.l.j.jQtQtQtQtQtQtQtQtQtQt.j.j.l.l.g.w.p.t.B.w.n.n.F.n.n.v.v.k.kaUaUaUaUaUaUaUaUaUaUQtQtQtQtQtQtQtQtQtQtQtQtQtQtQtQtQtQtQtQtQtQt",
"QtQtQtQtQtQtQtQtQtQtQtQtQtQtQtQtQtQtQtQtQtQtQtQtQtQtQt.a.n.LaUaUaUaUaU.n.m.h.w.v.n.w.w.v.F.B.z.u.B.v.o.p.x.l.jQtQtQtQtQtQtQtQtQtQt.A.w.z.p.B.w.D.z.z.u.n.w.v.n.w.w.v.i.g.n.LaUaUaUaUaUaU.aQtQtQtQtQtQtQtQtQtQtQtQtQtQtQtQtQtQtQtQtQtQtQt",
"QtQtQtQtQtQtQtQtQtQtQtQtQtQtQtQtQtQtQtQtQtQtQtQtQtQtQtQt.a.f.k.p.z.F.l.k.m.l.l.l.i.w.n.B.o.u.D.n.n.u.C.r.G.C.v.gQtQtQtQtQtQtQtQt.j.n.p.G.y.s.o.D.v.F.o.u.B.D.l.l.h.l.h.k.g.v.D.z.t.i.c.cQtQtQtQtQtQtQtQtQtQtQtQtQtQtQtQtQtQtQtQtQtQtQtQt",
"QtQtQtQtQtQtQtQtQtQtQtQtQtQtQtQtQtQtQtQtQtQtQtQtQtQtQtQtQt.a.a.c.j.g.k.k.l.l.w.w.D.D.B.B.B.v.w.w.u.z.s.G.H.s.s.l.iQtQtQtQtQtQt.h.l.q.r.I.H.q.x.B.n.l.w.F.u.B.B.n.n.v.l.l.i.m.m.j.b.d.bQtQtQtQtQtQtQtQtQtQtQtQtQtQtQtQtQtQtQtQtQtQtQtQtQt",
"QtQtQtQtQtQtQtQtQtQtQtQtQtQtQtQtQtQtQtQtQtQtQtQtQtQtQtQtQtQt.e.d.c.j.m.l.l.n.n.n.n.n.l.i.h.k.k.l.n.o.z.C.y.s.C.C.l.nQtQtQtQt.v.l.p.s.q.r.p.t.B.n.l.k.k.i.h.l.w.D.n.n.v.w.h.k.j.f.e.#QtQtQtQtQtQtQtQtQtQtQtQtQtQtQtQtQtQtQtQtQtQtQtQtQtQt",
"QtQtQtQtQtQtQtQtQtQtQtQtQtQtQtQtQtQtQtQtQtQtQt#VaVaWaJQtQtQtQtaX.d.a.f.b.f.E.jaYaZa0a0.fa1.f.j.k.n.n.F.D.u.z.x.p.x.lQtQtQtQt.l.t.p.t.x.o.F.n.D.v.k.A.f.fa0.E.jaYaZ.j.A.f.f.b.b.#.aQtQtQtQtaJ#ma2aJQtQtQtQtQtQtQtQtQtQtQtQtQtQtQtQtQtQtQt",
"QtQtQtQtQtQtQtQtQtQtQtQtQtQtQtQtQtQtQtQtQtQta3a4#Ba5a6a7a8a9b.b#b.babbbcbdbe#UbeaGaWbfbgbfbgbh.a.a.f.E.j.k.l.v.w.D.l.gQtQt.m.l.F.v.w.l.k.j.A.f.c.dbibfbgbfbga2acbebjbkblbdbjbmaubnboa9bpbqbrbs#rbtbuQtQtQtQtQtQtQtQtQtQtQtQtQtQtQtQtQtQt",
"QtQtQtQtQtQtQtQtQtQtQtQtQtQtQtQtQtQtQtQtQtQtbvbwbxbybzbAbzbB#YbC#1bDbE#6bFai#WbababGbHbIaFbJbKQtQtQtQt.#.a.f.j.m.m.g.AQtQt.f.m.g.k.j.f.a.dQtQtQtQtaWawbeaGaWbebmbLabafagbMbN#3#1bCbCbz#ZbObPbxbxbQadQtQtQtQtQtQtQtQtQtQtQtQtQtQtQtQtQtQt",
"QtQtQtQtQtQtQtQtQtQtQtQtQtQtQtQtQtQtQtQtQtQtbRbSbTbUatatajaibVatbW#OaDabapata3bX#EbYbZaWbYaJbfQtQtQtQtQtQtQtQtQt.j.gQtQtQtQt.j.jQtQtQtQtQtQtQtQtQtbfaJb0aWb1aJbXb2buatatabaqaqapapaibVafataeagb3a9b4QtQtQtQtQtQtQtQtQtQtQtQtQtQtQtQtQtQt",
"QtQtQtQtQtQtQtQtQtQtQtQtQtQtQtQtQtQtQtQtQtQtQt#cb5b6bib7bibibibhb8bhbibia2QtaJb9b0bKaW#Vc.QtQtQtQtQtQtQtQtQtQtQtQtQtQtQtQtQtQtQtQtQtQtQtQtQtQtQtQtQtQtavaJa2#VbY#V#VQta2c#b8b8bhb8b8bibibib8cacbaWQtQtQtQtQtQtQtQtQtQtQtQtQtQtQtQtQtQtQt"};
