/* XPM */
static char *graphic[] = {
"24 24 5 1",
". c None",
", c #000000",
"- c #FFFFFF",
"* c #FFFF00",
"a c #FF0000",
"........................",
"........................",
"..,,,,,,,,,,,,,,,,,,....",
"..,----------------,....",
"..,---,,-,,,,,,,,,-,....",
"..,---,,-,*******,-,....",
"..,--,-,-,*aaaaa*,-,....",
"..,--,,,-,*aaaaa*,-,....",
"..,-,--,-,*******,-,....",
"..,-,--,-,,,,,,,,,-,....",
"..,-----------,a,--,....",
"..,-a-,,,,,,,-,a,--,....",
"..,-----------,a,--,....",
"..,-a-,,,,,,,-,a,,,,,...",
"..,-----------,a,a,a,,..",
"..,-a-,,,,,--,,a,a,a,,..",
"..,---------,a,aaaaaa,..",
"..,-a-,,,,,-,a,aaaaaa,..",
"..,---------,a,aaaaaa,..",
"..,----------,aaaaaaa,..",
"..,,,,,,,,,,,,,aaaaa,,..",
"...............,aaaa,...",
"................,,,,....",
"........................"}
