0
SECTION
2
ENTITIES
0
3DFACE
8
0
10
0.193734
20
51.470558
30
2.880471
11
17.860910
21
48.355358
31
10.668720
12
17.860910
22
48.355358
32
2.880471
13
17.860910
23
48.355358
33
2.880471
0
3DFACE
8
0
10
0.193734
20
51.470558
30
2.880471
11
0.193734
21
51.470558
31
10.668720
12
17.860910
22
48.355358
32
10.668720
13
17.860910
23
48.355358
33
10.668720
0
3DFACE
8
0
10
0.193733
20
48.119652
30
9.468719
11
4.879229
21
12.688500
31
9.468719
12
16.714830
22
45.206539
32
9.468719
13
16.714830
23
45.206539
33
9.468719
0
3DFACE
8
0
10
0.193733
20
48.119652
30
9.468719
11
0.193736
21
13.514670
31
9.468719
12
4.879229
22
12.688500
32
9.468719
13
4.879229
23
12.688500
33
9.468719
0
3DFACE
8
0
10
0.193736
20
10.163770
30
10.668720
11
3.733151
21
9.539672
31
2.880471
12
3.733151
22
9.539672
32
10.668720
13
3.733151
23
9.539672
33
10.668720
0
3DFACE
8
0
10
0.193736
20
10.163770
30
10.668720
11
0.193736
21
10.163770
31
2.880471
12
3.733151
22
9.539672
32
2.880471
13
3.733151
23
9.539672
33
2.880471
0
3DFACE
8
0
10
0.193736
20
13.514670
30
4.080471
11
16.714830
21
45.206539
31
4.080471
12
4.879229
22
12.688500
32
4.080471
13
4.879229
23
12.688500
33
4.080471
0
3DFACE
8
0
10
0.193736
20
13.514670
30
4.080471
11
0.193733
21
48.119652
31
4.080471
12
16.714830
22
45.206539
32
4.080471
13
16.714830
23
45.206539
33
4.080471
0
3DFACE
8
0
10
25.927370
20
58.762711
30
4.662558
11
38.376949
21
51.574940
31
8.886632
12
38.376949
22
51.574940
32
4.662558
13
38.376949
23
51.574940
33
4.662558
0
3DFACE
8
0
10
25.927370
20
58.762711
30
4.662558
11
25.927370
21
58.762711
31
8.886632
12
38.376949
22
51.574940
32
8.886632
13
38.376949
23
51.574940
33
8.886632
0
3DFACE
8
0
10
16.714830
20
45.206539
30
9.468719
11
8.999583
21
10.309610
31
9.468719
12
31.243231
22
36.818562
32
9.468719
13
31.243231
23
36.818562
33
9.468719
0
3DFACE
8
0
10
16.714830
20
45.206539
30
9.468719
11
4.879229
21
12.688500
31
9.468719
12
8.999583
22
10.309610
32
9.468719
13
8.999583
23
10.309610
33
9.468719
0
3DFACE
8
0
10
3.733151
20
9.539672
30
10.668720
11
6.845661
21
7.742663
31
2.880471
12
6.845661
22
7.742663
32
10.668720
13
6.845661
23
7.742663
33
10.668720
0
3DFACE
8
0
10
3.733151
20
9.539672
30
10.668720
11
3.733151
21
9.539672
31
2.880471
12
6.845661
22
7.742663
32
2.880471
13
6.845661
23
7.742663
33
2.880471
0
3DFACE
8
0
10
4.879229
20
12.688500
30
4.080471
11
31.243231
21
36.818562
31
4.080471
12
8.999583
22
10.309610
32
4.080471
13
8.999583
23
10.309610
33
4.080471
0
3DFACE
8
0
10
4.879229
20
12.688500
30
4.080471
11
16.714830
21
45.206539
31
4.080471
12
31.243231
22
36.818562
32
4.080471
13
31.243231
23
36.818562
33
4.080471
0
3DFACE
8
0
10
33.397160
20
39.385502
30
2.880471
11
44.928581
21
25.642879
31
10.668720
12
44.928581
22
25.642879
32
2.880471
13
44.928581
23
25.642879
33
2.880471
0
3DFACE
8
0
10
33.397160
20
39.385502
30
2.880471
11
33.397160
21
39.385502
31
10.668720
12
44.928581
22
25.642879
32
10.668720
13
44.928581
23
25.642879
33
10.668720
0
3DFACE
8
0
10
31.243231
20
36.818562
30
9.468719
11
12.057820
21
6.664941
31
9.468719
12
42.026611
22
23.967430
32
9.468719
13
42.026611
23
23.967430
33
9.468719
0
3DFACE
8
0
10
31.243231
20
36.818562
30
9.468719
11
8.999583
21
10.309610
31
9.468719
12
12.057820
22
6.664941
32
9.468719
13
12.057820
23
6.664941
33
9.468719
0
3DFACE
8
0
10
6.845661
20
7.742663
30
10.668720
11
9.155849
21
4.989487
31
2.880471
12
9.155849
22
4.989487
32
10.668720
13
9.155849
23
4.989487
33
10.668720
0
3DFACE
8
0
10
6.845661
20
7.742663
30
10.668720
11
6.845661
21
7.742663
31
2.880471
12
9.155849
22
4.989487
32
2.880471
13
9.155849
23
4.989487
33
2.880471
0
3DFACE
8
0
10
8.999583
20
10.309610
30
4.080471
11
42.026611
21
23.967430
31
4.080471
12
12.057820
22
6.664941
32
4.080471
13
12.057820
23
6.664941
33
4.080471
0
3DFACE
8
0
10
8.999583
20
10.309610
30
4.080471
11
31.243231
21
36.818562
31
4.080471
12
42.026611
22
23.967430
32
4.080471
13
42.026611
23
23.967430
33
4.080471
0
3DFACE
8
0
10
57.797562
20
28.430349
30
4.662558
11
62.714279
21
14.921760
31
8.886632
12
62.714279
22
14.921760
32
4.662558
13
62.714279
23
14.921760
33
4.662558
0
3DFACE
8
0
10
57.797562
20
28.430349
30
4.662558
11
57.797562
21
28.430349
31
8.886632
12
62.714279
22
14.921760
32
8.886632
13
62.714279
23
14.921760
33
8.886632
0
3DFACE
8
0
10
42.026611
20
23.967430
30
9.468719
11
13.685080
21
2.194095
31
9.468719
12
47.764320
22
8.203186
32
9.468719
13
47.764320
23
8.203186
33
9.468719
0
3DFACE
8
0
10
42.026611
20
23.967430
30
9.468719
11
12.057820
21
6.664941
31
9.468719
12
13.685080
22
2.194095
32
9.468719
13
13.685080
23
2.194095
33
9.468719
0
3DFACE
8
0
10
9.155849
20
4.989487
30
10.668720
11
10.385080
21
1.612216
31
2.880471
12
10.385080
22
1.612216
32
10.668720
13
10.385080
23
1.612216
33
10.668720
0
3DFACE
8
0
10
9.155849
20
4.989487
30
10.668720
11
9.155849
21
4.989487
31
2.880471
12
10.385080
22
1.612216
32
2.880471
13
10.385080
23
1.612216
33
2.880471
0
3DFACE
8
0
10
12.057820
20
6.664941
30
4.080471
11
47.764320
21
8.203186
31
4.080471
12
13.685080
22
2.194095
32
4.080471
13
13.685080
23
2.194095
33
4.080471
0
3DFACE
8
0
10
12.057820
20
6.664941
30
4.080471
11
42.026611
21
23.967430
31
4.080471
12
47.764320
22
8.203186
32
4.080471
13
47.764320
23
8.203186
33
4.080471
0
3DFACE
8
0
10
51.064320
20
8.785065
30
2.880471
11
51.064320
21
-9.154652
31
10.668720
12
51.064320
22
-9.154652
32
2.880471
13
51.064320
23
-9.154652
33
2.880471
0
3DFACE
8
0
10
51.064320
20
8.785065
30
2.880471
11
51.064320
21
8.785065
31
10.668720
12
51.064320
22
-9.154652
32
10.668720
13
51.064320
23
-9.154652
33
10.668720
0
3DFACE
8
0
10
47.764320
20
8.203186
30
9.468719
11
13.685080
21
-2.563679
31
9.468719
12
47.764320
22
-8.572773
32
9.468719
13
47.764320
23
-8.572773
33
9.468719
0
3DFACE
8
0
10
47.764320
20
8.203186
30
9.468719
11
13.685080
21
2.194095
31
9.468719
12
13.685080
22
-2.563679
32
9.468719
13
13.685080
23
-2.563679
33
9.468719
0
3DFACE
8
0
10
10.385080
20
1.612216
30
10.668720
11
10.385080
21
-1.981800
31
2.880471
12
10.385080
22
-1.981800
32
10.668720
13
10.385080
23
-1.981800
33
10.668720
0
3DFACE
8
0
10
10.385080
20
1.612216
30
10.668720
11
10.385080
21
1.612216
31
2.880471
12
10.385080
22
-1.981800
32
2.880471
13
10.385080
23
-1.981800
33
2.880471
0
3DFACE
8
0
10
13.685080
20
2.194095
30
4.080471
11
47.764320
21
-8.572773
31
4.080471
12
13.685080
22
-2.563679
32
4.080471
13
13.685080
23
-2.563679
33
4.080471
0
3DFACE
8
0
10
13.685080
20
2.194095
30
4.080471
11
47.764320
21
8.203186
31
4.080471
12
47.764320
22
-8.572773
32
4.080471
13
47.764320
23
-8.572773
33
4.080471
0
3DFACE
8
0
10
62.714279
20
-15.291350
30
4.662558
11
57.797562
21
-28.799940
31
8.886632
12
57.797562
22
-28.799940
32
4.662558
13
57.797562
23
-28.799940
33
4.662558
0
3DFACE
8
0
10
62.714279
20
-15.291350
30
4.662558
11
62.714279
21
-15.291350
31
8.886632
12
57.797562
22
-28.799940
32
8.886632
13
57.797562
23
-28.799940
33
8.886632
0
3DFACE
8
0
10
47.764320
20
-8.572773
30
9.468719
11
12.057820
21
-7.034525
31
9.468719
12
42.026611
22
-24.337021
32
9.468719
13
42.026611
23
-24.337021
33
9.468719
0
3DFACE
8
0
10
47.764320
20
-8.572773
30
9.468719
11
13.685080
21
-2.563679
31
9.468719
12
12.057820
22
-7.034525
32
9.468719
13
12.057820
23
-7.034525
33
9.468719
0
3DFACE
8
0
10
10.385080
20
-1.981800
30
10.668720
11
9.155849
21
-5.359071
31
2.880471
12
9.155849
22
-5.359071
32
10.668720
13
9.155849
23
-5.359071
33
10.668720
0
3DFACE
8
0
10
10.385080
20
-1.981800
30
10.668720
11
10.385080
21
-1.981800
31
2.880471
12
9.155849
22
-5.359071
32
2.880471
13
9.155849
23
-5.359071
33
2.880471
0
3DFACE
8
0
10
13.685080
20
-2.563679
30
4.080471
11
42.026611
21
-24.337021
31
4.080471
12
12.057820
22
-7.034525
32
4.080471
13
12.057820
23
-7.034525
33
4.080471
0
3DFACE
8
0
10
13.685080
20
-2.563679
30
4.080471
11
47.764320
21
-8.572773
31
4.080471
12
42.026611
22
-24.337021
32
4.080471
13
42.026611
23
-24.337021
33
4.080471
0
3DFACE
8
0
10
44.928581
20
-26.012470
30
2.880471
11
33.397148
21
-39.755089
31
10.668720
12
33.397148
22
-39.755089
32
2.880471
13
33.397148
23
-39.755089
33
2.880471
0
3DFACE
8
0
10
44.928581
20
-26.012470
30
2.880471
11
44.928581
21
-26.012470
31
10.668720
12
33.397148
22
-39.755089
32
10.668720
13
33.397148
23
-39.755089
33
10.668720
0
3DFACE
8
0
10
42.026611
20
-24.337021
30
9.468719
11
8.999581
21
-10.679190
31
9.468719
12
31.243231
22
-37.188141
32
9.468719
13
31.243231
23
-37.188141
33
9.468719
0
3DFACE
8
0
10
42.026611
20
-24.337021
30
9.468719
11
12.057820
21
-7.034525
31
9.468719
12
8.999581
22
-10.679190
32
9.468719
13
8.999581
23
-10.679190
33
9.468719
0
3DFACE
8
0
10
9.155849
20
-5.359071
30
10.668720
11
6.845660
21
-8.112247
31
2.880471
12
6.845660
22
-8.112247
32
10.668720
13
6.845660
23
-8.112247
33
10.668720
0
3DFACE
8
0
10
9.155849
20
-5.359071
30
10.668720
11
9.155849
21
-5.359071
31
2.880471
12
6.845660
22
-8.112247
32
2.880471
13
6.845660
23
-8.112247
33
2.880471
0
3DFACE
8
0
10
12.057820
20
-7.034525
30
4.080471
11
31.243231
21
-37.188141
31
4.080471
12
8.999581
22
-10.679190
32
4.080471
13
8.999581
23
-10.679190
33
4.080471
0
3DFACE
8
0
10
12.057820
20
-7.034525
30
4.080471
11
42.026611
21
-24.337021
31
4.080471
12
31.243231
22
-37.188141
32
4.080471
13
31.243231
23
-37.188141
33
4.080471
0
3DFACE
8
0
10
38.376949
20
-51.944519
30
4.662558
11
25.927361
21
-59.132290
31
8.886632
12
25.927361
22
-59.132290
32
4.662558
13
25.927361
23
-59.132290
33
4.662558
0
3DFACE
8
0
10
38.376949
20
-51.944519
30
4.662558
11
38.376949
21
-51.944519
31
8.886632
12
25.927361
22
-59.132290
32
8.886632
13
25.927361
23
-59.132290
33
8.886632
0
3DFACE
8
0
10
31.243231
20
-37.188141
30
9.468719
11
4.879228
21
-13.058080
31
9.468719
12
16.714821
22
-45.576118
32
9.468719
13
16.714821
23
-45.576118
33
9.468719
0
3DFACE
8
0
10
31.243231
20
-37.188141
30
9.468719
11
8.999581
21
-10.679190
31
9.468719
12
4.879228
22
-13.058080
32
9.468719
13
4.879228
23
-13.058080
33
9.468719
0
3DFACE
8
0
10
6.845660
20
-8.112247
30
10.668720
11
3.733150
21
-9.909255
31
2.880471
12
3.733150
22
-9.909255
32
10.668720
13
3.733150
23
-9.909255
33
10.668720
0
3DFACE
8
0
10
6.845660
20
-8.112247
30
10.668720
11
6.845660
21
-8.112247
31
2.880471
12
3.733150
22
-9.909255
32
2.880471
13
3.733150
23
-9.909255
33
2.880471
0
3DFACE
8
0
10
8.999581
20
-10.679190
30
4.080471
11
16.714821
21
-45.576118
31
4.080471
12
4.879228
22
-13.058080
32
4.080471
13
4.879228
23
-13.058080
33
4.080471
0
3DFACE
8
0
10
8.999581
20
-10.679190
30
4.080471
11
31.243231
21
-37.188141
31
4.080471
12
16.714821
22
-45.576118
32
4.080471
13
16.714821
23
-45.576118
33
4.080471
0
3DFACE
8
0
10
17.860901
20
-48.724949
30
2.880471
11
0.193729
21
-51.840141
31
10.668720
12
0.193729
22
-51.840141
32
2.880471
13
0.193729
23
-51.840141
33
2.880471
0
3DFACE
8
0
10
17.860901
20
-48.724949
30
2.880471
11
17.860901
21
-48.724949
31
10.668720
12
0.193729
22
-51.840141
32
10.668720
13
0.193729
23
-51.840141
33
10.668720
0
3DFACE
8
0
10
16.714821
20
-45.576118
30
9.468719
11
0.193734
21
-13.884260
31
9.468719
12
0.193730
22
-48.489231
32
9.468719
13
0.193730
23
-48.489231
33
9.468719
0
3DFACE
8
0
10
16.714821
20
-45.576118
30
9.468719
11
4.879228
21
-13.058080
31
9.468719
12
0.193734
22
-13.884260
32
9.468719
13
0.193734
23
-13.884260
33
9.468719
0
3DFACE
8
0
10
3.733150
20
-9.909255
30
10.668720
11
0.193735
21
-10.533350
31
2.880471
12
0.193735
22
-10.533350
32
10.668720
13
0.193735
23
-10.533350
33
10.668720
0
3DFACE
8
0
10
3.733150
20
-9.909255
30
10.668720
11
3.733150
21
-9.909255
31
2.880471
12
0.193735
22
-10.533350
32
2.880471
13
0.193735
23
-10.533350
33
2.880471
0
3DFACE
8
0
10
4.879228
20
-13.058080
30
4.080471
11
0.193730
21
-48.489231
31
4.080471
12
0.193734
22
-13.884260
32
4.080471
13
0.193734
23
-13.884260
33
4.080471
0
3DFACE
8
0
10
4.879228
20
-13.058080
30
4.080471
11
16.714821
21
-45.576118
31
4.080471
12
0.193730
22
-48.489231
32
4.080471
13
0.193730
23
-48.489231
33
4.080471
0
3DFACE
8
0
10
-3.826746
20
-64.378738
30
4.662558
11
-17.983891
21
-61.882450
31
8.886632
12
-17.983891
22
-61.882450
32
4.662558
13
-17.983891
23
-61.882450
33
4.662558
0
3DFACE
8
0
10
-3.826746
20
-64.378738
30
4.662558
11
-3.826746
21
-64.378738
31
8.886632
12
-17.983891
22
-61.882450
32
8.886632
13
-17.983891
23
-61.882450
33
8.886632
0
3DFACE
8
0
10
0.193730
20
-48.489231
30
9.468719
11
-4.491759
21
-13.058080
31
9.468719
12
-16.327360
22
-45.576111
32
9.468719
13
-16.327360
23
-45.576111
33
9.468719
0
3DFACE
8
0
10
0.193730
20
-48.489231
30
9.468719
11
0.193734
21
-13.884260
31
9.468719
12
-4.491759
22
-13.058080
32
9.468719
13
-4.491759
23
-13.058080
33
9.468719
0
3DFACE
8
0
10
0.193735
20
-10.533350
30
10.668720
11
-3.345680
21
-9.909254
31
2.880471
12
-3.345680
22
-9.909254
32
10.668720
13
-3.345680
23
-9.909254
33
10.668720
0
3DFACE
8
0
10
0.193735
20
-10.533350
30
10.668720
11
0.193735
21
-10.533350
31
2.880471
12
-3.345680
22
-9.909254
32
2.880471
13
-3.345680
23
-9.909254
33
2.880471
0
3DFACE
8
0
10
0.193734
20
-13.884260
30
4.080471
11
-16.327360
21
-45.576111
31
4.080471
12
-4.491759
22
-13.058080
32
4.080471
13
-4.491759
23
-13.058080
33
4.080471
0
3DFACE
8
0
10
0.193734
20
-13.884260
30
4.080471
11
0.193730
21
-48.489231
31
4.080471
12
-16.327360
22
-45.576111
32
4.080471
13
-16.327360
23
-45.576111
33
4.080471
0
3DFACE
8
0
10
-17.473440
20
-48.724941
30
2.880471
11
-33.009689
21
-39.755081
31
10.668720
12
-33.009689
22
-39.755081
32
2.880471
13
-33.009689
23
-39.755081
33
2.880471
0
3DFACE
8
0
10
-17.473440
20
-48.724941
30
2.880471
11
-17.473440
21
-48.724941
31
10.668720
12
-33.009689
22
-39.755081
32
10.668720
13
-33.009689
23
-39.755081
33
10.668720
0
3DFACE
8
0
10
-16.327360
20
-45.576111
30
9.468719
11
-8.612113
21
-10.679190
31
9.468719
12
-30.855770
22
-37.188129
32
9.468719
13
-30.855770
23
-37.188129
33
9.468719
0
3DFACE
8
0
10
-16.327360
20
-45.576111
30
9.468719
11
-4.491759
21
-13.058080
31
9.468719
12
-8.612113
22
-10.679190
32
9.468719
13
-8.612113
23
-10.679190
33
9.468719
0
3DFACE
8
0
10
-3.345680
20
-9.909254
30
10.668720
11
-6.458190
21
-8.112245
31
2.880471
12
-6.458190
22
-8.112245
32
10.668720
13
-6.458190
23
-8.112245
33
10.668720
0
3DFACE
8
0
10
-3.345680
20
-9.909254
30
10.668720
11
-3.345680
21
-9.909254
31
2.880471
12
-6.458190
22
-8.112245
32
2.880471
13
-6.458190
23
-8.112245
33
2.880471
0
3DFACE
8
0
10
-4.491759
20
-13.058080
30
4.080471
11
-30.855770
21
-37.188129
31
4.080471
12
-8.612113
22
-10.679190
32
4.080471
13
-8.612113
23
-10.679190
33
4.080471
0
3DFACE
8
0
10
-4.491759
20
-13.058080
30
4.080471
11
-16.327360
21
-45.576111
31
4.080471
12
-30.855770
22
-37.188129
32
4.080471
13
-30.855770
23
-37.188129
33
4.080471
0
3DFACE
8
0
10
-44.149200
20
-46.775890
30
4.662558
11
-53.389629
21
-35.763592
31
8.886632
12
-53.389629
22
-35.763592
32
4.662558
13
-53.389629
23
-35.763592
33
4.662558
0
3DFACE
8
0
10
-44.149200
20
-46.775890
30
4.662558
11
-44.149200
21
-46.775890
31
8.886632
12
-53.389629
22
-35.763592
32
8.886632
13
-53.389629
23
-35.763592
33
8.886632
0
3DFACE
8
0
10
-30.855770
20
-37.188129
30
9.468719
11
-11.670350
21
-7.034522
31
9.468719
12
-41.639141
22
-24.337000
32
9.468719
13
-41.639141
23
-24.337000
33
9.468719
0
3DFACE
8
0
10
-30.855770
20
-37.188129
30
9.468719
11
-8.612113
21
-10.679190
31
9.468719
12
-11.670350
22
-7.034522
32
9.468719
13
-11.670350
23
-7.034522
33
9.468719
0
3DFACE
8
0
10
-6.458190
20
-8.112245
30
10.668720
11
-8.768378
21
-5.359068
31
2.880471
12
-8.768378
22
-5.359068
32
10.668720
13
-8.768378
23
-5.359068
33
10.668720
0
3DFACE
8
0
10
-6.458190
20
-8.112245
30
10.668720
11
-6.458190
21
-8.112245
31
2.880471
12
-8.768378
22
-5.359068
32
2.880471
13
-8.768378
23
-5.359068
33
2.880471
0
3DFACE
8
0
10
-8.612113
20
-10.679190
30
4.080471
11
-41.639141
21
-24.337000
31
4.080471
12
-11.670350
22
-7.034522
32
4.080471
13
-11.670350
23
-7.034522
33
4.080471
0
3DFACE
8
0
10
-8.612113
20
-10.679190
30
4.080471
11
-30.855770
21
-37.188129
31
4.080471
12
-41.639141
22
-24.337000
32
4.080471
13
-41.639141
23
-24.337000
33
4.080471
0
3DFACE
8
0
10
-44.541111
20
-26.012461
30
2.880471
11
-50.676849
21
-9.154638
31
10.668720
12
-50.676849
22
-9.154638
32
2.880471
13
-50.676849
23
-9.154638
33
2.880471
0
3DFACE
8
0
10
-44.541111
20
-26.012461
30
2.880471
11
-44.541111
21
-26.012461
31
10.668720
12
-50.676849
22
-9.154638
32
10.668720
13
-50.676849
23
-9.154638
33
10.668720
0
3DFACE
8
0
10
-41.639141
20
-24.337000
30
9.468719
11
-13.297600
21
-2.563676
31
9.468719
12
-47.376850
22
-8.572760
32
9.468719
13
-47.376850
23
-8.572760
33
9.468719
0
3DFACE
8
0
10
-41.639141
20
-24.337000
30
9.468719
11
-11.670350
21
-7.034522
31
9.468719
12
-13.297600
22
-2.563676
32
9.468719
13
-13.297600
23
-2.563676
33
9.468719
0
3DFACE
8
0
10
-8.768378
20
-5.359068
30
10.668720
11
-9.997604
21
-1.981798
31
2.880471
12
-9.997604
22
-1.981798
32
10.668720
13
-9.997604
23
-1.981798
33
10.668720
0
3DFACE
8
0
10
-8.768378
20
-5.359068
30
10.668720
11
-8.768378
21
-5.359068
31
2.880471
12
-9.997604
22
-1.981798
32
2.880471
13
-9.997604
23
-1.981798
33
2.880471
0
3DFACE
8
0
10
-11.670350
20
-7.034522
30
4.080471
11
-47.376850
21
-8.572760
31
4.080471
12
-13.297600
22
-2.563676
32
4.080471
13
-13.297600
23
-2.563676
33
4.080471
0
3DFACE
8
0
10
-11.670350
20
-7.034522
30
4.080471
11
-41.639141
21
-24.337000
31
4.080471
12
-47.376850
22
-8.572760
32
4.080471
13
-47.376850
23
-8.572760
33
4.080471
0
3DFACE
8
0
10
-63.723110
20
-7.372548
30
4.662558
11
-63.723110
21
7.002993
31
8.886632
12
-63.723110
22
7.002993
32
4.662558
13
-63.723110
23
7.002993
33
4.662558
0
3DFACE
8
0
10
-63.723110
20
-7.372548
30
4.662558
11
-63.723110
21
-7.372548
31
8.886632
12
-63.723110
22
7.002993
32
8.886632
13
-63.723110
23
7.002993
33
8.886632
0
3DFACE
8
0
10
-47.376850
20
-8.572760
30
9.468719
11
-13.297600
21
2.194099
31
9.468719
12
-47.376850
22
8.203197
32
9.468719
13
-47.376850
23
8.203197
33
9.468719
0
3DFACE
8
0
10
-47.376850
20
-8.572760
30
9.468719
11
-13.297600
21
-2.563676
31
9.468719
12
-13.297600
22
2.194099
32
9.468719
13
-13.297600
23
2.194099
33
9.468719
0
3DFACE
8
0
10
-9.997604
20
-1.981798
30
10.668720
11
-9.997603
21
1.612219
31
2.880471
12
-9.997603
22
1.612219
32
10.668720
13
-9.997603
23
1.612219
33
10.668720
0
3DFACE
8
0
10
-9.997604
20
-1.981798
30
10.668720
11
-9.997604
21
-1.981798
31
2.880471
12
-9.997603
22
1.612219
32
2.880471
13
-9.997603
23
1.612219
33
2.880471
0
3DFACE
8
0
10
-13.297600
20
-2.563676
30
4.080471
11
-47.376850
21
8.203197
31
4.080471
12
-13.297600
22
2.194099
32
4.080471
13
-13.297600
23
2.194099
33
4.080471
0
3DFACE
8
0
10
-13.297600
20
-2.563676
30
4.080471
11
-47.376850
21
-8.572760
31
4.080471
12
-47.376850
22
8.203197
32
4.080471
13
-47.376850
23
8.203197
33
4.080471
0
3DFACE
8
0
10
-50.676849
20
8.785077
30
2.880471
11
-44.541100
21
25.642891
31
10.668720
12
-44.541100
22
25.642891
32
2.880471
13
-44.541100
23
25.642891
33
2.880471
0
3DFACE
8
0
10
-50.676849
20
8.785077
30
2.880471
11
-50.676849
21
8.785077
31
10.668720
12
-44.541100
22
25.642891
32
10.668720
13
-44.541100
23
25.642891
33
10.668720
0
3DFACE
8
0
10
-47.376850
20
8.203197
30
9.468719
11
-11.670350
21
6.664944
31
9.468719
12
-41.639130
22
23.967440
32
9.468719
13
-41.639130
23
23.967440
33
9.468719
0
3DFACE
8
0
10
-47.376850
20
8.203197
30
9.468719
11
-13.297600
21
2.194099
31
9.468719
12
-11.670350
22
6.664944
32
9.468719
13
-11.670350
23
6.664944
33
9.468719
0
3DFACE
8
0
10
-9.997603
20
1.612219
30
10.668720
11
-8.768376
21
4.989490
31
2.880471
12
-8.768376
22
4.989490
32
10.668720
13
-8.768376
23
4.989490
33
10.668720
0
3DFACE
8
0
10
-9.997603
20
1.612219
30
10.668720
11
-9.997603
21
1.612219
31
2.880471
12
-8.768376
22
4.989490
32
2.880471
13
-8.768376
23
4.989490
33
2.880471
0
3DFACE
8
0
10
-13.297600
20
2.194099
30
4.080471
11
-41.639130
21
23.967440
31
4.080471
12
-11.670350
22
6.664944
32
4.080471
13
-11.670350
23
6.664944
33
4.080471
0
3DFACE
8
0
10
-13.297600
20
2.194099
30
4.080471
11
-47.376850
21
8.203197
31
4.080471
12
-41.639130
22
23.967440
32
4.080471
13
-41.639130
23
23.967440
33
4.080471
0
3DFACE
8
0
10
-53.389610
20
35.394032
30
4.662558
11
-44.149181
21
46.406330
31
8.886632
12
-44.149181
22
46.406330
32
4.662558
13
-44.149181
23
46.406330
33
4.662558
0
3DFACE
8
0
10
-53.389610
20
35.394032
30
4.662558
11
-53.389610
21
35.394032
31
8.886632
12
-44.149181
22
46.406330
32
8.886632
13
-44.149181
23
46.406330
33
8.886632
0
3DFACE
8
0
10
-41.639130
20
23.967440
30
9.468719
11
-8.612107
21
10.309610
31
9.468719
12
-30.855749
22
36.818569
32
9.468719
13
-30.855749
23
36.818569
33
9.468719
0
3DFACE
8
0
10
-41.639130
20
23.967440
30
9.468719
11
-11.670350
21
6.664944
31
9.468719
12
-8.612107
22
10.309610
32
9.468719
13
-8.612107
23
10.309610
33
9.468719
0
3DFACE
8
0
10
-8.768376
20
4.989490
30
10.668720
11
-6.458186
21
7.742665
31
2.880471
12
-6.458186
22
7.742665
32
10.668720
13
-6.458186
23
7.742665
33
10.668720
0
3DFACE
8
0
10
-8.768376
20
4.989490
30
10.668720
11
-8.768376
21
4.989490
31
2.880471
12
-6.458186
22
7.742665
32
2.880471
13
-6.458186
23
7.742665
33
2.880471
0
3DFACE
8
0
10
-11.670350
20
6.664944
30
4.080471
11
-30.855749
21
36.818569
31
4.080471
12
-8.612107
22
10.309610
32
4.080471
13
-8.612107
23
10.309610
33
4.080471
0
3DFACE
8
0
10
-11.670350
20
6.664944
30
4.080471
11
-41.639130
21
23.967440
31
4.080471
12
-30.855749
22
36.818569
32
4.080471
13
-30.855749
23
36.818569
33
4.080471
0
3DFACE
8
0
10
-33.009670
20
39.385509
30
2.880471
11
-17.473419
21
48.355370
31
10.668720
12
-17.473419
22
48.355370
32
2.880471
13
-17.473419
23
48.355370
33
2.880471
0
3DFACE
8
0
10
-33.009670
20
39.385509
30
2.880471
11
-33.009670
21
39.385509
31
10.668720
12
-17.473419
22
48.355370
32
10.668720
13
-17.473419
23
48.355370
33
10.668720
0
3DFACE
8
0
10
-30.855749
20
36.818569
30
9.468719
11
-4.491753
21
12.688500
31
9.468719
12
-16.327339
22
45.206539
32
9.468719
13
-16.327339
23
45.206539
33
9.468719
0
3DFACE
8
0
10
-30.855749
20
36.818569
30
9.468719
11
-8.612107
21
10.309610
31
9.468719
12
-4.491753
22
12.688500
32
9.468719
13
-4.491753
23
12.688500
33
9.468719
0
3DFACE
8
0
10
-6.458186
20
7.742665
30
10.668720
11
-3.345676
21
9.539673
31
2.880471
12
-3.345676
22
9.539673
32
10.668720
13
-3.345676
23
9.539673
33
10.668720
0
3DFACE
8
0
10
-6.458186
20
7.742665
30
10.668720
11
-6.458186
21
7.742665
31
2.880471
12
-3.345676
22
9.539673
32
2.880471
13
-3.345676
23
9.539673
33
2.880471
0
3DFACE
8
0
10
-8.612107
20
10.309610
30
4.080471
11
-16.327339
21
45.206539
31
4.080471
12
-4.491753
22
12.688500
32
4.080471
13
-4.491753
23
12.688500
33
4.080471
0
3DFACE
8
0
10
-8.612107
20
10.309610
30
4.080471
11
-30.855749
21
36.818569
31
4.080471
12
-16.327339
22
45.206539
32
4.080471
13
-16.327339
23
45.206539
33
4.080471
0
3DFACE
8
0
10
-17.983860
20
61.512878
30
4.662558
11
-3.826735
21
64.009163
31
8.886632
12
-3.826735
22
64.009163
32
4.662558
13
-3.826735
23
64.009163
33
4.662558
0
3DFACE
8
0
10
-17.983860
20
61.512878
30
4.662558
11
-17.983860
21
61.512878
31
8.886632
12
-3.826735
22
64.009163
32
8.886632
13
-3.826735
23
64.009163
33
8.886632
0
3DFACE
8
0
10
-16.327339
20
45.206539
30
9.468719
11
0.193736
21
13.514670
31
9.468719
12
0.193733
22
48.119652
32
9.468719
13
0.193733
23
48.119652
33
9.468719
0
3DFACE
8
0
10
-16.327339
20
45.206539
30
9.468719
11
-4.491753
21
12.688500
31
9.468719
12
0.193736
22
13.514670
32
9.468719
13
0.193736
23
13.514670
33
9.468719
0
3DFACE
8
0
10
-3.345676
20
9.539673
30
10.668720
11
0.193736
21
10.163770
31
2.880471
12
0.193736
22
10.163770
32
10.668720
13
0.193736
23
10.163770
33
10.668720
0
3DFACE
8
0
10
-3.345676
20
9.539673
30
10.668720
11
-3.345676
21
9.539673
31
2.880471
12
0.193736
22
10.163770
32
2.880471
13
0.193736
23
10.163770
33
2.880471
0
3DFACE
8
0
10
-4.491753
20
12.688500
30
4.080471
11
0.193733
21
48.119652
31
4.080471
12
0.193736
22
13.514670
32
4.080471
13
0.193736
23
13.514670
33
4.080471
0
3DFACE
8
0
10
-4.491753
20
12.688500
30
4.080471
11
-16.327339
21
45.206539
31
4.080471
12
0.193733
22
48.119652
32
4.080471
13
0.193733
23
48.119652
33
4.080471
0
3DFACE
8
0
10
17.860910
20
48.355358
30
2.880471
11
17.860910
21
48.355358
31
10.668720
12
21.947510
22
55.233559
32
10.568720
13
21.947510
23
55.233559
33
10.568720
0
3DFACE
8
0
10
21.947510
20
55.233559
30
10.568720
11
21.947510
21
55.233559
31
2.980470
12
17.860910
22
48.355358
32
2.880471
13
17.860910
23
48.355358
33
2.880471
0
3DFACE
8
0
10
0.193734
20
51.470558
30
10.668720
11
0.193734
21
51.470558
31
2.880471
12
-1.293931
22
59.331661
32
2.980470
13
-1.293931
23
59.331661
33
2.980470
0
3DFACE
8
0
10
-1.293931
20
59.331661
30
2.980470
11
-1.293931
21
59.331661
31
10.568720
12
0.193734
22
51.470558
32
10.668720
13
0.193734
23
51.470558
33
10.668720
0
3DFACE
8
0
10
33.397160
20
39.385502
30
10.668720
11
33.397160
21
39.385502
31
2.880471
12
37.310551
22
46.363701
32
2.980470
13
37.310551
23
46.363701
33
2.980470
0
3DFACE
8
0
10
37.310551
20
46.363701
30
2.980470
11
37.310551
21
46.363701
31
10.568720
12
33.397160
22
39.385502
32
10.668720
13
33.397160
23
39.385502
33
10.668720
0
3DFACE
8
0
10
33.397160
20
39.385502
30
2.880471
11
17.860910
21
48.355358
31
2.880471
12
21.947510
22
55.233559
32
2.980470
13
21.947510
23
55.233559
33
2.980470
0
3DFACE
8
0
10
21.947510
20
55.233559
30
2.980470
11
37.310551
21
46.363701
31
2.980470
12
33.397160
22
39.385502
32
2.880471
13
33.397160
23
39.385502
33
2.880471
0
3DFACE
8
0
10
17.860910
20
48.355358
30
10.668720
11
33.397160
21
39.385502
31
10.668720
12
37.310551
22
46.363701
32
10.568720
13
37.310551
23
46.363701
33
10.568720
0
3DFACE
8
0
10
37.310551
20
46.363701
30
10.568720
11
21.947510
21
55.233559
31
10.568720
12
17.860910
22
48.355358
32
10.668720
13
17.860910
23
48.355358
33
10.668720
0
3DFACE
8
0
10
44.928581
20
25.642879
30
2.880471
11
44.928581
21
25.642879
31
10.668720
12
52.480320
22
28.285070
32
10.568720
13
52.480320
23
28.285070
33
10.568720
0
3DFACE
8
0
10
52.480320
20
28.285070
30
10.568720
11
52.480320
21
28.285070
31
2.980470
12
44.928581
22
25.642879
32
2.880471
13
44.928581
23
25.642879
33
2.880471
0
3DFACE
8
0
10
51.064320
20
8.785065
30
10.668720
11
51.064320
21
8.785065
31
2.880471
12
58.547661
22
11.615190
32
2.980470
13
58.547661
23
11.615190
33
2.980470
0
3DFACE
8
0
10
58.547661
20
11.615190
30
2.980470
11
58.547661
21
11.615190
31
10.568720
12
51.064320
22
8.785065
32
10.668720
13
51.064320
23
8.785065
33
10.668720
0
3DFACE
8
0
10
51.064320
20
8.785065
30
2.880471
11
44.928581
21
25.642879
31
2.880471
12
52.480320
22
28.285070
32
2.980470
13
52.480320
23
28.285070
33
2.980470
0
3DFACE
8
0
10
52.480320
20
28.285070
30
2.980470
11
58.547661
21
11.615190
31
2.980470
12
51.064320
22
8.785065
32
2.880471
13
51.064320
23
8.785065
33
2.880471
0
3DFACE
8
0
10
44.928581
20
25.642879
30
10.668720
11
51.064320
21
8.785065
31
10.668720
12
58.547661
22
11.615190
32
10.568720
13
58.547661
23
11.615190
33
10.568720
0
3DFACE
8
0
10
58.547661
20
11.615190
30
10.568720
11
52.480320
21
28.285070
31
10.568720
12
44.928581
22
25.642879
32
10.668720
13
44.928581
23
25.642879
33
10.668720
0
3DFACE
8
0
10
51.064320
20
-9.154652
30
2.880471
11
51.064320
21
-9.154652
31
10.668720
12
58.547661
22
-11.984780
32
10.568720
13
58.547661
23
-11.984780
33
10.568720
0
3DFACE
8
0
10
58.547661
20
-11.984780
30
10.568720
11
58.547661
21
-11.984780
31
2.980470
12
51.064320
22
-9.154652
32
2.880471
13
51.064320
23
-9.154652
33
2.880471
0
3DFACE
8
0
10
44.928581
20
-26.012470
30
10.668720
11
44.928581
21
-26.012470
31
2.880471
12
52.480320
22
-28.654659
32
2.980470
13
52.480320
23
-28.654659
33
2.980470
0
3DFACE
8
0
10
52.480320
20
-28.654659
30
2.980470
11
52.480320
21
-28.654659
31
10.568720
12
44.928581
22
-26.012470
32
10.668720
13
44.928581
23
-26.012470
33
10.668720
0
3DFACE
8
0
10
44.928581
20
-26.012470
30
2.880471
11
51.064320
21
-9.154652
31
2.880471
12
58.547661
22
-11.984780
32
2.980470
13
58.547661
23
-11.984780
33
2.980470
0
3DFACE
8
0
10
58.547661
20
-11.984780
30
2.980470
11
52.480320
21
-28.654659
31
2.980470
12
44.928581
22
-26.012470
32
2.880471
13
44.928581
23
-26.012470
33
2.880471
0
3DFACE
8
0
10
51.064320
20
-9.154652
30
10.668720
11
44.928581
21
-26.012470
31
10.668720
12
52.480320
22
-28.654659
32
10.568720
13
52.480320
23
-28.654659
33
10.568720
0
3DFACE
8
0
10
52.480320
20
-28.654659
30
10.568720
11
58.547661
21
-11.984780
31
10.568720
12
51.064320
22
-9.154652
32
10.668720
13
51.064320
23
-9.154652
33
10.668720
0
3DFACE
8
0
10
33.397148
20
-39.755089
30
2.880471
11
33.397148
21
-39.755089
31
10.668720
12
37.310551
22
-46.733292
32
10.568720
13
37.310551
23
-46.733292
33
10.568720
0
3DFACE
8
0
10
37.310551
20
-46.733292
30
10.568720
11
37.310551
21
-46.733292
31
2.980470
12
33.397148
22
-39.755089
32
2.880471
13
33.397148
23
-39.755089
33
2.880471
0
3DFACE
8
0
10
17.860901
20
-48.724949
30
10.668720
11
17.860901
21
-48.724949
31
2.880471
12
21.947500
22
-55.603149
32
2.980470
13
21.947500
23
-55.603149
33
2.980470
0
3DFACE
8
0
10
21.947500
20
-55.603149
30
2.980470
11
21.947500
21
-55.603149
31
10.568720
12
17.860901
22
-48.724949
32
10.668720
13
17.860901
23
-48.724949
33
10.668720
0
3DFACE
8
0
10
17.860901
20
-48.724949
30
2.880471
11
33.397148
21
-39.755089
31
2.880471
12
37.310551
22
-46.733292
32
2.980470
13
37.310551
23
-46.733292
33
2.980470
0
3DFACE
8
0
10
37.310551
20
-46.733292
30
2.980470
11
21.947500
21
-55.603149
31
2.980470
12
17.860901
22
-48.724949
32
2.880471
13
17.860901
23
-48.724949
33
2.880471
0
3DFACE
8
0
10
33.397148
20
-39.755089
30
10.668720
11
17.860901
21
-48.724949
31
10.668720
12
21.947500
22
-55.603149
32
10.568720
13
21.947500
23
-55.603149
33
10.568720
0
3DFACE
8
0
10
21.947500
20
-55.603149
30
10.568720
11
37.310551
21
-46.733292
31
10.568720
12
33.397148
22
-39.755089
32
10.668720
13
33.397148
23
-39.755089
33
10.668720
0
3DFACE
8
0
10
0.193729
20
-51.840141
30
2.880471
11
0.193729
21
-51.840141
31
10.668720
12
-1.293939
22
-59.701241
32
10.568720
13
-1.293939
23
-59.701241
33
10.568720
0
3DFACE
8
0
10
-1.293939
20
-59.701241
30
10.568720
11
-1.293939
21
-59.701241
31
2.980470
12
0.193729
22
-51.840141
32
2.880471
13
0.193729
23
-51.840141
33
2.880471
0
3DFACE
8
0
10
-17.473440
20
-48.724941
30
10.668720
11
-17.473440
21
-48.724941
31
2.880471
12
-18.764151
22
-56.620770
32
2.980470
13
-18.764151
23
-56.620770
33
2.980470
0
3DFACE
8
0
10
-18.764151
20
-56.620770
30
2.980470
11
-18.764151
21
-56.620770
31
10.568720
12
-17.473440
22
-48.724941
32
10.668720
13
-17.473440
23
-48.724941
33
10.668720
0
3DFACE
8
0
10
-17.473440
20
-48.724941
30
2.880471
11
0.193729
21
-51.840141
31
2.880471
12
-1.293939
22
-59.701241
32
2.980470
13
-1.293939
23
-59.701241
33
2.980470
0
3DFACE
8
0
10
-1.293939
20
-59.701241
30
2.980470
11
-18.764151
21
-56.620770
31
2.980470
12
-17.473440
22
-48.724941
32
2.880471
13
-17.473440
23
-48.724941
33
2.880471
0
3DFACE
8
0
10
0.193729
20
-51.840141
30
10.668720
11
-17.473440
21
-48.724941
31
10.668720
12
-18.764151
22
-56.620770
32
10.568720
13
-18.764151
23
-56.620770
33
10.568720
0
3DFACE
8
0
10
-18.764151
20
-56.620770
30
10.568720
11
-1.293939
21
-59.701241
31
10.568720
12
0.193729
22
-51.840141
32
10.668720
13
0.193729
23
-51.840141
33
10.668720
0
3DFACE
8
0
10
-33.009689
20
-39.755081
30
2.880471
11
-33.009689
21
-39.755081
31
10.668720
12
-39.202320
22
-44.820770
32
10.568720
13
-39.202320
23
-44.820770
33
10.568720
0
3DFACE
8
0
10
-39.202320
20
-44.820770
30
10.568720
11
-39.202320
21
-44.820770
31
2.980470
12
-33.009689
22
-39.755081
32
2.880471
13
-33.009689
23
-39.755081
33
2.880471
0
3DFACE
8
0
10
-44.541111
20
-26.012461
30
10.668720
11
-44.541111
21
-26.012461
31
2.880471
12
-50.605190
22
-31.231359
32
2.980470
13
-50.605190
23
-31.231359
33
2.980470
0
3DFACE
8
0
10
-50.605190
20
-31.231359
30
2.980470
11
-50.605190
21
-31.231359
31
10.568720
12
-44.541111
22
-26.012461
32
10.668720
13
-44.541111
23
-26.012461
33
10.668720
0
3DFACE
8
0
10
-44.541111
20
-26.012461
30
2.880471
11
-33.009689
21
-39.755081
31
2.880471
12
-39.202320
22
-44.820770
32
2.980470
13
-39.202320
23
-44.820770
33
2.980470
0
3DFACE
8
0
10
-39.202320
20
-44.820770
30
2.980470
11
-50.605190
21
-31.231359
31
2.980470
12
-44.541111
22
-26.012461
32
2.880471
13
-44.541111
23
-26.012461
33
2.880471
0
3DFACE
8
0
10
-33.009689
20
-39.755081
30
10.668720
11
-44.541111
21
-26.012461
31
10.668720
12
-50.605190
22
-31.231359
32
10.568720
13
-50.605190
23
-31.231359
33
10.568720
0
3DFACE
8
0
10
-50.605190
20
-31.231359
30
10.568720
11
-39.202320
21
-44.820770
31
10.568720
12
-33.009689
22
-39.755081
32
10.668720
13
-33.009689
23
-39.755081
33
10.668720
0
3DFACE
8
0
10
-50.676849
20
-9.154638
30
2.880471
11
-50.676849
21
-9.154638
31
10.668720
12
-58.676849
22
-9.054636
32
10.568720
13
-58.676849
23
-9.054636
33
10.568720
0
3DFACE
8
0
10
-58.676849
20
-9.054636
30
10.568720
11
-58.676849
21
-9.054636
31
2.980470
12
-50.676849
22
-9.154638
32
2.880471
13
-50.676849
23
-9.154638
33
2.880471
0
3DFACE
8
0
10
-50.676849
20
8.785077
30
10.668720
11
-50.676849
21
8.785077
31
2.880471
12
-58.676849
22
8.685079
32
2.980470
13
-58.676849
23
8.685079
33
2.980470
0
3DFACE
8
0
10
-58.676849
20
8.685079
30
2.980470
11
-58.676849
21
8.685079
31
10.568720
12
-50.676849
22
8.785077
32
10.668720
13
-50.676849
23
8.785077
33
10.668720
0
3DFACE
8
0
10
-50.676849
20
8.785077
30
2.880471
11
-50.676849
21
-9.154638
31
2.880471
12
-58.676849
22
-9.054636
32
2.980470
13
-58.676849
23
-9.054636
33
2.980470
0
3DFACE
8
0
10
-58.676849
20
-9.054636
30
2.980470
11
-58.676849
21
8.685079
31
2.980470
12
-50.676849
22
8.785077
32
2.880471
13
-50.676849
23
8.785077
33
2.880471
0
3DFACE
8
0
10
-50.676849
20
-9.154638
30
10.668720
11
-50.676849
21
8.785077
31
10.668720
12
-58.676849
22
8.685079
32
10.568720
13
-58.676849
23
8.685079
33
10.568720
0
3DFACE
8
0
10
-58.676849
20
8.685079
30
10.568720
11
-58.676849
21
-9.054636
31
10.568720
12
-50.676849
22
-9.154638
32
10.668720
13
-50.676849
23
-9.154638
33
10.668720
0
3DFACE
8
0
10
-44.541100
20
25.642891
30
2.880471
11
-44.541100
21
25.642891
31
10.668720
12
-50.605179
22
30.861799
32
10.568720
13
-50.605179
23
30.861799
33
10.568720
0
3DFACE
8
0
10
-50.605179
20
30.861799
30
10.568720
11
-50.605179
21
30.861799
31
2.980470
12
-44.541100
22
25.642891
32
2.880471
13
-44.541100
23
25.642891
33
2.880471
0
3DFACE
8
0
10
-33.009670
20
39.385509
30
10.668720
11
-33.009670
21
39.385509
31
2.880471
12
-39.202301
22
44.451210
32
2.980470
13
-39.202301
23
44.451210
33
2.980470
0
3DFACE
8
0
10
-39.202301
20
44.451210
30
2.980470
11
-39.202301
21
44.451210
31
10.568720
12
-33.009670
22
39.385509
32
10.668720
13
-33.009670
23
39.385509
33
10.668720
0
3DFACE
8
0
10
-33.009670
20
39.385509
30
2.880471
11
-44.541100
21
25.642891
31
2.880471
12
-50.605179
22
30.861799
32
2.980470
13
-50.605179
23
30.861799
33
2.980470
0
3DFACE
8
0
10
-50.605179
20
30.861799
30
2.980470
11
-39.202301
21
44.451210
31
2.980470
12
-33.009670
22
39.385509
32
2.880471
13
-33.009670
23
39.385509
33
2.880471
0
3DFACE
8
0
10
-44.541100
20
25.642891
30
10.668720
11
-33.009670
21
39.385509
31
10.668720
12
-39.202301
22
44.451210
32
10.568720
13
-39.202301
23
44.451210
33
10.568720
0
3DFACE
8
0
10
-39.202301
20
44.451210
30
10.568720
11
-50.605179
21
30.861799
31
10.568720
12
-44.541100
22
25.642891
32
10.668720
13
-44.541100
23
25.642891
33
10.668720
0
3DFACE
8
0
10
-17.473419
20
48.355370
30
2.880471
11
-17.473419
21
48.355370
31
10.668720
12
-18.764120
22
56.251190
32
10.568720
13
-18.764120
23
56.251190
33
10.568720
0
3DFACE
8
0
10
-18.764120
20
56.251190
30
10.568720
11
-18.764120
21
56.251190
31
2.980470
12
-17.473419
22
48.355370
32
2.880471
13
-17.473419
23
48.355370
33
2.880471
0
3DFACE
8
0
10
0.193734
20
51.470558
30
2.880471
11
-17.473419
21
48.355370
31
2.880471
12
-18.764120
22
56.251190
32
2.980470
13
-18.764120
23
56.251190
33
2.980470
0
3DFACE
8
0
10
-18.764120
20
56.251190
30
2.980470
11
-1.293931
21
59.331661
31
2.980470
12
0.193734
22
51.470558
32
2.880471
13
0.193734
23
51.470558
33
2.880471
0
3DFACE
8
0
10
-17.473419
20
48.355370
30
10.668720
11
0.193734
21
51.470558
31
10.668720
12
-1.293931
22
59.331661
32
10.568720
13
-1.293931
23
59.331661
33
10.568720
0
3DFACE
8
0
10
-1.293931
20
59.331661
30
10.568720
11
-18.764120
21
56.251190
31
10.568720
12
-17.473419
22
48.355370
32
10.668720
13
-17.473419
23
48.355370
33
10.668720
0
3DFACE
8
0
10
37.310551
20
46.363701
30
10.568720
11
37.310551
21
46.363701
31
2.980470
12
38.376949
22
51.574940
32
4.662558
13
38.376949
23
51.574940
33
4.662558
0
3DFACE
8
0
10
38.376949
20
51.574940
30
4.662558
11
38.376949
21
51.574940
31
8.886632
12
37.310551
22
46.363701
32
10.568720
13
37.310551
23
46.363701
33
10.568720
0
3DFACE
8
0
10
37.310551
20
46.363701
30
2.980470
11
21.947510
21
55.233559
31
2.980470
12
25.927370
22
58.762711
32
4.662558
13
25.927370
23
58.762711
33
4.662558
0
3DFACE
8
0
10
25.927370
20
58.762711
30
4.662558
11
38.376949
21
51.574940
31
4.662558
12
37.310551
22
46.363701
32
2.980470
13
37.310551
23
46.363701
33
2.980470
0
3DFACE
8
0
10
21.947510
20
55.233559
30
2.980470
11
21.947510
21
55.233559
31
10.568720
12
25.927370
22
58.762711
32
8.886632
13
25.927370
23
58.762711
33
8.886632
0
3DFACE
8
0
10
25.927370
20
58.762711
30
8.886632
11
25.927370
21
58.762711
31
4.662558
12
21.947510
22
55.233559
32
2.980470
13
21.947510
23
55.233559
33
2.980470
0
3DFACE
8
0
10
21.947510
20
55.233559
30
10.568720
11
37.310551
21
46.363701
31
10.568720
12
38.376949
22
51.574940
32
8.886632
13
38.376949
23
51.574940
33
8.886632
0
3DFACE
8
0
10
38.376949
20
51.574940
30
8.886632
11
25.927370
21
58.762711
31
8.886632
12
21.947510
22
55.233559
32
10.568720
13
21.947510
23
55.233559
33
10.568720
0
3DFACE
8
0
10
58.547661
20
11.615190
30
10.568720
11
58.547661
21
11.615190
31
2.980470
12
62.714279
22
14.921760
32
4.662558
13
62.714279
23
14.921760
33
4.662558
0
3DFACE
8
0
10
62.714279
20
14.921760
30
4.662558
11
62.714279
21
14.921760
31
8.886632
12
58.547661
22
11.615190
32
10.568720
13
58.547661
23
11.615190
33
10.568720
0
3DFACE
8
0
10
58.547661
20
11.615190
30
2.980470
11
52.480320
21
28.285070
31
2.980470
12
57.797562
22
28.430349
32
4.662558
13
57.797562
23
28.430349
33
4.662558
0
3DFACE
8
0
10
57.797562
20
28.430349
30
4.662558
11
62.714279
21
14.921760
31
4.662558
12
58.547661
22
11.615190
32
2.980470
13
58.547661
23
11.615190
33
2.980470
0
3DFACE
8
0
10
52.480320
20
28.285070
30
2.980470
11
52.480320
21
28.285070
31
10.568720
12
57.797562
22
28.430349
32
8.886632
13
57.797562
23
28.430349
33
8.886632
0
3DFACE
8
0
10
57.797562
20
28.430349
30
8.886632
11
57.797562
21
28.430349
31
4.662558
12
52.480320
22
28.285070
32
2.980470
13
52.480320
23
28.285070
33
2.980470
0
3DFACE
8
0
10
52.480320
20
28.285070
30
10.568720
11
58.547661
21
11.615190
31
10.568720
12
62.714279
22
14.921760
32
8.886632
13
62.714279
23
14.921760
33
8.886632
0
3DFACE
8
0
10
62.714279
20
14.921760
30
8.886632
11
57.797562
21
28.430349
31
8.886632
12
52.480320
22
28.285070
32
10.568720
13
52.480320
23
28.285070
33
10.568720
0
3DFACE
8
0
10
52.480320
20
-28.654659
30
10.568720
11
52.480320
21
-28.654659
31
2.980470
12
57.797562
22
-28.799940
32
4.662558
13
57.797562
23
-28.799940
33
4.662558
0
3DFACE
8
0
10
57.797562
20
-28.799940
30
4.662558
11
57.797562
21
-28.799940
31
8.886632
12
52.480320
22
-28.654659
32
10.568720
13
52.480320
23
-28.654659
33
10.568720
0
3DFACE
8
0
10
52.480320
20
-28.654659
30
2.980470
11
58.547661
21
-11.984780
31
2.980470
12
62.714279
22
-15.291350
32
4.662558
13
62.714279
23
-15.291350
33
4.662558
0
3DFACE
8
0
10
62.714279
20
-15.291350
30
4.662558
11
57.797562
21
-28.799940
31
4.662558
12
52.480320
22
-28.654659
32
2.980470
13
52.480320
23
-28.654659
33
2.980470
0
3DFACE
8
0
10
58.547661
20
-11.984780
30
2.980470
11
58.547661
21
-11.984780
31
10.568720
12
62.714279
22
-15.291350
32
8.886632
13
62.714279
23
-15.291350
33
8.886632
0
3DFACE
8
0
10
62.714279
20
-15.291350
30
8.886632
11
62.714279
21
-15.291350
31
4.662558
12
58.547661
22
-11.984780
32
2.980470
13
58.547661
23
-11.984780
33
2.980470
0
3DFACE
8
0
10
58.547661
20
-11.984780
30
10.568720
11
52.480320
21
-28.654659
31
10.568720
12
57.797562
22
-28.799940
32
8.886632
13
57.797562
23
-28.799940
33
8.886632
0
3DFACE
8
0
10
57.797562
20
-28.799940
30
8.886632
11
62.714279
21
-15.291350
31
8.886632
12
58.547661
22
-11.984780
32
10.568720
13
58.547661
23
-11.984780
33
10.568720
0
3DFACE
8
0
10
21.947500
20
-55.603149
30
10.568720
11
21.947500
21
-55.603149
31
2.980470
12
25.927361
22
-59.132290
32
4.662558
13
25.927361
23
-59.132290
33
4.662558
0
3DFACE
8
0
10
25.927361
20
-59.132290
30
4.662558
11
25.927361
21
-59.132290
31
8.886632
12
21.947500
22
-55.603149
32
10.568720
13
21.947500
23
-55.603149
33
10.568720
0
3DFACE
8
0
10
21.947500
20
-55.603149
30
2.980470
11
37.310551
21
-46.733292
31
2.980470
12
38.376949
22
-51.944519
32
4.662558
13
38.376949
23
-51.944519
33
4.662558
0
3DFACE
8
0
10
38.376949
20
-51.944519
30
4.662558
11
25.927361
21
-59.132290
31
4.662558
12
21.947500
22
-55.603149
32
2.980470
13
21.947500
23
-55.603149
33
2.980470
0
3DFACE
8
0
10
37.310551
20
-46.733292
30
2.980470
11
37.310551
21
-46.733292
31
10.568720
12
38.376949
22
-51.944519
32
8.886632
13
38.376949
23
-51.944519
33
8.886632
0
3DFACE
8
0
10
38.376949
20
-51.944519
30
8.886632
11
38.376949
21
-51.944519
31
4.662558
12
37.310551
22
-46.733292
32
2.980470
13
37.310551
23
-46.733292
33
2.980470
0
3DFACE
8
0
10
37.310551
20
-46.733292
30
10.568720
11
21.947500
21
-55.603149
31
10.568720
12
25.927361
22
-59.132290
32
8.886632
13
25.927361
23
-59.132290
33
8.886632
0
3DFACE
8
0
10
25.927361
20
-59.132290
30
8.886632
11
38.376949
21
-51.944519
31
8.886632
12
37.310551
22
-46.733292
32
10.568720
13
37.310551
23
-46.733292
33
10.568720
0
3DFACE
8
0
10
-18.764151
20
-56.620770
30
10.568720
11
-18.764151
21
-56.620770
31
2.980470
12
-17.983891
22
-61.882450
32
4.662558
13
-17.983891
23
-61.882450
33
4.662558
0
3DFACE
8
0
10
-17.983891
20
-61.882450
30
4.662558
11
-17.983891
21
-61.882450
31
8.886632
12
-18.764151
22
-56.620770
32
10.568720
13
-18.764151
23
-56.620770
33
10.568720
0
3DFACE
8
0
10
-18.764151
20
-56.620770
30
2.980470
11
-1.293939
21
-59.701241
31
2.980470
12
-3.826746
22
-64.378738
32
4.662558
13
-3.826746
23
-64.378738
33
4.662558
0
3DFACE
8
0
10
-3.826746
20
-64.378738
30
4.662558
11
-17.983891
21
-61.882450
31
4.662558
12
-18.764151
22
-56.620770
32
2.980470
13
-18.764151
23
-56.620770
33
2.980470
0
3DFACE
8
0
10
-1.293939
20
-59.701241
30
2.980470
11
-1.293939
21
-59.701241
31
10.568720
12
-3.826746
22
-64.378738
32
8.886632
13
-3.826746
23
-64.378738
33
8.886632
0
3DFACE
8
0
10
-3.826746
20
-64.378738
30
8.886632
11
-3.826746
21
-64.378738
31
4.662558
12
-1.293939
22
-59.701241
32
2.980470
13
-1.293939
23
-59.701241
33
2.980470
0
3DFACE
8
0
10
-1.293939
20
-59.701241
30
10.568720
11
-18.764151
21
-56.620770
31
10.568720
12
-17.983891
22
-61.882450
32
8.886632
13
-17.983891
23
-61.882450
33
8.886632
0
3DFACE
8
0
10
-17.983891
20
-61.882450
30
8.886632
11
-3.826746
21
-64.378738
31
8.886632
12
-1.293939
22
-59.701241
32
10.568720
13
-1.293939
23
-59.701241
33
10.568720
0
3DFACE
8
0
10
-50.605190
20
-31.231359
30
10.568720
11
-50.605190
21
-31.231359
31
2.980470
12
-53.389629
22
-35.763592
32
4.662558
13
-53.389629
23
-35.763592
33
4.662558
0
3DFACE
8
0
10
-53.389629
20
-35.763592
30
4.662558
11
-53.389629
21
-35.763592
31
8.886632
12
-50.605190
22
-31.231359
32
10.568720
13
-50.605190
23
-31.231359
33
10.568720
0
3DFACE
8
0
10
-50.605190
20
-31.231359
30
2.980470
11
-39.202320
21
-44.820770
31
2.980470
12
-44.149200
22
-46.775890
32
4.662558
13
-44.149200
23
-46.775890
33
4.662558
0
3DFACE
8
0
10
-44.149200
20
-46.775890
30
4.662558
11
-53.389629
21
-35.763592
31
4.662558
12
-50.605190
22
-31.231359
32
2.980470
13
-50.605190
23
-31.231359
33
2.980470
0
3DFACE
8
0
10
-39.202320
20
-44.820770
30
2.980470
11
-39.202320
21
-44.820770
31
10.568720
12
-44.149200
22
-46.775890
32
8.886632
13
-44.149200
23
-46.775890
33
8.886632
0
3DFACE
8
0
10
-44.149200
20
-46.775890
30
8.886632
11
-44.149200
21
-46.775890
31
4.662558
12
-39.202320
22
-44.820770
32
2.980470
13
-39.202320
23
-44.820770
33
2.980470
0
3DFACE
8
0
10
-39.202320
20
-44.820770
30
10.568720
11
-50.605190
21
-31.231359
31
10.568720
12
-53.389629
22
-35.763592
32
8.886632
13
-53.389629
23
-35.763592
33
8.886632
0
3DFACE
8
0
10
-53.389629
20
-35.763592
30
8.886632
11
-44.149200
21
-46.775890
31
8.886632
12
-39.202320
22
-44.820770
32
10.568720
13
-39.202320
23
-44.820770
33
10.568720
0
3DFACE
8
0
10
-58.676849
20
8.685079
30
10.568720
11
-58.676849
21
8.685079
31
2.980470
12
-63.723110
22
7.002993
32
4.662558
13
-63.723110
23
7.002993
33
4.662558
0
3DFACE
8
0
10
-63.723110
20
7.002993
30
4.662558
11
-63.723110
21
7.002993
31
8.886632
12
-58.676849
22
8.685079
32
10.568720
13
-58.676849
23
8.685079
33
10.568720
0
3DFACE
8
0
10
-58.676849
20
8.685079
30
2.980470
11
-58.676849
21
-9.054636
31
2.980470
12
-63.723110
22
-7.372548
32
4.662558
13
-63.723110
23
-7.372548
33
4.662558
0
3DFACE
8
0
10
-63.723110
20
-7.372548
30
4.662558
11
-63.723110
21
7.002993
31
4.662558
12
-58.676849
22
8.685079
32
2.980470
13
-58.676849
23
8.685079
33
2.980470
0
3DFACE
8
0
10
-58.676849
20
-9.054636
30
2.980470
11
-58.676849
21
-9.054636
31
10.568720
12
-63.723110
22
-7.372548
32
8.886632
13
-63.723110
23
-7.372548
33
8.886632
0
3DFACE
8
0
10
-63.723110
20
-7.372548
30
8.886632
11
-63.723110
21
-7.372548
31
4.662558
12
-58.676849
22
-9.054636
32
2.980470
13
-58.676849
23
-9.054636
33
2.980470
0
3DFACE
8
0
10
-58.676849
20
-9.054636
30
10.568720
11
-58.676849
21
8.685079
31
10.568720
12
-63.723110
22
7.002993
32
8.886632
13
-63.723110
23
7.002993
33
8.886632
0
3DFACE
8
0
10
-63.723110
20
7.002993
30
8.886632
11
-63.723110
21
-7.372548
31
8.886632
12
-58.676849
22
-9.054636
32
10.568720
13
-58.676849
23
-9.054636
33
10.568720
0
3DFACE
8
0
10
-39.202301
20
44.451210
30
10.568720
11
-39.202301
21
44.451210
31
2.980470
12
-44.149181
22
46.406330
32
4.662558
13
-44.149181
23
46.406330
33
4.662558
0
3DFACE
8
0
10
-44.149181
20
46.406330
30
4.662558
11
-44.149181
21
46.406330
31
8.886632
12
-39.202301
22
44.451210
32
10.568720
13
-39.202301
23
44.451210
33
10.568720
0
3DFACE
8
0
10
-39.202301
20
44.451210
30
2.980470
11
-50.605179
21
30.861799
31
2.980470
12
-53.389610
22
35.394032
32
4.662558
13
-53.389610
23
35.394032
33
4.662558
0
3DFACE
8
0
10
-53.389610
20
35.394032
30
4.662558
11
-44.149181
21
46.406330
31
4.662558
12
-39.202301
22
44.451210
32
2.980470
13
-39.202301
23
44.451210
33
2.980470
0
3DFACE
8
0
10
-50.605179
20
30.861799
30
2.980470
11
-50.605179
21
30.861799
31
10.568720
12
-53.389610
22
35.394032
32
8.886632
13
-53.389610
23
35.394032
33
8.886632
0
3DFACE
8
0
10
-53.389610
20
35.394032
30
8.886632
11
-53.389610
21
35.394032
31
4.662558
12
-50.605179
22
30.861799
32
2.980470
13
-50.605179
23
30.861799
33
2.980470
0
3DFACE
8
0
10
-50.605179
20
30.861799
30
10.568720
11
-39.202301
21
44.451210
31
10.568720
12
-44.149181
22
46.406330
32
8.886632
13
-44.149181
23
46.406330
33
8.886632
0
3DFACE
8
0
10
-44.149181
20
46.406330
30
8.886632
11
-53.389610
21
35.394032
31
8.886632
12
-50.605179
22
30.861799
32
10.568720
13
-50.605179
23
30.861799
33
10.568720
0
3DFACE
8
0
10
-1.293931
20
59.331661
30
10.568720
11
-1.293931
21
59.331661
31
2.980470
12
-3.826735
22
64.009163
32
4.662558
13
-3.826735
23
64.009163
33
4.662558
0
3DFACE
8
0
10
-3.826735
20
64.009163
30
4.662558
11
-3.826735
21
64.009163
31
8.886632
12
-1.293931
22
59.331661
32
10.568720
13
-1.293931
23
59.331661
33
10.568720
0
3DFACE
8
0
10
-1.293931
20
59.331661
30
2.980470
11
-18.764120
21
56.251190
31
2.980470
12
-17.983860
22
61.512878
32
4.662558
13
-17.983860
23
61.512878
33
4.662558
0
3DFACE
8
0
10
-17.983860
20
61.512878
30
4.662558
11
-3.826735
21
64.009163
31
4.662558
12
-1.293931
22
59.331661
32
2.980470
13
-1.293931
23
59.331661
33
2.980470
0
3DFACE
8
0
10
-18.764120
20
56.251190
30
2.980470
11
-18.764120
21
56.251190
31
10.568720
12
-17.983860
22
61.512878
32
8.886632
13
-17.983860
23
61.512878
33
8.886632
0
3DFACE
8
0
10
-17.983860
20
61.512878
30
8.886632
11
-17.983860
21
61.512878
31
4.662558
12
-18.764120
22
56.251190
32
2.980470
13
-18.764120
23
56.251190
33
2.980470
0
3DFACE
8
0
10
-18.764120
20
56.251190
30
10.568720
11
-1.293931
21
59.331661
31
10.568720
12
-3.826735
22
64.009163
32
8.886632
13
-3.826735
23
64.009163
33
8.886632
0
3DFACE
8
0
10
-3.826735
20
64.009163
30
8.886632
11
-17.983860
21
61.512878
31
8.886632
12
-18.764120
22
56.251190
32
10.568720
13
-18.764120
23
56.251190
33
10.568720
0
3DFACE
8
0
10
0.193734
20
51.470558
30
2.880471
11
17.860910
21
48.355358
31
2.880471
12
16.714830
22
45.206539
32
0.380471
13
16.714830
23
45.206539
33
0.380471
0
3DFACE
8
0
10
16.714830
20
45.206539
30
0.380471
11
0.193733
21
48.119652
31
0.380471
12
0.193734
22
51.470558
32
2.880471
13
0.193734
23
51.470558
33
2.880471
0
3DFACE
8
0
10
17.860910
20
48.355358
30
10.668720
11
0.193734
21
51.470558
31
10.668720
12
0.193733
22
48.119652
32
13.168720
13
0.193733
23
48.119652
33
13.168720
0
3DFACE
8
0
10
0.193733
20
48.119652
30
13.168720
11
16.714830
21
45.206539
31
13.168720
12
17.860910
22
48.355358
32
10.668720
13
17.860910
23
48.355358
33
10.668720
0
3DFACE
8
0
10
0.193736
20
10.163770
30
10.668720
11
3.733151
21
9.539672
31
10.668720
12
4.879229
22
12.688500
32
13.168720
13
4.879229
23
12.688500
33
13.168720
0
3DFACE
8
0
10
4.879229
20
12.688500
30
13.168720
11
0.193736
21
13.514670
31
13.168720
12
0.193736
22
10.163770
32
10.668720
13
0.193736
23
10.163770
33
10.668720
0
3DFACE
8
0
10
3.733151
20
9.539672
30
2.880471
11
0.193736
21
10.163770
31
2.880471
12
0.193736
22
13.514670
32
0.380471
13
0.193736
23
13.514670
33
0.380471
0
3DFACE
8
0
10
0.193736
20
13.514670
30
0.380471
11
4.879229
21
12.688500
31
0.380471
12
3.733151
22
9.539672
32
2.880471
13
3.733151
23
9.539672
33
2.880471
0
3DFACE
8
0
10
33.397160
20
39.385502
30
10.668720
11
17.860910
21
48.355358
31
10.668720
12
16.714830
22
45.206539
32
13.168720
13
16.714830
23
45.206539
33
13.168720
0
3DFACE
8
0
10
16.714830
20
45.206539
30
13.168720
11
31.243231
21
36.818562
31
13.168720
12
33.397160
22
39.385502
32
10.668720
13
33.397160
23
39.385502
33
10.668720
0
3DFACE
8
0
10
3.733151
20
9.539672
30
10.668720
11
6.845661
21
7.742663
31
10.668720
12
8.999583
22
10.309610
32
13.168720
13
8.999583
23
10.309610
33
13.168720
0
3DFACE
8
0
10
8.999583
20
10.309610
30
13.168720
11
4.879229
21
12.688500
31
13.168720
12
3.733151
22
9.539672
32
10.668720
13
3.733151
23
9.539672
33
10.668720
0
3DFACE
8
0
10
6.845661
20
7.742663
30
2.880471
11
3.733151
21
9.539672
31
2.880471
12
4.879229
22
12.688500
32
0.380471
13
4.879229
23
12.688500
33
0.380471
0
3DFACE
8
0
10
4.879229
20
12.688500
30
0.380471
11
8.999583
21
10.309610
31
0.380471
12
6.845661
22
7.742663
32
2.880471
13
6.845661
23
7.742663
33
2.880471
0
3DFACE
8
0
10
17.860910
20
48.355358
30
2.880471
11
33.397160
21
39.385502
31
2.880471
12
31.243231
22
36.818562
32
0.380471
13
31.243231
23
36.818562
33
0.380471
0
3DFACE
8
0
10
31.243231
20
36.818562
30
0.380471
11
16.714830
21
45.206539
31
0.380471
12
17.860910
22
48.355358
32
2.880471
13
17.860910
23
48.355358
33
2.880471
0
3DFACE
8
0
10
33.397160
20
39.385502
30
2.880471
11
44.928581
21
25.642879
31
2.880471
12
42.026611
22
23.967430
32
0.380471
13
42.026611
23
23.967430
33
0.380471
0
3DFACE
8
0
10
42.026611
20
23.967430
30
0.380471
11
31.243231
21
36.818562
31
0.380471
12
33.397160
22
39.385502
32
2.880471
13
33.397160
23
39.385502
33
2.880471
0
3DFACE
8
0
10
44.928581
20
25.642879
30
10.668720
11
33.397160
21
39.385502
31
10.668720
12
31.243231
22
36.818562
32
13.168720
13
31.243231
23
36.818562
33
13.168720
0
3DFACE
8
0
10
31.243231
20
36.818562
30
13.168720
11
42.026611
21
23.967430
31
13.168720
12
44.928581
22
25.642879
32
10.668720
13
44.928581
23
25.642879
33
10.668720
0
3DFACE
8
0
10
6.845661
20
7.742663
30
10.668720
11
9.155849
21
4.989487
31
10.668720
12
12.057820
22
6.664941
32
13.168720
13
12.057820
23
6.664941
33
13.168720
0
3DFACE
8
0
10
12.057820
20
6.664941
30
13.168720
11
8.999583
21
10.309610
31
13.168720
12
6.845661
22
7.742663
32
10.668720
13
6.845661
23
7.742663
33
10.668720
0
3DFACE
8
0
10
9.155849
20
4.989487
30
2.880471
11
6.845661
21
7.742663
31
2.880471
12
8.999583
22
10.309610
32
0.380471
13
8.999583
23
10.309610
33
0.380471
0
3DFACE
8
0
10
8.999583
20
10.309610
30
0.380471
11
12.057820
21
6.664941
31
0.380471
12
9.155849
22
4.989487
32
2.880471
13
9.155849
23
4.989487
33
2.880471
0
3DFACE
8
0
10
51.064320
20
8.785065
30
10.668720
11
44.928581
21
25.642879
31
10.668720
12
42.026611
22
23.967430
32
13.168720
13
42.026611
23
23.967430
33
13.168720
0
3DFACE
8
0
10
42.026611
20
23.967430
30
13.168720
11
47.764320
21
8.203186
31
13.168720
12
51.064320
22
8.785065
32
10.668720
13
51.064320
23
8.785065
33
10.668720
0
3DFACE
8
0
10
9.155849
20
4.989487
30
10.668720
11
10.385080
21
1.612216
31
10.668720
12
13.685080
22
2.194095
32
13.168720
13
13.685080
23
2.194095
33
13.168720
0
3DFACE
8
0
10
13.685080
20
2.194095
30
13.168720
11
12.057820
21
6.664941
31
13.168720
12
9.155849
22
4.989487
32
10.668720
13
9.155849
23
4.989487
33
10.668720
0
3DFACE
8
0
10
10.385080
20
1.612216
30
2.880471
11
9.155849
21
4.989487
31
2.880471
12
12.057820
22
6.664941
32
0.380471
13
12.057820
23
6.664941
33
0.380471
0
3DFACE
8
0
10
12.057820
20
6.664941
30
0.380471
11
13.685080
21
2.194095
31
0.380471
12
10.385080
22
1.612216
32
2.880471
13
10.385080
23
1.612216
33
2.880471
0
3DFACE
8
0
10
44.928581
20
25.642879
30
2.880471
11
51.064320
21
8.785065
31
2.880471
12
47.764320
22
8.203186
32
0.380471
13
47.764320
23
8.203186
33
0.380471
0
3DFACE
8
0
10
47.764320
20
8.203186
30
0.380471
11
42.026611
21
23.967430
31
0.380471
12
44.928581
22
25.642879
32
2.880471
13
44.928581
23
25.642879
33
2.880471
0
3DFACE
8
0
10
51.064320
20
8.785065
30
2.880471
11
51.064320
21
-9.154652
31
2.880471
12
47.764320
22
-8.572773
32
0.380471
13
47.764320
23
-8.572773
33
0.380471
0
3DFACE
8
0
10
47.764320
20
-8.572773
30
0.380471
11
47.764320
21
8.203186
31
0.380471
12
51.064320
22
8.785065
32
2.880471
13
51.064320
23
8.785065
33
2.880471
0
3DFACE
8
0
10
51.064320
20
-9.154652
30
10.668720
11
51.064320
21
8.785065
31
10.668720
12
47.764320
22
8.203186
32
13.168720
13
47.764320
23
8.203186
33
13.168720
0
3DFACE
8
0
10
47.764320
20
8.203186
30
13.168720
11
47.764320
21
-8.572773
31
13.168720
12
51.064320
22
-9.154652
32
10.668720
13
51.064320
23
-9.154652
33
10.668720
0
3DFACE
8
0
10
10.385080
20
1.612216
30
10.668720
11
10.385080
21
-1.981800
31
10.668720
12
13.685080
22
-2.563679
32
13.168720
13
13.685080
23
-2.563679
33
13.168720
0
3DFACE
8
0
10
13.685080
20
-2.563679
30
13.168720
11
13.685080
21
2.194095
31
13.168720
12
10.385080
22
1.612216
32
10.668720
13
10.385080
23
1.612216
33
10.668720
0
3DFACE
8
0
10
10.385080
20
-1.981800
30
2.880471
11
10.385080
21
1.612216
31
2.880471
12
13.685080
22
2.194095
32
0.380471
13
13.685080
23
2.194095
33
0.380471
0
3DFACE
8
0
10
13.685080
20
2.194095
30
0.380471
11
13.685080
21
-2.563679
31
0.380471
12
10.385080
22
-1.981800
32
2.880471
13
10.385080
23
-1.981800
33
2.880471
0
3DFACE
8
0
10
44.928581
20
-26.012470
30
10.668720
11
51.064320
21
-9.154652
31
10.668720
12
47.764320
22
-8.572773
32
13.168720
13
47.764320
23
-8.572773
33
13.168720
0
3DFACE
8
0
10
47.764320
20
-8.572773
30
13.168720
11
42.026611
21
-24.337021
31
13.168720
12
44.928581
22
-26.012470
32
10.668720
13
44.928581
23
-26.012470
33
10.668720
0
3DFACE
8
0
10
10.385080
20
-1.981800
30
10.668720
11
9.155849
21
-5.359071
31
10.668720
12
12.057820
22
-7.034525
32
13.168720
13
12.057820
23
-7.034525
33
13.168720
0
3DFACE
8
0
10
12.057820
20
-7.034525
30
13.168720
11
13.685080
21
-2.563679
31
13.168720
12
10.385080
22
-1.981800
32
10.668720
13
10.385080
23
-1.981800
33
10.668720
0
3DFACE
8
0
10
9.155849
20
-5.359071
30
2.880471
11
10.385080
21
-1.981800
31
2.880471
12
13.685080
22
-2.563679
32
0.380471
13
13.685080
23
-2.563679
33
0.380471
0
3DFACE
8
0
10
13.685080
20
-2.563679
30
0.380471
11
12.057820
21
-7.034525
31
0.380471
12
9.155849
22
-5.359071
32
2.880471
13
9.155849
23
-5.359071
33
2.880471
0
3DFACE
8
0
10
51.064320
20
-9.154652
30
2.880471
11
44.928581
21
-26.012470
31
2.880471
12
42.026611
22
-24.337021
32
0.380471
13
42.026611
23
-24.337021
33
0.380471
0
3DFACE
8
0
10
42.026611
20
-24.337021
30
0.380471
11
47.764320
21
-8.572773
31
0.380471
12
51.064320
22
-9.154652
32
2.880471
13
51.064320
23
-9.154652
33
2.880471
0
3DFACE
8
0
10
44.928581
20
-26.012470
30
2.880471
11
33.397148
21
-39.755089
31
2.880471
12
31.243231
22
-37.188141
32
0.380471
13
31.243231
23
-37.188141
33
0.380471
0
3DFACE
8
0
10
31.243231
20
-37.188141
30
0.380471
11
42.026611
21
-24.337021
31
0.380471
12
44.928581
22
-26.012470
32
2.880471
13
44.928581
23
-26.012470
33
2.880471
0
3DFACE
8
0
10
33.397148
20
-39.755089
30
10.668720
11
44.928581
21
-26.012470
31
10.668720
12
42.026611
22
-24.337021
32
13.168720
13
42.026611
23
-24.337021
33
13.168720
0
3DFACE
8
0
10
42.026611
20
-24.337021
30
13.168720
11
31.243231
21
-37.188141
31
13.168720
12
33.397148
22
-39.755089
32
10.668720
13
33.397148
23
-39.755089
33
10.668720
0
3DFACE
8
0
10
9.155849
20
-5.359071
30
10.668720
11
6.845660
21
-8.112247
31
10.668720
12
8.999581
22
-10.679190
32
13.168720
13
8.999581
23
-10.679190
33
13.168720
0
3DFACE
8
0
10
8.999581
20
-10.679190
30
13.168720
11
12.057820
21
-7.034525
31
13.168720
12
9.155849
22
-5.359071
32
10.668720
13
9.155849
23
-5.359071
33
10.668720
0
3DFACE
8
0
10
6.845660
20
-8.112247
30
2.880471
11
9.155849
21
-5.359071
31
2.880471
12
12.057820
22
-7.034525
32
0.380471
13
12.057820
23
-7.034525
33
0.380471
0
3DFACE
8
0
10
12.057820
20
-7.034525
30
0.380471
11
8.999581
21
-10.679190
31
0.380471
12
6.845660
22
-8.112247
32
2.880471
13
6.845660
23
-8.112247
33
2.880471
0
3DFACE
8
0
10
17.860901
20
-48.724949
30
10.668720
11
33.397148
21
-39.755089
31
10.668720
12
31.243231
22
-37.188141
32
13.168720
13
31.243231
23
-37.188141
33
13.168720
0
3DFACE
8
0
10
31.243231
20
-37.188141
30
13.168720
11
16.714821
21
-45.576118
31
13.168720
12
17.860901
22
-48.724949
32
10.668720
13
17.860901
23
-48.724949
33
10.668720
0
3DFACE
8
0
10
6.845660
20
-8.112247
30
10.668720
11
3.733150
21
-9.909255
31
10.668720
12
4.879228
22
-13.058080
32
13.168720
13
4.879228
23
-13.058080
33
13.168720
0
3DFACE
8
0
10
4.879228
20
-13.058080
30
13.168720
11
8.999581
21
-10.679190
31
13.168720
12
6.845660
22
-8.112247
32
10.668720
13
6.845660
23
-8.112247
33
10.668720
0
3DFACE
8
0
10
3.733150
20
-9.909255
30
2.880471
11
6.845660
21
-8.112247
31
2.880471
12
8.999581
22
-10.679190
32
0.380471
13
8.999581
23
-10.679190
33
0.380471
0
3DFACE
8
0
10
8.999581
20
-10.679190
30
0.380471
11
4.879228
21
-13.058080
31
0.380471
12
3.733150
22
-9.909255
32
2.880471
13
3.733150
23
-9.909255
33
2.880471
0
3DFACE
8
0
10
33.397148
20
-39.755089
30
2.880471
11
17.860901
21
-48.724949
31
2.880471
12
16.714821
22
-45.576118
32
0.380471
13
16.714821
23
-45.576118
33
0.380471
0
3DFACE
8
0
10
16.714821
20
-45.576118
30
0.380471
11
31.243231
21
-37.188141
31
0.380471
12
33.397148
22
-39.755089
32
2.880471
13
33.397148
23
-39.755089
33
2.880471
0
3DFACE
8
0
10
17.860901
20
-48.724949
30
2.880471
11
0.193729
21
-51.840141
31
2.880471
12
0.193730
22
-48.489231
32
0.380471
13
0.193730
23
-48.489231
33
0.380471
0
3DFACE
8
0
10
0.193730
20
-48.489231
30
0.380471
11
16.714821
21
-45.576118
31
0.380471
12
17.860901
22
-48.724949
32
2.880471
13
17.860901
23
-48.724949
33
2.880471
0
3DFACE
8
0
10
0.193729
20
-51.840141
30
10.668720
11
17.860901
21
-48.724949
31
10.668720
12
16.714821
22
-45.576118
32
13.168720
13
16.714821
23
-45.576118
33
13.168720
0
3DFACE
8
0
10
16.714821
20
-45.576118
30
13.168720
11
0.193730
21
-48.489231
31
13.168720
12
0.193729
22
-51.840141
32
10.668720
13
0.193729
23
-51.840141
33
10.668720
0
3DFACE
8
0
10
3.733150
20
-9.909255
30
10.668720
11
0.193735
21
-10.533350
31
10.668720
12
0.193734
22
-13.884260
32
13.168720
13
0.193734
23
-13.884260
33
13.168720
0
3DFACE
8
0
10
0.193734
20
-13.884260
30
13.168720
11
4.879228
21
-13.058080
31
13.168720
12
3.733150
22
-9.909255
32
10.668720
13
3.733150
23
-9.909255
33
10.668720
0
3DFACE
8
0
10
0.193735
20
-10.533350
30
2.880471
11
3.733150
21
-9.909255
31
2.880471
12
4.879228
22
-13.058080
32
0.380471
13
4.879228
23
-13.058080
33
0.380471
0
3DFACE
8
0
10
4.879228
20
-13.058080
30
0.380471
11
0.193734
21
-13.884260
31
0.380471
12
0.193735
22
-10.533350
32
2.880471
13
0.193735
23
-10.533350
33
2.880471
0
3DFACE
8
0
10
-17.473440
20
-48.724941
30
10.668720
11
0.193729
21
-51.840141
31
10.668720
12
0.193730
22
-48.489231
32
13.168720
13
0.193730
23
-48.489231
33
13.168720
0
3DFACE
8
0
10
0.193730
20
-48.489231
30
13.168720
11
-16.327360
21
-45.576111
31
13.168720
12
-17.473440
22
-48.724941
32
10.668720
13
-17.473440
23
-48.724941
33
10.668720
0
3DFACE
8
0
10
0.193735
20
-10.533350
30
10.668720
11
-3.345680
21
-9.909254
31
10.668720
12
-4.491759
22
-13.058080
32
13.168720
13
-4.491759
23
-13.058080
33
13.168720
0
3DFACE
8
0
10
-4.491759
20
-13.058080
30
13.168720
11
0.193734
21
-13.884260
31
13.168720
12
0.193735
22
-10.533350
32
10.668720
13
0.193735
23
-10.533350
33
10.668720
0
3DFACE
8
0
10
-3.345680
20
-9.909254
30
2.880471
11
0.193735
21
-10.533350
31
2.880471
12
0.193734
22
-13.884260
32
0.380471
13
0.193734
23
-13.884260
33
0.380471
0
3DFACE
8
0
10
0.193734
20
-13.884260
30
0.380471
11
-4.491759
21
-13.058080
31
0.380471
12
-3.345680
22
-9.909254
32
2.880471
13
-3.345680
23
-9.909254
33
2.880471
0
3DFACE
8
0
10
0.193729
20
-51.840141
30
2.880471
11
-17.473440
21
-48.724941
31
2.880471
12
-16.327360
22
-45.576111
32
0.380471
13
-16.327360
23
-45.576111
33
0.380471
0
3DFACE
8
0
10
-16.327360
20
-45.576111
30
0.380471
11
0.193730
21
-48.489231
31
0.380471
12
0.193729
22
-51.840141
32
2.880471
13
0.193729
23
-51.840141
33
2.880471
0
3DFACE
8
0
10
-17.473440
20
-48.724941
30
2.880471
11
-33.009689
21
-39.755081
31
2.880471
12
-30.855770
22
-37.188129
32
0.380471
13
-30.855770
23
-37.188129
33
0.380471
0
3DFACE
8
0
10
-30.855770
20
-37.188129
30
0.380471
11
-16.327360
21
-45.576111
31
0.380471
12
-17.473440
22
-48.724941
32
2.880471
13
-17.473440
23
-48.724941
33
2.880471
0
3DFACE
8
0
10
-33.009689
20
-39.755081
30
10.668720
11
-17.473440
21
-48.724941
31
10.668720
12
-16.327360
22
-45.576111
32
13.168720
13
-16.327360
23
-45.576111
33
13.168720
0
3DFACE
8
0
10
-16.327360
20
-45.576111
30
13.168720
11
-30.855770
21
-37.188129
31
13.168720
12
-33.009689
22
-39.755081
32
10.668720
13
-33.009689
23
-39.755081
33
10.668720
0
3DFACE
8
0
10
-3.345680
20
-9.909254
30
10.668720
11
-6.458190
21
-8.112245
31
10.668720
12
-8.612113
22
-10.679190
32
13.168720
13
-8.612113
23
-10.679190
33
13.168720
0
3DFACE
8
0
10
-8.612113
20
-10.679190
30
13.168720
11
-4.491759
21
-13.058080
31
13.168720
12
-3.345680
22
-9.909254
32
10.668720
13
-3.345680
23
-9.909254
33
10.668720
0
3DFACE
8
0
10
-6.458190
20
-8.112245
30
2.880471
11
-3.345680
21
-9.909254
31
2.880471
12
-4.491759
22
-13.058080
32
0.380471
13
-4.491759
23
-13.058080
33
0.380471
0
3DFACE
8
0
10
-4.491759
20
-13.058080
30
0.380471
11
-8.612113
21
-10.679190
31
0.380471
12
-6.458190
22
-8.112245
32
2.880471
13
-6.458190
23
-8.112245
33
2.880471
0
3DFACE
8
0
10
-44.541111
20
-26.012461
30
10.668720
11
-33.009689
21
-39.755081
31
10.668720
12
-30.855770
22
-37.188129
32
13.168720
13
-30.855770
23
-37.188129
33
13.168720
0
3DFACE
8
0
10
-30.855770
20
-37.188129
30
13.168720
11
-41.639141
21
-24.337000
31
13.168720
12
-44.541111
22
-26.012461
32
10.668720
13
-44.541111
23
-26.012461
33
10.668720
0
3DFACE
8
0
10
-6.458190
20
-8.112245
30
10.668720
11
-8.768378
21
-5.359068
31
10.668720
12
-11.670350
22
-7.034522
32
13.168720
13
-11.670350
23
-7.034522
33
13.168720
0
3DFACE
8
0
10
-11.670350
20
-7.034522
30
13.168720
11
-8.612113
21
-10.679190
31
13.168720
12
-6.458190
22
-8.112245
32
10.668720
13
-6.458190
23
-8.112245
33
10.668720
0
3DFACE
8
0
10
-8.768378
20
-5.359068
30
2.880471
11
-6.458190
21
-8.112245
31
2.880471
12
-8.612113
22
-10.679190
32
0.380471
13
-8.612113
23
-10.679190
33
0.380471
0
3DFACE
8
0
10
-8.612113
20
-10.679190
30
0.380471
11
-11.670350
21
-7.034522
31
0.380471
12
-8.768378
22
-5.359068
32
2.880471
13
-8.768378
23
-5.359068
33
2.880471
0
3DFACE
8
0
10
-33.009689
20
-39.755081
30
2.880471
11
-44.541111
21
-26.012461
31
2.880471
12
-41.639141
22
-24.337000
32
0.380471
13
-41.639141
23
-24.337000
33
0.380471
0
3DFACE
8
0
10
-41.639141
20
-24.337000
30
0.380471
11
-30.855770
21
-37.188129
31
0.380471
12
-33.009689
22
-39.755081
32
2.880471
13
-33.009689
23
-39.755081
33
2.880471
0
3DFACE
8
0
10
-44.541111
20
-26.012461
30
2.880471
11
-50.676849
21
-9.154638
31
2.880471
12
-47.376850
22
-8.572760
32
0.380471
13
-47.376850
23
-8.572760
33
0.380471
0
3DFACE
8
0
10
-47.376850
20
-8.572760
30
0.380471
11
-41.639141
21
-24.337000
31
0.380471
12
-44.541111
22
-26.012461
32
2.880471
13
-44.541111
23
-26.012461
33
2.880471
0
3DFACE
8
0
10
-50.676849
20
-9.154638
30
10.668720
11
-44.541111
21
-26.012461
31
10.668720
12
-41.639141
22
-24.337000
32
13.168720
13
-41.639141
23
-24.337000
33
13.168720
0
3DFACE
8
0
10
-41.639141
20
-24.337000
30
13.168720
11
-47.376850
21
-8.572760
31
13.168720
12
-50.676849
22
-9.154638
32
10.668720
13
-50.676849
23
-9.154638
33
10.668720
0
3DFACE
8
0
10
-8.768378
20
-5.359068
30
10.668720
11
-9.997604
21
-1.981798
31
10.668720
12
-13.297600
22
-2.563676
32
13.168720
13
-13.297600
23
-2.563676
33
13.168720
0
3DFACE
8
0
10
-13.297600
20
-2.563676
30
13.168720
11
-11.670350
21
-7.034522
31
13.168720
12
-8.768378
22
-5.359068
32
10.668720
13
-8.768378
23
-5.359068
33
10.668720
0
3DFACE
8
0
10
-9.997604
20
-1.981798
30
2.880471
11
-8.768378
21
-5.359068
31
2.880471
12
-11.670350
22
-7.034522
32
0.380471
13
-11.670350
23
-7.034522
33
0.380471
0
3DFACE
8
0
10
-11.670350
20
-7.034522
30
0.380471
11
-13.297600
21
-2.563676
31
0.380471
12
-9.997604
22
-1.981798
32
2.880471
13
-9.997604
23
-1.981798
33
2.880471
0
3DFACE
8
0
10
-50.676849
20
8.785077
30
10.668720
11
-50.676849
21
-9.154638
31
10.668720
12
-47.376850
22
-8.572760
32
13.168720
13
-47.376850
23
-8.572760
33
13.168720
0
3DFACE
8
0
10
-47.376850
20
-8.572760
30
13.168720
11
-47.376850
21
8.203197
31
13.168720
12
-50.676849
22
8.785077
32
10.668720
13
-50.676849
23
8.785077
33
10.668720
0
3DFACE
8
0
10
-9.997604
20
-1.981798
30
10.668720
11
-9.997603
21
1.612219
31
10.668720
12
-13.297600
22
2.194099
32
13.168720
13
-13.297600
23
2.194099
33
13.168720
0
3DFACE
8
0
10
-13.297600
20
2.194099
30
13.168720
11
-13.297600
21
-2.563676
31
13.168720
12
-9.997604
22
-1.981798
32
10.668720
13
-9.997604
23
-1.981798
33
10.668720
0
3DFACE
8
0
10
-9.997603
20
1.612219
30
2.880471
11
-9.997604
21
-1.981798
31
2.880471
12
-13.297600
22
-2.563676
32
0.380471
13
-13.297600
23
-2.563676
33
0.380471
0
3DFACE
8
0
10
-13.297600
20
-2.563676
30
0.380471
11
-13.297600
21
2.194099
31
0.380471
12
-9.997603
22
1.612219
32
2.880471
13
-9.997603
23
1.612219
33
2.880471
0
3DFACE
8
0
10
-50.676849
20
-9.154638
30
2.880471
11
-50.676849
21
8.785077
31
2.880471
12
-47.376850
22
8.203197
32
0.380471
13
-47.376850
23
8.203197
33
0.380471
0
3DFACE
8
0
10
-47.376850
20
8.203197
30
0.380471
11
-47.376850
21
-8.572760
31
0.380471
12
-50.676849
22
-9.154638
32
2.880471
13
-50.676849
23
-9.154638
33
2.880471
0
3DFACE
8
0
10
-50.676849
20
8.785077
30
2.880471
11
-44.541100
21
25.642891
31
2.880471
12
-41.639130
22
23.967440
32
0.380471
13
-41.639130
23
23.967440
33
0.380471
0
3DFACE
8
0
10
-41.639130
20
23.967440
30
0.380471
11
-47.376850
21
8.203197
31
0.380471
12
-50.676849
22
8.785077
32
2.880471
13
-50.676849
23
8.785077
33
2.880471
0
3DFACE
8
0
10
-44.541100
20
25.642891
30
10.668720
11
-50.676849
21
8.785077
31
10.668720
12
-47.376850
22
8.203197
32
13.168720
13
-47.376850
23
8.203197
33
13.168720
0
3DFACE
8
0
10
-47.376850
20
8.203197
30
13.168720
11
-41.639130
21
23.967440
31
13.168720
12
-44.541100
22
25.642891
32
10.668720
13
-44.541100
23
25.642891
33
10.668720
0
3DFACE
8
0
10
-9.997603
20
1.612219
30
10.668720
11
-8.768376
21
4.989490
31
10.668720
12
-11.670350
22
6.664944
32
13.168720
13
-11.670350
23
6.664944
33
13.168720
0
3DFACE
8
0
10
-11.670350
20
6.664944
30
13.168720
11
-13.297600
21
2.194099
31
13.168720
12
-9.997603
22
1.612219
32
10.668720
13
-9.997603
23
1.612219
33
10.668720
0
3DFACE
8
0
10
-8.768376
20
4.989490
30
2.880471
11
-9.997603
21
1.612219
31
2.880471
12
-13.297600
22
2.194099
32
0.380471
13
-13.297600
23
2.194099
33
0.380471
0
3DFACE
8
0
10
-13.297600
20
2.194099
30
0.380471
11
-11.670350
21
6.664944
31
0.380471
12
-8.768376
22
4.989490
32
2.880471
13
-8.768376
23
4.989490
33
2.880471
0
3DFACE
8
0
10
-33.009670
20
39.385509
30
10.668720
11
-44.541100
21
25.642891
31
10.668720
12
-41.639130
22
23.967440
32
13.168720
13
-41.639130
23
23.967440
33
13.168720
0
3DFACE
8
0
10
-41.639130
20
23.967440
30
13.168720
11
-30.855749
21
36.818569
31
13.168720
12
-33.009670
22
39.385509
32
10.668720
13
-33.009670
23
39.385509
33
10.668720
0
3DFACE
8
0
10
-8.768376
20
4.989490
30
10.668720
11
-6.458186
21
7.742665
31
10.668720
12
-8.612107
22
10.309610
32
13.168720
13
-8.612107
23
10.309610
33
13.168720
0
3DFACE
8
0
10
-8.612107
20
10.309610
30
13.168720
11
-11.670350
21
6.664944
31
13.168720
12
-8.768376
22
4.989490
32
10.668720
13
-8.768376
23
4.989490
33
10.668720
0
3DFACE
8
0
10
-6.458186
20
7.742665
30
2.880471
11
-8.768376
21
4.989490
31
2.880471
12
-11.670350
22
6.664944
32
0.380471
13
-11.670350
23
6.664944
33
0.380471
0
3DFACE
8
0
10
-11.670350
20
6.664944
30
0.380471
11
-8.612107
21
10.309610
31
0.380471
12
-6.458186
22
7.742665
32
2.880471
13
-6.458186
23
7.742665
33
2.880471
0
3DFACE
8
0
10
-44.541100
20
25.642891
30
2.880471
11
-33.009670
21
39.385509
31
2.880471
12
-30.855749
22
36.818569
32
0.380471
13
-30.855749
23
36.818569
33
0.380471
0
3DFACE
8
0
10
-30.855749
20
36.818569
30
0.380471
11
-41.639130
21
23.967440
31
0.380471
12
-44.541100
22
25.642891
32
2.880471
13
-44.541100
23
25.642891
33
2.880471
0
3DFACE
8
0
10
-33.009670
20
39.385509
30
2.880471
11
-17.473419
21
48.355370
31
2.880471
12
-16.327339
22
45.206539
32
0.380471
13
-16.327339
23
45.206539
33
0.380471
0
3DFACE
8
0
10
-16.327339
20
45.206539
30
0.380471
11
-30.855749
21
36.818569
31
0.380471
12
-33.009670
22
39.385509
32
2.880471
13
-33.009670
23
39.385509
33
2.880471
0
3DFACE
8
0
10
-17.473419
20
48.355370
30
10.668720
11
-33.009670
21
39.385509
31
10.668720
12
-30.855749
22
36.818569
32
13.168720
13
-30.855749
23
36.818569
33
13.168720
0
3DFACE
8
0
10
-30.855749
20
36.818569
30
13.168720
11
-16.327339
21
45.206539
31
13.168720
12
-17.473419
22
48.355370
32
10.668720
13
-17.473419
23
48.355370
33
10.668720
0
3DFACE
8
0
10
-6.458186
20
7.742665
30
10.668720
11
-3.345676
21
9.539673
31
10.668720
12
-4.491753
22
12.688500
32
13.168720
13
-4.491753
23
12.688500
33
13.168720
0
3DFACE
8
0
10
-4.491753
20
12.688500
30
13.168720
11
-8.612107
21
10.309610
31
13.168720
12
-6.458186
22
7.742665
32
10.668720
13
-6.458186
23
7.742665
33
10.668720
0
3DFACE
8
0
10
-3.345676
20
9.539673
30
2.880471
11
-6.458186
21
7.742665
31
2.880471
12
-8.612107
22
10.309610
32
0.380471
13
-8.612107
23
10.309610
33
0.380471
0
3DFACE
8
0
10
-8.612107
20
10.309610
30
0.380471
11
-4.491753
21
12.688500
31
0.380471
12
-3.345676
22
9.539673
32
2.880471
13
-3.345676
23
9.539673
33
2.880471
0
3DFACE
8
0
10
0.193734
20
51.470558
30
10.668720
11
-17.473419
21
48.355370
31
10.668720
12
-16.327339
22
45.206539
32
13.168720
13
-16.327339
23
45.206539
33
13.168720
0
3DFACE
8
0
10
-16.327339
20
45.206539
30
13.168720
11
0.193733
21
48.119652
31
13.168720
12
0.193734
22
51.470558
32
10.668720
13
0.193734
23
51.470558
33
10.668720
0
3DFACE
8
0
10
-3.345676
20
9.539673
30
10.668720
11
0.193736
21
10.163770
31
10.668720
12
0.193736
22
13.514670
32
13.168720
13
0.193736
23
13.514670
33
13.168720
0
3DFACE
8
0
10
0.193736
20
13.514670
30
13.168720
11
-4.491753
21
12.688500
31
13.168720
12
-3.345676
22
9.539673
32
10.668720
13
-3.345676
23
9.539673
33
10.668720
0
3DFACE
8
0
10
0.193736
20
10.163770
30
2.880471
11
-3.345676
21
9.539673
31
2.880471
12
-4.491753
22
12.688500
32
0.380471
13
-4.491753
23
12.688500
33
0.380471
0
3DFACE
8
0
10
-4.491753
20
12.688500
30
0.380471
11
0.193736
21
13.514670
31
0.380471
12
0.193736
22
10.163770
32
2.880471
13
0.193736
23
10.163770
33
2.880471
0
3DFACE
8
0
10
-17.473419
20
48.355370
30
2.880471
11
0.193734
21
51.470558
31
2.880471
12
0.193733
22
48.119652
32
0.380471
13
0.193733
23
48.119652
33
0.380471
0
3DFACE
8
0
10
0.193733
20
48.119652
30
0.380471
11
-16.327339
21
45.206539
31
0.380471
12
-17.473419
22
48.355370
32
2.880471
13
-17.473419
23
48.355370
33
2.880471
0
3DFACE
8
0
10
16.714830
20
45.206539
30
13.168720
11
0.193733
21
48.119652
31
13.168720
12
0.193733
22
48.119652
32
9.468719
13
0.193733
23
48.119652
33
9.468719
0
3DFACE
8
0
10
0.193733
20
48.119652
30
9.468719
11
16.714830
21
45.206539
31
9.468719
12
16.714830
22
45.206539
32
13.168720
13
16.714830
23
45.206539
33
13.168720
0
3DFACE
8
0
10
0.193736
20
13.514670
30
13.168720
11
4.879229
21
12.688500
31
13.168720
12
4.879229
22
12.688500
32
9.468719
13
4.879229
23
12.688500
33
9.468719
0
3DFACE
8
0
10
4.879229
20
12.688500
30
9.468719
11
0.193736
21
13.514670
31
9.468719
12
0.193736
22
13.514670
32
13.168720
13
0.193736
23
13.514670
33
13.168720
0
3DFACE
8
0
10
4.879229
20
12.688500
30
0.380471
11
0.193736
21
13.514670
31
0.380471
12
0.193736
22
13.514670
32
4.080471
13
0.193736
23
13.514670
33
4.080471
0
3DFACE
8
0
10
0.193736
20
13.514670
30
4.080471
11
4.879229
21
12.688500
31
4.080471
12
4.879229
22
12.688500
32
0.380471
13
4.879229
23
12.688500
33
0.380471
0
3DFACE
8
0
10
0.193733
20
48.119652
30
0.380471
11
16.714830
21
45.206539
31
0.380471
12
16.714830
22
45.206539
32
4.080471
13
16.714830
23
45.206539
33
4.080471
0
3DFACE
8
0
10
16.714830
20
45.206539
30
4.080471
11
0.193733
21
48.119652
31
4.080471
12
0.193733
22
48.119652
32
0.380471
13
0.193733
23
48.119652
33
0.380471
0
3DFACE
8
0
10
31.243231
20
36.818562
30
13.168720
11
16.714830
21
45.206539
31
13.168720
12
16.714830
22
45.206539
32
9.468719
13
16.714830
23
45.206539
33
9.468719
0
3DFACE
8
0
10
16.714830
20
45.206539
30
9.468719
11
31.243231
21
36.818562
31
9.468719
12
31.243231
22
36.818562
32
13.168720
13
31.243231
23
36.818562
33
13.168720
0
3DFACE
8
0
10
4.879229
20
12.688500
30
13.168720
11
8.999583
21
10.309610
31
13.168720
12
8.999583
22
10.309610
32
9.468719
13
8.999583
23
10.309610
33
9.468719
0
3DFACE
8
0
10
8.999583
20
10.309610
30
9.468719
11
4.879229
21
12.688500
31
9.468719
12
4.879229
22
12.688500
32
13.168720
13
4.879229
23
12.688500
33
13.168720
0
3DFACE
8
0
10
8.999583
20
10.309610
30
0.380471
11
4.879229
21
12.688500
31
0.380471
12
4.879229
22
12.688500
32
4.080471
13
4.879229
23
12.688500
33
4.080471
0
3DFACE
8
0
10
4.879229
20
12.688500
30
4.080471
11
8.999583
21
10.309610
31
4.080471
12
8.999583
22
10.309610
32
0.380471
13
8.999583
23
10.309610
33
0.380471
0
3DFACE
8
0
10
16.714830
20
45.206539
30
0.380471
11
31.243231
21
36.818562
31
0.380471
12
31.243231
22
36.818562
32
4.080471
13
31.243231
23
36.818562
33
4.080471
0
3DFACE
8
0
10
31.243231
20
36.818562
30
4.080471
11
16.714830
21
45.206539
31
4.080471
12
16.714830
22
45.206539
32
0.380471
13
16.714830
23
45.206539
33
0.380471
0
3DFACE
8
0
10
42.026611
20
23.967430
30
13.168720
11
31.243231
21
36.818562
31
13.168720
12
31.243231
22
36.818562
32
9.468719
13
31.243231
23
36.818562
33
9.468719
0
3DFACE
8
0
10
31.243231
20
36.818562
30
9.468719
11
42.026611
21
23.967430
31
9.468719
12
42.026611
22
23.967430
32
13.168720
13
42.026611
23
23.967430
33
13.168720
0
3DFACE
8
0
10
8.999583
20
10.309610
30
13.168720
11
12.057820
21
6.664941
31
13.168720
12
12.057820
22
6.664941
32
9.468719
13
12.057820
23
6.664941
33
9.468719
0
3DFACE
8
0
10
12.057820
20
6.664941
30
9.468719
11
8.999583
21
10.309610
31
9.468719
12
8.999583
22
10.309610
32
13.168720
13
8.999583
23
10.309610
33
13.168720
0
3DFACE
8
0
10
12.057820
20
6.664941
30
0.380471
11
8.999583
21
10.309610
31
0.380471
12
8.999583
22
10.309610
32
4.080471
13
8.999583
23
10.309610
33
4.080471
0
3DFACE
8
0
10
8.999583
20
10.309610
30
4.080471
11
12.057820
21
6.664941
31
4.080471
12
12.057820
22
6.664941
32
0.380471
13
12.057820
23
6.664941
33
0.380471
0
3DFACE
8
0
10
31.243231
20
36.818562
30
0.380471
11
42.026611
21
23.967430
31
0.380471
12
42.026611
22
23.967430
32
4.080471
13
42.026611
23
23.967430
33
4.080471
0
3DFACE
8
0
10
42.026611
20
23.967430
30
4.080471
11
31.243231
21
36.818562
31
4.080471
12
31.243231
22
36.818562
32
0.380471
13
31.243231
23
36.818562
33
0.380471
0
3DFACE
8
0
10
47.764320
20
8.203186
30
13.168720
11
42.026611
21
23.967430
31
13.168720
12
42.026611
22
23.967430
32
9.468719
13
42.026611
23
23.967430
33
9.468719
0
3DFACE
8
0
10
42.026611
20
23.967430
30
9.468719
11
47.764320
21
8.203186
31
9.468719
12
47.764320
22
8.203186
32
13.168720
13
47.764320
23
8.203186
33
13.168720
0
3DFACE
8
0
10
12.057820
20
6.664941
30
13.168720
11
13.685080
21
2.194095
31
13.168720
12
13.685080
22
2.194095
32
9.468719
13
13.685080
23
2.194095
33
9.468719
0
3DFACE
8
0
10
13.685080
20
2.194095
30
9.468719
11
12.057820
21
6.664941
31
9.468719
12
12.057820
22
6.664941
32
13.168720
13
12.057820
23
6.664941
33
13.168720
0
3DFACE
8
0
10
13.685080
20
2.194095
30
0.380471
11
12.057820
21
6.664941
31
0.380471
12
12.057820
22
6.664941
32
4.080471
13
12.057820
23
6.664941
33
4.080471
0
3DFACE
8
0
10
12.057820
20
6.664941
30
4.080471
11
13.685080
21
2.194095
31
4.080471
12
13.685080
22
2.194095
32
0.380471
13
13.685080
23
2.194095
33
0.380471
0
3DFACE
8
0
10
42.026611
20
23.967430
30
0.380471
11
47.764320
21
8.203186
31
0.380471
12
47.764320
22
8.203186
32
4.080471
13
47.764320
23
8.203186
33
4.080471
0
3DFACE
8
0
10
47.764320
20
8.203186
30
4.080471
11
42.026611
21
23.967430
31
4.080471
12
42.026611
22
23.967430
32
0.380471
13
42.026611
23
23.967430
33
0.380471
0
3DFACE
8
0
10
47.764320
20
-8.572773
30
13.168720
11
47.764320
21
8.203186
31
13.168720
12
47.764320
22
8.203186
32
9.468719
13
47.764320
23
8.203186
33
9.468719
0
3DFACE
8
0
10
47.764320
20
8.203186
30
9.468719
11
47.764320
21
-8.572773
31
9.468719
12
47.764320
22
-8.572773
32
13.168720
13
47.764320
23
-8.572773
33
13.168720
0
3DFACE
8
0
10
13.685080
20
2.194095
30
13.168720
11
13.685080
21
-2.563679
31
13.168720
12
13.685080
22
-2.563679
32
9.468719
13
13.685080
23
-2.563679
33
9.468719
0
3DFACE
8
0
10
13.685080
20
-2.563679
30
9.468719
11
13.685080
21
2.194095
31
9.468719
12
13.685080
22
2.194095
32
13.168720
13
13.685080
23
2.194095
33
13.168720
0
3DFACE
8
0
10
13.685080
20
-2.563679
30
0.380471
11
13.685080
21
2.194095
31
0.380471
12
13.685080
22
2.194095
32
4.080471
13
13.685080
23
2.194095
33
4.080471
0
3DFACE
8
0
10
13.685080
20
2.194095
30
4.080471
11
13.685080
21
-2.563679
31
4.080471
12
13.685080
22
-2.563679
32
0.380471
13
13.685080
23
-2.563679
33
0.380471
0
3DFACE
8
0
10
47.764320
20
8.203186
30
0.380471
11
47.764320
21
-8.572773
31
0.380471
12
47.764320
22
-8.572773
32
4.080471
13
47.764320
23
-8.572773
33
4.080471
0
3DFACE
8
0
10
47.764320
20
-8.572773
30
4.080471
11
47.764320
21
8.203186
31
4.080471
12
47.764320
22
8.203186
32
0.380471
13
47.764320
23
8.203186
33
0.380471
0
3DFACE
8
0
10
42.026611
20
-24.337021
30
13.168720
11
47.764320
21
-8.572773
31
13.168720
12
47.764320
22
-8.572773
32
9.468719
13
47.764320
23
-8.572773
33
9.468719
0
3DFACE
8
0
10
47.764320
20
-8.572773
30
9.468719
11
42.026611
21
-24.337021
31
9.468719
12
42.026611
22
-24.337021
32
13.168720
13
42.026611
23
-24.337021
33
13.168720
0
3DFACE
8
0
10
13.685080
20
-2.563679
30
13.168720
11
12.057820
21
-7.034525
31
13.168720
12
12.057820
22
-7.034525
32
9.468719
13
12.057820
23
-7.034525
33
9.468719
0
3DFACE
8
0
10
12.057820
20
-7.034525
30
9.468719
11
13.685080
21
-2.563679
31
9.468719
12
13.685080
22
-2.563679
32
13.168720
13
13.685080
23
-2.563679
33
13.168720
0
3DFACE
8
0
10
12.057820
20
-7.034525
30
0.380471
11
13.685080
21
-2.563679
31
0.380471
12
13.685080
22
-2.563679
32
4.080471
13
13.685080
23
-2.563679
33
4.080471
0
3DFACE
8
0
10
13.685080
20
-2.563679
30
4.080471
11
12.057820
21
-7.034525
31
4.080471
12
12.057820
22
-7.034525
32
0.380471
13
12.057820
23
-7.034525
33
0.380471
0
3DFACE
8
0
10
47.764320
20
-8.572773
30
0.380471
11
42.026611
21
-24.337021
31
0.380471
12
42.026611
22
-24.337021
32
4.080471
13
42.026611
23
-24.337021
33
4.080471
0
3DFACE
8
0
10
42.026611
20
-24.337021
30
4.080471
11
47.764320
21
-8.572773
31
4.080471
12
47.764320
22
-8.572773
32
0.380471
13
47.764320
23
-8.572773
33
0.380471
0
3DFACE
8
0
10
31.243231
20
-37.188141
30
13.168720
11
42.026611
21
-24.337021
31
13.168720
12
42.026611
22
-24.337021
32
9.468719
13
42.026611
23
-24.337021
33
9.468719
0
3DFACE
8
0
10
42.026611
20
-24.337021
30
9.468719
11
31.243231
21
-37.188141
31
9.468719
12
31.243231
22
-37.188141
32
13.168720
13
31.243231
23
-37.188141
33
13.168720
0
3DFACE
8
0
10
12.057820
20
-7.034525
30
13.168720
11
8.999581
21
-10.679190
31
13.168720
12
8.999581
22
-10.679190
32
9.468719
13
8.999581
23
-10.679190
33
9.468719
0
3DFACE
8
0
10
8.999581
20
-10.679190
30
9.468719
11
12.057820
21
-7.034525
31
9.468719
12
12.057820
22
-7.034525
32
13.168720
13
12.057820
23
-7.034525
33
13.168720
0
3DFACE
8
0
10
8.999581
20
-10.679190
30
0.380471
11
12.057820
21
-7.034525
31
0.380471
12
12.057820
22
-7.034525
32
4.080471
13
12.057820
23
-7.034525
33
4.080471
0
3DFACE
8
0
10
12.057820
20
-7.034525
30
4.080471
11
8.999581
21
-10.679190
31
4.080471
12
8.999581
22
-10.679190
32
0.380471
13
8.999581
23
-10.679190
33
0.380471
0
3DFACE
8
0
10
42.026611
20
-24.337021
30
0.380471
11
31.243231
21
-37.188141
31
0.380471
12
31.243231
22
-37.188141
32
4.080471
13
31.243231
23
-37.188141
33
4.080471
0
3DFACE
8
0
10
31.243231
20
-37.188141
30
4.080471
11
42.026611
21
-24.337021
31
4.080471
12
42.026611
22
-24.337021
32
0.380471
13
42.026611
23
-24.337021
33
0.380471
0
3DFACE
8
0
10
16.714821
20
-45.576118
30
13.168720
11
31.243231
21
-37.188141
31
13.168720
12
31.243231
22
-37.188141
32
9.468719
13
31.243231
23
-37.188141
33
9.468719
0
3DFACE
8
0
10
31.243231
20
-37.188141
30
9.468719
11
16.714821
21
-45.576118
31
9.468719
12
16.714821
22
-45.576118
32
13.168720
13
16.714821
23
-45.576118
33
13.168720
0
3DFACE
8
0
10
8.999581
20
-10.679190
30
13.168720
11
4.879228
21
-13.058080
31
13.168720
12
4.879228
22
-13.058080
32
9.468719
13
4.879228
23
-13.058080
33
9.468719
0
3DFACE
8
0
10
4.879228
20
-13.058080
30
9.468719
11
8.999581
21
-10.679190
31
9.468719
12
8.999581
22
-10.679190
32
13.168720
13
8.999581
23
-10.679190
33
13.168720
0
3DFACE
8
0
10
4.879228
20
-13.058080
30
0.380471
11
8.999581
21
-10.679190
31
0.380471
12
8.999581
22
-10.679190
32
4.080471
13
8.999581
23
-10.679190
33
4.080471
0
3DFACE
8
0
10
8.999581
20
-10.679190
30
4.080471
11
4.879228
21
-13.058080
31
4.080471
12
4.879228
22
-13.058080
32
0.380471
13
4.879228
23
-13.058080
33
0.380471
0
3DFACE
8
0
10
31.243231
20
-37.188141
30
0.380471
11
16.714821
21
-45.576118
31
0.380471
12
16.714821
22
-45.576118
32
4.080471
13
16.714821
23
-45.576118
33
4.080471
0
3DFACE
8
0
10
16.714821
20
-45.576118
30
4.080471
11
31.243231
21
-37.188141
31
4.080471
12
31.243231
22
-37.188141
32
0.380471
13
31.243231
23
-37.188141
33
0.380471
0
3DFACE
8
0
10
0.193730
20
-48.489231
30
13.168720
11
16.714821
21
-45.576118
31
13.168720
12
16.714821
22
-45.576118
32
9.468719
13
16.714821
23
-45.576118
33
9.468719
0
3DFACE
8
0
10
16.714821
20
-45.576118
30
9.468719
11
0.193730
21
-48.489231
31
9.468719
12
0.193730
22
-48.489231
32
13.168720
13
0.193730
23
-48.489231
33
13.168720
0
3DFACE
8
0
10
4.879228
20
-13.058080
30
13.168720
11
0.193734
21
-13.884260
31
13.168720
12
0.193734
22
-13.884260
32
9.468719
13
0.193734
23
-13.884260
33
9.468719
0
3DFACE
8
0
10
0.193734
20
-13.884260
30
9.468719
11
4.879228
21
-13.058080
31
9.468719
12
4.879228
22
-13.058080
32
13.168720
13
4.879228
23
-13.058080
33
13.168720
0
3DFACE
8
0
10
0.193734
20
-13.884260
30
0.380471
11
4.879228
21
-13.058080
31
0.380471
12
4.879228
22
-13.058080
32
4.080471
13
4.879228
23
-13.058080
33
4.080471
0
3DFACE
8
0
10
4.879228
20
-13.058080
30
4.080471
11
0.193734
21
-13.884260
31
4.080471
12
0.193734
22
-13.884260
32
0.380471
13
0.193734
23
-13.884260
33
0.380471
0
3DFACE
8
0
10
16.714821
20
-45.576118
30
0.380471
11
0.193730
21
-48.489231
31
0.380471
12
0.193730
22
-48.489231
32
4.080471
13
0.193730
23
-48.489231
33
4.080471
0
3DFACE
8
0
10
0.193730
20
-48.489231
30
4.080471
11
16.714821
21
-45.576118
31
4.080471
12
16.714821
22
-45.576118
32
0.380471
13
16.714821
23
-45.576118
33
0.380471
0
3DFACE
8
0
10
-16.327360
20
-45.576111
30
13.168720
11
0.193730
21
-48.489231
31
13.168720
12
0.193730
22
-48.489231
32
9.468719
13
0.193730
23
-48.489231
33
9.468719
0
3DFACE
8
0
10
0.193730
20
-48.489231
30
9.468719
11
-16.327360
21
-45.576111
31
9.468719
12
-16.327360
22
-45.576111
32
13.168720
13
-16.327360
23
-45.576111
33
13.168720
0
3DFACE
8
0
10
0.193734
20
-13.884260
30
13.168720
11
-4.491759
21
-13.058080
31
13.168720
12
-4.491759
22
-13.058080
32
9.468719
13
-4.491759
23
-13.058080
33
9.468719
0
3DFACE
8
0
10
-4.491759
20
-13.058080
30
9.468719
11
0.193734
21
-13.884260
31
9.468719
12
0.193734
22
-13.884260
32
13.168720
13
0.193734
23
-13.884260
33
13.168720
0
3DFACE
8
0
10
-4.491759
20
-13.058080
30
0.380471
11
0.193734
21
-13.884260
31
0.380471
12
0.193734
22
-13.884260
32
4.080471
13
0.193734
23
-13.884260
33
4.080471
0
3DFACE
8
0
10
0.193734
20
-13.884260
30
4.080471
11
-4.491759
21
-13.058080
31
4.080471
12
-4.491759
22
-13.058080
32
0.380471
13
-4.491759
23
-13.058080
33
0.380471
0
3DFACE
8
0
10
0.193730
20
-48.489231
30
0.380471
11
-16.327360
21
-45.576111
31
0.380471
12
-16.327360
22
-45.576111
32
4.080471
13
-16.327360
23
-45.576111
33
4.080471
0
3DFACE
8
0
10
-16.327360
20
-45.576111
30
4.080471
11
0.193730
21
-48.489231
31
4.080471
12
0.193730
22
-48.489231
32
0.380471
13
0.193730
23
-48.489231
33
0.380471
0
3DFACE
8
0
10
-30.855770
20
-37.188129
30
13.168720
11
-16.327360
21
-45.576111
31
13.168720
12
-16.327360
22
-45.576111
32
9.468719
13
-16.327360
23
-45.576111
33
9.468719
0
3DFACE
8
0
10
-16.327360
20
-45.576111
30
9.468719
11
-30.855770
21
-37.188129
31
9.468719
12
-30.855770
22
-37.188129
32
13.168720
13
-30.855770
23
-37.188129
33
13.168720
0
3DFACE
8
0
10
-4.491759
20
-13.058080
30
13.168720
11
-8.612113
21
-10.679190
31
13.168720
12
-8.612113
22
-10.679190
32
9.468719
13
-8.612113
23
-10.679190
33
9.468719
0
3DFACE
8
0
10
-8.612113
20
-10.679190
30
9.468719
11
-4.491759
21
-13.058080
31
9.468719
12
-4.491759
22
-13.058080
32
13.168720
13
-4.491759
23
-13.058080
33
13.168720
0
3DFACE
8
0
10
-8.612113
20
-10.679190
30
0.380471
11
-4.491759
21
-13.058080
31
0.380471
12
-4.491759
22
-13.058080
32
4.080471
13
-4.491759
23
-13.058080
33
4.080471
0
3DFACE
8
0
10
-4.491759
20
-13.058080
30
4.080471
11
-8.612113
21
-10.679190
31
4.080471
12
-8.612113
22
-10.679190
32
0.380471
13
-8.612113
23
-10.679190
33
0.380471
0
3DFACE
8
0
10
-16.327360
20
-45.576111
30
0.380471
11
-30.855770
21
-37.188129
31
0.380471
12
-30.855770
22
-37.188129
32
4.080471
13
-30.855770
23
-37.188129
33
4.080471
0
3DFACE
8
0
10
-30.855770
20
-37.188129
30
4.080471
11
-16.327360
21
-45.576111
31
4.080471
12
-16.327360
22
-45.576111
32
0.380471
13
-16.327360
23
-45.576111
33
0.380471
0
3DFACE
8
0
10
-41.639141
20
-24.337000
30
13.168720
11
-30.855770
21
-37.188129
31
13.168720
12
-30.855770
22
-37.188129
32
9.468719
13
-30.855770
23
-37.188129
33
9.468719
0
3DFACE
8
0
10
-30.855770
20
-37.188129
30
9.468719
11
-41.639141
21
-24.337000
31
9.468719
12
-41.639141
22
-24.337000
32
13.168720
13
-41.639141
23
-24.337000
33
13.168720
0
3DFACE
8
0
10
-8.612113
20
-10.679190
30
13.168720
11
-11.670350
21
-7.034522
31
13.168720
12
-11.670350
22
-7.034522
32
9.468719
13
-11.670350
23
-7.034522
33
9.468719
0
3DFACE
8
0
10
-11.670350
20
-7.034522
30
9.468719
11
-8.612113
21
-10.679190
31
9.468719
12
-8.612113
22
-10.679190
32
13.168720
13
-8.612113
23
-10.679190
33
13.168720
0
3DFACE
8
0
10
-11.670350
20
-7.034522
30
0.380471
11
-8.612113
21
-10.679190
31
0.380471
12
-8.612113
22
-10.679190
32
4.080471
13
-8.612113
23
-10.679190
33
4.080471
0
3DFACE
8
0
10
-8.612113
20
-10.679190
30
4.080471
11
-11.670350
21
-7.034522
31
4.080471
12
-11.670350
22
-7.034522
32
0.380471
13
-11.670350
23
-7.034522
33
0.380471
0
3DFACE
8
0
10
-30.855770
20
-37.188129
30
0.380471
11
-41.639141
21
-24.337000
31
0.380471
12
-41.639141
22
-24.337000
32
4.080471
13
-41.639141
23
-24.337000
33
4.080471
0
3DFACE
8
0
10
-41.639141
20
-24.337000
30
4.080471
11
-30.855770
21
-37.188129
31
4.080471
12
-30.855770
22
-37.188129
32
0.380471
13
-30.855770
23
-37.188129
33
0.380471
0
3DFACE
8
0
10
-47.376850
20
-8.572760
30
13.168720
11
-41.639141
21
-24.337000
31
13.168720
12
-41.639141
22
-24.337000
32
9.468719
13
-41.639141
23
-24.337000
33
9.468719
0
3DFACE
8
0
10
-41.639141
20
-24.337000
30
9.468719
11
-47.376850
21
-8.572760
31
9.468719
12
-47.376850
22
-8.572760
32
13.168720
13
-47.376850
23
-8.572760
33
13.168720
0
3DFACE
8
0
10
-11.670350
20
-7.034522
30
13.168720
11
-13.297600
21
-2.563676
31
13.168720
12
-13.297600
22
-2.563676
32
9.468719
13
-13.297600
23
-2.563676
33
9.468719
0
3DFACE
8
0
10
-13.297600
20
-2.563676
30
9.468719
11
-11.670350
21
-7.034522
31
9.468719
12
-11.670350
22
-7.034522
32
13.168720
13
-11.670350
23
-7.034522
33
13.168720
0
3DFACE
8
0
10
-13.297600
20
-2.563676
30
0.380471
11
-11.670350
21
-7.034522
31
0.380471
12
-11.670350
22
-7.034522
32
4.080471
13
-11.670350
23
-7.034522
33
4.080471
0
3DFACE
8
0
10
-11.670350
20
-7.034522
30
4.080471
11
-13.297600
21
-2.563676
31
4.080471
12
-13.297600
22
-2.563676
32
0.380471
13
-13.297600
23
-2.563676
33
0.380471
0
3DFACE
8
0
10
-41.639141
20
-24.337000
30
0.380471
11
-47.376850
21
-8.572760
31
0.380471
12
-47.376850
22
-8.572760
32
4.080471
13
-47.376850
23
-8.572760
33
4.080471
0
3DFACE
8
0
10
-47.376850
20
-8.572760
30
4.080471
11
-41.639141
21
-24.337000
31
4.080471
12
-41.639141
22
-24.337000
32
0.380471
13
-41.639141
23
-24.337000
33
0.380471
0
3DFACE
8
0
10
-47.376850
20
8.203197
30
13.168720
11
-47.376850
21
-8.572760
31
13.168720
12
-47.376850
22
-8.572760
32
9.468719
13
-47.376850
23
-8.572760
33
9.468719
0
3DFACE
8
0
10
-47.376850
20
-8.572760
30
9.468719
11
-47.376850
21
8.203197
31
9.468719
12
-47.376850
22
8.203197
32
13.168720
13
-47.376850
23
8.203197
33
13.168720
0
3DFACE
8
0
10
-13.297600
20
-2.563676
30
13.168720
11
-13.297600
21
2.194099
31
13.168720
12
-13.297600
22
2.194099
32
9.468719
13
-13.297600
23
2.194099
33
9.468719
0
3DFACE
8
0
10
-13.297600
20
2.194099
30
9.468719
11
-13.297600
21
-2.563676
31
9.468719
12
-13.297600
22
-2.563676
32
13.168720
13
-13.297600
23
-2.563676
33
13.168720
0
3DFACE
8
0
10
-13.297600
20
2.194099
30
0.380471
11
-13.297600
21
-2.563676
31
0.380471
12
-13.297600
22
-2.563676
32
4.080471
13
-13.297600
23
-2.563676
33
4.080471
0
3DFACE
8
0
10
-13.297600
20
-2.563676
30
4.080471
11
-13.297600
21
2.194099
31
4.080471
12
-13.297600
22
2.194099
32
0.380471
13
-13.297600
23
2.194099
33
0.380471
0
3DFACE
8
0
10
-47.376850
20
-8.572760
30
0.380471
11
-47.376850
21
8.203197
31
0.380471
12
-47.376850
22
8.203197
32
4.080471
13
-47.376850
23
8.203197
33
4.080471
0
3DFACE
8
0
10
-47.376850
20
8.203197
30
4.080471
11
-47.376850
21
-8.572760
31
4.080471
12
-47.376850
22
-8.572760
32
0.380471
13
-47.376850
23
-8.572760
33
0.380471
0
3DFACE
8
0
10
-41.639130
20
23.967440
30
13.168720
11
-47.376850
21
8.203197
31
13.168720
12
-47.376850
22
8.203197
32
9.468719
13
-47.376850
23
8.203197
33
9.468719
0
3DFACE
8
0
10
-47.376850
20
8.203197
30
9.468719
11
-41.639130
21
23.967440
31
9.468719
12
-41.639130
22
23.967440
32
13.168720
13
-41.639130
23
23.967440
33
13.168720
0
3DFACE
8
0
10
-13.297600
20
2.194099
30
13.168720
11
-11.670350
21
6.664944
31
13.168720
12
-11.670350
22
6.664944
32
9.468719
13
-11.670350
23
6.664944
33
9.468719
0
3DFACE
8
0
10
-11.670350
20
6.664944
30
9.468719
11
-13.297600
21
2.194099
31
9.468719
12
-13.297600
22
2.194099
32
13.168720
13
-13.297600
23
2.194099
33
13.168720
0
3DFACE
8
0
10
-11.670350
20
6.664944
30
0.380471
11
-13.297600
21
2.194099
31
0.380471
12
-13.297600
22
2.194099
32
4.080471
13
-13.297600
23
2.194099
33
4.080471
0
3DFACE
8
0
10
-13.297600
20
2.194099
30
4.080471
11
-11.670350
21
6.664944
31
4.080471
12
-11.670350
22
6.664944
32
0.380471
13
-11.670350
23
6.664944
33
0.380471
0
3DFACE
8
0
10
-47.376850
20
8.203197
30
0.380471
11
-41.639130
21
23.967440
31
0.380471
12
-41.639130
22
23.967440
32
4.080471
13
-41.639130
23
23.967440
33
4.080471
0
3DFACE
8
0
10
-41.639130
20
23.967440
30
4.080471
11
-47.376850
21
8.203197
31
4.080471
12
-47.376850
22
8.203197
32
0.380471
13
-47.376850
23
8.203197
33
0.380471
0
3DFACE
8
0
10
-30.855749
20
36.818569
30
13.168720
11
-41.639130
21
23.967440
31
13.168720
12
-41.639130
22
23.967440
32
9.468719
13
-41.639130
23
23.967440
33
9.468719
0
3DFACE
8
0
10
-41.639130
20
23.967440
30
9.468719
11
-30.855749
21
36.818569
31
9.468719
12
-30.855749
22
36.818569
32
13.168720
13
-30.855749
23
36.818569
33
13.168720
0
3DFACE
8
0
10
-11.670350
20
6.664944
30
13.168720
11
-8.612107
21
10.309610
31
13.168720
12
-8.612107
22
10.309610
32
9.468719
13
-8.612107
23
10.309610
33
9.468719
0
3DFACE
8
0
10
-8.612107
20
10.309610
30
9.468719
11
-11.670350
21
6.664944
31
9.468719
12
-11.670350
22
6.664944
32
13.168720
13
-11.670350
23
6.664944
33
13.168720
0
3DFACE
8
0
10
-8.612107
20
10.309610
30
0.380471
11
-11.670350
21
6.664944
31
0.380471
12
-11.670350
22
6.664944
32
4.080471
13
-11.670350
23
6.664944
33
4.080471
0
3DFACE
8
0
10
-11.670350
20
6.664944
30
4.080471
11
-8.612107
21
10.309610
31
4.080471
12
-8.612107
22
10.309610
32
0.380471
13
-8.612107
23
10.309610
33
0.380471
0
3DFACE
8
0
10
-41.639130
20
23.967440
30
0.380471
11
-30.855749
21
36.818569
31
0.380471
12
-30.855749
22
36.818569
32
4.080471
13
-30.855749
23
36.818569
33
4.080471
0
3DFACE
8
0
10
-30.855749
20
36.818569
30
4.080471
11
-41.639130
21
23.967440
31
4.080471
12
-41.639130
22
23.967440
32
0.380471
13
-41.639130
23
23.967440
33
0.380471
0
3DFACE
8
0
10
-16.327339
20
45.206539
30
13.168720
11
-30.855749
21
36.818569
31
13.168720
12
-30.855749
22
36.818569
32
9.468719
13
-30.855749
23
36.818569
33
9.468719
0
3DFACE
8
0
10
-30.855749
20
36.818569
30
9.468719
11
-16.327339
21
45.206539
31
9.468719
12
-16.327339
22
45.206539
32
13.168720
13
-16.327339
23
45.206539
33
13.168720
0
3DFACE
8
0
10
-8.612107
20
10.309610
30
13.168720
11
-4.491753
21
12.688500
31
13.168720
12
-4.491753
22
12.688500
32
9.468719
13
-4.491753
23
12.688500
33
9.468719
0
3DFACE
8
0
10
-4.491753
20
12.688500
30
9.468719
11
-8.612107
21
10.309610
31
9.468719
12
-8.612107
22
10.309610
32
13.168720
13
-8.612107
23
10.309610
33
13.168720
0
3DFACE
8
0
10
-4.491753
20
12.688500
30
0.380471
11
-8.612107
21
10.309610
31
0.380471
12
-8.612107
22
10.309610
32
4.080471
13
-8.612107
23
10.309610
33
4.080471
0
3DFACE
8
0
10
-8.612107
20
10.309610
30
4.080471
11
-4.491753
21
12.688500
31
4.080471
12
-4.491753
22
12.688500
32
0.380471
13
-4.491753
23
12.688500
33
0.380471
0
3DFACE
8
0
10
-30.855749
20
36.818569
30
0.380471
11
-16.327339
21
45.206539
31
0.380471
12
-16.327339
22
45.206539
32
4.080471
13
-16.327339
23
45.206539
33
4.080471
0
3DFACE
8
0
10
-16.327339
20
45.206539
30
4.080471
11
-30.855749
21
36.818569
31
4.080471
12
-30.855749
22
36.818569
32
0.380471
13
-30.855749
23
36.818569
33
0.380471
0
3DFACE
8
0
10
0.193733
20
48.119652
30
13.168720
11
-16.327339
21
45.206539
31
13.168720
12
-16.327339
22
45.206539
32
9.468719
13
-16.327339
23
45.206539
33
9.468719
0
3DFACE
8
0
10
-16.327339
20
45.206539
30
9.468719
11
0.193733
21
48.119652
31
9.468719
12
0.193733
22
48.119652
32
13.168720
13
0.193733
23
48.119652
33
13.168720
0
3DFACE
8
0
10
-4.491753
20
12.688500
30
13.168720
11
0.193736
21
13.514670
31
13.168720
12
0.193736
22
13.514670
32
9.468719
13
0.193736
23
13.514670
33
9.468719
0
3DFACE
8
0
10
0.193736
20
13.514670
30
9.468719
11
-4.491753
21
12.688500
31
9.468719
12
-4.491753
22
12.688500
32
13.168720
13
-4.491753
23
12.688500
33
13.168720
0
3DFACE
8
0
10
0.193736
20
13.514670
30
0.380471
11
-4.491753
21
12.688500
31
0.380471
12
-4.491753
22
12.688500
32
4.080471
13
-4.491753
23
12.688500
33
4.080471
0
3DFACE
8
0
10
-4.491753
20
12.688500
30
4.080471
11
0.193736
21
13.514670
31
4.080471
12
0.193736
22
13.514670
32
0.380471
13
0.193736
23
13.514670
33
0.380471
0
3DFACE
8
0
10
-16.327339
20
45.206539
30
0.380471
11
0.193733
21
48.119652
31
0.380471
12
0.193733
22
48.119652
32
4.080471
13
0.193733
23
48.119652
33
4.080471
0
3DFACE
8
0
10
0.193733
20
48.119652
30
4.080471
11
-16.327339
21
45.206539
31
4.080471
12
-16.327339
22
45.206539
32
0.380471
13
-16.327339
23
45.206539
33
0.380471
0
ENDSEC
0
EOF
