  0
SECTION
  2
HEADER
  9
$ACADVER
  1
AC1027
  9
$ACADMAINTVER
 70
    55
  9
$DWGCODEPAGE
  3
ANSI_1252
  9
$REQUIREDVERSIONS
160
                 0
  9
$INSBASE
 10
0.0
 20
0.0
 30
0.0
  9
$EXTMIN
 10
5693.934425354004
 20
-4846.75096206665
 30
4000.000030517578
  9
$EXTMAX
 10
12693.93447875976
 20
-1953.151566696167
 30
7290.091648864747
  9
$LIMMIN
 10
0.0
 20
0.0
  9
$LIMMAX
 10
12.0
 20
9.0
  9
$ORTHOMODE
 70
     0
  9
$REGENMODE
 70
     1
  9
$FILLMODE
 70
     1
  9
$QTEXTMODE
 70
     0
  9
$MIRRTEXT
 70
     0
  9
$LTSCALE
 40
1.0
  9
$ATTMODE
 70
     1
  9
$TEXTSIZE
 40
0.2
  9
$TRACEWID
 40
0.05
  9
$TEXTSTYLE
  7
Standard
  9
$CLAYER
  8
0
  9
$CELTYPE
  6
ByLayer
  9
$CECOLOR
 62
   256
  9
$CELTSCALE
 40
1.0
  9
$DISPSILH
 70
     0
  9
$DIMSCALE
 40
1.0
  9
$DIMASZ
 40
0.18
  9
$DIMEXO
 40
0.0625
  9
$DIMDLI
 40
0.38
  9
$DIMRND
 40
0.0
  9
$DIMDLE
 40
0.0
  9
$DIMEXE
 40
0.18
  9
$DIMTP
 40
0.0
  9
$DIMTM
 40
0.0
  9
$DIMTXT
 40
0.18
  9
$DIMCEN
 40
0.09
  9
$DIMTSZ
 40
0.0
  9
$DIMTOL
 70
     0
  9
$DIMLIM
 70
     0
  9
$DIMTIH
 70
     1
  9
$DIMTOH
 70
     1
  9
$DIMSE1
 70
     0
  9
$DIMSE2
 70
     0
  9
$DIMTAD
 70
     0
  9
$DIMZIN
 70
     0
  9
$DIMBLK
  1

  9
$DIMASO
 70
     1
  9
$DIMSHO
 70
     1
  9
$DIMPOST
  1

  9
$DIMAPOST
  1

  9
$DIMALT
 70
     0
  9
$DIMALTD
 70
     2
  9
$DIMALTF
 40
25.4
  9
$DIMLFAC
 40
1.0
  9
$DIMTOFL
 70
     0
  9
$DIMTVP
 40
0.0
  9
$DIMTIX
 70
     0
  9
$DIMSOXD
 70
     0
  9
$DIMSAH
 70
     0
  9
$DIMBLK1
  1

  9
$DIMBLK2
  1

  9
$DIMSTYLE
  2
Standard
  9
$DIMCLRD
 70
     0
  9
$DIMCLRE
 70
     0
  9
$DIMCLRT
 70
     0
  9
$DIMTFAC
 40
1.0
  9
$DIMGAP
 40
0.09
  9
$DIMJUST
 70
     0
  9
$DIMSD1
 70
     0
  9
$DIMSD2
 70
     0
  9
$DIMTOLJ
 70
     1
  9
$DIMTZIN
 70
     0
  9
$DIMALTZ
 70
     0
  9
$DIMALTTZ
 70
     0
  9
$DIMUPT
 70
     0
  9
$DIMDEC
 70
     4
  9
$DIMTDEC
 70
     4
  9
$DIMALTU
 70
     2
  9
$DIMALTTD
 70
     2
  9
$DIMTXSTY
  7
Standard
  9
$DIMAUNIT
 70
     0
  9
$DIMADEC
 70
     0
  9
$DIMALTRND
 40
0.0
  9
$DIMAZIN
 70
     0
  9
$DIMDSEP
 70
    46
  9
$DIMATFIT
 70
     3
  9
$DIMFRAC
 70
     0
  9
$DIMLDRBLK
  1

  9
$DIMLUNIT
 70
     2
  9
$DIMLWD
 70
    -2
  9
$DIMLWE
 70
    -2
  9
$DIMTMOVE
 70
     0
  9
$DIMFXL
 40
1.0
  9
$DIMFXLON
 70
     0
  9
$DIMJOGANG
 40
0.7853981633974483
  9
$DIMTFILL
 70
     0
  9
$DIMTFILLCLR
 70
     0
  9
$DIMARCSYM
 70
     0
  9
$DIMLTYPE
  6

  9
$DIMLTEX1
  6

  9
$DIMLTEX2
  6

  9
$DIMTXTDIRECTION
 70
     0
  9
$LUNITS
 70
     2
  9
$LUPREC
 70
     4
  9
$SKETCHINC
 40
0.1
  9
$FILLETRAD
 40
0.0
  9
$AUNITS
 70
     0
  9
$AUPREC
 70
     0
  9
$MENU
  1
.
  9
$ELEVATION
 40
0.0
  9
$PELEVATION
 40
0.0
  9
$THICKNESS
 40
0.0
  9
$LIMCHECK
 70
     0
  9
$CHAMFERA
 40
0.0
  9
$CHAMFERB
 40
0.0
  9
$CHAMFERC
 40
0.0
  9
$CHAMFERD
 40
0.0
  9
$SKPOLY
 70
     0
  9
$TDCREATE
 40
2456822.592362847
  9
$TDUCREATE
 40
2456822.467362847
  9
$TDUPDATE
 40
2456822.592362847
  9
$TDUUPDATE
 40
2456822.467362847
  9
$TDINDWG
 40
0.0000104514
  9
$TDUSRTIMER
 40
0.0000104514
  9
$USRTIMER
 70
     1
  9
$ANGBASE
 50
0.0
  9
$ANGDIR
 70
     0
  9
$PDMODE
 70
     0
  9
$PDSIZE
 40
0.0
  9
$PLINEWID
 40
0.0
  9
$SPLFRAME
 70
     0
  9
$SPLINETYPE
 70
     6
  9
$SPLINESEGS
 70
     8
  9
$HANDSEED
  5
266
  9
$SURFTAB1
 70
     6
  9
$SURFTAB2
 70
     6
  9
$SURFTYPE
 70
     6
  9
$SURFU
 70
     6
  9
$SURFV
 70
     6
  9
$UCSBASE
  2

  9
$UCSNAME
  2

  9
$UCSORG
 10
0.0
 20
0.0
 30
0.0
  9
$UCSXDIR
 10
1.0
 20
0.0
 30
0.0
  9
$UCSYDIR
 10
0.0
 20
1.0
 30
0.0
  9
$UCSORTHOREF
  2

  9
$UCSORTHOVIEW
 70
     0
  9
$UCSORGTOP
 10
0.0
 20
0.0
 30
0.0
  9
$UCSORGBOTTOM
 10
0.0
 20
0.0
 30
0.0
  9
$UCSORGLEFT
 10
0.0
 20
0.0
 30
0.0
  9
$UCSORGRIGHT
 10
0.0
 20
0.0
 30
0.0
  9
$UCSORGFRONT
 10
0.0
 20
0.0
 30
0.0
  9
$UCSORGBACK
 10
0.0
 20
0.0
 30
0.0
  9
$PUCSBASE
  2

  9
$PUCSNAME
  2

  9
$PUCSORG
 10
0.0
 20
0.0
 30
0.0
  9
$PUCSXDIR
 10
1.0
 20
0.0
 30
0.0
  9
$PUCSYDIR
 10
0.0
 20
1.0
 30
0.0
  9
$PUCSORTHOREF
  2

  9
$PUCSORTHOVIEW
 70
     0
  9
$PUCSORGTOP
 10
0.0
 20
0.0
 30
0.0
  9
$PUCSORGBOTTOM
 10
0.0
 20
0.0
 30
0.0
  9
$PUCSORGLEFT
 10
0.0
 20
0.0
 30
0.0
  9
$PUCSORGRIGHT
 10
0.0
 20
0.0
 30
0.0
  9
$PUCSORGFRONT
 10
0.0
 20
0.0
 30
0.0
  9
$PUCSORGBACK
 10
0.0
 20
0.0
 30
0.0
  9
$USERI1
 70
     0
  9
$USERI2
 70
     0
  9
$USERI3
 70
     0
  9
$USERI4
 70
     0
  9
$USERI5
 70
     0
  9
$USERR1
 40
0.0
  9
$USERR2
 40
0.0
  9
$USERR3
 40
0.0
  9
$USERR4
 40
0.0
  9
$USERR5
 40
0.0
  9
$WORLDVIEW
 70
     1
  9
$SHADEDGE
 70
     3
  9
$SHADEDIF
 70
    70
  9
$TILEMODE
 70
     1
  9
$MAXACTVP
 70
    64
  9
$PINSBASE
 10
0.0
 20
0.0
 30
0.0
  9
$PLIMCHECK
 70
     0
  9
$PEXTMIN
 10
1.000000000000000E+20
 20
1.000000000000000E+20
 30
1.000000000000000E+20
  9
$PEXTMAX
 10
-1.000000000000000E+20
 20
-1.000000000000000E+20
 30
-1.000000000000000E+20
  9
$PLIMMIN
 10
0.0
 20
0.0
  9
$PLIMMAX
 10
12.0
 20
9.0
  9
$UNITMODE
 70
     0
  9
$VISRETAIN
 70
     1
  9
$PLINEGEN
 70
     0
  9
$PSLTSCALE
 70
     1
  9
$TREEDEPTH
 70
  3020
  9
$CMLSTYLE
  2
Standard
  9
$CMLJUST
 70
     0
  9
$CMLSCALE
 40
1.0
  9
$PROXYGRAPHICS
 70
     1
  9
$MEASUREMENT
 70
     1
  9
$CELWEIGHT
370
    -1
  9
$ENDCAPS
280
     0
  9
$JOINSTYLE
280
     0
  9
$LWDISPLAY
290
     0
  9
$INSUNITS
 70
     4
  9
$HYPERLINKBASE
  1

  9
$STYLESHEET
  1

  9
$XEDIT
290
     1
  9
$CEPSNTYPE
380
     0
  9
$PSTYLEMODE
290
     1
  9
$FINGERPRINTGUID
  2
{483D17BE-068E-4399-9177-7423BB37E619}
  9
$VERSIONGUID
  2
{EFB3EABC-E6AF-444E-BD1F-E77C264C04D4}
  9
$EXTNAMES
290
     1
  9
$PSVPSCALE
 40
0.0
  9
$OLESTARTUP
290
     0
  9
$SORTENTS
280
   127
  9
$INDEXCTL
280
     0
  9
$HIDETEXT
280
     1
  9
$XCLIPFRAME
280
     2
  9
$HALOGAP
280
     0
  9
$OBSCOLOR
 70
   257
  9
$OBSLTYPE
280
     0
  9
$INTERSECTIONDISPLAY
280
     0
  9
$INTERSECTIONCOLOR
 70
   257
  9
$DIMASSOC
280
     2
  9
$PROJECTNAME
  1

  9
$CAMERADISPLAY
290
     0
  9
$LENSLENGTH
 40
50.0
  9
$CAMERAHEIGHT
 40
0.0
  9
$STEPSPERSEC
 40
2.0
  9
$STEPSIZE
 40
6.0
  9
$3DDWFPREC
 40
2.0
  9
$PSOLWIDTH
 40
0.25
  9
$PSOLHEIGHT
 40
4.0
  9
$LOFTANG1
 40
1.570796326794896
  9
$LOFTANG2
 40
1.570796326794896
  9
$LOFTMAG1
 40
0.0
  9
$LOFTMAG2
 40
0.0
  9
$LOFTPARAM
 70
     7
  9
$LOFTNORMALS
280
     1
  9
$LATITUDE
 40
37.795
  9
$LONGITUDE
 40
-122.394
  9
$NORTHDIRECTION
 40
0.0
  9
$TIMEZONE
 70
 -8000
  9
$LIGHTGLYPHDISPLAY
280
     1
  9
$TILEMODELIGHTSYNCH
280
     1
  9
$CMATERIAL
347
11
  9
$SOLIDHIST
280
     0
  9
$SHOWHIST
280
     1
  9
$DWFFRAME
280
     2
  9
$DGNFRAME
280
     0
  9
$REALWORLDSCALE
290
     1
  9
$INTERFERECOLOR
 62
     1
  9
$INTERFEREOBJVS
345
33
  9
$INTERFEREVPVS
346
30
  9
$CSHADOW
280
     0
  9
$SHADOWPLANELOCATION
 40
0.0
  0
ENDSEC
  0
SECTION
  2
CLASSES
  0
CLASS
  1
ACDBDICTIONARYWDFLT
  2
AcDbDictionaryWithDefault
  3
ObjectDBX Classes
 90
        0
 91
        1
280
     0
281
     0
  0
CLASS
  1
MATERIAL
  2
AcDbMaterial
  3
ObjectDBX Classes
 90
     1153
 91
        8
280
     0
281
     0
  0
CLASS
  1
VISUALSTYLE
  2
AcDbVisualStyle
  3
ObjectDBX Classes
 90
     4095
 91
       24
280
     0
281
     0
  0
CLASS
  1
SCALE
  2
AcDbScale
  3
ObjectDBX Classes
 90
     1153
 91
       17
280
     0
281
     0
  0
CLASS
  1
TABLESTYLE
  2
AcDbTableStyle
  3
ObjectDBX Classes
 90
     4095
 91
        1
280
     0
281
     0
  0
CLASS
  1
MLEADERSTYLE
  2
AcDbMLeaderStyle
  3
ACDB_MLEADERSTYLE_CLASS
 90
     4095
 91
        1
280
     0
281
     0
  0
CLASS
  1
ACDBSECTIONVIEWSTYLE
  2
AcDbSectionViewStyle
  3
ObjectDBX Classes
 90
     1025
 91
        1
280
     0
281
     0
  0
CLASS
  1
ACDBDETAILVIEWSTYLE
  2
AcDbDetailViewStyle
  3
ObjectDBX Classes
 90
     1025
 91
        1
280
     0
281
     0
  0
CLASS
  1
RASTERVARIABLES
  2
AcDbRasterVariables
  3
ISM
 90
        0
 91
        1
280
     0
281
     0
  0
CLASS
  1
DICTIONARYVAR
  2
AcDbDictionaryVar
  3
ObjectDBX Classes
 90
        0
 91
        5
280
     0
281
     0
  0
CLASS
  1
CELLSTYLEMAP
  2
AcDbCellStyleMap
  3
ObjectDBX Classes
 90
     1152
 91
        2
280
     0
281
     0
  0
ENDSEC
  0
SECTION
  2
TABLES
  0
TABLE
  2
VPORT
  5
8
330
0
100
AcDbSymbolTable
 70
     1
  0
VPORT
  5
57
330
8
100
AcDbSymbolTableRecord
100
AcDbViewportTableRecord
  2
*Active
 70
     0
 10
0.0
 20
0.0
 11
1.0
 21
1.0
 12
9193.934452056884
 22
-3399.951264381409
 13
0.0
 23
0.0
 14
1.0
 24
1.0
 15
0.0
 25
0.0
 16
3596.178599225824
 26
-3596.17859922568
 36
1940.871291696267
 17
17952.34623052184
 27
-3335.432501026906
 37
7914.332124167208
 40
2893.599395370484
 41
2.419132401190425
 42
50.0
 43
0.0
 44
0.0
 50
0.0
 51
0.0
 71
     0
 72
  1000
 73
     1
 74
     1
 75
     0
 76
     0
 77
     0
 78
     0
281
     1
 65
     1
110
0.0
120
0.0
130
0.0
111
1.0
121
0.0
131
0.0
112
0.0
122
1.0
132
0.0
 79
     0
146
0.0
348
30
 60
     3
 61
     5
292
     1
282
     1
141
0.0
142
0.0
 63
   250
421
  3355443
  0
ENDTAB
  0
TABLE
  2
LTYPE
  5
5
330
0
100
AcDbSymbolTable
 70
     1
  0
LTYPE
  5
5B
330
5
100
AcDbSymbolTableRecord
100
AcDbLinetypeTableRecord
  2
ByBlock
 70
     0
  3

 72
    65
 73
     0
 40
0.0
  0
LTYPE
  5
5C
330
5
100
AcDbSymbolTableRecord
100
AcDbLinetypeTableRecord
  2
ByLayer
 70
     0
  3

 72
    65
 73
     0
 40
0.0
  0
LTYPE
  5
5D
330
5
100
AcDbSymbolTableRecord
100
AcDbLinetypeTableRecord
  2
Continuous
 70
     0
  3
Solid line
 72
    65
 73
     0
 40
0.0
  0
ENDTAB
  0
TABLE
  2
LAYER
  5
2
330
0
100
AcDbSymbolTable
 70
     5
  0
LAYER
  5
54
330
2
100
AcDbSymbolTableRecord
100
AcDbLayerTableRecord
  2
0
 70
     0
 62
     7
  6
Continuous
370
    -3
390
F
347
21
348
0
  0
LAYER
  5
88
330
2
100
AcDbSymbolTableRecord
100
AcDbLayerTableRecord
  2
A-WALL
 70
     0
 62
   113
  6
Continuous
370
     9
390
F
347
21
348
0
  0
LAYER
  5
B3
330
2
100
AcDbSymbolTableRecord
100
AcDbLayerTableRecord
  2
A-ROOF
 70
     0
 62
   132
  6
Continuous
370
     9
390
F
347
21
348
0
  0
LAYER
  5
10C
330
2
100
AcDbSymbolTableRecord
100
AcDbLayerTableRecord
  2
A-ROOF-OTLN
 70
     0
 62
   132
  6
Continuous
370
     9
390
F
347
21
348
0
  0
LAYER
  5
19B
330
2
100
AcDbSymbolTableRecord
100
AcDbLayerTableRecord
  2
A-GLAZ-CURT
 70
     0
 62
    52
  6
Continuous
370
     9
390
F
347
21
348
0
  0
ENDTAB
  0
TABLE
  2
STYLE
  5
3
330
0
100
AcDbSymbolTable
 70
     2
  0
STYLE
  5
55
330
3
100
AcDbSymbolTableRecord
100
AcDbTextStyleTableRecord
  2
Standard
 70
     0
 40
0.0
 41
1.0
 50
0.0
 71
     0
 42
0.2
  3
txt
  4

  0
STYLE
  5
5A
330
3
100
AcDbSymbolTableRecord
100
AcDbTextStyleTableRecord
  2
Annotative
 70
     0
 40
0.0
 41
1.0
 50
0.0
 71
     0
 42
0.2
  3
txt
  4

1001
AcadAnnotative
1000
AnnotativeData
1002
{
1070
     1
1070
     1
1002
}
  0
ENDTAB
  0
TABLE
  2
VIEW
  5
6
330
0
100
AcDbSymbolTable
 70
     1
  0
VIEW
  5
248
330
6
100
AcDbSymbolTableRecord
100
AcDbViewTableRecord
  2
_3D_
 70
     0
 40
60960.0
 10
0.0
 20
0.0
 41
60960.0
 11
3596.178599225824
 21
-3596.17859922568
 31
1940.871291696267
 12
17952.34623052184
 22
-3335.432501026906
 32
7914.332124167208
 42
50.0
 43
0.0
 44
0.0
 50
0.0
 71
     0
281
     0
 72
     0
 73
     0
  0
ENDTAB
  0
TABLE
  2
UCS
  5
7
330
0
100
AcDbSymbolTable
 70
     1
  0
UCS
  5
24B
330
7
100
AcDbSymbolTableRecord
100
AcDbUCSTableRecord
  2
REVIT60-Internal
 70
     0
 10
0.0
 20
0.0
 30
0.0
 11
1.0
 21
0.0
 31
0.0
 12
0.0
 22
1.0
 32
0.0
 79
     0
146
0.0
  0
ENDTAB
  0
TABLE
  2
APPID
  5
9
330
0
100
AcDbSymbolTable
 70
     3
  0
APPID
  5
56
330
9
100
AcDbSymbolTableRecord
100
AcDbRegAppTableRecord
  2
ACAD
 70
     0
  0
APPID
  5
5E
330
9
100
AcDbSymbolTableRecord
100
AcDbRegAppTableRecord
  2
AcadAnnotative
 70
     0
  0
APPID
  5
78
330
9
100
AcDbSymbolTableRecord
100
AcDbRegAppTableRecord
  2
REVIT
 70
     0
  0
ENDTAB
  0
TABLE
  2
DIMSTYLE
  5
A
330
0
100
AcDbSymbolTable
 70
     2
100
AcDbDimStyleTable
 71
     0
  0
DIMSTYLE
105
58
330
A
100
AcDbSymbolTableRecord
100
AcDbDimStyleTableRecord
  2
Standard
 70
     0
340
55
  0
DIMSTYLE
105
59
330
A
100
AcDbSymbolTableRecord
100
AcDbDimStyleTableRecord
  2
Annotative
 70
     0
340
55
1001
AcadAnnotative
1000
AnnotativeData
1002
{
1070
     1
1070
     1
1002
}
  0
ENDTAB
  0
TABLE
  2
BLOCK_RECORD
  5
1
330
0
100
AcDbSymbolTable
 70
     2
  0
BLOCK_RECORD
  5
70
330
1
100
AcDbSymbolTableRecord
100
AcDbBlockTableRecord
  2
*Model_Space
340
73
 70
     0
280
     1
281
     0
  0
BLOCK_RECORD
  5
6C
330
1
100
AcDbSymbolTableRecord
100
AcDbBlockTableRecord
  2
*Paper_Space
340
6F
 70
     0
280
     1
281
     0
  0
BLOCK_RECORD
  5
74
330
1
100
AcDbSymbolTableRecord
100
AcDbBlockTableRecord
  2
*Paper_Space0
340
77
 70
     0
280
     1
281
     0
  0
BLOCK_RECORD
  5
19C
330
1
100
AcDbSymbolTableRecord
100
AcDbBlockTableRecord
  2
System Panel - Glazed-144269-_3D_
340
0
102
{BLKREFS
331
1C9
102
}
 70
     0
280
     1
281
     0
  0
ENDTAB
  0
ENDSEC
  0
SECTION
  2
BLOCKS
  0
BLOCK
  5
71
330
70
100
AcDbEntity
  8
0
100
AcDbBlockBegin
  2
*Model_Space
 70
     0
 10
0.0
 20
0.0
 30
0.0
  3
*Model_Space
  1

  0
ENDBLK
  5
72
330
70
100
AcDbEntity
  8
0
100
AcDbBlockEnd
  0
BLOCK
  5
6D
330
6C
100
AcDbEntity
 67
     1
  8
0
100
AcDbBlockBegin
  2
*Paper_Space
 70
     0
 10
0.0
 20
0.0
 30
0.0
  3
*Paper_Space
  1

  0
ENDBLK
  5
6E
330
6C
100
AcDbEntity
 67
     1
  8
0
100
AcDbBlockEnd
  0
BLOCK
  5
75
330
74
100
AcDbEntity
 67
     1
  8
0
100
AcDbBlockBegin
  2
*Paper_Space0
 70
     0
 10
0.0
 20
0.0
 30
0.0
  3
*Paper_Space0
  1

  0
ENDBLK
  5
76
330
74
100
AcDbEntity
 67
     1
  8
0
100
AcDbBlockEnd
  0
BLOCK
  5
1C7
330
19C
100
AcDbEntity
  8
0
100
AcDbBlockBegin
  2
System Panel - Glazed-144269-_3D_
 70
     0
 10
0.0
 20
0.0
 30
0.0
  3
System Panel - Glazed-144269-_3D_
  1

  0
POLYLINE
  5
19D
330
19C
100
AcDbEntity
  8
A-GLAZ-CURT
440
 33554496
100
AcDbPolyFaceMesh
 66
     1
 10
0.0
 20
0.0
 30
0.0
 70
    64
 71
     4
 72
     1
1001
REVIT
1002
{
1070
     4
1000
27
1002
}
  0
VERTEX
  5
19E
330
19D
100
AcDbEntity
  8
A-GLAZ-CURT
440
 33554496
100
AcDbVertex
100
AcDbPolyFaceMeshVertex
 10
683.1824998855591
 20
24.49999891519547
 30
-0.0000000000002707
 70
   192
  0
VERTEX
  5
19F
330
19D
100
AcDbEntity
  8
A-GLAZ-CURT
440
 33554496
100
AcDbVertex
100
AcDbPolyFaceMeshVertex
 10
683.1824998855591
 20
24.49999891519547
 30
1400.000010681152
 70
   192
  0
VERTEX
  5
1A0
330
19D
100
AcDbEntity
  8
A-GLAZ-CURT
440
 33554496
100
AcDbVertex
100
AcDbPolyFaceMeshVertex
 10
-683.1824998855591
 20
24.49999891519547
 30
1400.000010681152
 70
   192
  0
VERTEX
  5
1A1
330
19D
100
AcDbEntity
  8
A-GLAZ-CURT
440
 33554496
100
AcDbVertex
100
AcDbPolyFaceMeshVertex
 10
-683.1824998855591
 20
24.49999891519547
 30
-0.0000000000008122
 70
   192
  0
VERTEX
  5
1A2
330
19D
100
AcDbEntity
  8
A-GLAZ-CURT
440
 33554496
100
AcDbFaceRecord
 10
0.0
 20
0.0
 30
0.0
 70
   128
 71
     1
 72
     2
 73
     3
 74
     4
  0
SEQEND
  5
1A3
330
19D
100
AcDbEntity
  8
A-GLAZ-CURT
440
 33554496
  0
POLYLINE
  5
1A4
330
19C
100
AcDbEntity
  8
A-GLAZ-CURT
440
 33554496
100
AcDbPolyFaceMesh
 66
     1
 10
0.0
 20
0.0
 30
0.0
 70
    64
 71
     4
 72
     1
1001
REVIT
1002
{
1070
     4
1000
27
1002
}
  0
VERTEX
  5
1A5
330
1A4
100
AcDbEntity
  8
A-GLAZ-CURT
440
 33554496
100
AcDbVertex
100
AcDbPolyFaceMeshVertex
 10
-683.1824998855591
 20
49.49999910593033
 30
1400.000010681152
 70
   192
  0
VERTEX
  5
1A6
330
1A4
100
AcDbEntity
  8
A-GLAZ-CURT
440
 33554496
100
AcDbVertex
100
AcDbPolyFaceMeshVertex
 10
683.1824998855591
 20
49.49999910593033
 30
1400.000010681152
 70
   192
  0
VERTEX
  5
1A7
330
1A4
100
AcDbEntity
  8
A-GLAZ-CURT
440
 33554496
100
AcDbVertex
100
AcDbPolyFaceMeshVertex
 10
683.1824998855591
 20
49.49999910593033
 30
0.0
 70
   192
  0
VERTEX
  5
1A8
330
1A4
100
AcDbEntity
  8
A-GLAZ-CURT
440
 33554496
100
AcDbVertex
100
AcDbPolyFaceMeshVertex
 10
-683.1824998855591
 20
49.49999910593033
 30
-0.0000000000002707
 70
   192
  0
VERTEX
  5
1A9
330
1A4
100
AcDbEntity
  8
A-GLAZ-CURT
440
 33554496
100
AcDbFaceRecord
 10
0.0
 20
0.0
 30
0.0
 70
   128
 71
     1
 72
     2
 73
     3
 74
     4
  0
SEQEND
  5
1AA
330
1A4
100
AcDbEntity
  8
A-GLAZ-CURT
440
 33554496
  0
POLYLINE
  5
1AB
330
19C
100
AcDbEntity
  8
A-GLAZ-CURT
440
 33554496
100
AcDbPolyFaceMesh
 66
     1
 10
0.0
 20
0.0
 30
0.0
 70
    64
 71
     4
 72
     1
1001
REVIT
1002
{
1070
     4
1000
27
1002
}
  0
VERTEX
  5
1AC
330
1AB
100
AcDbEntity
  8
A-GLAZ-CURT
440
 33554496
100
AcDbVertex
100
AcDbPolyFaceMeshVertex
 10
-683.1824998855591
 20
24.49999891519547
 30
-0.0000000000002707
 70
   192
  0
VERTEX
  5
1AD
330
1AB
100
AcDbEntity
  8
A-GLAZ-CURT
440
 33554496
100
AcDbVertex
100
AcDbPolyFaceMeshVertex
 10
-683.1824998855591
 20
49.49999910593033
 30
-0.0000000000002707
 70
   192
  0
VERTEX
  5
1AE
330
1AB
100
AcDbEntity
  8
A-GLAZ-CURT
440
 33554496
100
AcDbVertex
100
AcDbPolyFaceMeshVertex
 10
683.1824998855591
 20
49.49999910593033
 30
-0.0000000000002707
 70
   192
  0
VERTEX
  5
1AF
330
1AB
100
AcDbEntity
  8
A-GLAZ-CURT
440
 33554496
100
AcDbVertex
100
AcDbPolyFaceMeshVertex
 10
683.1824998855591
 20
24.49999891519547
 30
-0.0000000000002707
 70
   192
  0
VERTEX
  5
1B0
330
1AB
100
AcDbEntity
  8
A-GLAZ-CURT
440
 33554496
100
AcDbFaceRecord
 10
0.0
 20
0.0
 30
0.0
 70
   128
 71
     1
 72
     2
 73
     3
 74
     4
  0
SEQEND
  5
1B1
330
1AB
100
AcDbEntity
  8
A-GLAZ-CURT
440
 33554496
  0
POLYLINE
  5
1B2
330
19C
100
AcDbEntity
  8
A-GLAZ-CURT
440
 33554496
100
AcDbPolyFaceMesh
 66
     1
 10
0.0
 20
0.0
 30
0.0
 70
    64
 71
     4
 72
     1
1001
REVIT
1002
{
1070
     4
1000
27
1002
}
  0
VERTEX
  5
1B3
330
1B2
100
AcDbEntity
  8
A-GLAZ-CURT
440
 33554496
100
AcDbVertex
100
AcDbPolyFaceMeshVertex
 10
683.1824998855591
 20
24.49999891519547
 30
0.0
 70
   192
  0
VERTEX
  5
1B4
330
1B2
100
AcDbEntity
  8
A-GLAZ-CURT
440
 33554496
100
AcDbVertex
100
AcDbPolyFaceMeshVertex
 10
683.1824998855591
 20
49.49999910593033
 30
0.0
 70
   192
  0
VERTEX
  5
1B5
330
1B2
100
AcDbEntity
  8
A-GLAZ-CURT
440
 33554496
100
AcDbVertex
100
AcDbPolyFaceMeshVertex
 10
683.1824998855591
 20
49.49999910593033
 30
1400.000010681152
 70
   192
  0
VERTEX
  5
1B6
330
1B2
100
AcDbEntity
  8
A-GLAZ-CURT
440
 33554496
100
AcDbVertex
100
AcDbPolyFaceMeshVertex
 10
683.1824998855591
 20
24.49999891519547
 30
1400.000010681152
 70
   192
  0
VERTEX
  5
1B7
330
1B2
100
AcDbEntity
  8
A-GLAZ-CURT
440
 33554496
100
AcDbFaceRecord
 10
0.0
 20
0.0
 30
0.0
 70
   128
 71
     1
 72
     2
 73
     3
 74
     4
  0
SEQEND
  5
1B8
330
1B2
100
AcDbEntity
  8
A-GLAZ-CURT
440
 33554496
  0
POLYLINE
  5
1B9
330
19C
100
AcDbEntity
  8
A-GLAZ-CURT
440
 33554496
100
AcDbPolyFaceMesh
 66
     1
 10
0.0
 20
0.0
 30
0.0
 70
    64
 71
     4
 72
     1
1001
REVIT
1002
{
1070
     4
1000
27
1002
}
  0
VERTEX
  5
1BA
330
1B9
100
AcDbEntity
  8
A-GLAZ-CURT
440
 33554496
100
AcDbVertex
100
AcDbPolyFaceMeshVertex
 10
683.1824998855591
 20
24.49999891519547
 30
1400.000010681152
 70
   192
  0
VERTEX
  5
1BB
330
1B9
100
AcDbEntity
  8
A-GLAZ-CURT
440
 33554496
100
AcDbVertex
100
AcDbPolyFaceMeshVertex
 10
683.1824998855591
 20
49.49999910593033
 30
1400.000010681152
 70
   192
  0
VERTEX
  5
1BC
330
1B9
100
AcDbEntity
  8
A-GLAZ-CURT
440
 33554496
100
AcDbVertex
100
AcDbPolyFaceMeshVertex
 10
-683.1824998855591
 20
49.49999910593033
 30
1400.000010681152
 70
   192
  0
VERTEX
  5
1BD
330
1B9
100
AcDbEntity
  8
A-GLAZ-CURT
440
 33554496
100
AcDbVertex
100
AcDbPolyFaceMeshVertex
 10
-683.1824998855591
 20
24.49999891519547
 30
1400.000010681152
 70
   192
  0
VERTEX
  5
1BE
330
1B9
100
AcDbEntity
  8
A-GLAZ-CURT
440
 33554496
100
AcDbFaceRecord
 10
0.0
 20
0.0
 30
0.0
 70
   128
 71
     1
 72
     2
 73
     3
 74
     4
  0
SEQEND
  5
1BF
330
1B9
100
AcDbEntity
  8
A-GLAZ-CURT
440
 33554496
  0
POLYLINE
  5
1C0
330
19C
100
AcDbEntity
  8
A-GLAZ-CURT
440
 33554496
100
AcDbPolyFaceMesh
 66
     1
 10
0.0
 20
0.0
 30
0.0
 70
    64
 71
     4
 72
     1
1001
REVIT
1002
{
1070
     4
1000
27
1002
}
  0
VERTEX
  5
1C1
330
1C0
100
AcDbEntity
  8
A-GLAZ-CURT
440
 33554496
100
AcDbVertex
100
AcDbPolyFaceMeshVertex
 10
-683.1824998855591
 20
24.49999891519547
 30
1400.000010681152
 70
   192
  0
VERTEX
  5
1C2
330
1C0
100
AcDbEntity
  8
A-GLAZ-CURT
440
 33554496
100
AcDbVertex
100
AcDbPolyFaceMeshVertex
 10
-683.1824998855591
 20
49.49999910593033
 30
1400.000010681152
 70
   192
  0
VERTEX
  5
1C3
330
1C0
100
AcDbEntity
  8
A-GLAZ-CURT
440
 33554496
100
AcDbVertex
100
AcDbPolyFaceMeshVertex
 10
-683.1824998855591
 20
49.49999910593033
 30
-0.0000000000008122
 70
   192
  0
VERTEX
  5
1C4
330
1C0
100
AcDbEntity
  8
A-GLAZ-CURT
440
 33554496
100
AcDbVertex
100
AcDbPolyFaceMeshVertex
 10
-683.1824998855591
 20
24.49999891519547
 30
-0.0000000000002707
 70
   192
  0
VERTEX
  5
1C5
330
1C0
100
AcDbEntity
  8
A-GLAZ-CURT
440
 33554496
100
AcDbFaceRecord
 10
0.0
 20
0.0
 30
0.0
 70
   128
 71
     1
 72
     2
 73
     3
 74
     4
  0
SEQEND
  5
1C6
330
1C0
100
AcDbEntity
  8
A-GLAZ-CURT
440
 33554496
  0
ENDBLK
  5
1C8
330
19C
100
AcDbEntity
  8
0
100
AcDbBlockEnd
  0
ENDSEC
  0
SECTION
  2
ENTITIES
  0
POLYLINE
  5
89
330
70
100
AcDbEntity
  8
A-WALL
100
AcDbPolyFaceMesh
 66
     1
 10
0.0
 20
0.0
 30
0.0
 70
    64
 71
     4
 72
     1
1001
REVIT
1002
{
1070
     1
1000
139333
1002
}
1002
{
1070
     5
1000
482
1002
}
1002
{
1070
     4
1000
25
1002
}
1002
{
1070
     2
1000
-2000011
1002
}
  0
VERTEX
  5
8A
330
89
100
AcDbEntity
  8
A-WALL
100
AcDbVertex
100
AcDbPolyFaceMeshVertex
 10
12003.93473510742
 20
-4330.072615814208
 30
4000.000030517578
 70
   192
  0
VERTEX
  5
8B
330
89
100
AcDbEntity
  8
A-WALL
100
AcDbVertex
100
AcDbPolyFaceMeshVertex
 10
12003.93473510742
 20
-4330.072615814208
 30
6461.538734436036
 70
   192
  0
VERTEX
  5
8C
330
89
100
AcDbEntity
  8
A-WALL
100
AcDbVertex
100
AcDbPolyFaceMeshVertex
 10
11803.93415222168
 20
-4330.072615814208
 30
6461.538734436036
 70
   192
  0
VERTEX
  5
8D
330
89
100
AcDbEntity
  8
A-WALL
100
AcDbVertex
100
AcDbPolyFaceMeshVertex
 10
11803.93415222168
 20
-4330.072615814208
 30
4000.000030517578
 70
   192
  0
VERTEX
  5
8E
330
89
100
AcDbEntity
  8
A-WALL
100
AcDbFaceRecord
 10
0.0
 20
0.0
 30
0.0
 70
   128
 71
     1
 72
     2
 73
     3
 74
     4
  0
SEQEND
  5
8F
330
89
100
AcDbEntity
  8
A-WALL
  0
POLYLINE
  5
90
330
70
100
AcDbEntity
  8
A-WALL
100
AcDbPolyFaceMesh
 66
     1
 10
0.0
 20
0.0
 30
0.0
 70
    64
 71
     4
 72
     1
1001
REVIT
1002
{
1070
     1
1000
139333
1002
}
1002
{
1070
     5
1000
482
1002
}
1002
{
1070
     4
1000
25
1002
}
1002
{
1070
     2
1000
-2000011
1002
}
  0
VERTEX
  5
91
330
90
100
AcDbEntity
  8
A-WALL
100
AcDbVertex
100
AcDbPolyFaceMeshVertex
 10
11803.93415222168
 20
-4130.07261428833
 30
6461.538734436036
 70
   192
  0
VERTEX
  5
92
330
90
100
AcDbEntity
  8
A-WALL
100
AcDbVertex
100
AcDbPolyFaceMeshVertex
 10
12003.93473510742
 20
-4130.07261428833
 30
6461.538734436036
 70
   192
  0
VERTEX
  5
93
330
90
100
AcDbEntity
  8
A-WALL
100
AcDbVertex
100
AcDbPolyFaceMeshVertex
 10
12003.93473510742
 20
-4130.07261428833
 30
4000.000030517578
 70
   192
  0
VERTEX
  5
94
330
90
100
AcDbEntity
  8
A-WALL
100
AcDbVertex
100
AcDbPolyFaceMeshVertex
 10
11803.93415222168
 20
-4130.07261428833
 30
4000.000030517578
 70
   192
  0
VERTEX
  5
95
330
90
100
AcDbEntity
  8
A-WALL
100
AcDbFaceRecord
 10
0.0
 20
0.0
 30
0.0
 70
   128
 71
     1
 72
     2
 73
     3
 74
     4
  0
SEQEND
  5
96
330
90
100
AcDbEntity
  8
A-WALL
  0
POLYLINE
  5
97
330
70
100
AcDbEntity
  8
A-WALL
100
AcDbPolyFaceMesh
 66
     1
 10
0.0
 20
0.0
 30
0.0
 70
    64
 71
     4
 72
     1
1001
REVIT
1002
{
1070
     1
1000
139333
1002
}
1002
{
1070
     5
1000
482
1002
}
1002
{
1070
     4
1000
25
1002
}
1002
{
1070
     2
1000
-2000011
1002
}
  0
VERTEX
  5
98
330
97
100
AcDbEntity
  8
A-WALL
100
AcDbVertex
100
AcDbPolyFaceMeshVertex
 10
11803.93415222168
 20
-4330.072615814208
 30
4000.000030517578
 70
   192
  0
VERTEX
  5
99
330
97
100
AcDbEntity
  8
A-WALL
100
AcDbVertex
100
AcDbPolyFaceMeshVertex
 10
11803.93415222168
 20
-4130.07261428833
 30
4000.000030517578
 70
   192
  0
VERTEX
  5
9A
330
97
100
AcDbEntity
  8
A-WALL
100
AcDbVertex
100
AcDbPolyFaceMeshVertex
 10
12003.93473510742
 20
-4130.07261428833
 30
4000.000030517578
 70
   192
  0
VERTEX
  5
9B
330
97
100
AcDbEntity
  8
A-WALL
100
AcDbVertex
100
AcDbPolyFaceMeshVertex
 10
12003.93473510742
 20
-4330.072615814208
 30
4000.000030517578
 70
   192
  0
VERTEX
  5
9C
330
97
100
AcDbEntity
  8
A-WALL
100
AcDbFaceRecord
 10
0.0
 20
0.0
 30
0.0
 70
   128
 71
     1
 72
     2
 73
     3
 74
     4
  0
SEQEND
  5
9D
330
97
100
AcDbEntity
  8
A-WALL
  0
POLYLINE
  5
9E
330
70
100
AcDbEntity
  8
A-WALL
100
AcDbPolyFaceMesh
 66
     1
 10
0.0
 20
0.0
 30
0.0
 70
    64
 71
     4
 72
     1
1001
REVIT
1002
{
1070
     1
1000
139333
1002
}
1002
{
1070
     5
1000
482
1002
}
1002
{
1070
     4
1000
25
1002
}
1002
{
1070
     2
1000
-2000011
1002
}
  0
VERTEX
  5
9F
330
9E
100
AcDbEntity
  8
A-WALL
100
AcDbVertex
100
AcDbPolyFaceMeshVertex
 10
12003.93473510742
 20
-4330.072615814208
 30
4000.000030517578
 70
   192
  0
VERTEX
  5
A0
330
9E
100
AcDbEntity
  8
A-WALL
100
AcDbVertex
100
AcDbPolyFaceMeshVertex
 10
12003.93473510742
 20
-4130.07261428833
 30
4000.000030517578
 70
   192
  0
VERTEX
  5
A1
330
9E
100
AcDbEntity
  8
A-WALL
100
AcDbVertex
100
AcDbPolyFaceMeshVertex
 10
12003.93473510742
 20
-4130.07261428833
 30
6461.538734436036
 70
   192
  0
VERTEX
  5
A2
330
9E
100
AcDbEntity
  8
A-WALL
100
AcDbVertex
100
AcDbPolyFaceMeshVertex
 10
12003.93473510742
 20
-4330.072615814208
 30
6461.538734436036
 70
   192
  0
VERTEX
  5
A3
330
9E
100
AcDbEntity
  8
A-WALL
100
AcDbFaceRecord
 10
0.0
 20
0.0
 30
0.0
 70
   128
 71
     1
 72
     2
 73
     3
 74
     4
  0
SEQEND
  5
A4
330
9E
100
AcDbEntity
  8
A-WALL
  0
POLYLINE
  5
A5
330
70
100
AcDbEntity
  8
A-WALL
100
AcDbPolyFaceMesh
 66
     1
 10
0.0
 20
0.0
 30
0.0
 70
    64
 71
     4
 72
     1
1001
REVIT
1002
{
1070
     1
1000
139333
1002
}
1002
{
1070
     5
1000
482
1002
}
1002
{
1070
     4
1000
25
1002
}
1002
{
1070
     2
1000
-2000011
1002
}
  0
VERTEX
  5
A6
330
A5
100
AcDbEntity
  8
A-WALL
100
AcDbVertex
100
AcDbPolyFaceMeshVertex
 10
12003.93473510742
 20
-4330.072615814208
 30
6461.538734436036
 70
   192
  0
VERTEX
  5
A7
330
A5
100
AcDbEntity
  8
A-WALL
100
AcDbVertex
100
AcDbPolyFaceMeshVertex
 10
12003.93473510742
 20
-4130.07261428833
 30
6461.538734436036
 70
   192
  0
VERTEX
  5
A8
330
A5
100
AcDbEntity
  8
A-WALL
100
AcDbVertex
100
AcDbPolyFaceMeshVertex
 10
11803.93415222168
 20
-4130.07261428833
 30
6461.538734436036
 70
   192
  0
VERTEX
  5
A9
330
A5
100
AcDbEntity
  8
A-WALL
100
AcDbVertex
100
AcDbPolyFaceMeshVertex
 10
11803.93415222168
 20
-4330.072615814208
 30
6461.538734436036
 70
   192
  0
VERTEX
  5
AA
330
A5
100
AcDbEntity
  8
A-WALL
100
AcDbFaceRecord
 10
0.0
 20
0.0
 30
0.0
 70
   128
 71
     1
 72
     2
 73
     3
 74
     4
  0
SEQEND
  5
AB
330
A5
100
AcDbEntity
  8
A-WALL
  0
POLYLINE
  5
AC
330
70
100
AcDbEntity
  8
A-WALL
100
AcDbPolyFaceMesh
 66
     1
 10
0.0
 20
0.0
 30
0.0
 70
    64
 71
     4
 72
     1
1001
REVIT
1002
{
1070
     1
1000
139333
1002
}
1002
{
1070
     5
1000
482
1002
}
1002
{
1070
     4
1000
25
1002
}
1002
{
1070
     2
1000
-2000011
1002
}
  0
VERTEX
  5
AD
330
AC
100
AcDbEntity
  8
A-WALL
100
AcDbVertex
100
AcDbPolyFaceMeshVertex
 10
11803.93415222168
 20
-4330.072615814208
 30
6461.538734436036
 70
   192
  0
VERTEX
  5
AE
330
AC
100
AcDbEntity
  8
A-WALL
100
AcDbVertex
100
AcDbPolyFaceMeshVertex
 10
11803.93415222168
 20
-4130.07261428833
 30
6461.538734436036
 70
   192
  0
VERTEX
  5
AF
330
AC
100
AcDbEntity
  8
A-WALL
100
AcDbVertex
100
AcDbPolyFaceMeshVertex
 10
11803.93415222168
 20
-4130.07261428833
 30
4000.000030517578
 70
   192
  0
VERTEX
  5
B0
330
AC
100
AcDbEntity
  8
A-WALL
100
AcDbVertex
100
AcDbPolyFaceMeshVertex
 10
11803.93415222168
 20
-4330.072615814208
 30
4000.000030517578
 70
   192
  0
VERTEX
  5
B1
330
AC
100
AcDbEntity
  8
A-WALL
100
AcDbFaceRecord
 10
0.0
 20
0.0
 30
0.0
 70
   128
 71
     1
 72
     2
 73
     3
 74
     4
  0
SEQEND
  5
B2
330
AC
100
AcDbEntity
  8
A-WALL
  0
POLYLINE
  5
B4
330
70
100
AcDbEntity
  8
A-ROOF
100
AcDbPolyFaceMesh
 66
     1
 10
0.0
 20
0.0
 30
0.0
 70
    64
 71
     4
 72
     1
1001
REVIT
1002
{
1070
     1
1000
142226
1002
}
1002
{
1070
     5
1000
144430
1002
}
1002
{
1070
     4
1000
756
1002
}
1002
{
1070
     2
1000
-2000035
1002
}
  0
VERTEX
  5
B5
330
B4
100
AcDbEntity
  8
A-ROOF
100
AcDbVertex
100
AcDbPolyFaceMeshVertex
 10
5693.934425354004
 20
-1953.151566696167
 30
7290.091648864747
 70
   192
  0
VERTEX
  5
B6
330
B4
100
AcDbEntity
  8
A-ROOF
100
AcDbVertex
100
AcDbPolyFaceMeshVertex
 10
5693.934425354004
 20
-1953.151566696167
 30
7164.833596801758
 70
   192
  0
VERTEX
  5
B7
330
B4
100
AcDbEntity
  8
A-ROOF
100
AcDbVertex
100
AcDbPolyFaceMeshVertex
 10
5693.934425354004
 20
-4721.751033782958
 30
6336.280101013183
 70
   192
  0
VERTEX
  5
B8
330
B4
100
AcDbEntity
  8
A-ROOF
100
AcDbVertex
100
AcDbPolyFaceMeshVertex
 10
5693.934425354004
 20
-4721.751033782958
 30
6461.538734436036
 70
   192
  0
VERTEX
  5
B9
330
B4
100
AcDbEntity
  8
A-ROOF
100
AcDbFaceRecord
 10
0.0
 20
0.0
 30
0.0
 70
   128
 71
     1
 72
     2
 73
     3
 74
     4
  0
SEQEND
  5
BA
330
B4
100
AcDbEntity
  8
A-ROOF
  0
POLYLINE
  5
BB
330
70
100
AcDbEntity
  8
A-ROOF
100
AcDbPolyFaceMesh
 66
     1
 10
0.0
 20
0.0
 30
0.0
 70
    64
 71
     4
 72
     1
1001
REVIT
1002
{
1070
     1
1000
142226
1002
}
1002
{
1070
     5
1000
144430
1002
}
1002
{
1070
     4
1000
756
1002
}
1002
{
1070
     2
1000
-2000035
1002
}
  0
VERTEX
  5
BC
330
BB
100
AcDbEntity
  8
A-ROOF
100
AcDbVertex
100
AcDbPolyFaceMeshVertex
 10
12693.93447875976
 20
-4721.751033782958
 30
6461.538734436036
 70
   192
  0
VERTEX
  5
BD
330
BB
100
AcDbEntity
  8
A-ROOF
100
AcDbVertex
100
AcDbPolyFaceMeshVertex
 10
12693.93447875976
 20
-4721.751033782958
 30
6336.280101013183
 70
   192
  0
VERTEX
  5
BE
330
BB
100
AcDbEntity
  8
A-ROOF
100
AcDbVertex
100
AcDbPolyFaceMeshVertex
 10
12693.93447875976
 20
-1953.151566696167
 30
7164.833596801758
 70
   192
  0
VERTEX
  5
BF
330
BB
100
AcDbEntity
  8
A-ROOF
100
AcDbVertex
100
AcDbPolyFaceMeshVertex
 10
12693.93447875976
 20
-1953.151566696167
 30
7290.091648864747
 70
   192
  0
VERTEX
  5
C0
330
BB
100
AcDbEntity
  8
A-ROOF
100
AcDbFaceRecord
 10
0.0
 20
0.0
 30
0.0
 70
   128
 71
     1
 72
     2
 73
     3
 74
     4
  0
SEQEND
  5
C1
330
BB
100
AcDbEntity
  8
A-ROOF
  0
POLYLINE
  5
C2
330
70
100
AcDbEntity
  8
A-ROOF
100
AcDbPolyFaceMesh
 66
     1
 10
0.0
 20
0.0
 30
0.0
 70
    64
 71
     8
 72
     6
1001
REVIT
1002
{
1070
     1
1000
142226
1002
}
1002
{
1070
     5
1000
144430
1002
}
1002
{
1070
     4
1000
63218
1002
}
1002
{
1070
     2
1000
-2000035
1002
}
  0
VERTEX
  5
C3
330
C2
100
AcDbEntity
  8
A-ROOF
100
AcDbVertex
100
AcDbPolyFaceMeshVertex
 10
5693.934425354004
 20
-1953.151566696167
 30
7290.091648864747
 70
   192
  0
VERTEX
  5
C4
330
C2
100
AcDbEntity
  8
A-ROOF
100
AcDbVertex
100
AcDbPolyFaceMeshVertex
 10
5693.934425354004
 20
-4721.751033782958
 30
6461.538734436036
 70
   192
  0
VERTEX
  5
C5
330
C2
100
AcDbEntity
  8
A-ROOF
100
AcDbVertex
100
AcDbPolyFaceMeshVertex
 10
12693.93447875976
 20
-4721.751033782958
 30
6461.538734436036
 70
   192
  0
VERTEX
  5
C6
330
C2
100
AcDbEntity
  8
A-ROOF
100
AcDbVertex
100
AcDbPolyFaceMeshVertex
 10
12693.93447875976
 20
-1953.151566696167
 30
7290.091648864747
 70
   192
  0
VERTEX
  5
C7
330
C2
100
AcDbEntity
  8
A-ROOF
100
AcDbVertex
100
AcDbPolyFaceMeshVertex
 10
8508.197529602052
 20
-2531.957080078126
 30
7116.873733520508
 70
   192
  0
VERTEX
  5
C8
330
C2
100
AcDbEntity
  8
A-ROOF
100
AcDbVertex
100
AcDbPolyFaceMeshVertex
 10
9908.197540283204
 20
-2531.957080078126
 30
7116.873733520508
 70
   192
  0
VERTEX
  5
C9
330
C2
100
AcDbEntity
  8
A-ROOF
100
AcDbVertex
100
AcDbPolyFaceMeshVertex
 10
9908.197540283204
 20
-3831.957089996338
 30
6727.825387573243
 70
   192
  0
VERTEX
  5
CA
330
C2
100
AcDbEntity
  8
A-ROOF
100
AcDbVertex
100
AcDbPolyFaceMeshVertex
 10
8508.197529602052
 20
-3831.957089996338
 30
6727.825387573243
 70
   192
  0
VERTEX
  5
CB
330
C2
100
AcDbEntity
  8
A-ROOF
100
AcDbFaceRecord
 10
0.0
 20
0.0
 30
0.0
 70
   128
 71
    -2
 72
    -8
 73
     1
  0
VERTEX
  5
CC
330
C2
100
AcDbEntity
  8
A-ROOF
100
AcDbFaceRecord
 10
0.0
 20
0.0
 30
0.0
 70
   128
 71
    -8
 72
     2
 73
    -3
 74
     7
  0
VERTEX
  5
CD
330
C2
100
AcDbEntity
  8
A-ROOF
100
AcDbFaceRecord
 10
0.0
 20
0.0
 30
0.0
 70
   128
 71
     4
 72
    -1
 73
     5
 74
    -6
  0
VERTEX
  5
CE
330
C2
100
AcDbEntity
  8
A-ROOF
100
AcDbFaceRecord
 10
0.0
 20
0.0
 30
0.0
 70
   128
 71
    -5
 72
    -1
 73
     8
  0
VERTEX
  5
CF
330
C2
100
AcDbEntity
  8
A-ROOF
100
AcDbFaceRecord
 10
0.0
 20
0.0
 30
0.0
 70
   128
 71
    -7
 72
     3
 73
    -4
  0
VERTEX
  5
D0
330
C2
100
AcDbEntity
  8
A-ROOF
100
AcDbFaceRecord
 10
0.0
 20
0.0
 30
0.0
 70
   128
 71
    -4
 72
     6
 73
    -7
  0
SEQEND
  5
D1
330
C2
100
AcDbEntity
  8
A-ROOF
  0
POLYLINE
  5
D2
330
70
100
AcDbEntity
  8
A-ROOF
100
AcDbPolyFaceMesh
 66
     1
 10
0.0
 20
0.0
 30
0.0
 70
    64
 71
     4
 72
     1
1001
REVIT
1002
{
1070
     1
1000
142226
1002
}
1002
{
1070
     5
1000
144430
1002
}
1002
{
1070
     4
1000
756
1002
}
1002
{
1070
     2
1000
-2000035
1002
}
  0
VERTEX
  5
D3
330
D2
100
AcDbEntity
  8
A-ROOF
100
AcDbVertex
100
AcDbPolyFaceMeshVertex
 10
5693.934425354004
 20
-1953.151566696167
 30
7290.091648864747
 70
   192
  0
VERTEX
  5
D4
330
D2
100
AcDbEntity
  8
A-ROOF
100
AcDbVertex
100
AcDbPolyFaceMeshVertex
 10
12693.93447875976
 20
-1953.151566696167
 30
7290.091648864747
 70
   192
  0
VERTEX
  5
D5
330
D2
100
AcDbEntity
  8
A-ROOF
100
AcDbVertex
100
AcDbPolyFaceMeshVertex
 10
12693.93447875976
 20
-1953.151566696167
 30
7164.833596801758
 70
   192
  0
VERTEX
  5
D6
330
D2
100
AcDbEntity
  8
A-ROOF
100
AcDbVertex
100
AcDbPolyFaceMeshVertex
 10
5693.934425354004
 20
-1953.151566696167
 30
7164.833596801758
 70
   192
  0
VERTEX
  5
D7
330
D2
100
AcDbEntity
  8
A-ROOF
100
AcDbFaceRecord
 10
0.0
 20
0.0
 30
0.0
 70
   128
 71
     1
 72
     2
 73
     3
 74
     4
  0
SEQEND
  5
D8
330
D2
100
AcDbEntity
  8
A-ROOF
  0
POLYLINE
  5
D9
330
70
100
AcDbEntity
  8
A-ROOF
100
AcDbPolyFaceMesh
 66
     1
 10
0.0
 20
0.0
 30
0.0
 70
    64
 71
     8
 72
     6
1001
REVIT
1002
{
1070
     1
1000
142226
1002
}
1002
{
1070
     5
1000
144430
1002
}
1002
{
1070
     4
1000
756
1002
}
1002
{
1070
     2
1000
-2000035
1002
}
  0
VERTEX
  5
DA
330
D9
100
AcDbEntity
  8
A-ROOF
100
AcDbVertex
100
AcDbPolyFaceMeshVertex
 10
5693.934425354004
 20
-4721.751033782958
 30
6336.280101013183
 70
   192
  0
VERTEX
  5
DB
330
D9
100
AcDbEntity
  8
A-ROOF
100
AcDbVertex
100
AcDbPolyFaceMeshVertex
 10
5693.934425354004
 20
-1953.151566696167
 30
7164.833596801758
 70
   192
  0
VERTEX
  5
DC
330
D9
100
AcDbEntity
  8
A-ROOF
100
AcDbVertex
100
AcDbPolyFaceMeshVertex
 10
12693.93447875976
 20
-1953.151566696167
 30
7164.833596801758
 70
   192
  0
VERTEX
  5
DD
330
D9
100
AcDbEntity
  8
A-ROOF
100
AcDbVertex
100
AcDbPolyFaceMeshVertex
 10
12693.93447875976
 20
-4721.751033782958
 30
6336.280101013183
 70
   192
  0
VERTEX
  5
DE
330
D9
100
AcDbEntity
  8
A-ROOF
100
AcDbVertex
100
AcDbPolyFaceMeshVertex
 10
9908.197540283204
 20
-2531.957080078126
 30
6991.615100097657
 70
   192
  0
VERTEX
  5
DF
330
D9
100
AcDbEntity
  8
A-ROOF
100
AcDbVertex
100
AcDbPolyFaceMeshVertex
 10
8508.197529602052
 20
-2531.957080078126
 30
6991.615100097657
 70
   192
  0
VERTEX
  5
E0
330
D9
100
AcDbEntity
  8
A-ROOF
100
AcDbVertex
100
AcDbPolyFaceMeshVertex
 10
8508.197529602052
 20
-3831.957089996338
 30
6602.566754150391
 70
   192
  0
VERTEX
  5
E1
330
D9
100
AcDbEntity
  8
A-ROOF
100
AcDbVertex
100
AcDbPolyFaceMeshVertex
 10
9908.197540283204
 20
-3831.957089996338
 30
6602.566754150391
 70
   192
  0
VERTEX
  5
E2
330
D9
100
AcDbEntity
  8
A-ROOF
100
AcDbFaceRecord
 10
0.0
 20
0.0
 30
0.0
 70
   128
 71
    -2
 72
     6
 73
    -7
  0
VERTEX
  5
E3
330
D9
100
AcDbEntity
  8
A-ROOF
100
AcDbFaceRecord
 10
0.0
 20
0.0
 30
0.0
 70
   128
 71
    -6
 72
     2
 73
    -3
 74
     5
  0
VERTEX
  5
E4
330
D9
100
AcDbEntity
  8
A-ROOF
100
AcDbFaceRecord
 10
0.0
 20
0.0
 30
0.0
 70
   128
 71
     4
 72
    -1
 73
     7
 74
    -8
  0
VERTEX
  5
E5
330
D9
100
AcDbEntity
  8
A-ROOF
100
AcDbFaceRecord
 10
0.0
 20
0.0
 30
0.0
 70
   128
 71
    -7
 72
     1
 73
    -2
  0
VERTEX
  5
E6
330
D9
100
AcDbEntity
  8
A-ROOF
100
AcDbFaceRecord
 10
0.0
 20
0.0
 30
0.0
 70
   128
 71
    -5
 72
    -3
 73
     8
  0
VERTEX
  5
E7
330
D9
100
AcDbEntity
  8
A-ROOF
100
AcDbFaceRecord
 10
0.0
 20
0.0
 30
0.0
 70
   128
 71
    -4
 72
    -8
 73
     3
  0
SEQEND
  5
E8
330
D9
100
AcDbEntity
  8
A-ROOF
  0
POLYLINE
  5
E9
330
70
100
AcDbEntity
  8
A-ROOF
100
AcDbPolyFaceMesh
 66
     1
 10
0.0
 20
0.0
 30
0.0
 70
    64
 71
     4
 72
     1
1001
REVIT
1002
{
1070
     1
1000
142226
1002
}
1002
{
1070
     5
1000
144430
1002
}
1002
{
1070
     4
1000
756
1002
}
1002
{
1070
     2
1000
-2000035
1002
}
  0
VERTEX
  5
EA
330
E9
100
AcDbEntity
  8
A-ROOF
100
AcDbVertex
100
AcDbPolyFaceMeshVertex
 10
5693.934425354004
 20
-4721.751033782958
 30
6336.280101013183
 70
   192
  0
VERTEX
  5
EB
330
E9
100
AcDbEntity
  8
A-ROOF
100
AcDbVertex
100
AcDbPolyFaceMeshVertex
 10
12693.93447875976
 20
-4721.751033782958
 30
6336.280101013183
 70
   192
  0
VERTEX
  5
EC
330
E9
100
AcDbEntity
  8
A-ROOF
100
AcDbVertex
100
AcDbPolyFaceMeshVertex
 10
12693.93447875976
 20
-4721.751033782958
 30
6461.538734436036
 70
   192
  0
VERTEX
  5
ED
330
E9
100
AcDbEntity
  8
A-ROOF
100
AcDbVertex
100
AcDbPolyFaceMeshVertex
 10
5693.934425354004
 20
-4721.751033782958
 30
6461.538734436036
 70
   192
  0
VERTEX
  5
EE
330
E9
100
AcDbEntity
  8
A-ROOF
100
AcDbFaceRecord
 10
0.0
 20
0.0
 30
0.0
 70
   128
 71
     1
 72
     2
 73
     3
 74
     4
  0
SEQEND
  5
EF
330
E9
100
AcDbEntity
  8
A-ROOF
  0
POLYLINE
  5
F0
330
70
100
AcDbEntity
  8
A-ROOF
100
AcDbPolyFaceMesh
 66
     1
 10
0.0
 20
0.0
 30
0.0
 70
    64
 71
     4
 72
     1
1001
REVIT
1002
{
1070
     1
1000
142226
1002
}
1002
{
1070
     5
1000
144430
1002
}
1002
{
1070
     4
1000
756
1002
}
1002
{
1070
     2
1000
-2000035
1002
}
  0
VERTEX
  5
F1
330
F0
100
AcDbEntity
  8
A-ROOF
100
AcDbVertex
100
AcDbPolyFaceMeshVertex
 10
9908.197540283204
 20
-2531.957080078126
 30
7116.873733520508
 70
   192
  0
VERTEX
  5
F2
330
F0
100
AcDbEntity
  8
A-ROOF
100
AcDbVertex
100
AcDbPolyFaceMeshVertex
 10
8508.197529602052
 20
-2531.957080078126
 30
7116.873733520508
 70
   192
  0
VERTEX
  5
F3
330
F0
100
AcDbEntity
  8
A-ROOF
100
AcDbVertex
100
AcDbPolyFaceMeshVertex
 10
8508.197529602052
 20
-2531.957080078126
 30
6991.615100097657
 70
   192
  0
VERTEX
  5
F4
330
F0
100
AcDbEntity
  8
A-ROOF
100
AcDbVertex
100
AcDbPolyFaceMeshVertex
 10
9908.197540283204
 20
-2531.957080078126
 30
6991.615100097657
 70
   192
  0
VERTEX
  5
F5
330
F0
100
AcDbEntity
  8
A-ROOF
100
AcDbFaceRecord
 10
0.0
 20
0.0
 30
0.0
 70
   128
 71
     1
 72
     2
 73
     3
 74
     4
  0
SEQEND
  5
F6
330
F0
100
AcDbEntity
  8
A-ROOF
  0
POLYLINE
  5
F7
330
70
100
AcDbEntity
  8
A-ROOF
100
AcDbPolyFaceMesh
 66
     1
 10
0.0
 20
0.0
 30
0.0
 70
    64
 71
     4
 72
     1
1001
REVIT
1002
{
1070
     1
1000
142226
1002
}
1002
{
1070
     5
1000
144430
1002
}
1002
{
1070
     4
1000
756
1002
}
1002
{
1070
     2
1000
-2000035
1002
}
  0
VERTEX
  5
F8
330
F7
100
AcDbEntity
  8
A-ROOF
100
AcDbVertex
100
AcDbPolyFaceMeshVertex
 10
8508.197529602052
 20
-2531.957080078126
 30
7116.873733520508
 70
   192
  0
VERTEX
  5
F9
330
F7
100
AcDbEntity
  8
A-ROOF
100
AcDbVertex
100
AcDbPolyFaceMeshVertex
 10
8508.197529602052
 20
-3831.957089996338
 30
6727.825387573243
 70
   192
  0
VERTEX
  5
FA
330
F7
100
AcDbEntity
  8
A-ROOF
100
AcDbVertex
100
AcDbPolyFaceMeshVertex
 10
8508.197529602052
 20
-3831.957089996338
 30
6602.566754150391
 70
   192
  0
VERTEX
  5
FB
330
F7
100
AcDbEntity
  8
A-ROOF
100
AcDbVertex
100
AcDbPolyFaceMeshVertex
 10
8508.197529602052
 20
-2531.957080078126
 30
6991.615100097657
 70
   192
  0
VERTEX
  5
FC
330
F7
100
AcDbEntity
  8
A-ROOF
100
AcDbFaceRecord
 10
0.0
 20
0.0
 30
0.0
 70
   128
 71
     1
 72
     2
 73
     3
 74
     4
  0
SEQEND
  5
FD
330
F7
100
AcDbEntity
  8
A-ROOF
  0
POLYLINE
  5
FE
330
70
100
AcDbEntity
  8
A-ROOF
100
AcDbPolyFaceMesh
 66
     1
 10
0.0
 20
0.0
 30
0.0
 70
    64
 71
     4
 72
     1
1001
REVIT
1002
{
1070
     1
1000
142226
1002
}
1002
{
1070
     5
1000
144430
1002
}
1002
{
1070
     4
1000
756
1002
}
1002
{
1070
     2
1000
-2000035
1002
}
  0
VERTEX
  5
FF
330
FE
100
AcDbEntity
  8
A-ROOF
100
AcDbVertex
100
AcDbPolyFaceMeshVertex
 10
8508.197529602052
 20
-3831.957089996338
 30
6727.825387573243
 70
   192
  0
VERTEX
  5
100
330
FE
100
AcDbEntity
  8
A-ROOF
100
AcDbVertex
100
AcDbPolyFaceMeshVertex
 10
9908.197540283204
 20
-3831.957089996338
 30
6727.825387573243
 70
   192
  0
VERTEX
  5
101
330
FE
100
AcDbEntity
  8
A-ROOF
100
AcDbVertex
100
AcDbPolyFaceMeshVertex
 10
9908.197540283204
 20
-3831.957089996338
 30
6602.566754150391
 70
   192
  0
VERTEX
  5
102
330
FE
100
AcDbEntity
  8
A-ROOF
100
AcDbVertex
100
AcDbPolyFaceMeshVertex
 10
8508.197529602052
 20
-3831.957089996338
 30
6602.566754150391
 70
   192
  0
VERTEX
  5
103
330
FE
100
AcDbEntity
  8
A-ROOF
100
AcDbFaceRecord
 10
0.0
 20
0.0
 30
0.0
 70
   128
 71
     1
 72
     2
 73
     3
 74
     4
  0
SEQEND
  5
104
330
FE
100
AcDbEntity
  8
A-ROOF
  0
POLYLINE
  5
105
330
70
100
AcDbEntity
  8
A-ROOF
100
AcDbPolyFaceMesh
 66
     1
 10
0.0
 20
0.0
 30
0.0
 70
    64
 71
     4
 72
     1
1001
REVIT
1002
{
1070
     1
1000
142226
1002
}
1002
{
1070
     5
1000
144430
1002
}
1002
{
1070
     4
1000
756
1002
}
1002
{
1070
     2
1000
-2000035
1002
}
  0
VERTEX
  5
106
330
105
100
AcDbEntity
  8
A-ROOF
100
AcDbVertex
100
AcDbPolyFaceMeshVertex
 10
9908.197540283204
 20
-2531.957080078126
 30
6991.615100097657
 70
   192
  0
VERTEX
  5
107
330
105
100
AcDbEntity
  8
A-ROOF
100
AcDbVertex
100
AcDbPolyFaceMeshVertex
 10
9908.197540283204
 20
-3831.957089996338
 30
6602.566754150391
 70
   192
  0
VERTEX
  5
108
330
105
100
AcDbEntity
  8
A-ROOF
100
AcDbVertex
100
AcDbPolyFaceMeshVertex
 10
9908.197540283204
 20
-3831.957089996338
 30
6727.825387573243
 70
   192
  0
VERTEX
  5
109
330
105
100
AcDbEntity
  8
A-ROOF
100
AcDbVertex
100
AcDbPolyFaceMeshVertex
 10
9908.197540283204
 20
-2531.957080078126
 30
7116.873733520508
 70
   192
  0
VERTEX
  5
10A
330
105
100
AcDbEntity
  8
A-ROOF
100
AcDbFaceRecord
 10
0.0
 20
0.0
 30
0.0
 70
   128
 71
     1
 72
     2
 73
     3
 74
     4
  0
SEQEND
  5
10B
330
105
100
AcDbEntity
  8
A-ROOF
  0
POLYLINE
  5
10D
330
70
100
AcDbEntity
  8
A-ROOF-OTLN
100
AcDbPolyFaceMesh
 66
     1
 10
0.0
 20
0.0
 30
0.0
 70
    64
 71
    14
 72
     6
1001
REVIT
1002
{
1070
     1
1000
142798
1002
}
1002
{
1070
     5
1000
6619
1002
}
1002
{
1070
     4
1000
26
1002
}
1002
{
1070
     2
1000
-2000035
1002
}
1002
{
1070
     3
1000
-2001391
1002
}
  0
VERTEX
  5
10E
330
10D
100
AcDbEntity
  8
A-ROOF-OTLN
100
AcDbVertex
100
AcDbPolyFaceMeshVertex
 10
5693.934425354004
 20
-4721.751033782958
 30
6211.367958068848
 70
   192
  0
VERTEX
  5
10F
330
10D
100
AcDbEntity
  8
A-ROOF-OTLN
100
AcDbVertex
100
AcDbPolyFaceMeshVertex
 10
5693.934425354004
 20
-4795.950865173341
 30
6211.367958068848
 70
   192
  0
VERTEX
  5
110
330
10D
100
AcDbEntity
  8
A-ROOF-OTLN
100
AcDbVertex
100
AcDbPolyFaceMeshVertex
 10
5693.934425354004
 20
-4834.05086517334
 30
6310.879907226564
 70
   192
  0
VERTEX
  5
111
330
10D
100
AcDbEntity
  8
A-ROOF-OTLN
100
AcDbVertex
100
AcDbPolyFaceMeshVertex
 10
5693.934425354004
 20
-4846.75096206665
 30
6310.879907226564
 70
   192
  0
VERTEX
  5
112
330
10D
100
AcDbEntity
  8
A-ROOF-OTLN
100
AcDbVertex
100
AcDbPolyFaceMeshVertex
 10
5693.934425354004
 20
-4846.75096206665
 30
6323.580294799804
 70
   192
  0
VERTEX
  5
113
330
10D
100
AcDbEntity
  8
A-ROOF-OTLN
100
AcDbVertex
100
AcDbPolyFaceMeshVertex
 10
5693.934425354004
 20
-4834.05086517334
 30
6323.580294799804
 70
   192
  0
VERTEX
  5
114
330
10D
100
AcDbEntity
  8
A-ROOF-OTLN
100
AcDbVertex
100
AcDbPolyFaceMeshVertex
 10
5693.934425354004
 20
-4834.05086517334
 30
6320.404907226563
 70
   192
  0
VERTEX
  5
115
330
10D
100
AcDbEntity
  8
A-ROOF-OTLN
100
AcDbVertex
100
AcDbPolyFaceMeshVertex
 10
5693.934425354004
 20
-4843.575865173341
 30
6320.404907226563
 70
   192
  0
VERTEX
  5
116
330
10D
100
AcDbEntity
  8
A-ROOF-OTLN
100
AcDbVertex
100
AcDbPolyFaceMeshVertex
 10
5693.934425354004
 20
-4843.575865173341
 30
6314.055294799805
 70
   192
  0
VERTEX
  5
117
330
10D
100
AcDbEntity
  8
A-ROOF-OTLN
100
AcDbVertex
100
AcDbPolyFaceMeshVertex
 10
5693.934425354004
 20
-4831.688800048828
 30
6314.055294799805
 70
   192
  0
VERTEX
  5
118
330
10D
100
AcDbEntity
  8
A-ROOF-OTLN
100
AcDbVertex
100
AcDbPolyFaceMeshVertex
 10
5693.934425354004
 20
-4793.588800048828
 30
6214.542764282227
 70
   192
  0
VERTEX
  5
119
330
10D
100
AcDbEntity
  8
A-ROOF-OTLN
100
AcDbVertex
100
AcDbPolyFaceMeshVertex
 10
5693.934425354004
 20
-4724.925839996338
 30
6214.542764282227
 70
   192
  0
VERTEX
  5
11A
330
10D
100
AcDbEntity
  8
A-ROOF-OTLN
100
AcDbVertex
100
AcDbPolyFaceMeshVertex
 10
5693.934425354004
 20
-4724.925839996338
 30
6336.280101013183
 70
   192
  0
VERTEX
  5
11B
330
10D
100
AcDbEntity
  8
A-ROOF-OTLN
100
AcDbVertex
100
AcDbPolyFaceMeshVertex
 10
5693.934425354004
 20
-4721.751033782958
 30
6336.280101013183
 70
   192
  0
VERTEX
  5
11C
330
10D
100
AcDbEntity
  8
A-ROOF-OTLN
100
AcDbFaceRecord
 10
0.0
 20
0.0
 30
0.0
 70
   128
 71
     3
 72
    -4
 73
     9
 74
   -10
  0
VERTEX
  5
11D
330
10D
100
AcDbEntity
  8
A-ROOF-OTLN
100
AcDbFaceRecord
 10
0.0
 20
0.0
 30
0.0
 70
   128
 71
     8
 72
    -9
 73
     4
 74
    -5
  0
VERTEX
  5
11E
330
10D
100
AcDbEntity
  8
A-ROOF-OTLN
100
AcDbFaceRecord
 10
0.0
 20
0.0
 30
0.0
 70
   128
 71
    -8
 72
     5
 73
     6
 74
     7
  0
VERTEX
  5
11F
330
10D
100
AcDbEntity
  8
A-ROOF-OTLN
100
AcDbFaceRecord
 10
0.0
 20
0.0
 30
0.0
 70
   128
 71
   -12
 72
     1
 73
    -2
 74
    11
  0
VERTEX
  5
120
330
10D
100
AcDbEntity
  8
A-ROOF-OTLN
100
AcDbFaceRecord
 10
0.0
 20
0.0
 30
0.0
 70
   128
 71
    14
 72
    -1
 73
    12
 74
    13
  0
VERTEX
  5
121
330
10D
100
AcDbEntity
  8
A-ROOF-OTLN
100
AcDbFaceRecord
 10
0.0
 20
0.0
 30
0.0
 70
   128
 71
    -3
 72
    10
 73
   -11
 74
     2
  0
SEQEND
  5
122
330
10D
100
AcDbEntity
  8
A-ROOF-OTLN
  0
POLYLINE
  5
123
330
70
100
AcDbEntity
  8
A-ROOF-OTLN
100
AcDbPolyFaceMesh
 66
     1
 10
0.0
 20
0.0
 30
0.0
 70
    64
 71
    14
 72
     6
1001
REVIT
1002
{
1070
     1
1000
142798
1002
}
1002
{
1070
     5
1000
6619
1002
}
1002
{
1070
     4
1000
26
1002
}
1002
{
1070
     2
1000
-2000035
1002
}
1002
{
1070
     3
1000
-2001391
1002
}
  0
VERTEX
  5
124
330
123
100
AcDbEntity
  8
A-ROOF-OTLN
100
AcDbVertex
100
AcDbPolyFaceMeshVertex
 10
12693.93447875976
 20
-4721.751033782958
 30
6211.367958068848
 70
   192
  0
VERTEX
  5
125
330
123
100
AcDbEntity
  8
A-ROOF-OTLN
100
AcDbVertex
100
AcDbPolyFaceMeshVertex
 10
12693.93447875976
 20
-4721.751033782958
 30
6336.280101013183
 70
   192
  0
VERTEX
  5
126
330
123
100
AcDbEntity
  8
A-ROOF-OTLN
100
AcDbVertex
100
AcDbPolyFaceMeshVertex
 10
12693.93447875976
 20
-4724.925839996338
 30
6336.280101013183
 70
   192
  0
VERTEX
  5
127
330
123
100
AcDbEntity
  8
A-ROOF-OTLN
100
AcDbVertex
100
AcDbPolyFaceMeshVertex
 10
12693.93447875976
 20
-4724.925839996338
 30
6214.542764282227
 70
   192
  0
VERTEX
  5
128
330
123
100
AcDbEntity
  8
A-ROOF-OTLN
100
AcDbVertex
100
AcDbPolyFaceMeshVertex
 10
12693.93447875976
 20
-4793.588800048828
 30
6214.542764282227
 70
   192
  0
VERTEX
  5
129
330
123
100
AcDbEntity
  8
A-ROOF-OTLN
100
AcDbVertex
100
AcDbPolyFaceMeshVertex
 10
12693.93447875976
 20
-4831.688800048828
 30
6314.055294799805
 70
   192
  0
VERTEX
  5
12A
330
123
100
AcDbEntity
  8
A-ROOF-OTLN
100
AcDbVertex
100
AcDbPolyFaceMeshVertex
 10
12693.93447875976
 20
-4843.575865173341
 30
6314.055294799805
 70
   192
  0
VERTEX
  5
12B
330
123
100
AcDbEntity
  8
A-ROOF-OTLN
100
AcDbVertex
100
AcDbPolyFaceMeshVertex
 10
12693.93447875976
 20
-4843.575865173341
 30
6320.404907226563
 70
   192
  0
VERTEX
  5
12C
330
123
100
AcDbEntity
  8
A-ROOF-OTLN
100
AcDbVertex
100
AcDbPolyFaceMeshVertex
 10
12693.93447875976
 20
-4834.05086517334
 30
6320.404907226563
 70
   192
  0
VERTEX
  5
12D
330
123
100
AcDbEntity
  8
A-ROOF-OTLN
100
AcDbVertex
100
AcDbPolyFaceMeshVertex
 10
12693.93447875976
 20
-4834.05086517334
 30
6323.580294799804
 70
   192
  0
VERTEX
  5
12E
330
123
100
AcDbEntity
  8
A-ROOF-OTLN
100
AcDbVertex
100
AcDbPolyFaceMeshVertex
 10
12693.93447875976
 20
-4846.75096206665
 30
6323.580294799804
 70
   192
  0
VERTEX
  5
12F
330
123
100
AcDbEntity
  8
A-ROOF-OTLN
100
AcDbVertex
100
AcDbPolyFaceMeshVertex
 10
12693.93447875976
 20
-4846.75096206665
 30
6310.879907226564
 70
   192
  0
VERTEX
  5
130
330
123
100
AcDbEntity
  8
A-ROOF-OTLN
100
AcDbVertex
100
AcDbPolyFaceMeshVertex
 10
12693.93447875976
 20
-4834.05086517334
 30
6310.879907226564
 70
   192
  0
VERTEX
  5
131
330
123
100
AcDbEntity
  8
A-ROOF-OTLN
100
AcDbVertex
100
AcDbPolyFaceMeshVertex
 10
12693.93447875976
 20
-4795.950865173341
 30
6211.367958068848
 70
   192
  0
VERTEX
  5
132
330
123
100
AcDbEntity
  8
A-ROOF-OTLN
100
AcDbFaceRecord
 10
0.0
 20
0.0
 30
0.0
 70
   128
 71
    -7
 72
    12
 73
   -13
 74
     6
  0
VERTEX
  5
133
330
123
100
AcDbEntity
  8
A-ROOF-OTLN
100
AcDbFaceRecord
 10
0.0
 20
0.0
 30
0.0
 70
   128
 71
   -12
 72
     7
 73
    -8
 74
    11
  0
VERTEX
  5
134
330
123
100
AcDbEntity
  8
A-ROOF-OTLN
100
AcDbFaceRecord
 10
0.0
 20
0.0
 30
0.0
 70
   128
 71
    10
 72
   -11
 73
     8
 74
     9
  0
VERTEX
  5
135
330
123
100
AcDbEntity
  8
A-ROOF-OTLN
100
AcDbFaceRecord
 10
0.0
 20
0.0
 30
0.0
 70
   128
 71
    14
 72
    -1
 73
     4
 74
    -5
  0
VERTEX
  5
136
330
123
100
AcDbEntity
  8
A-ROOF-OTLN
100
AcDbFaceRecord
 10
0.0
 20
0.0
 30
0.0
 70
   128
 71
    -4
 72
     1
 73
     2
 74
     3
  0
VERTEX
  5
137
330
123
100
AcDbEntity
  8
A-ROOF-OTLN
100
AcDbFaceRecord
 10
0.0
 20
0.0
 30
0.0
 70
   128
 71
     5
 72
    -6
 73
    13
 74
   -14
  0
SEQEND
  5
138
330
123
100
AcDbEntity
  8
A-ROOF-OTLN
  0
POLYLINE
  5
139
330
70
100
AcDbEntity
  8
A-ROOF-OTLN
100
AcDbPolyFaceMesh
 66
     1
 10
0.0
 20
0.0
 30
0.0
 70
    64
 71
     4
 72
     1
1001
REVIT
1002
{
1070
     1
1000
142798
1002
}
1002
{
1070
     5
1000
6619
1002
}
1002
{
1070
     4
1000
26
1002
}
1002
{
1070
     2
1000
-2000035
1002
}
1002
{
1070
     3
1000
-2001391
1002
}
  0
VERTEX
  5
13A
330
139
100
AcDbEntity
  8
A-ROOF-OTLN
100
AcDbVertex
100
AcDbPolyFaceMeshVertex
 10
5693.934425354004
 20
-4721.751033782958
 30
6211.367958068848
 70
   192
  0
VERTEX
  5
13B
330
139
100
AcDbEntity
  8
A-ROOF-OTLN
100
AcDbVertex
100
AcDbPolyFaceMeshVertex
 10
12693.93447875976
 20
-4721.751033782958
 30
6211.367958068848
 70
   192
  0
VERTEX
  5
13C
330
139
100
AcDbEntity
  8
A-ROOF-OTLN
100
AcDbVertex
100
AcDbPolyFaceMeshVertex
 10
12693.93447875976
 20
-4795.950865173341
 30
6211.367958068848
 70
   192
  0
VERTEX
  5
13D
330
139
100
AcDbEntity
  8
A-ROOF-OTLN
100
AcDbVertex
100
AcDbPolyFaceMeshVertex
 10
5693.934425354004
 20
-4795.950865173341
 30
6211.367958068848
 70
   192
  0
VERTEX
  5
13E
330
139
100
AcDbEntity
  8
A-ROOF-OTLN
100
AcDbFaceRecord
 10
0.0
 20
0.0
 30
0.0
 70
   128
 71
     1
 72
     2
 73
     3
 74
     4
  0
SEQEND
  5
13F
330
139
100
AcDbEntity
  8
A-ROOF-OTLN
  0
POLYLINE
  5
140
330
70
100
AcDbEntity
  8
A-ROOF-OTLN
100
AcDbPolyFaceMesh
 66
     1
 10
0.0
 20
0.0
 30
0.0
 70
    64
 71
     4
 72
     1
1001
REVIT
1002
{
1070
     1
1000
142798
1002
}
1002
{
1070
     5
1000
6619
1002
}
1002
{
1070
     4
1000
26
1002
}
1002
{
1070
     2
1000
-2000035
1002
}
1002
{
1070
     3
1000
-2001391
1002
}
  0
VERTEX
  5
141
330
140
100
AcDbEntity
  8
A-ROOF-OTLN
100
AcDbVertex
100
AcDbPolyFaceMeshVertex
 10
5693.934425354004
 20
-4795.950865173341
 30
6211.367958068848
 70
   192
  0
VERTEX
  5
142
330
140
100
AcDbEntity
  8
A-ROOF-OTLN
100
AcDbVertex
100
AcDbPolyFaceMeshVertex
 10
12693.93447875976
 20
-4795.950865173341
 30
6211.367958068848
 70
   192
  0
VERTEX
  5
143
330
140
100
AcDbEntity
  8
A-ROOF-OTLN
100
AcDbVertex
100
AcDbPolyFaceMeshVertex
 10
12693.93447875976
 20
-4834.05086517334
 30
6310.879907226564
 70
   192
  0
VERTEX
  5
144
330
140
100
AcDbEntity
  8
A-ROOF-OTLN
100
AcDbVertex
100
AcDbPolyFaceMeshVertex
 10
5693.934425354004
 20
-4834.05086517334
 30
6310.879907226564
 70
   192
  0
VERTEX
  5
145
330
140
100
AcDbEntity
  8
A-ROOF-OTLN
100
AcDbFaceRecord
 10
0.0
 20
0.0
 30
0.0
 70
   128
 71
     1
 72
     2
 73
     3
 74
     4
  0
SEQEND
  5
146
330
140
100
AcDbEntity
  8
A-ROOF-OTLN
  0
POLYLINE
  5
147
330
70
100
AcDbEntity
  8
A-ROOF-OTLN
100
AcDbPolyFaceMesh
 66
     1
 10
0.0
 20
0.0
 30
0.0
 70
    64
 71
     4
 72
     1
1001
REVIT
1002
{
1070
     1
1000
142798
1002
}
1002
{
1070
     5
1000
6619
1002
}
1002
{
1070
     4
1000
26
1002
}
1002
{
1070
     2
1000
-2000035
1002
}
1002
{
1070
     3
1000
-2001391
1002
}
  0
VERTEX
  5
148
330
147
100
AcDbEntity
  8
A-ROOF-OTLN
100
AcDbVertex
100
AcDbPolyFaceMeshVertex
 10
5693.934425354004
 20
-4834.05086517334
 30
6310.879907226564
 70
   192
  0
VERTEX
  5
149
330
147
100
AcDbEntity
  8
A-ROOF-OTLN
100
AcDbVertex
100
AcDbPolyFaceMeshVertex
 10
12693.93447875976
 20
-4834.05086517334
 30
6310.879907226564
 70
   192
  0
VERTEX
  5
14A
330
147
100
AcDbEntity
  8
A-ROOF-OTLN
100
AcDbVertex
100
AcDbPolyFaceMeshVertex
 10
12693.93447875976
 20
-4846.75096206665
 30
6310.879907226564
 70
   192
  0
VERTEX
  5
14B
330
147
100
AcDbEntity
  8
A-ROOF-OTLN
100
AcDbVertex
100
AcDbPolyFaceMeshVertex
 10
5693.934425354004
 20
-4846.75096206665
 30
6310.879907226564
 70
   192
  0
VERTEX
  5
14C
330
147
100
AcDbEntity
  8
A-ROOF-OTLN
100
AcDbFaceRecord
 10
0.0
 20
0.0
 30
0.0
 70
   128
 71
     1
 72
     2
 73
     3
 74
     4
  0
SEQEND
  5
14D
330
147
100
AcDbEntity
  8
A-ROOF-OTLN
  0
POLYLINE
  5
14E
330
70
100
AcDbEntity
  8
A-ROOF-OTLN
100
AcDbPolyFaceMesh
 66
     1
 10
0.0
 20
0.0
 30
0.0
 70
    64
 71
     4
 72
     1
1001
REVIT
1002
{
1070
     1
1000
142798
1002
}
1002
{
1070
     5
1000
6619
1002
}
1002
{
1070
     4
1000
26
1002
}
1002
{
1070
     2
1000
-2000035
1002
}
1002
{
1070
     3
1000
-2001391
1002
}
  0
VERTEX
  5
14F
330
14E
100
AcDbEntity
  8
A-ROOF-OTLN
100
AcDbVertex
100
AcDbPolyFaceMeshVertex
 10
5693.934425354004
 20
-4846.75096206665
 30
6310.879907226564
 70
   192
  0
VERTEX
  5
150
330
14E
100
AcDbEntity
  8
A-ROOF-OTLN
100
AcDbVertex
100
AcDbPolyFaceMeshVertex
 10
12693.93447875976
 20
-4846.75096206665
 30
6310.879907226564
 70
   192
  0
VERTEX
  5
151
330
14E
100
AcDbEntity
  8
A-ROOF-OTLN
100
AcDbVertex
100
AcDbPolyFaceMeshVertex
 10
12693.93447875976
 20
-4846.75096206665
 30
6323.580294799804
 70
   192
  0
VERTEX
  5
152
330
14E
100
AcDbEntity
  8
A-ROOF-OTLN
100
AcDbVertex
100
AcDbPolyFaceMeshVertex
 10
5693.934425354004
 20
-4846.75096206665
 30
6323.580294799804
 70
   192
  0
VERTEX
  5
153
330
14E
100
AcDbEntity
  8
A-ROOF-OTLN
100
AcDbFaceRecord
 10
0.0
 20
0.0
 30
0.0
 70
   128
 71
     1
 72
     2
 73
     3
 74
     4
  0
SEQEND
  5
154
330
14E
100
AcDbEntity
  8
A-ROOF-OTLN
  0
POLYLINE
  5
155
330
70
100
AcDbEntity
  8
A-ROOF-OTLN
100
AcDbPolyFaceMesh
 66
     1
 10
0.0
 20
0.0
 30
0.0
 70
    64
 71
     4
 72
     1
1001
REVIT
1002
{
1070
     1
1000
142798
1002
}
1002
{
1070
     5
1000
6619
1002
}
1002
{
1070
     4
1000
26
1002
}
1002
{
1070
     2
1000
-2000035
1002
}
1002
{
1070
     3
1000
-2001391
1002
}
  0
VERTEX
  5
156
330
155
100
AcDbEntity
  8
A-ROOF-OTLN
100
AcDbVertex
100
AcDbPolyFaceMeshVertex
 10
5693.934425354004
 20
-4846.75096206665
 30
6323.580294799804
 70
   192
  0
VERTEX
  5
157
330
155
100
AcDbEntity
  8
A-ROOF-OTLN
100
AcDbVertex
100
AcDbPolyFaceMeshVertex
 10
12693.93447875976
 20
-4846.75096206665
 30
6323.580294799804
 70
   192
  0
VERTEX
  5
158
330
155
100
AcDbEntity
  8
A-ROOF-OTLN
100
AcDbVertex
100
AcDbPolyFaceMeshVertex
 10
12693.93447875976
 20
-4834.05086517334
 30
6323.580294799804
 70
   192
  0
VERTEX
  5
159
330
155
100
AcDbEntity
  8
A-ROOF-OTLN
100
AcDbVertex
100
AcDbPolyFaceMeshVertex
 10
5693.934425354004
 20
-4834.05086517334
 30
6323.580294799804
 70
   192
  0
VERTEX
  5
15A
330
155
100
AcDbEntity
  8
A-ROOF-OTLN
100
AcDbFaceRecord
 10
0.0
 20
0.0
 30
0.0
 70
   128
 71
     1
 72
     2
 73
     3
 74
     4
  0
SEQEND
  5
15B
330
155
100
AcDbEntity
  8
A-ROOF-OTLN
  0
POLYLINE
  5
15C
330
70
100
AcDbEntity
  8
A-ROOF-OTLN
100
AcDbPolyFaceMesh
 66
     1
 10
0.0
 20
0.0
 30
0.0
 70
    64
 71
     4
 72
     1
1001
REVIT
1002
{
1070
     1
1000
142798
1002
}
1002
{
1070
     5
1000
6619
1002
}
1002
{
1070
     4
1000
26
1002
}
1002
{
1070
     2
1000
-2000035
1002
}
1002
{
1070
     3
1000
-2001391
1002
}
  0
VERTEX
  5
15D
330
15C
100
AcDbEntity
  8
A-ROOF-OTLN
100
AcDbVertex
100
AcDbPolyFaceMeshVertex
 10
5693.934425354004
 20
-4834.05086517334
 30
6323.580294799804
 70
   192
  0
VERTEX
  5
15E
330
15C
100
AcDbEntity
  8
A-ROOF-OTLN
100
AcDbVertex
100
AcDbPolyFaceMeshVertex
 10
12693.93447875976
 20
-4834.05086517334
 30
6323.580294799804
 70
   192
  0
VERTEX
  5
15F
330
15C
100
AcDbEntity
  8
A-ROOF-OTLN
100
AcDbVertex
100
AcDbPolyFaceMeshVertex
 10
12693.93447875976
 20
-4834.05086517334
 30
6320.404907226563
 70
   192
  0
VERTEX
  5
160
330
15C
100
AcDbEntity
  8
A-ROOF-OTLN
100
AcDbVertex
100
AcDbPolyFaceMeshVertex
 10
5693.934425354004
 20
-4834.05086517334
 30
6320.404907226563
 70
   192
  0
VERTEX
  5
161
330
15C
100
AcDbEntity
  8
A-ROOF-OTLN
100
AcDbFaceRecord
 10
0.0
 20
0.0
 30
0.0
 70
   128
 71
     1
 72
     2
 73
     3
 74
     4
  0
SEQEND
  5
162
330
15C
100
AcDbEntity
  8
A-ROOF-OTLN
  0
POLYLINE
  5
163
330
70
100
AcDbEntity
  8
A-ROOF-OTLN
100
AcDbPolyFaceMesh
 66
     1
 10
0.0
 20
0.0
 30
0.0
 70
    64
 71
     4
 72
     1
1001
REVIT
1002
{
1070
     1
1000
142798
1002
}
1002
{
1070
     5
1000
6619
1002
}
1002
{
1070
     4
1000
26
1002
}
1002
{
1070
     2
1000
-2000035
1002
}
1002
{
1070
     3
1000
-2001391
1002
}
  0
VERTEX
  5
164
330
163
100
AcDbEntity
  8
A-ROOF-OTLN
100
AcDbVertex
100
AcDbPolyFaceMeshVertex
 10
5693.934425354004
 20
-4834.05086517334
 30
6320.404907226563
 70
   192
  0
VERTEX
  5
165
330
163
100
AcDbEntity
  8
A-ROOF-OTLN
100
AcDbVertex
100
AcDbPolyFaceMeshVertex
 10
12693.93447875976
 20
-4834.05086517334
 30
6320.404907226563
 70
   192
  0
VERTEX
  5
166
330
163
100
AcDbEntity
  8
A-ROOF-OTLN
100
AcDbVertex
100
AcDbPolyFaceMeshVertex
 10
12693.93447875976
 20
-4843.575865173341
 30
6320.404907226563
 70
   192
  0
VERTEX
  5
167
330
163
100
AcDbEntity
  8
A-ROOF-OTLN
100
AcDbVertex
100
AcDbPolyFaceMeshVertex
 10
5693.934425354004
 20
-4843.575865173341
 30
6320.404907226563
 70
   192
  0
VERTEX
  5
168
330
163
100
AcDbEntity
  8
A-ROOF-OTLN
100
AcDbFaceRecord
 10
0.0
 20
0.0
 30
0.0
 70
   128
 71
     1
 72
     2
 73
     3
 74
     4
  0
SEQEND
  5
169
330
163
100
AcDbEntity
  8
A-ROOF-OTLN
  0
POLYLINE
  5
16A
330
70
100
AcDbEntity
  8
A-ROOF-OTLN
100
AcDbPolyFaceMesh
 66
     1
 10
0.0
 20
0.0
 30
0.0
 70
    64
 71
     4
 72
     1
1001
REVIT
1002
{
1070
     1
1000
142798
1002
}
1002
{
1070
     5
1000
6619
1002
}
1002
{
1070
     4
1000
26
1002
}
1002
{
1070
     2
1000
-2000035
1002
}
1002
{
1070
     3
1000
-2001391
1002
}
  0
VERTEX
  5
16B
330
16A
100
AcDbEntity
  8
A-ROOF-OTLN
100
AcDbVertex
100
AcDbPolyFaceMeshVertex
 10
5693.934425354004
 20
-4843.575865173341
 30
6320.404907226563
 70
   192
  0
VERTEX
  5
16C
330
16A
100
AcDbEntity
  8
A-ROOF-OTLN
100
AcDbVertex
100
AcDbPolyFaceMeshVertex
 10
12693.93447875976
 20
-4843.575865173341
 30
6320.404907226563
 70
   192
  0
VERTEX
  5
16D
330
16A
100
AcDbEntity
  8
A-ROOF-OTLN
100
AcDbVertex
100
AcDbPolyFaceMeshVertex
 10
12693.93447875976
 20
-4843.575865173341
 30
6314.055294799805
 70
   192
  0
VERTEX
  5
16E
330
16A
100
AcDbEntity
  8
A-ROOF-OTLN
100
AcDbVertex
100
AcDbPolyFaceMeshVertex
 10
5693.934425354004
 20
-4843.575865173341
 30
6314.055294799805
 70
   192
  0
VERTEX
  5
16F
330
16A
100
AcDbEntity
  8
A-ROOF-OTLN
100
AcDbFaceRecord
 10
0.0
 20
0.0
 30
0.0
 70
   128
 71
     1
 72
     2
 73
     3
 74
     4
  0
SEQEND
  5
170
330
16A
100
AcDbEntity
  8
A-ROOF-OTLN
  0
POLYLINE
  5
171
330
70
100
AcDbEntity
  8
A-ROOF-OTLN
100
AcDbPolyFaceMesh
 66
     1
 10
0.0
 20
0.0
 30
0.0
 70
    64
 71
     4
 72
     1
1001
REVIT
1002
{
1070
     1
1000
142798
1002
}
1002
{
1070
     5
1000
6619
1002
}
1002
{
1070
     4
1000
26
1002
}
1002
{
1070
     2
1000
-2000035
1002
}
1002
{
1070
     3
1000
-2001391
1002
}
  0
VERTEX
  5
172
330
171
100
AcDbEntity
  8
A-ROOF-OTLN
100
AcDbVertex
100
AcDbPolyFaceMeshVertex
 10
5693.934425354004
 20
-4843.575865173341
 30
6314.055294799805
 70
   192
  0
VERTEX
  5
173
330
171
100
AcDbEntity
  8
A-ROOF-OTLN
100
AcDbVertex
100
AcDbPolyFaceMeshVertex
 10
12693.93447875976
 20
-4843.575865173341
 30
6314.055294799805
 70
   192
  0
VERTEX
  5
174
330
171
100
AcDbEntity
  8
A-ROOF-OTLN
100
AcDbVertex
100
AcDbPolyFaceMeshVertex
 10
12693.93447875976
 20
-4831.688800048828
 30
6314.055294799805
 70
   192
  0
VERTEX
  5
175
330
171
100
AcDbEntity
  8
A-ROOF-OTLN
100
AcDbVertex
100
AcDbPolyFaceMeshVertex
 10
5693.934425354004
 20
-4831.688800048828
 30
6314.055294799805
 70
   192
  0
VERTEX
  5
176
330
171
100
AcDbEntity
  8
A-ROOF-OTLN
100
AcDbFaceRecord
 10
0.0
 20
0.0
 30
0.0
 70
   128
 71
     1
 72
     2
 73
     3
 74
     4
  0
SEQEND
  5
177
330
171
100
AcDbEntity
  8
A-ROOF-OTLN
  0
POLYLINE
  5
178
330
70
100
AcDbEntity
  8
A-ROOF-OTLN
100
AcDbPolyFaceMesh
 66
     1
 10
0.0
 20
0.0
 30
0.0
 70
    64
 71
     4
 72
     1
1001
REVIT
1002
{
1070
     1
1000
142798
1002
}
1002
{
1070
     5
1000
6619
1002
}
1002
{
1070
     4
1000
26
1002
}
1002
{
1070
     2
1000
-2000035
1002
}
1002
{
1070
     3
1000
-2001391
1002
}
  0
VERTEX
  5
179
330
178
100
AcDbEntity
  8
A-ROOF-OTLN
100
AcDbVertex
100
AcDbPolyFaceMeshVertex
 10
5693.934425354004
 20
-4831.688800048828
 30
6314.055294799805
 70
   192
  0
VERTEX
  5
17A
330
178
100
AcDbEntity
  8
A-ROOF-OTLN
100
AcDbVertex
100
AcDbPolyFaceMeshVertex
 10
12693.93447875976
 20
-4831.688800048828
 30
6314.055294799805
 70
   192
  0
VERTEX
  5
17B
330
178
100
AcDbEntity
  8
A-ROOF-OTLN
100
AcDbVertex
100
AcDbPolyFaceMeshVertex
 10
12693.93447875976
 20
-4793.588800048828
 30
6214.542764282227
 70
   192
  0
VERTEX
  5
17C
330
178
100
AcDbEntity
  8
A-ROOF-OTLN
100
AcDbVertex
100
AcDbPolyFaceMeshVertex
 10
5693.934425354004
 20
-4793.588800048828
 30
6214.542764282227
 70
   192
  0
VERTEX
  5
17D
330
178
100
AcDbEntity
  8
A-ROOF-OTLN
100
AcDbFaceRecord
 10
0.0
 20
0.0
 30
0.0
 70
   128
 71
     1
 72
     2
 73
     3
 74
     4
  0
SEQEND
  5
17E
330
178
100
AcDbEntity
  8
A-ROOF-OTLN
  0
POLYLINE
  5
17F
330
70
100
AcDbEntity
  8
A-ROOF-OTLN
100
AcDbPolyFaceMesh
 66
     1
 10
0.0
 20
0.0
 30
0.0
 70
    64
 71
     4
 72
     1
1001
REVIT
1002
{
1070
     1
1000
142798
1002
}
1002
{
1070
     5
1000
6619
1002
}
1002
{
1070
     4
1000
26
1002
}
1002
{
1070
     2
1000
-2000035
1002
}
1002
{
1070
     3
1000
-2001391
1002
}
  0
VERTEX
  5
180
330
17F
100
AcDbEntity
  8
A-ROOF-OTLN
100
AcDbVertex
100
AcDbPolyFaceMeshVertex
 10
5693.934425354004
 20
-4793.588800048828
 30
6214.542764282227
 70
   192
  0
VERTEX
  5
181
330
17F
100
AcDbEntity
  8
A-ROOF-OTLN
100
AcDbVertex
100
AcDbPolyFaceMeshVertex
 10
12693.93447875976
 20
-4793.588800048828
 30
6214.542764282227
 70
   192
  0
VERTEX
  5
182
330
17F
100
AcDbEntity
  8
A-ROOF-OTLN
100
AcDbVertex
100
AcDbPolyFaceMeshVertex
 10
12693.93447875976
 20
-4724.925839996338
 30
6214.542764282227
 70
   192
  0
VERTEX
  5
183
330
17F
100
AcDbEntity
  8
A-ROOF-OTLN
100
AcDbVertex
100
AcDbPolyFaceMeshVertex
 10
5693.934425354004
 20
-4724.925839996338
 30
6214.542764282227
 70
   192
  0
VERTEX
  5
184
330
17F
100
AcDbEntity
  8
A-ROOF-OTLN
100
AcDbFaceRecord
 10
0.0
 20
0.0
 30
0.0
 70
   128
 71
     1
 72
     2
 73
     3
 74
     4
  0
SEQEND
  5
185
330
17F
100
AcDbEntity
  8
A-ROOF-OTLN
  0
POLYLINE
  5
186
330
70
100
AcDbEntity
  8
A-ROOF-OTLN
100
AcDbPolyFaceMesh
 66
     1
 10
0.0
 20
0.0
 30
0.0
 70
    64
 71
     4
 72
     1
1001
REVIT
1002
{
1070
     1
1000
142798
1002
}
1002
{
1070
     5
1000
6619
1002
}
1002
{
1070
     4
1000
26
1002
}
1002
{
1070
     2
1000
-2000035
1002
}
1002
{
1070
     3
1000
-2001391
1002
}
  0
VERTEX
  5
187
330
186
100
AcDbEntity
  8
A-ROOF-OTLN
100
AcDbVertex
100
AcDbPolyFaceMeshVertex
 10
5693.934425354004
 20
-4724.925839996338
 30
6214.542764282227
 70
   192
  0
VERTEX
  5
188
330
186
100
AcDbEntity
  8
A-ROOF-OTLN
100
AcDbVertex
100
AcDbPolyFaceMeshVertex
 10
12693.93447875976
 20
-4724.925839996338
 30
6214.542764282227
 70
   192
  0
VERTEX
  5
189
330
186
100
AcDbEntity
  8
A-ROOF-OTLN
100
AcDbVertex
100
AcDbPolyFaceMeshVertex
 10
12693.93447875976
 20
-4724.925839996338
 30
6336.280101013183
 70
   192
  0
VERTEX
  5
18A
330
186
100
AcDbEntity
  8
A-ROOF-OTLN
100
AcDbVertex
100
AcDbPolyFaceMeshVertex
 10
5693.934425354004
 20
-4724.925839996338
 30
6336.280101013183
 70
   192
  0
VERTEX
  5
18B
330
186
100
AcDbEntity
  8
A-ROOF-OTLN
100
AcDbFaceRecord
 10
0.0
 20
0.0
 30
0.0
 70
   128
 71
     1
 72
     2
 73
     3
 74
     4
  0
SEQEND
  5
18C
330
186
100
AcDbEntity
  8
A-ROOF-OTLN
  0
POLYLINE
  5
18D
330
70
100
AcDbEntity
  8
A-ROOF-OTLN
100
AcDbPolyFaceMesh
 66
     1
 10
0.0
 20
0.0
 30
0.0
 70
    64
 71
     4
 72
     1
1001
REVIT
1002
{
1070
     1
1000
142798
1002
}
1002
{
1070
     5
1000
6619
1002
}
1002
{
1070
     4
1000
26
1002
}
1002
{
1070
     2
1000
-2000035
1002
}
1002
{
1070
     3
1000
-2001391
1002
}
  0
VERTEX
  5
18E
330
18D
100
AcDbEntity
  8
A-ROOF-OTLN
100
AcDbVertex
100
AcDbPolyFaceMeshVertex
 10
5693.934425354004
 20
-4724.925839996338
 30
6336.280101013183
 70
   192
  0
VERTEX
  5
18F
330
18D
100
AcDbEntity
  8
A-ROOF-OTLN
100
AcDbVertex
100
AcDbPolyFaceMeshVertex
 10
12693.93447875976
 20
-4724.925839996338
 30
6336.280101013183
 70
   192
  0
VERTEX
  5
190
330
18D
100
AcDbEntity
  8
A-ROOF-OTLN
100
AcDbVertex
100
AcDbPolyFaceMeshVertex
 10
12693.93447875976
 20
-4721.751033782958
 30
6336.280101013183
 70
   192
  0
VERTEX
  5
191
330
18D
100
AcDbEntity
  8
A-ROOF-OTLN
100
AcDbVertex
100
AcDbPolyFaceMeshVertex
 10
5693.934425354004
 20
-4721.751033782958
 30
6336.280101013183
 70
   192
  0
VERTEX
  5
192
330
18D
100
AcDbEntity
  8
A-ROOF-OTLN
100
AcDbFaceRecord
 10
0.0
 20
0.0
 30
0.0
 70
   128
 71
     1
 72
     2
 73
     3
 74
     4
  0
SEQEND
  5
193
330
18D
100
AcDbEntity
  8
A-ROOF-OTLN
  0
POLYLINE
  5
194
330
70
100
AcDbEntity
  8
A-ROOF-OTLN
100
AcDbPolyFaceMesh
 66
     1
 10
0.0
 20
0.0
 30
0.0
 70
    64
 71
     4
 72
     1
1001
REVIT
1002
{
1070
     1
1000
142798
1002
}
1002
{
1070
     5
1000
6619
1002
}
1002
{
1070
     4
1000
26
1002
}
1002
{
1070
     2
1000
-2000035
1002
}
1002
{
1070
     3
1000
-2001391
1002
}
  0
VERTEX
  5
195
330
194
100
AcDbEntity
  8
A-ROOF-OTLN
100
AcDbVertex
100
AcDbPolyFaceMeshVertex
 10
5693.934425354004
 20
-4721.751033782958
 30
6336.280101013183
 70
   192
  0
VERTEX
  5
196
330
194
100
AcDbEntity
  8
A-ROOF-OTLN
100
AcDbVertex
100
AcDbPolyFaceMeshVertex
 10
12693.93447875976
 20
-4721.751033782958
 30
6336.280101013183
 70
   192
  0
VERTEX
  5
197
330
194
100
AcDbEntity
  8
A-ROOF-OTLN
100
AcDbVertex
100
AcDbPolyFaceMeshVertex
 10
12693.93447875976
 20
-4721.751033782958
 30
6211.367958068848
 70
   192
  0
VERTEX
  5
198
330
194
100
AcDbEntity
  8
A-ROOF-OTLN
100
AcDbVertex
100
AcDbPolyFaceMeshVertex
 10
5693.934425354004
 20
-4721.751033782958
 30
6211.367958068848
 70
   192
  0
VERTEX
  5
199
330
194
100
AcDbEntity
  8
A-ROOF-OTLN
100
AcDbFaceRecord
 10
0.0
 20
0.0
 30
0.0
 70
   128
 71
     1
 72
     2
 73
     3
 74
     4
  0
SEQEND
  5
19A
330
194
100
AcDbEntity
  8
A-ROOF-OTLN
  0
INSERT
  5
1C9
330
70
100
AcDbEntity
  8
A-GLAZ-CURT
440
 33554496
100
AcDbBlockReference
  2
System Panel - Glazed-144269-_3D_
 10
-9179.430554299589
 20
7444.024308491869
 30
-1756.30882502888
210
0.0
220
0.9580190785924285
230
0.2867044559348777
1001
REVIT
1002
{
1070
     1
1000
144268
1002
}
1002
{
1070
     5
1000
4719
1002
}
1002
{
1070
     4
1000
27
1002
}
1002
{
1070
     2
1000
-2000170
1002
}
  0
POLYLINE
  5
1CA
330
70
100
AcDbEntity
  8
A-WALL
100
AcDbPolyFaceMesh
 66
     1
 10
0.0
 20
0.0
 30
0.0
 70
    64
 71
     4
 72
     1
1001
REVIT
1002
{
1070
     1
1000
146793
1002
}
1002
{
1070
     5
1000
482
1002
}
1002
{
1070
     4
1000
25
1002
}
1002
{
1070
     2
1000
-2000011
1002
}
  0
VERTEX
  5
1CB
330
1CA
100
AcDbEntity
  8
A-WALL
100
AcDbVertex
100
AcDbPolyFaceMeshVertex
 10
6569.933862304688
 20
-2004.639848327637
 30
7149.452558898926
 70
   192
  0
VERTEX
  5
1CC
330
1CA
100
AcDbEntity
  8
A-WALL
100
AcDbVertex
100
AcDbPolyFaceMeshVertex
 10
6569.933862304688
 20
-2247.372270584107
 30
7076.810481262207
 70
   192
  0
VERTEX
  5
1CD
330
1CA
100
AcDbEntity
  8
A-WALL
100
AcDbVertex
100
AcDbPolyFaceMeshVertex
 10
6569.933862304688
 20
-2247.372270584107
 30
4000.300012207032
 70
   192
  0
VERTEX
  5
1CE
330
1CA
100
AcDbEntity
  8
A-WALL
100
AcDbVertex
100
AcDbPolyFaceMeshVertex
 10
6569.933862304688
 20
-2004.639848327637
 30
4000.300012207032
 70
   192
  0
VERTEX
  5
1CF
330
1CA
100
AcDbEntity
  8
A-WALL
100
AcDbFaceRecord
 10
0.0
 20
0.0
 30
0.0
 70
   128
 71
     1
 72
     2
 73
     3
 74
     4
  0
SEQEND
  5
1D0
330
1CA
100
AcDbEntity
  8
A-WALL
  0
POLYLINE
  5
1D1
330
70
100
AcDbEntity
  8
A-WALL
100
AcDbPolyFaceMesh
 66
     1
 10
0.0
 20
0.0
 30
0.0
 70
    64
 71
     4
 72
     1
1001
REVIT
1002
{
1070
     1
1000
146793
1002
}
1002
{
1070
     5
1000
482
1002
}
1002
{
1070
     4
1000
25
1002
}
1002
{
1070
     2
1000
-2000011
1002
}
  0
VERTEX
  5
1D2
330
1D1
100
AcDbEntity
  8
A-WALL
100
AcDbVertex
100
AcDbPolyFaceMeshVertex
 10
6369.933860778808
 20
-2247.372270584107
 30
4000.300012207032
 70
   192
  0
VERTEX
  5
1D3
330
1D1
100
AcDbEntity
  8
A-WALL
100
AcDbVertex
100
AcDbPolyFaceMeshVertex
 10
6369.933860778808
 20
-2247.372270584107
 30
7076.810481262207
 70
   192
  0
VERTEX
  5
1D4
330
1D1
100
AcDbEntity
  8
A-WALL
100
AcDbVertex
100
AcDbPolyFaceMeshVertex
 10
6369.933860778808
 20
-2004.639848327637
 30
7149.452558898926
 70
   192
  0
VERTEX
  5
1D5
330
1D1
100
AcDbEntity
  8
A-WALL
100
AcDbVertex
100
AcDbPolyFaceMeshVertex
 10
6369.933860778808
 20
-2004.639848327637
 30
4000.300012207032
 70
   192
  0
VERTEX
  5
1D6
330
1D1
100
AcDbEntity
  8
A-WALL
100
AcDbFaceRecord
 10
0.0
 20
0.0
 30
0.0
 70
   128
 71
     1
 72
     2
 73
     3
 74
     4
  0
SEQEND
  5
1D7
330
1D1
100
AcDbEntity
  8
A-WALL
  0
POLYLINE
  5
1D8
330
70
100
AcDbEntity
  8
A-WALL
100
AcDbPolyFaceMesh
 66
     1
 10
0.0
 20
0.0
 30
0.0
 70
    64
 71
     4
 72
     1
1001
REVIT
1002
{
1070
     1
1000
146793
1002
}
1002
{
1070
     5
1000
482
1002
}
1002
{
1070
     4
1000
25
1002
}
1002
{
1070
     2
1000
-2000011
1002
}
  0
VERTEX
  5
1D9
330
1D8
100
AcDbEntity
  8
A-WALL
100
AcDbVertex
100
AcDbPolyFaceMeshVertex
 10
6569.933862304688
 20
-2247.372270584107
 30
4000.300012207032
 70
   192
  0
VERTEX
  5
1DA
330
1D8
100
AcDbEntity
  8
A-WALL
100
AcDbVertex
100
AcDbPolyFaceMeshVertex
 10
6369.933860778808
 20
-2247.372270584107
 30
4000.300012207032
 70
   192
  0
VERTEX
  5
1DB
330
1D8
100
AcDbEntity
  8
A-WALL
100
AcDbVertex
100
AcDbPolyFaceMeshVertex
 10
6369.933860778808
 20
-2004.639848327637
 30
4000.300012207032
 70
   192
  0
VERTEX
  5
1DC
330
1D8
100
AcDbEntity
  8
A-WALL
100
AcDbVertex
100
AcDbPolyFaceMeshVertex
 10
6569.933862304688
 20
-2004.639848327637
 30
4000.300012207032
 70
   192
  0
VERTEX
  5
1DD
330
1D8
100
AcDbEntity
  8
A-WALL
100
AcDbFaceRecord
 10
0.0
 20
0.0
 30
0.0
 70
   128
 71
     1
 72
     2
 73
     3
 74
     4
  0
SEQEND
  5
1DE
330
1D8
100
AcDbEntity
  8
A-WALL
  0
POLYLINE
  5
1DF
330
70
100
AcDbEntity
  8
A-WALL
100
AcDbPolyFaceMesh
 66
     1
 10
0.0
 20
0.0
 30
0.0
 70
    64
 71
     4
 72
     1
1001
REVIT
1002
{
1070
     1
1000
146793
1002
}
1002
{
1070
     5
1000
482
1002
}
1002
{
1070
     4
1000
25
1002
}
1002
{
1070
     2
1000
-2000011
1002
}
  0
VERTEX
  5
1E0
330
1DF
100
AcDbEntity
  8
A-WALL
100
AcDbVertex
100
AcDbPolyFaceMeshVertex
 10
6569.933862304688
 20
-2004.639848327637
 30
4000.300012207032
 70
   192
  0
VERTEX
  5
1E1
330
1DF
100
AcDbEntity
  8
A-WALL
100
AcDbVertex
100
AcDbPolyFaceMeshVertex
 10
6369.933860778808
 20
-2004.639848327637
 30
4000.300012207032
 70
   192
  0
VERTEX
  5
1E2
330
1DF
100
AcDbEntity
  8
A-WALL
100
AcDbVertex
100
AcDbPolyFaceMeshVertex
 10
6369.933860778808
 20
-2004.639848327637
 30
7149.452558898926
 70
   192
  0
VERTEX
  5
1E3
330
1DF
100
AcDbEntity
  8
A-WALL
100
AcDbVertex
100
AcDbPolyFaceMeshVertex
 10
6569.933862304688
 20
-2004.639848327637
 30
7149.452558898926
 70
   192
  0
VERTEX
  5
1E4
330
1DF
100
AcDbEntity
  8
A-WALL
100
AcDbFaceRecord
 10
0.0
 20
0.0
 30
0.0
 70
   128
 71
     1
 72
     2
 73
     3
 74
     4
  0
SEQEND
  5
1E5
330
1DF
100
AcDbEntity
  8
A-WALL
  0
POLYLINE
  5
1E6
330
70
100
AcDbEntity
  8
A-WALL
100
AcDbPolyFaceMesh
 66
     1
 10
0.0
 20
0.0
 30
0.0
 70
    64
 71
     4
 72
     1
1001
REVIT
1002
{
1070
     1
1000
146793
1002
}
1002
{
1070
     5
1000
482
1002
}
1002
{
1070
     4
1000
25
1002
}
1002
{
1070
     2
1000
-2000011
1002
}
  0
VERTEX
  5
1E7
330
1E6
100
AcDbEntity
  8
A-WALL
100
AcDbVertex
100
AcDbPolyFaceMeshVertex
 10
6569.933862304688
 20
-2247.372270584107
 30
7076.810481262207
 70
   192
  0
VERTEX
  5
1E8
330
1E6
100
AcDbEntity
  8
A-WALL
100
AcDbVertex
100
AcDbPolyFaceMeshVertex
 10
6369.933860778808
 20
-2247.372270584107
 30
7076.810481262207
 70
   192
  0
VERTEX
  5
1E9
330
1E6
100
AcDbEntity
  8
A-WALL
100
AcDbVertex
100
AcDbPolyFaceMeshVertex
 10
6369.933860778808
 20
-2247.372270584107
 30
4000.300012207032
 70
   192
  0
VERTEX
  5
1EA
330
1E6
100
AcDbEntity
  8
A-WALL
100
AcDbVertex
100
AcDbPolyFaceMeshVertex
 10
6569.933862304688
 20
-2247.372270584107
 30
4000.300012207032
 70
   192
  0
VERTEX
  5
1EB
330
1E6
100
AcDbEntity
  8
A-WALL
100
AcDbFaceRecord
 10
0.0
 20
0.0
 30
0.0
 70
   128
 71
     1
 72
     2
 73
     3
 74
     4
  0
SEQEND
  5
1EC
330
1E6
100
AcDbEntity
  8
A-WALL
  0
POLYLINE
  5
1ED
330
70
100
AcDbEntity
  8
A-WALL
100
AcDbPolyFaceMesh
 66
     1
 10
0.0
 20
0.0
 30
0.0
 70
    64
 71
     4
 72
     1
1001
REVIT
1002
{
1070
     1
1000
146793
1002
}
1002
{
1070
     5
1000
482
1002
}
1002
{
1070
     4
1000
25
1002
}
1002
{
1070
     2
1000
-2000011
1002
}
  0
VERTEX
  5
1EE
330
1ED
100
AcDbEntity
  8
A-WALL
100
AcDbVertex
100
AcDbPolyFaceMeshVertex
 10
6569.933862304688
 20
-2004.639848327637
 30
7149.452558898926
 70
   192
  0
VERTEX
  5
1EF
330
1ED
100
AcDbEntity
  8
A-WALL
100
AcDbVertex
100
AcDbPolyFaceMeshVertex
 10
6369.933860778808
 20
-2004.639848327637
 30
7149.452558898926
 70
   192
  0
VERTEX
  5
1F0
330
1ED
100
AcDbEntity
  8
A-WALL
100
AcDbVertex
100
AcDbPolyFaceMeshVertex
 10
6369.933860778808
 20
-2247.372270584107
 30
7076.810481262207
 70
   192
  0
VERTEX
  5
1F1
330
1ED
100
AcDbEntity
  8
A-WALL
100
AcDbVertex
100
AcDbPolyFaceMeshVertex
 10
6569.933862304688
 20
-2247.372270584107
 30
7076.810481262207
 70
   192
  0
VERTEX
  5
1F2
330
1ED
100
AcDbEntity
  8
A-WALL
100
AcDbFaceRecord
 10
0.0
 20
0.0
 30
0.0
 70
   128
 71
     1
 72
     2
 73
     3
 74
     4
  0
SEQEND
  5
1F3
330
1ED
100
AcDbEntity
  8
A-WALL
  0
POLYLINE
  5
1F4
330
70
100
AcDbEntity
  8
A-WALL
100
AcDbPolyFaceMesh
 66
     1
 10
0.0
 20
0.0
 30
0.0
 70
    64
 71
     4
 72
     1
1001
REVIT
1002
{
1070
     1
1000
146854
1002
}
1002
{
1070
     5
1000
482
1002
}
1002
{
1070
     4
1000
25
1002
}
1002
{
1070
     2
1000
-2000011
1002
}
  0
VERTEX
  5
1F5
330
1F4
100
AcDbEntity
  8
A-WALL
100
AcDbVertex
100
AcDbPolyFaceMeshVertex
 10
11993.93418273926
 20
-2048.071354293823
 30
7149.452558898926
 70
   192
  0
VERTEX
  5
1F6
330
1F4
100
AcDbEntity
  8
A-WALL
100
AcDbVertex
100
AcDbPolyFaceMeshVertex
 10
11993.93418273926
 20
-2290.803776550293
 30
7076.810481262207
 70
   192
  0
VERTEX
  5
1F7
330
1F4
100
AcDbEntity
  8
A-WALL
100
AcDbVertex
100
AcDbPolyFaceMeshVertex
 10
11993.93418273926
 20
-2290.803776550293
 30
4000.300012207032
 70
   192
  0
VERTEX
  5
1F8
330
1F4
100
AcDbEntity
  8
A-WALL
100
AcDbVertex
100
AcDbPolyFaceMeshVertex
 10
11993.93418273926
 20
-2048.071354293823
 30
4000.300012207032
 70
   192
  0
VERTEX
  5
1F9
330
1F4
100
AcDbEntity
  8
A-WALL
100
AcDbFaceRecord
 10
0.0
 20
0.0
 30
0.0
 70
   128
 71
     1
 72
     2
 73
     3
 74
     4
  0
SEQEND
  5
1FA
330
1F4
100
AcDbEntity
  8
A-WALL
  0
POLYLINE
  5
1FB
330
70
100
AcDbEntity
  8
A-WALL
100
AcDbPolyFaceMesh
 66
     1
 10
0.0
 20
0.0
 30
0.0
 70
    64
 71
     4
 72
     1
1001
REVIT
1002
{
1070
     1
1000
146854
1002
}
1002
{
1070
     5
1000
482
1002
}
1002
{
1070
     4
1000
25
1002
}
1002
{
1070
     2
1000
-2000011
1002
}
  0
VERTEX
  5
1FC
330
1FB
100
AcDbEntity
  8
A-WALL
100
AcDbVertex
100
AcDbPolyFaceMeshVertex
 10
11793.93476257324
 20
-2290.803776550293
 30
4000.300012207032
 70
   192
  0
VERTEX
  5
1FD
330
1FB
100
AcDbEntity
  8
A-WALL
100
AcDbVertex
100
AcDbPolyFaceMeshVertex
 10
11793.93476257324
 20
-2290.803776550293
 30
7076.810481262207
 70
   192
  0
VERTEX
  5
1FE
330
1FB
100
AcDbEntity
  8
A-WALL
100
AcDbVertex
100
AcDbPolyFaceMeshVertex
 10
11793.93476257324
 20
-2048.071354293823
 30
7149.452558898926
 70
   192
  0
VERTEX
  5
1FF
330
1FB
100
AcDbEntity
  8
A-WALL
100
AcDbVertex
100
AcDbPolyFaceMeshVertex
 10
11793.93476257324
 20
-2048.071354293823
 30
4000.300012207032
 70
   192
  0
VERTEX
  5
200
330
1FB
100
AcDbEntity
  8
A-WALL
100
AcDbFaceRecord
 10
0.0
 20
0.0
 30
0.0
 70
   128
 71
     1
 72
     2
 73
     3
 74
     4
  0
SEQEND
  5
201
330
1FB
100
AcDbEntity
  8
A-WALL
  0
POLYLINE
  5
202
330
70
100
AcDbEntity
  8
A-WALL
100
AcDbPolyFaceMesh
 66
     1
 10
0.0
 20
0.0
 30
0.0
 70
    64
 71
     4
 72
     1
1001
REVIT
1002
{
1070
     1
1000
146854
1002
}
1002
{
1070
     5
1000
482
1002
}
1002
{
1070
     4
1000
25
1002
}
1002
{
1070
     2
1000
-2000011
1002
}
  0
VERTEX
  5
203
330
202
100
AcDbEntity
  8
A-WALL
100
AcDbVertex
100
AcDbPolyFaceMeshVertex
 10
11993.93418273926
 20
-2290.803776550293
 30
4000.300012207032
 70
   192
  0
VERTEX
  5
204
330
202
100
AcDbEntity
  8
A-WALL
100
AcDbVertex
100
AcDbPolyFaceMeshVertex
 10
11793.93476257324
 20
-2290.803776550293
 30
4000.300012207032
 70
   192
  0
VERTEX
  5
205
330
202
100
AcDbEntity
  8
A-WALL
100
AcDbVertex
100
AcDbPolyFaceMeshVertex
 10
11793.93476257324
 20
-2048.071354293823
 30
4000.300012207032
 70
   192
  0
VERTEX
  5
206
330
202
100
AcDbEntity
  8
A-WALL
100
AcDbVertex
100
AcDbPolyFaceMeshVertex
 10
11993.93418273926
 20
-2048.071354293823
 30
4000.300012207032
 70
   192
  0
VERTEX
  5
207
330
202
100
AcDbEntity
  8
A-WALL
100
AcDbFaceRecord
 10
0.0
 20
0.0
 30
0.0
 70
   128
 71
     1
 72
     2
 73
     3
 74
     4
  0
SEQEND
  5
208
330
202
100
AcDbEntity
  8
A-WALL
  0
POLYLINE
  5
209
330
70
100
AcDbEntity
  8
A-WALL
100
AcDbPolyFaceMesh
 66
     1
 10
0.0
 20
0.0
 30
0.0
 70
    64
 71
     4
 72
     1
1001
REVIT
1002
{
1070
     1
1000
146854
1002
}
1002
{
1070
     5
1000
482
1002
}
1002
{
1070
     4
1000
25
1002
}
1002
{
1070
     2
1000
-2000011
1002
}
  0
VERTEX
  5
20A
330
209
100
AcDbEntity
  8
A-WALL
100
AcDbVertex
100
AcDbPolyFaceMeshVertex
 10
11993.93418273926
 20
-2048.071354293823
 30
4000.300012207032
 70
   192
  0
VERTEX
  5
20B
330
209
100
AcDbEntity
  8
A-WALL
100
AcDbVertex
100
AcDbPolyFaceMeshVertex
 10
11793.93476257324
 20
-2048.071354293823
 30
4000.300012207032
 70
   192
  0
VERTEX
  5
20C
330
209
100
AcDbEntity
  8
A-WALL
100
AcDbVertex
100
AcDbPolyFaceMeshVertex
 10
11793.93476257324
 20
-2048.071354293823
 30
7149.452558898926
 70
   192
  0
VERTEX
  5
20D
330
209
100
AcDbEntity
  8
A-WALL
100
AcDbVertex
100
AcDbPolyFaceMeshVertex
 10
11993.93418273926
 20
-2048.071354293823
 30
7149.452558898926
 70
   192
  0
VERTEX
  5
20E
330
209
100
AcDbEntity
  8
A-WALL
100
AcDbFaceRecord
 10
0.0
 20
0.0
 30
0.0
 70
   128
 71
     1
 72
     2
 73
     3
 74
     4
  0
SEQEND
  5
20F
330
209
100
AcDbEntity
  8
A-WALL
  0
POLYLINE
  5
210
330
70
100
AcDbEntity
  8
A-WALL
100
AcDbPolyFaceMesh
 66
     1
 10
0.0
 20
0.0
 30
0.0
 70
    64
 71
     4
 72
     1
1001
REVIT
1002
{
1070
     1
1000
146854
1002
}
1002
{
1070
     5
1000
482
1002
}
1002
{
1070
     4
1000
25
1002
}
1002
{
1070
     2
1000
-2000011
1002
}
  0
VERTEX
  5
211
330
210
100
AcDbEntity
  8
A-WALL
100
AcDbVertex
100
AcDbPolyFaceMeshVertex
 10
11993.93418273926
 20
-2290.803776550293
 30
7076.810481262207
 70
   192
  0
VERTEX
  5
212
330
210
100
AcDbEntity
  8
A-WALL
100
AcDbVertex
100
AcDbPolyFaceMeshVertex
 10
11793.93476257324
 20
-2290.803776550293
 30
7076.810481262207
 70
   192
  0
VERTEX
  5
213
330
210
100
AcDbEntity
  8
A-WALL
100
AcDbVertex
100
AcDbPolyFaceMeshVertex
 10
11793.93476257324
 20
-2290.803776550293
 30
4000.300012207032
 70
   192
  0
VERTEX
  5
214
330
210
100
AcDbEntity
  8
A-WALL
100
AcDbVertex
100
AcDbPolyFaceMeshVertex
 10
11993.93418273926
 20
-2290.803776550293
 30
4000.300012207032
 70
   192
  0
VERTEX
  5
215
330
210
100
AcDbEntity
  8
A-WALL
100
AcDbFaceRecord
 10
0.0
 20
0.0
 30
0.0
 70
   128
 71
     1
 72
     2
 73
     3
 74
     4
  0
SEQEND
  5
216
330
210
100
AcDbEntity
  8
A-WALL
  0
POLYLINE
  5
217
330
70
100
AcDbEntity
  8
A-WALL
100
AcDbPolyFaceMesh
 66
     1
 10
0.0
 20
0.0
 30
0.0
 70
    64
 71
     4
 72
     1
1001
REVIT
1002
{
1070
     1
1000
146854
1002
}
1002
{
1070
     5
1000
482
1002
}
1002
{
1070
     4
1000
25
1002
}
1002
{
1070
     2
1000
-2000011
1002
}
  0
VERTEX
  5
218
330
217
100
AcDbEntity
  8
A-WALL
100
AcDbVertex
100
AcDbPolyFaceMeshVertex
 10
11993.93418273926
 20
-2048.071354293823
 30
7149.452558898926
 70
   192
  0
VERTEX
  5
219
330
217
100
AcDbEntity
  8
A-WALL
100
AcDbVertex
100
AcDbPolyFaceMeshVertex
 10
11793.93476257324
 20
-2048.071354293823
 30
7149.452558898926
 70
   192
  0
VERTEX
  5
21A
330
217
100
AcDbEntity
  8
A-WALL
100
AcDbVertex
100
AcDbPolyFaceMeshVertex
 10
11793.93476257324
 20
-2290.803776550293
 30
7076.810481262207
 70
   192
  0
VERTEX
  5
21B
330
217
100
AcDbEntity
  8
A-WALL
100
AcDbVertex
100
AcDbPolyFaceMeshVertex
 10
11993.93418273926
 20
-2290.803776550293
 30
7076.810481262207
 70
   192
  0
VERTEX
  5
21C
330
217
100
AcDbEntity
  8
A-WALL
100
AcDbFaceRecord
 10
0.0
 20
0.0
 30
0.0
 70
   128
 71
     1
 72
     2
 73
     3
 74
     4
  0
SEQEND
  5
21D
330
217
100
AcDbEntity
  8
A-WALL
  0
POLYLINE
  5
21E
330
70
100
AcDbEntity
  8
A-WALL
100
AcDbPolyFaceMesh
 66
     1
 10
0.0
 20
0.0
 30
0.0
 70
    64
 71
     4
 72
     1
1001
REVIT
1002
{
1070
     1
1000
147424
1002
}
1002
{
1070
     5
1000
482
1002
}
1002
{
1070
     4
1000
25
1002
}
1002
{
1070
     2
1000
-2000011
1002
}
  0
VERTEX
  5
21F
330
21E
100
AcDbEntity
  8
A-WALL
100
AcDbVertex
100
AcDbPolyFaceMeshVertex
 10
6569.933862304688
 20
-4330.072615814208
 30
4000.000030517578
 70
   192
  0
VERTEX
  5
220
330
21E
100
AcDbEntity
  8
A-WALL
100
AcDbVertex
100
AcDbPolyFaceMeshVertex
 10
6569.933862304688
 20
-4330.072615814208
 30
6461.538734436036
 70
   192
  0
VERTEX
  5
221
330
21E
100
AcDbEntity
  8
A-WALL
100
AcDbVertex
100
AcDbPolyFaceMeshVertex
 10
6369.933860778808
 20
-4330.072615814208
 30
6461.538734436036
 70
   192
  0
VERTEX
  5
222
330
21E
100
AcDbEntity
  8
A-WALL
100
AcDbVertex
100
AcDbPolyFaceMeshVertex
 10
6369.933860778808
 20
-4330.072615814208
 30
4000.000030517578
 70
   192
  0
VERTEX
  5
223
330
21E
100
AcDbEntity
  8
A-WALL
100
AcDbFaceRecord
 10
0.0
 20
0.0
 30
0.0
 70
   128
 71
     1
 72
     2
 73
     3
 74
     4
  0
SEQEND
  5
224
330
21E
100
AcDbEntity
  8
A-WALL
  0
POLYLINE
  5
225
330
70
100
AcDbEntity
  8
A-WALL
100
AcDbPolyFaceMesh
 66
     1
 10
0.0
 20
0.0
 30
0.0
 70
    64
 71
     4
 72
     1
1001
REVIT
1002
{
1070
     1
1000
147424
1002
}
1002
{
1070
     5
1000
482
1002
}
1002
{
1070
     4
1000
25
1002
}
1002
{
1070
     2
1000
-2000011
1002
}
  0
VERTEX
  5
226
330
225
100
AcDbEntity
  8
A-WALL
100
AcDbVertex
100
AcDbPolyFaceMeshVertex
 10
6369.933860778808
 20
-4130.07261428833
 30
6461.538734436036
 70
   192
  0
VERTEX
  5
227
330
225
100
AcDbEntity
  8
A-WALL
100
AcDbVertex
100
AcDbPolyFaceMeshVertex
 10
6569.933862304688
 20
-4130.07261428833
 30
6461.538734436036
 70
   192
  0
VERTEX
  5
228
330
225
100
AcDbEntity
  8
A-WALL
100
AcDbVertex
100
AcDbPolyFaceMeshVertex
 10
6569.933862304688
 20
-4130.07261428833
 30
4000.000030517578
 70
   192
  0
VERTEX
  5
229
330
225
100
AcDbEntity
  8
A-WALL
100
AcDbVertex
100
AcDbPolyFaceMeshVertex
 10
6369.933860778808
 20
-4130.07261428833
 30
4000.000030517578
 70
   192
  0
VERTEX
  5
22A
330
225
100
AcDbEntity
  8
A-WALL
100
AcDbFaceRecord
 10
0.0
 20
0.0
 30
0.0
 70
   128
 71
     1
 72
     2
 73
     3
 74
     4
  0
SEQEND
  5
22B
330
225
100
AcDbEntity
  8
A-WALL
  0
POLYLINE
  5
22C
330
70
100
AcDbEntity
  8
A-WALL
100
AcDbPolyFaceMesh
 66
     1
 10
0.0
 20
0.0
 30
0.0
 70
    64
 71
     4
 72
     1
1001
REVIT
1002
{
1070
     1
1000
147424
1002
}
1002
{
1070
     5
1000
482
1002
}
1002
{
1070
     4
1000
25
1002
}
1002
{
1070
     2
1000
-2000011
1002
}
  0
VERTEX
  5
22D
330
22C
100
AcDbEntity
  8
A-WALL
100
AcDbVertex
100
AcDbPolyFaceMeshVertex
 10
6369.933860778808
 20
-4330.072615814208
 30
4000.000030517578
 70
   192
  0
VERTEX
  5
22E
330
22C
100
AcDbEntity
  8
A-WALL
100
AcDbVertex
100
AcDbPolyFaceMeshVertex
 10
6369.933860778808
 20
-4130.07261428833
 30
4000.000030517578
 70
   192
  0
VERTEX
  5
22F
330
22C
100
AcDbEntity
  8
A-WALL
100
AcDbVertex
100
AcDbPolyFaceMeshVertex
 10
6569.933862304688
 20
-4130.07261428833
 30
4000.000030517578
 70
   192
  0
VERTEX
  5
230
330
22C
100
AcDbEntity
  8
A-WALL
100
AcDbVertex
100
AcDbPolyFaceMeshVertex
 10
6569.933862304688
 20
-4330.072615814208
 30
4000.000030517578
 70
   192
  0
VERTEX
  5
231
330
22C
100
AcDbEntity
  8
A-WALL
100
AcDbFaceRecord
 10
0.0
 20
0.0
 30
0.0
 70
   128
 71
     1
 72
     2
 73
     3
 74
     4
  0
SEQEND
  5
232
330
22C
100
AcDbEntity
  8
A-WALL
  0
POLYLINE
  5
233
330
70
100
AcDbEntity
  8
A-WALL
100
AcDbPolyFaceMesh
 66
     1
 10
0.0
 20
0.0
 30
0.0
 70
    64
 71
     4
 72
     1
1001
REVIT
1002
{
1070
     1
1000
147424
1002
}
1002
{
1070
     5
1000
482
1002
}
1002
{
1070
     4
1000
25
1002
}
1002
{
1070
     2
1000
-2000011
1002
}
  0
VERTEX
  5
234
330
233
100
AcDbEntity
  8
A-WALL
100
AcDbVertex
100
AcDbPolyFaceMeshVertex
 10
6569.933862304688
 20
-4330.072615814208
 30
4000.000030517578
 70
   192
  0
VERTEX
  5
235
330
233
100
AcDbEntity
  8
A-WALL
100
AcDbVertex
100
AcDbPolyFaceMeshVertex
 10
6569.933862304688
 20
-4130.07261428833
 30
4000.000030517578
 70
   192
  0
VERTEX
  5
236
330
233
100
AcDbEntity
  8
A-WALL
100
AcDbVertex
100
AcDbPolyFaceMeshVertex
 10
6569.933862304688
 20
-4130.07261428833
 30
6461.538734436036
 70
   192
  0
VERTEX
  5
237
330
233
100
AcDbEntity
  8
A-WALL
100
AcDbVertex
100
AcDbPolyFaceMeshVertex
 10
6569.933862304688
 20
-4330.072615814208
 30
6461.538734436036
 70
   192
  0
VERTEX
  5
238
330
233
100
AcDbEntity
  8
A-WALL
100
AcDbFaceRecord
 10
0.0
 20
0.0
 30
0.0
 70
   128
 71
     1
 72
     2
 73
     3
 74
     4
  0
SEQEND
  5
239
330
233
100
AcDbEntity
  8
A-WALL
  0
POLYLINE
  5
23A
330
70
100
AcDbEntity
  8
A-WALL
100
AcDbPolyFaceMesh
 66
     1
 10
0.0
 20
0.0
 30
0.0
 70
    64
 71
     4
 72
     1
1001
REVIT
1002
{
1070
     1
1000
147424
1002
}
1002
{
1070
     5
1000
482
1002
}
1002
{
1070
     4
1000
25
1002
}
1002
{
1070
     2
1000
-2000011
1002
}
  0
VERTEX
  5
23B
330
23A
100
AcDbEntity
  8
A-WALL
100
AcDbVertex
100
AcDbPolyFaceMeshVertex
 10
6569.933862304688
 20
-4330.072615814208
 30
6461.538734436036
 70
   192
  0
VERTEX
  5
23C
330
23A
100
AcDbEntity
  8
A-WALL
100
AcDbVertex
100
AcDbPolyFaceMeshVertex
 10
6569.933862304688
 20
-4130.07261428833
 30
6461.538734436036
 70
   192
  0
VERTEX
  5
23D
330
23A
100
AcDbEntity
  8
A-WALL
100
AcDbVertex
100
AcDbPolyFaceMeshVertex
 10
6369.933860778808
 20
-4130.07261428833
 30
6461.538734436036
 70
   192
  0
VERTEX
  5
23E
330
23A
100
AcDbEntity
  8
A-WALL
100
AcDbVertex
100
AcDbPolyFaceMeshVertex
 10
6369.933860778808
 20
-4330.072615814208
 30
6461.538734436036
 70
   192
  0
VERTEX
  5
23F
330
23A
100
AcDbEntity
  8
A-WALL
100
AcDbFaceRecord
 10
0.0
 20
0.0
 30
0.0
 70
   128
 71
     1
 72
     2
 73
     3
 74
     4
  0
SEQEND
  5
240
330
23A
100
AcDbEntity
  8
A-WALL
  0
POLYLINE
  5
241
330
70
100
AcDbEntity
  8
A-WALL
100
AcDbPolyFaceMesh
 66
     1
 10
0.0
 20
0.0
 30
0.0
 70
    64
 71
     4
 72
     1
1001
REVIT
1002
{
1070
     1
1000
147424
1002
}
1002
{
1070
     5
1000
482
1002
}
1002
{
1070
     4
1000
25
1002
}
1002
{
1070
     2
1000
-2000011
1002
}
  0
VERTEX
  5
242
330
241
100
AcDbEntity
  8
A-WALL
100
AcDbVertex
100
AcDbPolyFaceMeshVertex
 10
6369.933860778808
 20
-4330.072615814208
 30
6461.538734436036
 70
   192
  0
VERTEX
  5
243
330
241
100
AcDbEntity
  8
A-WALL
100
AcDbVertex
100
AcDbPolyFaceMeshVertex
 10
6369.933860778808
 20
-4130.07261428833
 30
6461.538734436036
 70
   192
  0
VERTEX
  5
244
330
241
100
AcDbEntity
  8
A-WALL
100
AcDbVertex
100
AcDbPolyFaceMeshVertex
 10
6369.933860778808
 20
-4130.07261428833
 30
4000.000030517578
 70
   192
  0
VERTEX
  5
245
330
241
100
AcDbEntity
  8
A-WALL
100
AcDbVertex
100
AcDbPolyFaceMeshVertex
 10
6369.933860778808
 20
-4330.072615814208
 30
4000.000030517578
 70
   192
  0
VERTEX
  5
246
330
241
100
AcDbEntity
  8
A-WALL
100
AcDbFaceRecord
 10
0.0
 20
0.0
 30
0.0
 70
   128
 71
     1
 72
     2
 73
     3
 74
     4
  0
SEQEND
  5
247
330
241
100
AcDbEntity
  8
A-WALL
  0
ENDSEC
  0
SECTION
  2
OBJECTS
  0
DICTIONARY
  5
C
330
0
100
AcDbDictionary
281
     1
  3
ACAD_CIP_PREVIOUS_PRODUCT_INFO
350
79
  3
ACAD_COLOR
350
63
  3
ACAD_DETAILVIEWSTYLE
350
6A
  3
ACAD_GROUP
350
D
  3
ACAD_IMAGE_VARS
350
7A
  3
ACAD_LAYOUT
350
62
  3
ACAD_MATERIAL
350
10
  3
ACAD_MLEADERSTYLE
350
66
  3
ACAD_MLINESTYLE
350
5F
  3
ACAD_PLOTSETTINGS
350
61
  3
ACAD_PLOTSTYLENAME
350
E
  3
ACAD_SCALELIST
350
42
  3
ACAD_SECTIONVIEWSTYLE
350
68
  3
ACAD_TABLESTYLE
350
64
  3
ACAD_VISUALSTYLE
350
29
  3
ACDB_RECOMPOSE_DATA
350
265
  3
AcDbVariableDictionary
350
7B
  3
REVIT_DICTIONARY
350
249
  0
XRECORD
  5
79
102
{ACAD_REACTORS
330
C
102
}
330
C
100
AcDbXrecord
280
     1
300
RVT
300
2014
300
RVT2014
  0
DICTIONARY
  5
63
102
{ACAD_REACTORS
330
C
102
}
330
C
100
AcDbDictionary
281
     1
  0
DICTIONARY
  5
6A
102
{ACAD_REACTORS
330
C
102
}
330
C
100
AcDbDictionary
281
     1
  3
Imperial24
350
6B
  0
DICTIONARY
  5
D
102
{ACAD_REACTORS
330
C
102
}
330
C
100
AcDbDictionary
281
     1
  0
RASTERVARIABLES
  5
7A
102
{ACAD_REACTORS
330
C
102
}
330
C
100
AcDbRasterVariables
 90
        0
 70
     0
 71
     1
 72
     1
  0
DICTIONARY
  5
62
102
{ACAD_REACTORS
330
C
102
}
330
C
100
AcDbDictionary
281
     1
  3
Layout1
350
6F
  3
Layout2
350
77
  3
Model
350
73
  0
DICTIONARY
  5
10
102
{ACAD_REACTORS
330
C
102
}
330
C
100
AcDbDictionary
281
     1
  3
ByBlock
350
19
  3
ByLayer
350
11
  3
Global
350
21
  3
RevitMaterialDefinition25
350
24C
  3
RevitMaterialDefinition26
350
24F
  3
RevitMaterialDefinition27
350
258
  3
RevitMaterialDefinition63218
350
255
  3
RevitMaterialDefinition756
350
252
  0
DICTIONARY
  5
66
102
{ACAD_REACTORS
330
C
102
}
330
C
100
AcDbDictionary
281
     1
  3
Standard
350
67
  0
DICTIONARY
  5
5F
102
{ACAD_REACTORS
330
C
102
}
330
C
100
AcDbDictionary
281
     1
  3
Standard
350
60
  0
DICTIONARY
  5
61
102
{ACAD_REACTORS
330
C
102
}
330
C
100
AcDbDictionary
281
     1
  0
ACDBDICTIONARYWDFLT
  5
E
102
{ACAD_REACTORS
330
C
102
}
330
C
100
AcDbDictionary
281
     1
  3
Normal
350
F
100
AcDbDictionaryWithDefault
340
F
  0
DICTIONARY
  5
42
102
{ACAD_REACTORS
330
C
102
}
330
C
100
AcDbDictionary
281
     1
  3
A0
350
43
  3
A1
350
44
  3
A2
350
45
  3
A3
350
46
  3
A4
350
47
  3
A5
350
48
  3
A6
350
49
  3
A7
350
4A
  3
A8
350
4B
  3
A9
350
4C
  3
B0
350
4D
  3
B1
350
4E
  3
B2
350
4F
  3
B3
350
50
  3
B4
350
51
  3
B5
350
52
  3
B6
350
53
  0
DICTIONARY
  5
68
102
{ACAD_REACTORS
330
C
102
}
330
C
100
AcDbDictionary
281
     1
  3
Imperial24
350
69
  0
DICTIONARY
  5
64
102
{ACAD_REACTORS
330
C
102
}
330
C
100
AcDbDictionary
281
     1
  3
Standard
350
65
  0
DICTIONARY
  5
29
102
{ACAD_REACTORS
330
C
102
}
330
C
100
AcDbDictionary
281
     1
  3
2dWireframe
350
2F
  3
Basic
350
2E
  3
Brighten
350
35
  3
ColorChange
350
39
  3
Conceptual
350
32
  3
Dim
350
34
  3
EdgeColorOff
350
41
  3
Facepattern
350
38
  3
Flat
350
2A
  3
FlatWithEdges
350
2B
  3
Gouraud
350
2C
  3
GouraudWithEdges
350
2D
  3
Hidden
350
31
  3
JitterOff
350
3F
  3
Linepattern
350
37
  3
OverhangOff
350
40
  3
Realistic
350
33
  3
Shaded
350
3E
  3
Shaded with edges
350
3D
  3
Shades of Gray
350
3A
  3
Sketchy
350
3B
  3
Thicken
350
36
  3
Wireframe
350
30
  3
X-Ray
350
3C
  0
XRECORD
  5
265
102
{ACAD_REACTORS
330
C
102
}
330
C
100
AcDbXrecord
280
     1
 90
        1
330
65
330
69
330
6B
  0
DICTIONARY
  5
7B
102
{ACAD_REACTORS
330
C
102
}
330
C
100
AcDbDictionary
281
     1
  3
CANNOSCALE
350
80
  3
CMLEADERSTYLE
350
7D
  3
CTABLESTYLE
350
7C
  3
CVIEWDETAILSTYLE
350
7E
  3
CVIEWSECTIONSTYLE
350
7F
  0
DICTIONARY
  5
249
102
{ACAD_REACTORS
330
C
102
}
330
C
100
AcDbDictionary
281
     1
  3
DRAWING_TOOL
350
25E
  3
REVIT_CATEGORY_MAPPING
350
25C
  3
REVIT_GET_SITE
350
24A
  3
REVIT_SUB_CATEGORY_MAPPING
350
25D
  3
REVIT_TYPE_MAPPING
350
25B
  0
ACDBDETAILVIEWSTYLE
  5
6B
102
{ACAD_XDICTIONARY
360
263
102
}
102
{ACAD_REACTORS
330
6A
102
}
330
6A
100
AcDbModelDocViewStyle
 70
     0
  3
Imperial24
290
     0
100
AcDbDetailViewStyle
 70
     0
 71
     0
 90
        3
 71
     1
340
55
 62
   256
 40
0.24
340
0
 62
   256
 40
0.24
300

 40
0.36
280
     3
 71
     2
340
5D
 90
       25
 62
   256
 71
     3
340
55
 62
   256
 40
0.24
 90
        1
 40
0.75
 90
        1
300
%<\AcVar ViewType \f "%tc1">% %<\AcVar ViewDetailId>%\PSCALE %<\AcVar ViewScale \f "%sn">%
 71
     4
340
5D
 90
       25
 62
   256
340
5D
 90
       25
 62
   256
280
     0
  0
LAYOUT
  5
6F
102
{ACAD_REACTORS
330
62
102
}
330
62
100
AcDbPlotSettings
  1

  2

  4

  6

 40
0.0
 41
0.0
 42
0.0
 43
0.0
 44
0.0
 45
0.0
 46
0.0
 47
0.0
 48
0.0
 49
0.0
140
0.0
141
0.0
142
1.0
143
1.0
 70
   688
 72
     0
 73
     0
 74
     5
  7

 75
    16
147
1.0
 76
     0
 77
     2
 78
   300
148
0.0
149
0.0
100
AcDbLayout
  1
Layout1
 70
     1
 71
     1
 10
0.0
 20
0.0
 11
12.0
 21
9.0
 12
0.0
 22
0.0
 32
0.0
 14
0.0
 24
0.0
 34
0.0
 15
0.0
 25
0.0
 35
0.0
146
0.0
 13
0.0
 23
0.0
 33
0.0
 16
1.0
 26
0.0
 36
0.0
 17
0.0
 27
1.0
 37
0.0
 76
     0
330
6C
  0
LAYOUT
  5
77
102
{ACAD_REACTORS
330
62
102
}
330
62
100
AcDbPlotSettings
  1

  2

  4

  6

 40
0.0
 41
0.0
 42
0.0
 43
0.0
 44
0.0
 45
0.0
 46
0.0
 47
0.0
 48
0.0
 49
0.0
140
0.0
141
0.0
142
1.0
143
1.0
 70
   688
 72
     0
 73
     0
 74
     5
  7

 75
    16
147
1.0
 76
     0
 77
     2
 78
   300
148
0.0
149
0.0
100
AcDbLayout
  1
Layout2
 70
     1
 71
     2
 10
0.0
 20
0.0
 11
12.0
 21
9.0
 12
0.0
 22
0.0
 32
0.0
 14
0.0
 24
0.0
 34
0.0
 15
0.0
 25
0.0
 35
0.0
146
0.0
 13
0.0
 23
0.0
 33
0.0
 16
1.0
 26
0.0
 36
0.0
 17
0.0
 27
1.0
 37
0.0
 76
     0
330
74
  0
LAYOUT
  5
73
102
{ACAD_REACTORS
330
62
102
}
330
62
100
AcDbPlotSettings
  1

  2

  4

  6

 40
0.0
 41
0.0
 42
0.0
 43
0.0
 44
0.0
 45
0.0
 46
0.0
 47
0.0
 48
0.0
 49
0.0
140
0.0
141
0.0
142
1.0
143
1.0
 70
  1712
 72
     0
 73
     0
 74
     0
  7

 75
     0
147
1.0
 76
     0
 77
     2
 78
   300
148
0.0
149
0.0
100
AcDbLayout
  1
Model
 70
     1
 71
     0
 10
0.0
 20
0.0
 11
12.0
 21
9.0
 12
0.0
 22
0.0
 32
0.0
 14
0.0
 24
0.0
 34
0.0
 15
0.0
 25
0.0
 35
0.0
146
0.0
 13
0.0
 23
0.0
 33
0.0
 16
1.0
 26
0.0
 36
0.0
 17
0.0
 27
1.0
 37
0.0
 76
     0
330
70
  0
MATERIAL
  5
19
102
{ACAD_XDICTIONARY
360
1A
102
}
102
{ACAD_REACTORS
330
10
102
}
330
10
100
AcDbMaterial
  1
ByBlock
 72
     0
 43
0.0208333333333333
 43
0.0
 43
0.0
 43
0.0
 43
0.0
 43
0.0208333333333333
 43
0.0
 43
0.0
 43
0.0
 43
0.0
 43
1.0
 43
0.0
 43
0.0
 43
0.0
 43
0.0
 43
1.0
 77
     0
 47
0.0208333333333333
 47
0.0
 47
0.0
 47
0.0
 47
0.0
 47
0.0208333333333333
 47
0.0
 47
0.0
 47
0.0
 47
0.0
 47
1.0
 47
0.0
 47
0.0
 47
0.0
 47
0.0
 47
1.0
171
     0
 49
0.0208333333333333
 49
0.0
 49
0.0
 49
0.0
 49
0.0
 49
0.0208333333333333
 49
0.0
 49
0.0
 49
0.0
 49
0.0
 49
1.0
 49
0.0
 49
0.0
 49
0.0
 49
0.0
 49
1.0
175
     0
142
0.0208333333333333
142
0.0
142
0.0
142
0.0
142
0.0
142
0.0208333333333333
142
0.0
142
0.0
142
0.0
142
0.0
142
1.0
142
0.0
142
0.0
142
0.0
142
0.0
142
1.0
179
     0
144
0.0208333333333333
144
0.0
144
0.0
144
0.0
144
0.0
144
0.0208333333333333
144
0.0
144
0.0
144
0.0
144
0.0
144
1.0
144
0.0
144
0.0
144
0.0
144
0.0
144
1.0
147
0.0208333333333333
147
0.0
147
0.0
147
0.0
147
0.0
147
0.0208333333333333
147
0.0
147
0.0
147
0.0
147
0.0
147
1.0
147
0.0
147
0.0
147
0.0
147
0.0
147
1.0
  0
MATERIAL
  5
11
102
{ACAD_XDICTIONARY
360
12
102
}
102
{ACAD_REACTORS
330
10
102
}
330
10
100
AcDbMaterial
  1
ByLayer
 72
     0
 43
0.0208333333333333
 43
0.0
 43
0.0
 43
0.0
 43
0.0
 43
0.0208333333333333
 43
0.0
 43
0.0
 43
0.0
 43
0.0
 43
1.0
 43
0.0
 43
0.0
 43
0.0
 43
0.0
 43
1.0
 77
     0
 47
0.0208333333333333
 47
0.0
 47
0.0
 47
0.0
 47
0.0
 47
0.0208333333333333
 47
0.0
 47
0.0
 47
0.0
 47
0.0
 47
1.0
 47
0.0
 47
0.0
 47
0.0
 47
0.0
 47
1.0
171
     0
 49
0.0208333333333333
 49
0.0
 49
0.0
 49
0.0
 49
0.0
 49
0.0208333333333333
 49
0.0
 49
0.0
 49
0.0
 49
0.0
 49
1.0
 49
0.0
 49
0.0
 49
0.0
 49
0.0
 49
1.0
175
     0
142
0.0208333333333333
142
0.0
142
0.0
142
0.0
142
0.0
142
0.0208333333333333
142
0.0
142
0.0
142
0.0
142
0.0
142
1.0
142
0.0
142
0.0
142
0.0
142
0.0
142
1.0
179
     0
144
0.0208333333333333
144
0.0
144
0.0
144
0.0
144
0.0
144
0.0208333333333333
144
0.0
144
0.0
144
0.0
144
0.0
144
1.0
144
0.0
144
0.0
144
0.0
144
0.0
144
1.0
147
0.0208333333333333
147
0.0
147
0.0
147
0.0
147
0.0
147
0.0208333333333333
147
0.0
147
0.0
147
0.0
147
0.0
147
1.0
147
0.0
147
0.0
147
0.0
147
0.0
147
1.0
  0
MATERIAL
  5
21
102
{ACAD_XDICTIONARY
360
22
102
}
102
{ACAD_REACTORS
330
10
102
}
330
10
100
AcDbMaterial
  1
Global
 72
     0
 43
0.0208333333333333
 43
0.0
 43
0.0
 43
0.0
 43
0.0
 43
0.0208333333333333
 43
0.0
 43
0.0
 43
0.0
 43
0.0
 43
1.0
 43
0.0
 43
0.0
 43
0.0
 43
0.0
 43
1.0
 77
     0
 47
0.0208333333333333
 47
0.0
 47
0.0
 47
0.0
 47
0.0
 47
0.0208333333333333
 47
0.0
 47
0.0
 47
0.0
 47
0.0
 47
1.0
 47
0.0
 47
0.0
 47
0.0
 47
0.0
 47
1.0
171
     0
 49
0.0208333333333333
 49
0.0
 49
0.0
 49
0.0
 49
0.0
 49
0.0208333333333333
 49
0.0
 49
0.0
 49
0.0
 49
0.0
 49
1.0
 49
0.0
 49
0.0
 49
0.0
 49
0.0
 49
1.0
175
     0
142
0.0208333333333333
142
0.0
142
0.0
142
0.0
142
0.0
142
0.0208333333333333
142
0.0
142
0.0
142
0.0
142
0.0
142
1.0
142
0.0
142
0.0
142
0.0
142
0.0
142
1.0
179
     0
144
0.0208333333333333
144
0.0
144
0.0
144
0.0
144
0.0
144
0.0208333333333333
144
0.0
144
0.0
144
0.0
144
0.0
144
1.0
144
0.0
144
0.0
144
0.0
144
0.0
144
1.0
147
0.0208333333333333
147
0.0
147
0.0
147
0.0
147
0.0
147
0.0208333333333333
147
0.0
147
0.0
147
0.0
147
0.0
147
1.0
147
0.0
147
0.0
147
0.0
147
0.0
147
1.0
  0
MATERIAL
  5
24C
102
{ACAD_XDICTIONARY
360
24D
102
}
102
{ACAD_REACTORS
330
10
102
}
330
10
100
AcDbMaterial
  1
RevitMaterialDefinition25
 70
     1
 90
-1031765888
 71
     1
 91
-1031765888
 73
     1
 44
0.078125
 76
     1
 45
0.078125
 77
     0
175
     0
145
0.0
  0
MATERIAL
  5
24F
102
{ACAD_XDICTIONARY
360
250
102
}
102
{ACAD_REACTORS
330
10
102
}
330
10
100
AcDbMaterial
  1
RevitMaterialDefinition26
 70
     1
 90
-1034394254
 71
     1
 91
-1034394254
 73
     1
 44
0.078125
 76
     1
 45
0.078125
 77
     0
175
     0
145
0.0
  0
MATERIAL
  5
258
102
{ACAD_XDICTIONARY
360
259
102
}
102
{ACAD_REACTORS
330
10
102
}
330
10
100
AcDbMaterial
  1
RevitMaterialDefinition27
 70
     1
 90
-1040154432
 71
     1
 91
-1040154432
 73
     1
 76
     1
 45
0.5
 77
     0
140
0.25
175
     0
145
0.0
  0
MATERIAL
  5
255
102
{ACAD_XDICTIONARY
360
256
102
}
102
{ACAD_REACTORS
330
10
102
}
330
10
100
AcDbMaterial
  1
RevitMaterialDefinition63218
 70
     1
 90
-1023936521
 71
     1
 91
-1023936521
 73
     1
 44
1.0
 76
     1
 77
     0
175
     0
145
0.0
  0
MATERIAL
  5
252
102
{ACAD_XDICTIONARY
360
253
102
}
102
{ACAD_REACTORS
330
10
102
}
330
10
100
AcDbMaterial
  1
RevitMaterialDefinition756
 70
     1
 90
-1031831681
 71
     1
 91
-1031831681
 73
     1
 76
     1
 45
0.5
 77
     0
175
     0
145
0.0
  0
MLEADERSTYLE
  5
67
102
{ACAD_REACTORS
330
66
102
}
330
66
100
AcDbMLeaderStyle
179
     2
170
     2
171
     1
172
     0
 90
        2
 40
0.0
 41
0.0
173
     1
 91
-1056964608
340
5B
 92
       -2
290
     1
 42
0.09
291
     1
 43
0.36
  3
Standard
 44
0.18
300

342
55
174
     1
178
     6
175
     1
176
     0
 93
-1056964608
 45
0.18
292
     0
297
     0
 46
0.18
 94
-1056964608
 47
1.0
 49
1.0
140
1.0
293
     1
141
0.0
294
     1
177
     0
142
1.0
295
     1
296
     0
143
0.125
271
     0
272
     9
273
     9
298
     1
  0
MLINESTYLE
  5
60
102
{ACAD_REACTORS
330
5F
102
}
330
5F
100
AcDbMlineStyle
  2
STANDARD
 70
     0
  3

 62
   256
 51
90.0
 52
90.0
 71
     2
 49
0.5
 62
   256
  6
BYLAYER
 49
-0.5
 62
   256
  6
BYLAYER
  0
ACDBPLACEHOLDER
  5
F
102
{ACAD_REACTORS
330
E
102
}
330
E
  0
SCALE
  5
43
102
{ACAD_REACTORS
330
42
102
}
330
42
100
AcDbScale
 70
     0
300
1:1
140
1.0
141
1.0
290
     1
  0
SCALE
  5
44
102
{ACAD_REACTORS
330
42
102
}
330
42
100
AcDbScale
 70
     0
300
1/128" = 1'-0"
140
0.0078125
141
12.0
290
     0
  0
SCALE
  5
45
102
{ACAD_REACTORS
330
42
102
}
330
42
100
AcDbScale
 70
     0
300
1/64" = 1'-0"
140
0.015625
141
12.0
290
     0
  0
SCALE
  5
46
102
{ACAD_REACTORS
330
42
102
}
330
42
100
AcDbScale
 70
     0
300
1/32" = 1'-0"
140
0.03125
141
12.0
290
     0
  0
SCALE
  5
47
102
{ACAD_REACTORS
330
42
102
}
330
42
100
AcDbScale
 70
     0
300
1/16" = 1'-0"
140
0.0625
141
12.0
290
     0
  0
SCALE
  5
48
102
{ACAD_REACTORS
330
42
102
}
330
42
100
AcDbScale
 70
     0
300
3/32" = 1'-0"
140
0.09375
141
12.0
290
     0
  0
SCALE
  5
49
102
{ACAD_REACTORS
330
42
102
}
330
42
100
AcDbScale
 70
     0
300
1/8" = 1'-0"
140
0.125
141
12.0
290
     0
  0
SCALE
  5
4A
102
{ACAD_REACTORS
330
42
102
}
330
42
100
AcDbScale
 70
     0
300
3/16" = 1'-0"
140
0.1875
141
12.0
290
     0
  0
SCALE
  5
4B
102
{ACAD_REACTORS
330
42
102
}
330
42
100
AcDbScale
 70
     0
300
1/4" = 1'-0"
140
0.25
141
12.0
290
     0
  0
SCALE
  5
4C
102
{ACAD_REACTORS
330
42
102
}
330
42
100
AcDbScale
 70
     0
300
3/8" = 1'-0"
140
0.375
141
12.0
290
     0
  0
SCALE
  5
4D
102
{ACAD_REACTORS
330
42
102
}
330
42
100
AcDbScale
 70
     0
300
1/2" = 1'-0"
140
0.5
141
12.0
290
     0
  0
SCALE
  5
4E
102
{ACAD_REACTORS
330
42
102
}
330
42
100
AcDbScale
 70
     0
300
3/4" = 1'-0"
140
0.75
141
12.0
290
     0
  0
SCALE
  5
4F
102
{ACAD_REACTORS
330
42
102
}
330
42
100
AcDbScale
 70
     0
300
1" = 1'-0"
140
1.0
141
12.0
290
     0
  0
SCALE
  5
50
102
{ACAD_REACTORS
330
42
102
}
330
42
100
AcDbScale
 70
     0
300
1-1/2" = 1'-0"
140
1.5
141
12.0
290
     0
  0
SCALE
  5
51
102
{ACAD_REACTORS
330
42
102
}
330
42
100
AcDbScale
 70
     0
300
3" = 1'-0"
140
3.0
141
12.0
290
     0
  0
SCALE
  5
52
102
{ACAD_REACTORS
330
42
102
}
330
42
100
AcDbScale
 70
     0
300
6" = 1'-0"
140
6.0
141
12.0
290
     0
  0
SCALE
  5
53
102
{ACAD_REACTORS
330
42
102
}
330
42
100
AcDbScale
 70
     0
300
1'-0" = 1'-0"
140
12.0
141
12.0
290
     0
  0
ACDBSECTIONVIEWSTYLE
  5
69
102
{ACAD_XDICTIONARY
360
261
102
}
102
{ACAD_REACTORS
330
68
102
}
330
68
100
AcDbModelDocViewStyle
 70
     0
  3
Imperial24
290
     0
100
AcDbSectionViewStyle
 70
     0
 71
     0
 90
       78
 71
     1
340
55
 62
   256
 40
0.24
340
0
340
0
 62
   256
 40
0.24
300
I, O, Q, S, X, Z
 40
0.48
 90
        3
 40
0.18
 90
        1
 71
     2
340
5D
 90
       25
 62
   256
340
5D
 90
       50
 62
   256
 40
0.24
 40
0.0
 40
0.24
 71
     3
340
55
 62
   256
 40
0.24
 90
        1
 40
0.75
 90
        1
300
%<\AcVar ViewType \f "%tc1">% %<\AcVar ViewSectionStartId>%-%<\AcVar ViewSectionEndId>%\PSCALE %<\AcVar ViewScale \f "%sn">%
 71
     4
 62
   256
 62
   257
300
ANSI31
 40
1.0
 90
        0
290
     0
290
     0
 90
        6
 40
0.0
 40
1.570796326794896
 40
0.2617993877991494
 40
1.308996938995747
 40
-0.2617993877991494
 40
1.832595714594046
  0
TABLESTYLE
  5
65
102
{ACAD_XDICTIONARY
360
25F
102
}
102
{ACAD_REACTORS
330
64
102
}
330
64
100
AcDbTableStyle
280
     0
  3
Standard
 70
     0
 71
     0
 40
0.06
 41
0.06
280
     0
281
     0
  7
Standard
140
0.18
170
     2
 62
     0
 63
     7
283
     0
 90
      512
 91
        0
  1

274
    -2
284
     1
 64
     0
275
    -2
285
     1
 65
     0
276
    -2
286
     1
 66
     0
277
    -2
287
     1
 67
     0
278
    -2
288
     1
 68
     0
279
    -2
289
     1
 69
     0
  7
Standard
140
0.25
170
     5
 62
     0
 63
     7
283
     0
 90
      512
 91
        0
  1

274
    -2
284
     1
 64
     0
275
    -2
285
     1
 65
     0
276
    -2
286
     1
 66
     0
277
    -2
287
     1
 67
     0
278
    -2
288
     1
 68
     0
279
    -2
289
     1
 69
     0
  7
Standard
140
0.18
170
     5
 62
     0
 63
     7
283
     0
 90
      512
 91
        0
  1

274
    -2
284
     1
 64
     0
275
    -2
285
     1
 65
     0
276
    -2
286
     1
 66
     0
277
    -2
287
     1
 67
     0
278
    -2
288
     1
 68
     0
279
    -2
289
     1
 69
     0
  0
VISUALSTYLE
  5
2F
102
{ACAD_REACTORS
330
29
102
}
330
29
100
AcDbVisualStyle
  2
2dWireframe
 70
     4
177
     3
291
     0
 70
    58
 90
        0
176
     1
 90
        2
176
     1
 90
        0
176
     1
 90
        0
176
     1
 40
0.6
176
     1
 40
30.0
176
     1
 62
     7
420
 16777215
176
     1
 90
        1
176
     1
 90
        4
176
     1
 62
     7
176
     1
 62
   257
176
     1
 90
        1
176
     1
 90
        1
176
     1
 40
1.0
176
     1
 90
        0
176
     1
 62
   257
176
     1
 40
1.0
176
     1
 90
        1
176
     1
 90
        6
176
     1
 90
        2
176
     1
 62
     7
176
     1
 90
        5
176
     1
 90
        0
176
     1
 90
        0
176
     1
290
     0
176
     1
 90
        1
176
     1
 40
0.0
176
     1
 90
        0
176
     1
290
     1
176
     1
290
     1
176
     1
290
     0
176
     1
290
     0
176
     1
290
     0
176
     1
290
     0
176
     1
290
     0
176
     1
290
     0
176
     1
290
     0
176
     1
 90
       50
176
     1
 40
0.0
176
     1
 40
1.0
176
     1
 90
        0
176
     1
 62
    18
420
        0
176
     1
 90
       50
176
     1
 90
        3
176
     1
 62
     5
420
      255
176
     1
290
     0
176
     1
 90
       50
176
     1
 90
       50
176
     1
 90
       50
176
     1
290
     0
176
     1
 90
       50
176
     1
 62
   256
176
     0
 40
1.0
176
     0
 90
        2
176
     1
  1
strokes_ogs.tif
176
     1
290
     0
176
     1
 40
1.0
176
     1
 40
1.0
176
     1
  0
VISUALSTYLE
  5
2E
102
{ACAD_REACTORS
330
29
102
}
330
29
100
AcDbVisualStyle
  2
Basic
 70
     7
177
     3
291
     1
 70
    58
 90
        1
176
     1
 90
        0
176
     1
 90
        1
176
     1
 90
        0
176
     1
 40
0.6
176
     1
 40
30.0
176
     1
 62
     7
420
 16777215
176
     1
 90
        0
176
     1
 90
        4
176
     1
 62
     7
176
     1
 62
   257
176
     1
 90
        1
176
     1
 90
        1
176
     1
 40
1.0
176
     1
 90
        8
176
     1
 62
     7
176
     1
 40
1.0
176
     1
 90
        1
176
     1
 90
        6
176
     1
 90
        2
176
     1
 62
     7
176
     1
 90
        5
176
     1
 90
        0
176
     1
 90
        0
176
     1
290
     0
176
     1
 90
        1
176
     1
 40
0.0
176
     1
 90
        0
176
     1
290
     0
176
     1
290
     1
176
     1
290
     1
176
     1
290
     0
176
     1
290
     0
176
     1
290
     0
176
     1
290
     0
176
     1
290
     0
176
     1
290
     0
176
     1
 90
       50
176
     1
 40
0.0
176
     1
 40
1.0
176
     1
 90
        0
176
     1
 62
    18
420
        0
176
     1
 90
       50
176
     1
 90
        3
176
     1
 62
     5
420
      255
176
     1
290
     0
176
     1
 90
       50
176
     1
 90
       50
176
     1
 90
       50
176
     1
290
     0
176
     1
 90
       50
176
     1
 62
   256
176
     0
 40
1.0
176
     0
 90
        2
176
     1
  1
strokes_ogs.tif
176
     1
290
     0
176
     1
 40
1.0
176
     1
 40
1.0
176
     1
  0
VISUALSTYLE
  5
35
102
{ACAD_REACTORS
330
29
102
}
330
29
100
AcDbVisualStyle
  2
Brighten
 70
    12
177
     3
291
     1
 70
    58
 90
        2
176
     1
 90
        2
176
     1
 90
        0
176
     1
 90
        0
176
     1
 40
0.6
176
     1
 40
30.0
176
     1
 62
     7
420
 16777215
176
     1
 90
        1
176
     1
 90
        4
176
     1
 62
     7
176
     1
 62
   257
176
     1
 90
        1
176
     1
 90
        1
176
     1
 40
1.0
176
     1
 90
        8
176
     1
 62
     7
176
     1
 40
1.0
176
     1
 90
        1
176
     1
 90
        6
176
     1
 90
        2
176
     1
 62
     7
176
     1
 90
        5
176
     1
 90
        0
176
     1
 90
        0
176
     1
290
     0
176
     1
 90
        1
176
     1
 40
50.0
176
     1
 90
        0
176
     1
290
     0
176
     1
290
     1
176
     1
290
     1
176
     1
290
     0
176
     1
290
     0
176
     1
290
     0
176
     1
290
     0
176
     1
290
     0
176
     1
290
     0
176
     1
 90
       50
176
     1
 40
0.0
176
     1
 40
1.0
176
     1
 90
        0
176
     1
 62
    18
420
        0
176
     1
 90
       50
176
     1
 90
        3
176
     1
 62
     5
420
      255
176
     1
290
     0
176
     1
 90
       50
176
     1
 90
       50
176
     1
 90
       50
176
     1
290
     0
176
     1
 90
       50
176
     1
 62
   256
176
     0
 40
1.0
176
     0
 90
        2
176
     1
  1
strokes_ogs.tif
176
     1
290
     0
176
     1
 40
1.0
176
     1
 40
1.0
176
     1
  0
VISUALSTYLE
  5
39
102
{ACAD_REACTORS
330
29
102
}
330
29
100
AcDbVisualStyle
  2
ColorChange
 70
    16
177
     3
291
     1
 70
    58
 90
        2
176
     1
 90
        2
176
     1
 90
        3
176
     1
 90
        0
176
     1
 40
0.6
176
     1
 40
30.0
176
     1
 62
     8
420
  8421504
176
     1
 90
        1
176
     1
 90
        4
176
     1
 62
     7
176
     1
 62
   257
176
     1
 90
        1
176
     1
 90
        1
176
     1
 40
1.0
176
     1
 90
        8
176
     1
 62
     8
420
  8421504
176
     1
 40
1.0
176
     1
 90
        1
176
     1
 90
        6
176
     1
 90
        2
176
     1
 62
     7
176
     1
 90
        5
176
     1
 90
        0
176
     1
 90
        0
176
     1
290
     0
176
     1
 90
        1
176
     1
 40
0.0
176
     1
 90
        0
176
     1
290
     0
176
     1
290
     1
176
     1
290
     1
176
     1
290
     0
176
     1
290
     0
176
     1
290
     0
176
     1
290
     0
176
     1
290
     0
176
     1
290
     0
176
     1
 90
       50
176
     1
 40
0.0
176
     1
 40
1.0
176
     1
 90
        0
176
     1
 62
    18
420
        0
176
     1
 90
       50
176
     1
 90
        3
176
     1
 62
     5
420
      255
176
     1
290
     0
176
     1
 90
       50
176
     1
 90
       50
176
     1
 90
       50
176
     1
290
     0
176
     1
 90
       50
176
     1
 62
   256
176
     0
 40
1.0
176
     0
 90
        2
176
     1
  1
strokes_ogs.tif
176
     1
290
     0
176
     1
 40
1.0
176
     1
 40
1.0
176
     1
  0
VISUALSTYLE
  5
32
102
{ACAD_REACTORS
330
29
102
}
330
29
100
AcDbVisualStyle
  2
Conceptual
 70
     9
177
     3
291
     0
 70
    58
 90
        3
176
     1
 90
        2
176
     1
 90
        0
176
     1
 90
        0
176
     1
 40
0.6
176
     1
 40
30.0
176
     1
 62
     7
420
 16777215
176
     1
 90
        2
176
     1
 90
        2
176
     1
 62
     7
176
     1
 62
   257
176
     1
 90
        1
176
     1
 90
        1
176
     1
 40
179.0
176
     1
 90
        8
176
     1
 62
     7
176
     1
 40
1.0
176
     1
 90
        1
176
     1
 90
        6
176
     1
 90
        2
176
     1
 62
     7
176
     1
 90
        3
176
     1
 90
        0
176
     1
 90
        0
176
     1
290
     0
176
     1
 90
        1
176
     1
 40
0.0
176
     1
 90
        0
176
     1
290
     0
176
     1
290
     1
176
     1
290
     1
176
     1
290
     0
176
     1
290
     0
176
     1
290
     0
176
     1
290
     0
176
     1
290
     0
176
     1
290
     0
176
     1
 90
       50
176
     1
 40
0.0
176
     1
 40
1.0
176
     1
 90
        0
176
     1
 62
    18
420
        0
176
     1
 90
       50
176
     1
 90
        3
176
     1
 62
     5
420
      255
176
     1
290
     0
176
     1
 90
       50
176
     1
 90
       50
176
     1
 90
       50
176
     1
290
     0
176
     1
 90
       50
176
     1
 62
   256
176
     0
 40
1.0
176
     0
 90
        2
176
     1
  1
strokes_ogs.tif
176
     1
290
     0
176
     1
 40
1.0
176
     1
 40
1.0
176
     1
  0
VISUALSTYLE
  5
34
102
{ACAD_REACTORS
330
29
102
}
330
29
100
AcDbVisualStyle
  2
Dim
 70
    11
177
     3
291
     1
 70
    58
 90
        2
176
     1
 90
        2
176
     1
 90
        0
176
     1
 90
        0
176
     1
 40
0.6
176
     1
 40
30.0
176
     1
 62
     7
420
 16777215
176
     1
 90
        1
176
     1
 90
        4
176
     1
 62
     7
176
     1
 62
   257
176
     1
 90
        1
176
     1
 90
        1
176
     1
 40
1.0
176
     1
 90
        8
176
     1
 62
     7
176
     1
 40
1.0
176
     1
 90
        1
176
     1
 90
        6
176
     1
 90
        2
176
     1
 62
     7
176
     1
 90
        5
176
     1
 90
        0
176
     1
 90
        0
176
     1
290
     0
176
     1
 90
        1
176
     1
 40
-50.0
176
     1
 90
        0
176
     1
290
     0
176
     1
290
     1
176
     1
290
     1
176
     1
290
     0
176
     1
290
     0
176
     1
290
     0
176
     1
290
     0
176
     1
290
     0
176
     1
290
     0
176
     1
 90
       50
176
     1
 40
0.0
176
     1
 40
1.0
176
     1
 90
        0
176
     1
 62
    18
420
        0
176
     1
 90
       50
176
     1
 90
        3
176
     1
 62
     5
420
      255
176
     1
290
     0
176
     1
 90
       50
176
     1
 90
       50
176
     1
 90
       50
176
     1
290
     0
176
     1
 90
       50
176
     1
 62
   256
176
     0
 40
1.0
176
     0
 90
        2
176
     1
  1
strokes_ogs.tif
176
     1
290
     0
176
     1
 40
1.0
176
     1
 40
1.0
176
     1
  0
VISUALSTYLE
  5
41
102
{ACAD_REACTORS
330
29
102
}
330
29
100
AcDbVisualStyle
  2
EdgeColorOff
 70
    22
177
     3
291
     1
 70
    58
 90
        2
176
     0
 90
        2
176
     0
 90
        0
176
     0
 90
        0
176
     0
 40
0.6
176
     0
 40
30.0
176
     0
 62
     7
420
 16777215
176
     0
 90
        1
176
     0
 90
        4
176
     0
 62
     7
176
     0
 62
   257
176
     0
 90
        1
176
     0
 90
        1
176
     0
 40
1.0
176
     0
 90
        8
176
     2
 62
     7
176
     0
 40
1.0
176
     0
 90
        1
176
     0
 90
        6
176
     0
 90
        2
176
     0
 62
     7
176
     0
 90
        5
176
     0
 90
        0
176
     0
 90
        0
176
     0
290
     0
176
     0
 90
        1
176
     0
 40
0.0
176
     0
 90
        0
176
     0
290
     0
176
     0
290
     1
176
     0
290
     1
176
     0
290
     0
176
     0
290
     0
176
     0
290
     0
176
     0
290
     0
176
     0
290
     0
176
     0
290
     0
176
     0
 90
       50
176
     0
 40
0.0
176
     0
 40
1.0
176
     0
 90
        0
176
     0
 62
    18
420
        0
176
     0
 90
       50
176
     0
 90
        3
176
     0
 62
     5
420
      255
176
     0
290
     0
176
     0
 90
       50
176
     0
 90
       50
176
     0
 90
       50
176
     0
290
     0
176
     0
 90
       50
176
     0
 62
   256
176
     0
 40
1.0
176
     0
 90
        2
176
     0
  1
strokes_ogs.tif
176
     0
290
     0
176
     0
 40
1.0
176
     0
 40
1.0
176
     0
  0
VISUALSTYLE
  5
38
102
{ACAD_REACTORS
330
29
102
}
330
29
100
AcDbVisualStyle
  2
Facepattern
 70
    15
177
     3
291
     1
 70
    58
 90
        2
176
     1
 90
        2
176
     1
 90
        0
176
     1
 90
        0
176
     1
 40
0.6
176
     1
 40
30.0
176
     1
 62
     7
420
 16777215
176
     1
 90
        1
176
     1
 90
        4
176
     1
 62
     7
176
     1
 62
   257
176
     1
 90
        1
176
     1
 90
        1
176
     1
 40
1.0
176
     1
 90
        8
176
     1
 62
     7
176
     1
 40
1.0
176
     1
 90
        1
176
     1
 90
        6
176
     1
 90
        2
176
     1
 62
     7
176
     1
 90
        5
176
     1
 90
        0
176
     1
 90
        0
176
     1
290
     0
176
     1
 90
        1
176
     1
 40
0.0
176
     1
 90
        0
176
     1
290
     0
176
     1
290
     1
176
     1
290
     1
176
     1
290
     0
176
     1
290
     0
176
     1
290
     0
176
     1
290
     0
176
     1
290
     0
176
     1
290
     0
176
     1
 90
       50
176
     1
 40
0.0
176
     1
 40
1.0
176
     1
 90
        0
176
     1
 62
    18
420
        0
176
     1
 90
       50
176
     1
 90
        3
176
     1
 62
     5
420
      255
176
     1
290
     0
176
     1
 90
       50
176
     1
 90
       50
176
     1
 90
       50
176
     1
290
     0
176
     1
 90
       50
176
     1
 62
   256
176
     0
 40
1.0
176
     0
 90
        2
176
     1
  1
strokes_ogs.tif
176
     1
290
     0
176
     1
 40
1.0
176
     1
 40
1.0
176
     1
  0
VISUALSTYLE
  5
2A
102
{ACAD_REACTORS
330
29
102
}
330
29
100
AcDbVisualStyle
  2
Flat
 70
     0
177
     3
291
     1
 70
    58
 90
        2
176
     1
 90
        1
176
     1
 90
        1
176
     1
 90
        2
176
     1
 40
0.6
176
     1
 40
30.0
176
     1
 62
     7
420
 16777215
176
     1
 90
        0
176
     1
 90
        0
176
     1
 62
     7
176
     1
 62
   257
176
     1
 90
        1
176
     1
 90
        1
176
     1
 40
1.0
176
     1
 90
        8
176
     1
 62
     7
176
     1
 40
1.0
176
     1
 90
        1
176
     1
 90
        6
176
     1
 90
        2
176
     1
 62
     7
176
     1
 90
        5
176
     1
 90
        0
176
     1
 90
        0
176
     1
290
     0
176
     1
 90
       13
176
     1
 40
0.0
176
     1
 90
        0
176
     1
290
     0
176
     1
290
     1
176
     1
290
     1
176
     1
290
     0
176
     1
290
     0
176
     1
290
     0
176
     1
290
     0
176
     1
290
     0
176
     1
290
     0
176
     1
 90
       50
176
     1
 40
0.0
176
     1
 40
1.0
176
     1
 90
        0
176
     1
 62
    18
420
        0
176
     1
 90
       50
176
     1
 90
        3
176
     1
 62
     5
420
      255
176
     1
290
     0
176
     1
 90
       50
176
     1
 90
       50
176
     1
 90
       50
176
     1
290
     0
176
     1
 90
       50
176
     1
 62
   256
176
     0
 40
1.0
176
     0
 90
        2
176
     1
  1
strokes_ogs.tif
176
     1
290
     0
176
     1
 40
1.0
176
     1
 40
1.0
176
     1
  0
VISUALSTYLE
  5
2B
102
{ACAD_REACTORS
330
29
102
}
330
29
100
AcDbVisualStyle
  2
FlatWithEdges
 70
     1
177
     3
291
     1
 70
    58
 90
        2
176
     1
 90
        1
176
     1
 90
        1
176
     1
 90
        2
176
     1
 40
0.6
176
     1
 40
30.0
176
     1
 62
     7
420
 16777215
176
     1
 90
        1
176
     1
 90
        0
176
     1
 62
     7
176
     1
 62
   257
176
     1
 90
        1
176
     1
 90
        1
176
     1
 40
1.0
176
     1
 90
        0
176
     1
 62
   257
176
     1
 40
1.0
176
     1
 90
        1
176
     1
 90
        6
176
     1
 90
        2
176
     1
 62
     7
176
     1
 90
        5
176
     1
 90
        0
176
     1
 90
        0
176
     1
290
     0
176
     1
 90
       13
176
     1
 40
0.0
176
     1
 90
        0
176
     1
290
     0
176
     1
290
     1
176
     1
290
     1
176
     1
290
     0
176
     1
290
     0
176
     1
290
     0
176
     1
290
     0
176
     1
290
     0
176
     1
290
     0
176
     1
 90
       50
176
     1
 40
0.0
176
     1
 40
1.0
176
     1
 90
        0
176
     1
 62
    18
420
        0
176
     1
 90
       50
176
     1
 90
        3
176
     1
 62
     5
420
      255
176
     1
290
     0
176
     1
 90
       50
176
     1
 90
       50
176
     1
 90
       50
176
     1
290
     0
176
     1
 90
       50
176
     1
 62
   256
176
     0
 40
1.0
176
     0
 90
        2
176
     1
  1
strokes_ogs.tif
176
     1
290
     0
176
     1
 40
1.0
176
     1
 40
1.0
176
     1
  0
VISUALSTYLE
  5
2C
102
{ACAD_REACTORS
330
29
102
}
330
29
100
AcDbVisualStyle
  2
Gouraud
 70
     2
177
     3
291
     1
 70
    58
 90
        2
176
     1
 90
        2
176
     1
 90
        1
176
     1
 90
        2
176
     1
 40
0.6
176
     1
 40
30.0
176
     1
 62
     7
420
 16777215
176
     1
 90
        0
176
     1
 90
        0
176
     1
 62
     7
176
     1
 62
   257
176
     1
 90
        1
176
     1
 90
        1
176
     1
 40
1.0
176
     1
 90
        0
176
     1
 62
     7
176
     1
 40
1.0
176
     1
 90
        1
176
     1
 90
        6
176
     1
 90
        2
176
     1
 62
     7
176
     1
 90
        5
176
     1
 90
        0
176
     1
 90
        0
176
     1
290
     0
176
     1
 90
       13
176
     1
 40
0.0
176
     1
 90
        0
176
     1
290
     0
176
     1
290
     1
176
     1
290
     1
176
     1
290
     0
176
     1
290
     0
176
     1
290
     0
176
     1
290
     0
176
     1
290
     0
176
     1
290
     0
176
     1
 90
       50
176
     1
 40
0.0
176
     1
 40
1.0
176
     1
 90
        0
176
     1
 62
    18
420
        0
176
     1
 90
       50
176
     1
 90
        3
176
     1
 62
     5
420
      255
176
     1
290
     0
176
     1
 90
       50
176
     1
 90
       50
176
     1
 90
       50
176
     1
290
     0
176
     1
 90
       50
176
     1
 62
   256
176
     0
 40
1.0
176
     0
 90
        2
176
     1
  1
strokes_ogs.tif
176
     1
290
     0
176
     1
 40
1.0
176
     1
 40
1.0
176
     1
  0
VISUALSTYLE
  5
2D
102
{ACAD_REACTORS
330
29
102
}
330
29
100
AcDbVisualStyle
  2
GouraudWithEdges
 70
     3
177
     3
291
     1
 70
    58
 90
        2
176
     1
 90
        2
176
     1
 90
        1
176
     1
 90
        2
176
     1
 40
0.6
176
     1
 40
30.0
176
     1
 62
     7
420
 16777215
176
     1
 90
        1
176
     1
 90
        0
176
     1
 62
     7
176
     1
 62
   257
176
     1
 90
        1
176
     1
 90
        1
176
     1
 40
1.0
176
     1
 90
        0
176
     1
 62
   257
176
     1
 40
1.0
176
     1
 90
        1
176
     1
 90
        6
176
     1
 90
        2
176
     1
 62
     7
176
     1
 90
        5
176
     1
 90
        0
176
     1
 90
        0
176
     1
290
     0
176
     1
 90
       13
176
     1
 40
0.0
176
     1
 90
        0
176
     1
290
     0
176
     1
290
     1
176
     1
290
     1
176
     1
290
     0
176
     1
290
     0
176
     1
290
     0
176
     1
290
     0
176
     1
290
     0
176
     1
290
     0
176
     1
 90
       50
176
     1
 40
0.0
176
     1
 40
1.0
176
     1
 90
        0
176
     1
 62
    18
420
        0
176
     1
 90
       50
176
     1
 90
        3
176
     1
 62
     5
420
      255
176
     1
290
     0
176
     1
 90
       50
176
     1
 90
       50
176
     1
 90
       50
176
     1
290
     0
176
     1
 90
       50
176
     1
 62
   256
176
     0
 40
1.0
176
     0
 90
        2
176
     1
  1
strokes_ogs.tif
176
     1
290
     0
176
     1
 40
1.0
176
     1
 40
1.0
176
     1
  0
VISUALSTYLE
  5
31
102
{ACAD_REACTORS
330
29
102
}
330
29
100
AcDbVisualStyle
  2
Hidden
 70
     6
177
     3
291
     0
 70
    58
 90
        1
176
     1
 90
        2
176
     1
 90
        2
176
     1
 90
        0
176
     1
 40
0.6
176
     1
 40
30.0
176
     1
 62
     7
420
 16777215
176
     1
 90
        2
176
     1
 90
        2
176
     1
 62
     7
176
     1
 62
   257
176
     1
 90
        2
176
     1
 90
        1
176
     1
 40
40.0
176
     1
 90
        0
176
     1
 62
   257
176
     1
 40
1.0
176
     1
 90
        1
176
     1
 90
        6
176
     1
 90
        2
176
     1
 62
     7
176
     1
 90
        3
176
     1
 90
        0
176
     1
 90
        0
176
     1
290
     0
176
     1
 90
        1
176
     1
 40
0.0
176
     1
 90
        0
176
     1
290
     0
176
     1
290
     1
176
     1
290
     1
176
     1
290
     0
176
     1
290
     0
176
     1
290
     0
176
     1
290
     0
176
     1
290
     0
176
     1
290
     0
176
     1
 90
       50
176
     1
 40
0.0
176
     1
 40
1.0
176
     1
 90
        0
176
     1
 62
    18
420
        0
176
     1
 90
       50
176
     1
 90
        3
176
     1
 62
     5
420
      255
176
     1
290
     0
176
     1
 90
       50
176
     1
 90
       50
176
     1
 90
       50
176
     1
290
     0
176
     1
 90
       50
176
     1
 62
   256
176
     0
 40
1.0
176
     0
 90
        2
176
     1
  1
strokes_ogs.tif
176
     1
290
     0
176
     1
 40
1.0
176
     1
 40
1.0
176
     1
  0
VISUALSTYLE
  5
3F
102
{ACAD_REACTORS
330
29
102
}
330
29
100
AcDbVisualStyle
  2
JitterOff
 70
    20
177
     3
291
     1
 70
    58
 90
        2
176
     0
 90
        2
176
     0
 90
        0
176
     0
 90
        0
176
     0
 40
0.6
176
     0
 40
30.0
176
     0
 62
     7
420
 16777215
176
     0
 90
        1
176
     0
 90
        4
176
     0
 62
     7
176
     0
 62
   257
176
     0
 90
        1
176
     0
 90
        1
176
     0
 40
1.0
176
     0
 90
       10
176
     2
 62
     7
176
     0
 40
1.0
176
     0
 90
        1
176
     0
 90
        6
176
     0
 90
        2
176
     0
 62
     7
176
     0
 90
        5
176
     0
 90
        0
176
     0
 90
        0
176
     0
290
     0
176
     0
 90
        1
176
     0
 40
0.0
176
     0
 90
        0
176
     0
290
     0
176
     0
290
     1
176
     0
290
     1
176
     0
290
     0
176
     0
290
     0
176
     0
290
     0
176
     0
290
     0
176
     0
290
     0
176
     0
290
     0
176
     0
 90
       50
176
     0
 40
0.0
176
     0
 40
1.0
176
     0
 90
        0
176
     0
 62
    18
420
        0
176
     0
 90
       50
176
     0
 90
        3
176
     0
 62
     5
420
      255
176
     0
290
     0
176
     0
 90
       50
176
     0
 90
       50
176
     0
 90
       50
176
     0
290
     0
176
     0
 90
       50
176
     0
 62
   256
176
     0
 40
1.0
176
     0
 90
        2
176
     0
  1
strokes_ogs.tif
176
     0
290
     0
176
     0
 40
1.0
176
     0
 40
1.0
176
     0
  0
VISUALSTYLE
  5
37
102
{ACAD_REACTORS
330
29
102
}
330
29
100
AcDbVisualStyle
  2
Linepattern
 70
    14
177
     3
291
     1
 70
    58
 90
        2
176
     1
 90
        2
176
     1
 90
        0
176
     1
 90
        0
176
     1
 40
0.6
176
     1
 40
30.0
176
     1
 62
     7
420
 16777215
176
     1
 90
        1
176
     1
 90
        4
176
     1
 62
     7
176
     1
 62
   257
176
     1
 90
        7
176
     1
 90
        7
176
     1
 40
1.0
176
     1
 90
        8
176
     1
 62
     7
176
     1
 40
1.0
176
     1
 90
        1
176
     1
 90
        6
176
     1
 90
        2
176
     1
 62
     7
176
     1
 90
        5
176
     1
 90
        0
176
     1
 90
        0
176
     1
290
     0
176
     1
 90
        1
176
     1
 40
0.0
176
     1
 90
        0
176
     1
290
     0
176
     1
290
     1
176
     1
290
     1
176
     1
290
     0
176
     1
290
     0
176
     1
290
     0
176
     1
290
     0
176
     1
290
     0
176
     1
290
     0
176
     1
 90
       50
176
     1
 40
0.0
176
     1
 40
1.0
176
     1
 90
        0
176
     1
 62
    18
420
        0
176
     1
 90
       50
176
     1
 90
        3
176
     1
 62
     5
420
      255
176
     1
290
     0
176
     1
 90
       50
176
     1
 90
       50
176
     1
 90
       50
176
     1
290
     0
176
     1
 90
       50
176
     1
 62
   256
176
     0
 40
1.0
176
     0
 90
        2
176
     1
  1
strokes_ogs.tif
176
     1
290
     0
176
     1
 40
1.0
176
     1
 40
1.0
176
     1
  0
VISUALSTYLE
  5
40
102
{ACAD_REACTORS
330
29
102
}
330
29
100
AcDbVisualStyle
  2
OverhangOff
 70
    21
177
     3
291
     1
 70
    58
 90
        2
176
     0
 90
        2
176
     0
 90
        0
176
     0
 90
        0
176
     0
 40
0.6
176
     0
 40
30.0
176
     0
 62
     7
420
 16777215
176
     0
 90
        1
176
     0
 90
        4
176
     0
 62
     7
176
     0
 62
   257
176
     0
 90
        1
176
     0
 90
        1
176
     0
 40
1.0
176
     0
 90
        9
176
     2
 62
     7
176
     0
 40
1.0
176
     0
 90
        1
176
     0
 90
        6
176
     0
 90
        2
176
     0
 62
     7
176
     0
 90
        5
176
     0
 90
        0
176
     0
 90
        0
176
     0
290
     0
176
     0
 90
        1
176
     0
 40
0.0
176
     0
 90
        0
176
     0
290
     0
176
     0
290
     1
176
     0
290
     1
176
     0
290
     0
176
     0
290
     0
176
     0
290
     0
176
     0
290
     0
176
     0
290
     0
176
     0
290
     0
176
     0
 90
       50
176
     0
 40
0.0
176
     0
 40
1.0
176
     0
 90
        0
176
     0
 62
    18
420
        0
176
     0
 90
       50
176
     0
 90
        3
176
     0
 62
     5
420
      255
176
     0
290
     0
176
     0
 90
       50
176
     0
 90
       50
176
     0
 90
       50
176
     0
290
     0
176
     0
 90
       50
176
     0
 62
   256
176
     0
 40
1.0
176
     0
 90
        2
176
     0
  1
strokes_ogs.tif
176
     0
290
     0
176
     0
 40
1.0
176
     0
 40
1.0
176
     0
  0
VISUALSTYLE
  5
33
102
{ACAD_REACTORS
330
29
102
}
330
29
100
AcDbVisualStyle
  2
Realistic
 70
     8
177
     3
291
     0
 70
    58
 90
        2
176
     1
 90
        3
176
     1
 90
        0
176
     1
 90
        2
176
     1
 40
0.6
176
     1
 40
30.0
176
     1
 62
     7
420
 16777215
176
     1
 90
        0
176
     1
 90
        0
176
     1
 62
     7
176
     1
 62
   257
176
     1
 90
        1
176
     1
 90
        1
176
     1
 40
1.0
176
     1
 90
        8
176
     1
 62
   257
176
     1
 40
1.0
176
     1
 90
        1
176
     1
 90
        6
176
     1
 90
        2
176
     1
 62
     7
176
     1
 90
        3
176
     1
 90
        0
176
     1
 90
        0
176
     1
290
     0
176
     1
 90
       13
176
     1
 40
0.0
176
     1
 90
        0
176
     1
290
     0
176
     1
290
     1
176
     1
290
     1
176
     1
290
     0
176
     1
290
     0
176
     1
290
     0
176
     1
290
     0
176
     1
290
     0
176
     1
290
     0
176
     1
 90
       50
176
     1
 40
0.0
176
     1
 40
1.0
176
     1
 90
        0
176
     1
 62
    18
420
        0
176
     1
 90
       50
176
     1
 90
        3
176
     1
 62
     5
420
      255
176
     1
290
     0
176
     1
 90
       50
176
     1
 90
       50
176
     1
 90
       50
176
     1
290
     0
176
     1
 90
       50
176
     1
 62
   256
176
     0
 40
1.0
176
     0
 90
        2
176
     1
  1
strokes_ogs.tif
176
     1
290
     0
176
     1
 40
1.0
176
     1
 40
1.0
176
     1
  0
VISUALSTYLE
  5
3E
102
{ACAD_REACTORS
330
29
102
}
330
29
100
AcDbVisualStyle
  2
Shaded
 70
    27
177
     3
291
     0
 70
    58
 90
        2
176
     1
 90
        2
176
     1
 90
        1
176
     1
 90
        2
176
     1
 40
0.6
176
     1
 40
30.0
176
     1
 62
     7
420
 16777215
176
     1
 90
        0
176
     1
 90
        4
176
     1
 62
     7
176
     1
 62
   257
176
     1
 90
        1
176
     1
 90
        1
176
     1
 40
1.0
176
     1
 90
        8
176
     1
 62
   257
176
     1
 40
1.0
176
     1
 90
        1
176
     1
 90
        6
176
     1
 90
        2
176
     1
 62
     8
420
  7895160
176
     1
 90
        3
176
     1
 90
        0
176
     1
 90
        0
176
     1
290
     0
176
     1
 90
        5
176
     1
 40
0.0
176
     1
 90
        0
176
     1
290
     0
176
     1
290
     1
176
     1
290
     1
176
     1
290
     0
176
     1
290
     0
176
     1
290
     0
176
     1
290
     0
176
     1
290
     0
176
     1
290
     0
176
     1
 90
       50
176
     1
 40
0.0
176
     1
 40
1.0
176
     1
 90
        0
176
     1
 62
    18
420
        0
176
     1
 90
       50
176
     1
 90
        3
176
     1
 62
     5
420
      255
176
     1
290
     0
176
     1
 90
       50
176
     1
 90
       50
176
     1
 90
       50
176
     1
290
     0
176
     1
 90
       50
176
     1
 62
   256
176
     0
 40
1.0
176
     0
 90
        2
176
     1
  1
strokes_ogs.tif
176
     1
290
     0
176
     1
 40
1.0
176
     1
 40
1.0
176
     1
  0
VISUALSTYLE
  5
3D
102
{ACAD_REACTORS
330
29
102
}
330
29
100
AcDbVisualStyle
  2
Shaded with edges
 70
    26
177
     3
291
     0
 70
    58
 90
        2
176
     1
 90
        2
176
     1
 90
        1
176
     1
 90
        2
176
     1
 40
0.6
176
     1
 40
30.0
176
     1
 62
     7
420
 16777215
176
     1
 90
        1
176
     1
 90
       10
176
     1
 62
     7
176
     1
 62
   257
176
     1
 90
        2
176
     1
 90
        1
176
     1
 40
1.0
176
     1
 90
        8
176
     1
 62
   257
176
     1
 40
1.0
176
     1
 90
        1
176
     1
 90
        6
176
     1
 90
        2
176
     1
 62
     7
176
     1
 90
        3
176
     1
 90
        0
176
     1
 90
        0
176
     1
290
     0
176
     1
 90
        5
176
     1
 40
0.0
176
     1
 90
        0
176
     1
290
     0
176
     1
290
     1
176
     1
290
     1
176
     1
290
     0
176
     1
290
     0
176
     1
290
     0
176
     1
290
     0
176
     1
290
     0
176
     1
290
     0
176
     1
 90
       50
176
     1
 40
0.0
176
     1
 40
1.0
176
     1
 90
        0
176
     1
 62
    18
420
        0
176
     1
 90
       50
176
     1
 90
        3
176
     1
 62
     5
420
      255
176
     1
290
     0
176
     1
 90
       50
176
     1
 90
       50
176
     1
 90
       50
176
     1
290
     0
176
     1
 90
       50
176
     1
 62
   256
176
     0
 40
1.0
176
     0
 90
        2
176
     1
  1
strokes_ogs.tif
176
     1
290
     0
176
     1
 40
1.0
176
     1
 40
1.0
176
     1
  0
VISUALSTYLE
  5
3A
102
{ACAD_REACTORS
330
29
102
}
330
29
100
AcDbVisualStyle
  2
Shades of Gray
 70
    23
177
     3
291
     0
 70
    58
 90
        2
176
     1
 90
        2
176
     1
 90
        3
176
     1
 90
        0
176
     1
 40
0.6
176
     1
 40
30.0
176
     1
 62
     7
420
 16777215
176
     1
 90
        2
176
     1
 90
        2
176
     1
 62
     7
176
     1
 62
     7
176
     1
 90
        1
176
     1
 90
        1
176
     1
 40
40.0
176
     1
 90
        8
176
     1
 62
     7
176
     1
 40
1.0
176
     1
 90
        1
176
     1
 90
        6
176
     1
 90
        2
176
     1
 62
     7
176
     1
 90
        3
176
     1
 90
        0
176
     1
 90
        0
176
     1
290
     0
176
     1
 90
        1
176
     1
 40
0.0
176
     1
 90
        0
176
     1
290
     0
176
     1
290
     1
176
     1
290
     1
176
     1
290
     0
176
     1
290
     0
176
     1
290
     0
176
     1
290
     0
176
     1
290
     0
176
     1
290
     0
176
     1
 90
       50
176
     1
 40
0.0
176
     1
 40
1.0
176
     1
 90
        0
176
     1
 62
    18
420
        0
176
     1
 90
       50
176
     1
 90
        3
176
     1
 62
     5
420
      255
176
     1
290
     0
176
     1
 90
       50
176
     1
 90
       50
176
     1
 90
       50
176
     1
290
     0
176
     1
 90
       50
176
     1
 62
   256
176
     0
 40
1.0
176
     0
 90
        2
176
     1
  1
strokes_ogs.tif
176
     1
290
     0
176
     1
 40
1.0
176
     1
 40
1.0
176
     1
  0
VISUALSTYLE
  5
3B
102
{ACAD_REACTORS
330
29
102
}
330
29
100
AcDbVisualStyle
  2
Sketchy
 70
    24
177
     3
291
     0
 70
    58
 90
        1
176
     1
 90
        2
176
     1
 90
        2
176
     1
 90
        0
176
     1
 40
0.6
176
     1
 40
30.0
176
     1
 62
     7
420
 16777215
176
     1
 90
        2
176
     1
 90
        2
176
     1
 62
     7
176
     1
 62
     7
176
     1
 90
        1
176
     1
 90
        1
176
     1
 40
40.0
176
     1
 90
       11
176
     1
 62
     7
176
     1
 40
1.0
176
     1
 90
        1
176
     1
 90
        6
176
     1
 90
        2
176
     1
 62
     7
176
     1
 90
        6
176
     1
 90
        0
176
     1
 90
        0
176
     1
290
     0
176
     1
 90
        1
176
     1
 40
0.0
176
     1
 90
        0
176
     1
290
     0
176
     1
290
     1
176
     1
290
     1
176
     1
290
     0
176
     1
290
     0
176
     1
290
     0
176
     1
290
     0
176
     1
290
     0
176
     1
290
     0
176
     1
 90
       50
176
     1
 40
0.0
176
     1
 40
1.0
176
     1
 90
        0
176
     1
 62
    18
420
        0
176
     1
 90
       50
176
     1
 90
        3
176
     1
 62
     5
420
      255
176
     1
290
     0
176
     1
 90
       50
176
     1
 90
       50
176
     1
 90
       50
176
     1
290
     0
176
     1
 90
       50
176
     1
 62
   256
176
     0
 40
1.0
176
     0
 90
        2
176
     1
  1
strokes_ogs.tif
176
     1
290
     0
176
     1
 40
1.0
176
     1
 40
1.0
176
     1
  0
VISUALSTYLE
  5
36
102
{ACAD_REACTORS
330
29
102
}
330
29
100
AcDbVisualStyle
  2
Thicken
 70
    13
177
     3
291
     1
 70
    58
 90
        2
176
     1
 90
        2
176
     1
 90
        0
176
     1
 90
        0
176
     1
 40
0.6
176
     1
 40
30.0
176
     1
 62
     7
420
 16777215
176
     1
 90
        1
176
     1
 90
        4
176
     1
 62
     7
176
     1
 62
   257
176
     1
 90
        1
176
     1
 90
        1
176
     1
 40
1.0
176
     1
 90
       12
176
     1
 62
     7
176
     1
 40
1.0
176
     1
 90
        1
176
     1
 90
        6
176
     1
 90
        2
176
     1
 62
     7
176
     1
 90
        5
176
     1
 90
        0
176
     1
 90
        0
176
     1
290
     0
176
     1
 90
        1
176
     1
 40
0.0
176
     1
 90
        0
176
     1
290
     0
176
     1
290
     1
176
     1
290
     1
176
     1
290
     0
176
     1
290
     0
176
     1
290
     0
176
     1
290
     0
176
     1
290
     0
176
     1
290
     0
176
     1
 90
       50
176
     1
 40
0.0
176
     1
 40
1.0
176
     1
 90
        0
176
     1
 62
    18
420
        0
176
     1
 90
       50
176
     1
 90
        3
176
     1
 62
     5
420
      255
176
     1
290
     0
176
     1
 90
       50
176
     1
 90
       50
176
     1
 90
       50
176
     1
290
     0
176
     1
 90
       50
176
     1
 62
   256
176
     0
 40
1.0
176
     0
 90
        2
176
     1
  1
strokes_ogs.tif
176
     1
290
     0
176
     1
 40
1.0
176
     1
 40
1.0
176
     1
  0
VISUALSTYLE
  5
30
102
{ACAD_REACTORS
330
29
102
}
330
29
100
AcDbVisualStyle
  2
Wireframe
 70
     5
177
     3
291
     0
 70
    58
 90
        0
176
     1
 90
        2
176
     1
 90
        0
176
     1
 90
        0
176
     1
 40
0.6
176
     1
 40
30.0
176
     1
 62
     7
420
 16777215
176
     1
 90
        1
176
     1
 90
        4
176
     1
 62
     7
176
     1
 62
   257
176
     1
 90
        1
176
     1
 90
        1
176
     1
 40
1.0
176
     1
 90
        0
176
     1
 62
   257
176
     1
 40
1.0
176
     1
 90
        1
176
     1
 90
        6
176
     1
 90
        2
176
     1
 62
     7
176
     1
 90
        3
176
     1
 90
        0
176
     1
 90
        0
176
     1
290
     0
176
     1
 90
        1
176
     1
 40
0.0
176
     1
 90
        0
176
     1
290
     0
176
     1
290
     1
176
     1
290
     1
176
     1
290
     0
176
     1
290
     0
176
     1
290
     0
176
     1
290
     0
176
     1
290
     0
176
     1
290
     0
176
     1
 90
       50
176
     1
 40
0.0
176
     1
 40
1.0
176
     1
 90
        0
176
     1
 62
    18
420
        0
176
     1
 90
       50
176
     1
 90
        3
176
     1
 62
     5
420
      255
176
     1
290
     0
176
     1
 90
       50
176
     1
 90
       50
176
     1
 90
       50
176
     1
290
     0
176
     1
 90
       50
176
     1
 62
   256
176
     0
 40
1.0
176
     0
 90
        2
176
     1
  1
strokes_ogs.tif
176
     1
290
     0
176
     1
 40
1.0
176
     1
 40
1.0
176
     1
  0
VISUALSTYLE
  5
3C
102
{ACAD_REACTORS
330
29
102
}
330
29
100
AcDbVisualStyle
  2
X-Ray
 70
    25
177
     3
291
     0
 70
    58
 90
        2
176
     1
 90
        2
176
     1
 90
        1
176
     1
 90
        1
176
     1
 40
0.5
176
     1
 40
30.0
176
     1
 62
     7
420
 16777215
176
     1
 90
        1
176
     1
 90
        0
176
     1
 62
     7
176
     1
 62
   257
176
     1
 90
        1
176
     1
 90
        1
176
     1
 40
1.0
176
     1
 90
        8
176
     1
 62
     7
176
     1
 40
1.0
176
     1
 90
        1
176
     1
 90
        6
176
     1
 90
        2
176
     1
 62
     7
176
     1
 90
        3
176
     1
 90
        0
176
     1
 90
        0
176
     1
290
     0
176
     1
 90
       13
176
     1
 40
0.0
176
     1
 90
        0
176
     1
290
     0
176
     1
290
     1
176
     1
290
     1
176
     1
290
     0
176
     1
290
     0
176
     1
290
     0
176
     1
290
     0
176
     1
290
     0
176
     1
290
     0
176
     1
 90
       50
176
     1
 40
0.0
176
     1
 40
1.0
176
     1
 90
        0
176
     1
 62
    18
420
        0
176
     1
 90
       50
176
     1
 90
        3
176
     1
 62
     5
420
      255
176
     1
290
     0
176
     1
 90
       50
176
     1
 90
       50
176
     1
 90
       50
176
     1
290
     0
176
     1
 90
       50
176
     1
 62
   256
176
     0
 40
1.0
176
     0
 90
        2
176
     1
  1
strokes_ogs.tif
176
     1
290
     0
176
     1
 40
1.0
176
     1
 40
1.0
176
     1
  0
DICTIONARYVAR
  5
80
102
{ACAD_REACTORS
330
7B
102
}
330
7B
100
DictionaryVariables
280
     0
  1
1:1
  0
DICTIONARYVAR
  5
7D
102
{ACAD_REACTORS
330
7B
102
}
330
7B
100
DictionaryVariables
280
     0
  1
STANDARD
  0
DICTIONARYVAR
  5
7C
102
{ACAD_REACTORS
330
7B
102
}
330
7B
100
DictionaryVariables
280
     0
  1
STANDARD
  0
DICTIONARYVAR
  5
7E
102
{ACAD_REACTORS
330
7B
102
}
330
7B
100
DictionaryVariables
280
     0
  1
Imperial24
  0
DICTIONARYVAR
  5
7F
102
{ACAD_REACTORS
330
7B
102
}
330
7B
100
DictionaryVariables
280
     0
  1
Imperial24
  0
XRECORD
  5
25E
102
{ACAD_REACTORS
330
249
102
}
330
249
100
AcDbXrecord
280
     1
  1
BUILDING_ID
  1
kehikko_2
  1
FLOOR_ID
  1
139270
  0
XRECORD
  5
25C
102
{ACAD_REACTORS
330
249
102
}
330
249
100
AcDbXrecord
280
     1
  1
-2000011
  1
Walls
  1
-2000035
  1
Roofs
  1
-2000170
  1
Curtain Panels
  0
XRECORD
  5
24A
102
{ACAD_REACTORS
330
249
102
}
330
249
100
AcDbXrecord
280
     1
  1
55496308-6c4c-444b-a4f9-822073fd6513
  0
XRECORD
  5
25D
102
{ACAD_REACTORS
330
249
102
}
330
249
100
AcDbXrecord
280
     1
  1
-2001391
  1
Gutters
  0
XRECORD
  5
25B
102
{ACAD_REACTORS
330
249
102
}
330
249
100
AcDbXrecord
280
     1
  1
144430
  1
Basic Roof : Steel Truss - Insulation on Metal Deck- EPDM 2
  1
4719
  1
System Panel : Glazed
  1
482
  1
Basic Wall : Generic - 200mm : Generic - 200mm
  1
6619
  1
Gutter : Gutter
  0
DICTIONARY
  5
263
330
6B
100
AcDbDictionary
280
     1
281
     1
  3
ACAD_XREC_ROUNDTRIP
360
264
  0
DICTIONARY
  5
1A
330
19
100
AcDbDictionary
280
     1
281
     1
  3
BUMPTILE
360
1C
  3
DIFFUSETILE
360
1B
  3
OPACITYTILE
360
1F
  3
REFLECTIONTILE
360
1E
  3
REFRACTIONTILE
360
20
  3
SPECULARTILE
360
1D
  0
DICTIONARY
  5
12
330
11
100
AcDbDictionary
280
     1
281
     1
  3
BUMPTILE
360
14
  3
DIFFUSETILE
360
13
  3
OPACITYTILE
360
17
  3
REFLECTIONTILE
360
16
  3
REFRACTIONTILE
360
18
  3
SPECULARTILE
360
15
  0
DICTIONARY
  5
22
330
21
100
AcDbDictionary
280
     1
281
     1
  3
BUMPTILE
360
24
  3
DIFFUSETILE
360
23
  3
OPACITYTILE
360
27
  3
REFLECTIONTILE
360
26
  3
REFRACTIONTILE
360
28
  3
SPECULARTILE
360
25
  0
DICTIONARY
  5
24D
330
24C
100
AcDbDictionary
280
     1
281
     1
  3
VIZ XML Material Definition
360
24E
  0
DICTIONARY
  5
250
330
24F
100
AcDbDictionary
280
     1
281
     1
  3
VIZ XML Material Definition
360
251
  0
DICTIONARY
  5
259
330
258
100
AcDbDictionary
280
     1
281
     1
  3
VIZ XML Material Definition
360
25A
  0
DICTIONARY
  5
256
330
255
100
AcDbDictionary
280
     1
281
     1
  3
VIZ XML Material Definition
360
257
  0
DICTIONARY
  5
253
330
252
100
AcDbDictionary
280
     1
281
     1
  3
VIZ XML Material Definition
360
254
  0
DICTIONARY
  5
261
330
69
100
AcDbDictionary
280
     1
281
     1
  3
ACAD_XREC_ROUNDTRIP
360
262
  0
DICTIONARY
  5
25F
330
65
100
AcDbDictionary
280
     1
281
     1
  3
ACAD_ROUNDTRIP_2008_TABLESTYLE_CELLSTYLEMAP
360
260
  0
XRECORD
  5
264
102
{ACAD_REACTORS
330
263
102
}
330
263
100
AcDbXrecord
280
     1
102
DISPLAYNAME
  1
Imperial24
102
FLAGS
 90
        0
  0
XRECORD
  5
1C
102
{ACAD_REACTORS
330
1A
102
}
330
1A
100
AcDbXrecord
280
     1
270
     1
271
     1
  0
XRECORD
  5
1B
102
{ACAD_REACTORS
330
1A
102
}
330
1A
100
AcDbXrecord
280
     1
270
     1
271
     1
  0
XRECORD
  5
1F
102
{ACAD_REACTORS
330
1A
102
}
330
1A
100
AcDbXrecord
280
     1
270
     1
271
     1
  0
XRECORD
  5
1E
102
{ACAD_REACTORS
330
1A
102
}
330
1A
100
AcDbXrecord
280
     1
270
     1
271
     1
  0
XRECORD
  5
20
102
{ACAD_REACTORS
330
1A
102
}
330
1A
100
AcDbXrecord
280
     1
270
     1
271
     1
  0
XRECORD
  5
1D
102
{ACAD_REACTORS
330
1A
102
}
330
1A
100
AcDbXrecord
280
     1
270
     1
271
     1
  0
XRECORD
  5
14
102
{ACAD_REACTORS
330
12
102
}
330
12
100
AcDbXrecord
280
     1
270
     1
271
     1
  0
XRECORD
  5
13
102
{ACAD_REACTORS
330
12
102
}
330
12
100
AcDbXrecord
280
     1
270
     1
271
     1
  0
XRECORD
  5
17
102
{ACAD_REACTORS
330
12
102
}
330
12
100
AcDbXrecord
280
     1
270
     1
271
     1
  0
XRECORD
  5
16
102
{ACAD_REACTORS
330
12
102
}
330
12
100
AcDbXrecord
280
     1
270
     1
271
     1
  0
XRECORD
  5
18
102
{ACAD_REACTORS
330
12
102
}
330
12
100
AcDbXrecord
280
     1
270
     1
271
     1
  0
XRECORD
  5
15
102
{ACAD_REACTORS
330
12
102
}
330
12
100
AcDbXrecord
280
     1
270
     1
271
     1
  0
XRECORD
  5
24
102
{ACAD_REACTORS
330
22
102
}
330
22
100
AcDbXrecord
280
     1
270
     1
271
     1
  0
XRECORD
  5
23
102
{ACAD_REACTORS
330
22
102
}
330
22
100
AcDbXrecord
280
     1
270
     1
271
     1
  0
XRECORD
  5
27
102
{ACAD_REACTORS
330
22
102
}
330
22
100
AcDbXrecord
280
     1
270
     1
271
     1
  0
XRECORD
  5
26
102
{ACAD_REACTORS
330
22
102
}
330
22
100
AcDbXrecord
280
     1
270
     1
271
     1
  0
XRECORD
  5
28
102
{ACAD_REACTORS
330
22
102
}
330
22
100
AcDbXrecord
280
     1
270
     1
271
     1
  0
XRECORD
  5
25
102
{ACAD_REACTORS
330
22
102
}
330
22
100
AcDbXrecord
280
     1
270
     1
271
     1
  0
XRECORD
  5
24E
102
{ACAD_REACTORS
330
24D
102
}
330
24D
100
AcDbXrecord
280
     1
300
<Material id="RevitMaterialDefinition25" app="REVIT" Background="0" Backlight="1" Sample="0" Tiling="0">^J<LinearUnits unitType="foot" unitScale="1.0"/>^J<ArchitecturalMaterial name="Default Wall">^J<ArchTemplateParameters name="Default Wall" classid_A="2008
300
828122" classid_B="14503598">^J</ArchTemplateParameters>^J<ArchMatParameters>^J<ArchDiffuseColor>^J<RGBf r="0.5020" g="0.5020" b="0.5020"/>^J</ArchDiffuseColor>^J<ArchIndexOfRefraction>1.0781</ArchIndexOfRefraction>^J<ArchTransparency>0.0000</ArchTransparency>^J<
300
ArchLuminance>0.0000</ArchLuminance>^J</ArchMatParameters>^J</ArchitecturalMaterial>^J</Material>^J
  0
XRECORD
  5
251
102
{ACAD_REACTORS
330
250
102
}
330
250
100
AcDbXrecord
280
     1
300
<Material id="RevitMaterialDefinition26" app="REVIT" Background="0" Backlight="1" Sample="0" Tiling="0">^J<LinearUnits unitType="foot" unitScale="1.0"/>^J<ArchitecturalMaterial name="Default Roof">^J<ArchTemplateParameters name="Default Roof" classid_A="2008
300
828122" classid_B="14503598">^J</ArchTemplateParameters>^J<ArchMatParameters>^J<ArchDiffuseColor>^J<RGBf r="0.3451" g="0.3961" b="0.4471"/>^J</ArchDiffuseColor>^J<ArchIndexOfRefraction>1.0781</ArchIndexOfRefraction>^J<ArchTransparency>0.0000</ArchTransparency>^J<
300
ArchLuminance>0.0000</ArchLuminance>^J</ArchMatParameters>^J</ArchitecturalMaterial>^J</Material>^J
  0
XRECORD
  5
25A
102
{ACAD_REACTORS
330
259
102
}
330
259
100
AcDbXrecord
280
     1
300
<Material id="RevitMaterialDefinition27" app="REVIT" Background="0" Backlight="1" Sample="0" Tiling="0">^J<LinearUnits unitType="foot" unitScale="1.0"/>^J<ArchitecturalMaterial name="Glass">^J<ArchTemplateParameters name="Glass" classid_A="2008828122" classi
300
d_B="14503598">^J</ArchTemplateParameters>^J<ArchMatParameters>^J<ArchDiffuseColor>^J<RGBf r="0.0000" g="0.5020" b="0.7529"/>^J</ArchDiffuseColor>^J<ArchIndexOfRefraction>1.5000</ArchIndexOfRefraction>^J<ArchTransparency>0.7500</ArchTransparency>^J<ArchLuminance>
300
0.0000</ArchLuminance>^J</ArchMatParameters>^J</ArchitecturalMaterial>^J</Material>^J
  0
XRECORD
  5
257
102
{ACAD_REACTORS
330
256
102
}
330
256
100
AcDbXrecord
280
     1
300
<Material id="RevitMaterialDefinition63218" app="REVIT" Background="0" Backlight="1" Sample="0" Tiling="0">^J<LinearUnits unitType="foot" unitScale="1.0"/>^J<ArchitecturalMaterial name="Steel, 45-345">^J<ArchTemplateParameters name="Steel, 45-345" classid_A=
300
"2008828122" classid_B="14503598">^J</ArchTemplateParameters>^J<ArchMatParameters>^J<ArchDiffuseColor>^J<RGBf r="0.9686" g="0.9686" b="0.9686"/>^J</ArchDiffuseColor>^J<ArchIndexOfRefraction>2.0000</ArchIndexOfRefraction>^J<ArchTransparency>0.0000</ArchTransparen
300
cy>^J<ArchLuminance>0.0000</ArchLuminance>^J</ArchMatParameters>^J</ArchitecturalMaterial>^J</Material>^J
  0
XRECORD
  5
254
102
{ACAD_REACTORS
330
253
102
}
330
253
100
AcDbXrecord
280
     1
300
<Material id="RevitMaterialDefinition756" app="REVIT" Background="0" Backlight="1" Sample="0" Tiling="0">^J<LinearUnits unitType="foot" unitScale="1.0"/>^J<ArchitecturalMaterial name="Structure, Steel Bar Joist Layer">^J<ArchTemplateParameters name="Structur
300
e, Steel Bar Joist Layer" classid_A="2008828122" classid_B="14503598">^J</ArchTemplateParameters>^J<ArchMatParameters>^J<ArchDiffuseColor>^J<RGBf r="0.4980" g="0.4980" b="0.4980"/>^J</ArchDiffuseColor>^J<ArchIndexOfRefraction>1.5000</ArchIndexOfRefraction>^J<Arc
300
hTransparency>0.0000</ArchTransparency>^J<ArchLuminance>0.0000</ArchLuminance>^J</ArchMatParameters>^J</ArchitecturalMaterial>^J</Material>^J
  0
XRECORD
  5
262
102
{ACAD_REACTORS
330
261
102
}
330
261
100
AcDbXrecord
280
     1
102
DISPLAYNAME
  1
Imperial24
102
FLAGS
 90
        0
  0
CELLSTYLEMAP
  5
260
102
{ACAD_REACTORS
330
25F
102
}
330
25F
100
AcDbCellStyleMap
 90
        3
300
CELLSTYLE
  1
TABLEFORMAT_BEGIN
 90
        5
170
     1
 91
        0
 92
    32768
 62
   257
 93
        1
300
CONTENTFORMAT
  1
CONTENTFORMAT_BEGIN
 90
        0
 91
        0
 92
      512
 93
        0
300

 40
0.0
140
1.0
 94
        5
 62
     0
340
55
144
0.25
309
CONTENTFORMAT_END
171
     0
 94
        0
309
TABLEFORMAT_END
  1
CELLSTYLE_BEGIN
 90
        1
 91
        1
300
_TITLE
309
CELLSTYLE_END
300
CELLSTYLE
  1
TABLEFORMAT_BEGIN
 90
        5
170
     1
 91
        0
 92
        0
 62
   257
 93
        1
300
CONTENTFORMAT
  1
CONTENTFORMAT_BEGIN
 90
        0
 91
        0
 92
      512
 93
        0
300

 40
0.0
140
1.0
 94
        5
 62
     0
340
55
144
0.18
309
CONTENTFORMAT_END
171
     0
 94
        0
309
TABLEFORMAT_END
  1
CELLSTYLE_BEGIN
 90
        2
 91
        1
300
_HEADER
309
CELLSTYLE_END
300
CELLSTYLE
  1
TABLEFORMAT_BEGIN
 90
        5
170
     1
 91
        0
 92
        0
 62
   257
 93
        1
300
CONTENTFORMAT
  1
CONTENTFORMAT_BEGIN
 90
        0
 91
        0
 92
      512
 93
        0
300

 40
0.0
140
1.0
 94
        2
 62
     0
340
55
144
0.18
309
CONTENTFORMAT_END
171
     0
 94
        0
309
TABLEFORMAT_END
  1
CELLSTYLE_BEGIN
 90
        3
 91
        2
300
_DATA
309
CELLSTYLE_END
  0
ENDSEC
  0
EOF
