/* XPM */
static char * tappytux_xpm[] = {
"64 64 634 2",
"  	c None",
". 	c #5549EF",
"+ 	c #857DE7",
"@ 	c #9089DD",
"# 	c #C7C5D2",
"$ 	c #D4D2CB",
"% 	c #D3D2D8",
"& 	c #B4AFE9",
"* 	c #AAA4F7",
"= 	c #827AE5",
"- 	c #C3C2CE",
"; 	c #CAC9C6",
"> 	c #D1D1C7",
", 	c #DBDAD2",
"' 	c #E4E4DD",
") 	c #F0F0EA",
"! 	c #F6F6F2",
"~ 	c #FFFFFF",
"{ 	c #D4D2FB",
"] 	c #9892D5",
"^ 	c #C9C8C6",
"/ 	c #D1D0CA",
"( 	c #DDDCD5",
"_ 	c #EBEBE7",
": 	c #F7F7F6",
"< 	c #FDFDFD",
"[ 	c #FEFEFE",
"} 	c #8076F3",
"| 	c #847DD3",
"1 	c #C6C6C2",
"2 	c #DCDCD6",
"3 	c #EBEBE8",
"4 	c #F1F1EF",
"5 	c #FAFAF9",
"6 	c #7168D9",
"7 	c #B7B4C0",
"8 	c #DCDBD6",
"9 	c #EDEDEB",
"0 	c #EBEBEA",
"a 	c #474747",
"b 	c #565656",
"c 	c #959595",
"d 	c #1C1C1C",
"e 	c #F4F4F4",
"f 	c #A29EC5",
"g 	c #D5D4CF",
"h 	c #EEEEEC",
"i 	c #F8F8F8",
"j 	c #FCFCFC",
"k 	c #AAAAAA",
"l 	c #BEBEBE",
"m 	c #CECECE",
"n 	c #ACACAC",
"o 	c #857ED1",
"p 	c #C1C0C2",
"q 	c #E0E0DC",
"r 	c #F2F2F0",
"s 	c #7F77D7",
"t 	c #CACAC6",
"u 	c #E6E6E4",
"v 	c #FFFDFC",
"w 	c #FDEAE2",
"x 	c #8179D9",
"y 	c #CCCCC8",
"z 	c #EAEAE7",
"A 	c #FBFBFB",
"B 	c #FFFCFB",
"C 	c #FBD8C8",
"D 	c #F49262",
"E 	c #F06E2E",
"F 	c #FFFEFE",
"G 	c #9F9AD0",
"H 	c #FCE9E0",
"I 	c #F8BC9E",
"J 	c #F17A40",
"K 	c #EF6824",
"L 	c #F38B58",
"M 	c #F9C6AD",
"N 	c #A9A5CC",
"O 	c #CCCBC4",
"P 	c #E3DDD7",
"Q 	c #F38A57",
"R 	c #F6AA86",
"S 	c #FAD4C2",
"T 	c #FDEBE2",
"U 	c #F5F5F5",
"V 	c #E2E2E2",
"W 	c #938DD5",
"X 	c #D1D0C2",
"Y 	c #F1DED3",
"Z 	c #C6C6C6",
"` 	c #BCBCBC",
" .	c #A1A1A1",
"..	c #8C8C8C",
"+.	c #999999",
"@.	c #989898",
"#.	c #EEEEEE",
"$.	c #FEF7F7",
"%.	c #FEFBFB",
"&.	c #8179DA",
"*.	c #C4C0C6",
"=.	c #E8CEC8",
"-.	c #F7D1D1",
";.	c #F8DBDB",
">.	c #F9DDDD",
",.	c #F6CECE",
"'.	c #F4C7C7",
").	c #F2B6B6",
"!.	c #F09F9F",
"~.	c #EF9E9E",
"{.	c #EB9494",
"].	c #ED9292",
"^.	c #EC8E8E",
"/.	c #EA7676",
"(.	c #E55151",
"_.	c #E34141",
":.	c #E24646",
"<.	c #E97272",
"[.	c #6257E4",
"}.	c #C44E55",
"|.	c #D02A26",
"1.	c #D51A19",
"2.	c #D81B1B",
"3.	c #D91C1C",
"4.	c #D71A1A",
"5.	c #D61919",
"6.	c #D71818",
"7.	c #D71616",
"8.	c #D81717",
"9.	c #D81818",
"0.	c #DA1818",
"a.	c #DC1A1A",
"b.	c #DC1B1B",
"c.	c #DE1C1C",
"d.	c #BA274B",
"e.	c #D01B1A",
"f.	c #D22724",
"g.	c #DF1D1D",
"h.	c #E01E1E",
"i.	c #E21F1F",
"j.	c #E32020",
"k.	c #98489B",
"l.	c #D51C1B",
"m.	c #D82A27",
"n.	c #DD1B1B",
"o.	c #DB1A1A",
"p.	c #DA2626",
"q.	c #D53030",
"r.	c #D42B2B",
"s.	c #DC3535",
"t.	c #E22222",
"u.	c #E63838",
"v.	c #5549EE",
"w.	c #776EEA",
"x.	c #C6C3EC",
"y.	c #F0AEAE",
"z.	c #E04443",
"A.	c #DE3737",
"B.	c #DF3939",
"C.	c #DC2C2C",
"D.	c #DD2B2B",
"E.	c #E14141",
"F.	c #E46060",
"G.	c #E87F7F",
"H.	c #EC8D8D",
"I.	c #EE9C9C",
"J.	c #E67C7C",
"K.	c #D31E1E",
"L.	c #D21414",
"M.	c #DC4646",
"N.	c #EE8484",
"O.	c #F8CBCB",
"P.	c #7F76F2",
"Q.	c #7D74EF",
"R.	c #C0BEE2",
"S.	c #E7E7E0",
"T.	c #EAEAE2",
"U.	c #EDEDE7",
"V.	c #F3F1ED",
"W.	c #FAF4F3",
"X.	c #FEF8F8",
"Y.	c #FDF3F3",
"Z.	c #FDF0F0",
"`.	c #FCEEEE",
" +	c #E67070",
".+	c #D42626",
"++	c #D62F2F",
"@+	c #D42E2E",
"#+	c #E37F7F",
"$+	c #F7DDDD",
"%+	c #D4D1FB",
"&+	c #A49DEB",
"*+	c #E0E0D5",
"=+	c #D8D7C9",
"-+	c #D8D8CA",
";+	c #DBDBCE",
">+	c #E0DFD4",
",+	c #E8E8E0",
"'+	c #EEEEE8",
")+	c #FAFAF8",
"!+	c #F7C4C4",
"~+	c #E23F3F",
"{+	c #E68282",
"]+	c #DE2424",
"^+	c #E64242",
"/+	c #F8C6C6",
"(+	c #C4C1E5",
"_+	c #D6D6C7",
":+	c #CFCEBD",
"<+	c #D2D2C2",
"[+	c #D5D5C6",
"}+	c #D9D9CB",
"|+	c #DFDED3",
"1+	c #F0F0EB",
"2+	c #FDFDFC",
"3+	c #E44F4F",
"4+	c #DA1919",
"5+	c #E75656",
"6+	c #FAD5D5",
"7+	c #F9D9D9",
"8+	c #E95151",
"9+	c #FEFCFC",
"0+	c #564BED",
"a+	c #C0BDDE",
"b+	c #D2D2C1",
"c+	c #C9C8B5",
"d+	c #CACAB7",
"e+	c #D0CFBF",
"f+	c #D4D2C4",
"g+	c #D6D5C7",
"h+	c #DAD9CC",
"i+	c #DEDDD2",
"j+	c #E6E6DE",
"k+	c #F9F9F7",
"l+	c #DE2828",
"m+	c #E55757",
"n+	c #FCE6E6",
"o+	c #E52E2E",
"p+	c #FBE2E2",
"q+	c #584CEC",
"r+	c #C1BEDB",
"s+	c #CAC9B6",
"t+	c #C7C6B2",
"u+	c #CECDBC",
"v+	c #D2D2C3",
"w+	c #D6D6C8",
"x+	c #DADACE",
"y+	c #DEDED2",
"z+	c #E4E3DA",
"A+	c #F0F0EC",
"B+	c #F8F8F6",
"C+	c #FEF9F9",
"D+	c #F2A6A6",
"E+	c #E85757",
"F+	c #E34242",
"G+	c #DB1D1D",
"H+	c #E96161",
"I+	c #FFFDFD",
"J+	c #FDEDED",
"K+	c #E42828",
"L+	c #F7C0C0",
"M+	c #584CEB",
"N+	c #C1BEDA",
"O+	c #D4D3C4",
"P+	c #CBCAB8",
"Q+	c #C6C5B1",
"R+	c #D0D0C1",
"S+	c #D5D4C7",
"T+	c #D9D8CC",
"U+	c #DCDBD0",
"V+	c #E0E0D7",
"W+	c #EFEFEA",
"X+	c #F6F6F4",
"Y+	c #FCFCFB",
"Z+	c #F5BDBD",
"`+	c #DC2626",
" @	c #DD2929",
".@	c #DE2C2C",
"+@	c #E44B4B",
"@@	c #F7C7C7",
"#@	c #EC6B6B",
"$@	c #E94E4E",
"%@	c #EE7979",
"&@	c #F3A5A5",
"*@	c #837BDC",
"=@	c #D7D6C8",
"-@	c #CDCDBB",
";@	c #C9C8B4",
">@	c #C7C6B3",
",@	c #CECEBE",
"'@	c #D3D2C4",
")@	c #DAD9CE",
"!@	c #DEDDD4",
"~@	c #E2E2DA",
"{@	c #E8E7E0",
"]@	c #F2F2EF",
"^@	c #FEFEFD",
"/@	c #FADEDE",
"(@	c #F6C8C8",
"_@	c #F8D9D9",
":@	c #6359E0",
"<@	c #DDDDD1",
"[@	c #D3D2C2",
"}@	c #CDCCBA",
"|@	c #CBCBB9",
"1@	c #D2D1C3",
"2@	c #DBDAD0",
"3@	c #DEDED6",
"4@	c #E1E1D9",
"5@	c #E6E6DF",
"6@	c #EAEAE4",
"7@	c #A29ED8",
"8@	c #CFCEBE",
"9@	c #CCCAB8",
"0@	c #C8C8B6",
"a@	c #D6D6CA",
"b@	c #E1E0D9",
"c@	c #E6E5DF",
"d@	c #EBEAE5",
"e@	c #EFEFEC",
"f@	c #665CDE",
"g@	c #CECEBC",
"h@	c #C8C8B5",
"i@	c #C9C8B6",
"j@	c #D2D1C2",
"k@	c #DBDAD1",
"l@	c #E1E1DA",
"m@	c #E4E4DE",
"n@	c #E7E7E2",
"o@	c #EDEDE9",
"p@	c #F3F3F0",
"q@	c #A09CD4",
"r@	c #DCDCD0",
"s@	c #C8C7B4",
"t@	c #CAC9B8",
"u@	c #D2D2C5",
"v@	c #DCDBD3",
"w@	c #E2E1DB",
"x@	c #E4E4DF",
"y@	c #EAEAE6",
"z@	c #EFEEEB",
"A@	c #A8A3D2",
"B@	c #DADACD",
"C@	c #CBCBBB",
"D@	c #D5D4C9",
"E@	c #DEDDD6",
"F@	c #EAE9E6",
"G@	c #EDEDEA",
"H@	c #FAFAFA",
"I@	c #726AD2",
"J@	c #D8D8CB",
"K@	c #D1D0C0",
"L@	c #C7C6B4",
"M@	c #CBCBBC",
"N@	c #D6D5CB",
"O@	c #DEDED7",
"P@	c #E5E4DF",
"Q@	c #EFEFED",
"R@	c #F3F2F0",
"S@	c #F8F8F7",
"T@	c #F9F9F8",
"U@	c #7B73C9",
"V@	c #D9D8CB",
"W@	c #D0D0BF",
"X@	c #CACAB8",
"Y@	c #C8C7B5",
"Z@	c #CECDBF",
"`@	c #D8D8CF",
" #	c #E0E0DA",
".#	c #E4E4E0",
"+#	c #EAEAE8",
"@#	c #F0EFED",
"##	c #F5F5F4",
"$#	c #F6F6F6",
"%#	c #F7F7F7",
"&#	c #AAA6CE",
"*#	c #D6D5C6",
"=#	c #D4D2C3",
"-#	c #CFCFBE",
";#	c #C8C7B6",
">#	c #CDCDC0",
",#	c #DFDFDA",
"'#	c #E6E5E1",
")#	c #F1F1F0",
"!#	c #9791E4",
"~#	c #AAA6CA",
"{#	c #C8C7B7",
"]#	c #CFCEC2",
"^#	c #DAD9D2",
"/#	c #E0E0DB",
"(#	c #E6E5E2",
"_#	c #ECEBE9",
":#	c #F0F0EE",
"<#	c #A19BEE",
"[#	c #AAA7CA",
"}#	c #D2D1C1",
"|#	c #F0F0EF",
"1#	c #F2F2F2",
"2#	c #F9F9F9",
"3#	c #A59FF2",
"4#	c #D5D4C6",
"5#	c #D3D2C3",
"6#	c #C8C7B8",
"7#	c #CFCFC4",
"8#	c #DAD9D3",
"9#	c #E5E5E2",
"0#	c #EEEEED",
"a#	c #F3F3F2",
"b#	c #F3F3F3",
"c#	c #A49EF2",
"d#	c #908ACC",
"e#	c #D9D8CA",
"f#	c #C8C8B8",
"g#	c #D0D0C6",
"h#	c #DBDAD4",
"i#	c #E1E1DD",
"j#	c #EDEDEC",
"k#	c #F0F0F0",
"l#	c #7E74F1",
"m#	c #746BD0",
"n#	c #D9D9CC",
"o#	c #CDCCBB",
"p#	c #C9C8BA",
"q#	c #CECDC2",
"r#	c #D8D8D0",
"s#	c #E9E9E6",
"t#	c #ECECEA",
"u#	c #F1F1F1",
"v#	c #6E66D4",
"w#	c #D3D3C3",
"x#	c #C9C8B7",
"y#	c #C9C8B9",
"z#	c #CECEC2",
"A#	c #D3D2C9",
"B#	c #DBDBD5",
"C#	c #E4E4E2",
"D#	c #E9E8E7",
"E#	c #EFEFEE",
"F#	c #FBFBFA",
"G#	c #A8A4CF",
"H#	c #D4D4C4",
"I#	c #CAC8B9",
"J#	c #CCCCBE",
"K#	c #D1D0C6",
"L#	c #D9D9D2",
"M#	c #DFDFDB",
"N#	c #E3E3E0",
"O#	c #E8E8E6",
"P#	c #A39ED4",
"Q#	c #CBCABC",
"R#	c #D0D0C5",
"S#	c #D6D6CE",
"T#	c #E5E5E3",
"U#	c #E7E7E5",
"V#	c #EAEAEA",
"W#	c #ECECEC",
"X#	c #7067D4",
"Y#	c #CCCCBA",
"Z#	c #CACABA",
"`#	c #D2D2C9",
" $	c #D8D8D1",
".$	c #DDDCD8",
"+$	c #E0E0DD",
"@$	c #E9E9E8",
"#$	c #EAEAE9",
"$$	c #EBEBEB",
"%$	c #ECECEB",
"&$	c #E9E9E7",
"*$	c #F4F4F2",
"=$	c #A5A0C8",
"-$	c #D1D1C0",
";$	c #CBCBBE",
">$	c #D4D4CC",
",$	c #DAD9D4",
"'$	c #DDDDD8",
")$	c #E2E2E0",
"!$	c #E7E7E6",
"~$	c #E8E8E7",
"{$	c #F4F4F3",
"]$	c #E4E4E1",
"^$	c #ECECE9",
"/$	c #F4F3F2",
"($	c #7971CC",
"_$	c #C0BEC3",
":$	c #CBCABB",
"<$	c #CCCCC0",
"[$	c #DCDCD7",
"}$	c #DEDEDA",
"|$	c #E2E2DF",
"1$	c #E5E4E2",
"2$	c #E6E6E5",
"3$	c #F2F2F1",
"4$	c #F6F6F5",
"5$	c #E6E6E3",
"6$	c #E1E0DD",
"7$	c #E3E3DF",
"8$	c #E8E8E4",
"9$	c #F1F0EE",
"0$	c #D4D1FA",
"a$	c #938DC8",
"b$	c #CBCAB7",
"c$	c #CDCDC1",
"d$	c #D2D1C7",
"e$	c #D5D5CC",
"f$	c #D9D8D2",
"g$	c #DADAD4",
"h$	c #DFDFDC",
"i$	c #E3E3DE",
"j$	c #EBEAE8",
"k$	c #ABA7CA",
"l$	c #CAC9B7",
"m$	c #CECDC1",
"n$	c #D2D2C8",
"o$	c #D3D3C9",
"p$	c #DADAD5",
"q$	c #DBDBD6",
"r$	c #DCDBD7",
"s$	c #DDDDD9",
"t$	c #E1E1DE",
"u$	c #E1E1DF",
"v$	c #DDDDDA",
"w$	c #DEDDDA",
"x$	c #DCDCD8",
"y$	c #DBDAD6",
"z$	c #D8D8D2",
"A$	c #DADAD3",
"B$	c #DEDED8",
"C$	c #E7E6E2",
"D$	c #7168D3",
"E$	c #C0BEC4",
"F$	c #CECEC0",
"G$	c #CFCFC3",
"H$	c #D4D4CB",
"I$	c #D7D7D0",
"J$	c #DAD8D4",
"K$	c #DADAD6",
"L$	c #DADAD7",
"M$	c #DBDBD7",
"N$	c #DAD9D5",
"O$	c #D8D8D4",
"P$	c #D9D9D4",
"Q$	c #D6D6CF",
"R$	c #D6D6CD",
"S$	c #D7D7CE",
"T$	c #E6E5E0",
"U$	c #CDCAF4",
"V$	c #766ECE",
"W$	c #BFBDC7",
"X$	c #D0D0C0",
"Y$	c #CBCABA",
"Z$	c #CCCBBC",
"`$	c #D3D3CA",
" %	c #D7D6D0",
".%	c #D6D6D0",
"+%	c #D8D7D2",
"@%	c #D7D7D1",
"#%	c #D6D6D1",
"$%	c #D5D4CD",
"%%	c #D5D4CC",
"&%	c #D4D4CA",
"*%	c #D4D3CA",
"=%	c #D4D4C9",
"-%	c #E2E2DB",
";%	c #A7A4CE",
">%	c #776FCD",
",%	c #C3C0CA",
"'%	c #CBCAB9",
")%	c #CDCDBF",
"!%	c #D2D2CA",
"~%	c #D3D2CA",
"{%	c #D1D1C6",
"]%	c #D0D0C4",
"^%	c #D2D2C6",
"/%	c #DAD9D0",
"(%	c #E9E8E3",
"_%	c #F9F8F7",
":%	c #9A97C0",
"<%	c #756CCF",
"[%	c #938EC9",
"}%	c #D3D3C4",
"|%	c #CCCCBB",
"1%	c #CACABB",
"2%	c #CDCCBF",
"3%	c #CECEC1",
"4%	c #CFCFC2",
"5%	c #CFCEC3",
"6%	c #D0CFC4",
"7%	c #CFCEC1",
"8%	c #D1D0C3",
"9%	c #D6D6CB",
"0%	c #E3E3DC",
"a%	c #766FCE",
"b%	c #A7A5B2",
"c%	c #C4C4B7",
"d%	c #CDCDBC",
"e%	c #CCCCBC",
"f%	c #CCCBBA",
"g%	c #CCCBBB",
"h%	c #CCCCBD",
"i%	c #CCCBBD",
"j%	c #D0D0C2",
"k%	c #D5D4C8",
"l%	c #DDDDD3",
"m%	c #E9E9E3",
"n%	c #D2CFF8",
"o%	c #756DCF",
"p%	c #7B75BC",
"q%	c #A4A2AF",
"r%	c #D6D5C8",
"s%	c #D9D9CE",
"t%	c #DFDED4",
"u%	c #E9E8E2",
"v%	c #766ECF",
"w%	c #9894BC",
"x%	c #BCBCB0",
"y%	c #CECDC0",
"z%	c #D7D7C8",
"A%	c #D8D7CA",
"B%	c #DCDACE",
"C%	c #DCDCCF",
"D%	c #DFDFD4",
"E%	c #E2E2D9",
"F%	c #E7E7DF",
"G%	c #F5F5F2",
"H%	c #746CD0",
"I%	c #7870CC",
"J%	c #807ABE",
"K%	c #8581AA",
"L%	c #9C98BE",
"M%	c #C0C0B3",
"N%	c #E5E5DC",
"O%	c #E8E7DF",
"P%	c #AAA5E8",
"Q%	c #A8A2F1",
"                                                                                                                                ",
"                                                                                                                                ",
"                                                                                                                                ",
"                                                                                                                                ",
"                                                                                                                                ",
"                                                          . . . .                                                               ",
"                                                    . + @ # $ % & * . .                                                         ",
"                                                  = - ; > , ' ) ! ~ ~ { .                                                       ",
"                                                ] ^ / ( _ : < [ ~ ~ ~ ~ ~ }                                                     ",
"                                              | 1 2 3 4 5 < ~ ~ [ [ ~ ~ ~ ~ }                                                   ",
"                                            6 7 8 9 0 a b [ ~ ~ c d e ~ ~ ~ { .                                                 ",
"                                            f g h i j k l ~ ~ ~ m n < ~ ~ ~ ~ *                                                 ",
"                                          o p q r j ~ ~ ~ ~ ~ ~ ~ ~ ~ ~ ~ ~ ~ ~ .                                               ",
"                                          s t u : ~ ~ ~ v w ~ ~ ~ ~ ~ ~ ~ ~ ~ ~ .                                               ",
"                                          x y z A ~ B C D E F ~ ~ ~ ~ ~ ~ ~ ~ ~ *                                               ",
"                                          G t u H I J K L M B ~ ~ ~ ~ ~ ~ ~ ~ ~ *                                               ",
"                                          N O P Q R S T v ~ ~ ~ ~ U V ~ ~ ~ ~ ~ *                                               ",
"                                          W X Y F i Z ` `  ...+.c @.#.~ F $.%.~ *                                               ",
"                                          &.*.=.-.;.>.,.'.).!.~.{.].^./.(._.:.<..                                               ",
"                                          [.}.|.1.2.3.4.5.6.7.8.7.9.0.a.b.a.b.c..                                               ",
"                                          . d.e.f.a.g.g.h.h.h.h.h.h.i.j.j.j.j.j..                                               ",
"                                          . k.l.m.h.g.g.h.g.n.a.c.o.p.q.r.s.t.j.u.} .                                           ",
"                                      v.w.x.y.z.A.B.C.D.E.F.G.H.I.].J.K.L.M.F.N.O.~ { P..                                       ",
"                                    Q.R.S.T.U.V.W.X.Y.Z.%.~ ~ ~ ~ `. +.+++@+#+$+~ ~ ~ ~ %+}                                     ",
"                                . &+*+=+-+;+>+,+'+)+~ ~ ~ ~ ~ ~ !+~+a.B.{+]+^+/+~ ~ ~ ~ ~ ~ * .                                 ",
"                              v.(+_+:+:+<+[+}+|+,+1+2+~ ~ ~ ~ ~ 3+4+5+6+7+j.j.8+9+~ ~ ~ ~ ~ ~ { .                               ",
"                            0+a+b+c+d+e+f+g+h+i+j+'+k+~ ~ ~ F %.l+m+%.~ n+j.j.o+p+~ ~ ~ ~ ~ ~ ~ { .                             ",
"                          q+r+<+s+t+u+v+w+x+y+z+,+A+B+~ C+D+E+F+G+H+I+~ J+K+j.j.L+~ ~ ~ ~ ~ ~ ~ ~ { .                           ",
"                        M+N+O+P+Q+d+R+S+T+U+V+j+W+X+Y+~ Z+`+ @.@+@@@~ ~ C+#@$@%@&@~ ~ ~ ~ ~ ~ ~ ~ ~ { .                         ",
"                        *@=@-@;@>@,@'@)@!@~@{@'+]@k+^@~ /@(@_@`.F ~ ~ ~ ~ F ~ ~ ~ ~ ~ ~ ~ ~ ~ ~ ~ ~ ~ }                         ",
"                      :@<@[@}@>@|@1@2@3@4@5@6@A+B+j ~ ~ ~ ~ ~ ~ ~ ~ ~ ~ ~ ~ ~ ~ ~ ~ ~ ~ ~ ~ ~ ~ ~ ~ ~ ~ .                       ",
"                      7@-+8@9@0@,@a@!@b@c@d@e@X+)+< [ ~ ~ ~ ~ ~ ~ ~ ~ ~ ~ ~ ~ ~ ~ ~ ~ ~ ~ ~ ~ ~ ~ ~ ~ ~ *                       ",
"                    f@*+_+g@h@i@j@k@l@m@n@o@p@B+A j [ ~ ~ ~ ~ ~ ~ ~ ~ ~ ~ ~ ~ ~ ~ ~ ~ ~ ~ ~ ~ ~ ~ ~ ~ ~ ~ .                     ",
"                    q@r@O+:+s@t@u@v@w@x@y@z@X+5 A A [ [ ~ ~ ~ ~ ~ ~ ~ ~ ~ ~ ~ ~ ~ ~ ~ ~ ~ ~ ~ ~ ~ ~ ~ ~ ~ *                     ",
"                    A@B@g@}@s@C@D@E@m@F@G@4 X+5 H@j j [ ~ ~ ~ ~ ~ ~ ~ ~ ~ ~ ~ ~ ~ ~ ~ ~ ~ ~ ~ ~ ~ ~ ~ ~ ~ *                     ",
"                  I@J@O+K@P+L@M@N@O@P@z Q@R@S@i T@H@j [ ~ ~ ~ ~ ~ ~ ~ ~ ~ ~ ~ ~ ~ ~ ~ ~ ~ ~ ~ ~ ~ ~ ~ ~ ~ [ .                   ",
"                  U@V@[@W@X@Y@Z@`@ #.#+#@###S@$#%#H@j < ~ ~ ~ ~ ~ ~ ~ ~ ~ ~ ~ ~ ~ ~ ~ ~ ~ ~ ~ ~ ~ ~ ~ ~ ~ ~ .                   ",
"                  &#*#=#-#s+;#>#`@,#'#+#)###%#$#%#5 H@< [ ~ ~ ~ ~ ~ ~ ~ ~ ~ ~ ~ ~ ~ ~ ~ ~ ~ ~ ~ ~ ~ ~ ~ ~ ~ !#                  ",
"                  ~#=@<+:+i@{#]#^#/#(#_#:###e e $#i H@j ~ ~ ~ ~ ~ ~ ~ ~ ~ ~ ~ ~ ~ ~ ~ ~ ~ ~ ~ ~ ~ ~ ~ ~ ~ ~ <#                  ",
"                  [#_+}#g@i@{#]#^#/#(#+#|#e 1#e $#i 2#j < ~ ~ ~ ~ ~ ~ ~ ~ ~ ~ ~ ~ ~ ~ ~ ~ ~ ~ ~ ~ ~ ~ ~ ~ ~ 3#                  ",
"                  N 4#5#:+i@6#7#8#q 9#+#0#a#1#b#$#%#H@H@< [ ~ ~ ~ ~ ~ ~ ~ ~ ~ ~ ~ ~ ~ ~ ~ ~ ~ ~ ~ ~ ~ ~ ~ ~ c#                  ",
"                  d#e#}#g@i@f#g#h#i#9#+#j#k#k#1#e $#i H@j [ ~ ~ ~ ~ ~ ~ ~ ~ ~ ~ ~ ~ ~ ~ ~ ~ ~ ~ [ [ [ [ ~ ~ l#                  ",
"                  m#n#[@o#i@p#q#r#,#.#s#t#h k#u#e $#i 2#A j [ ~ ~ ~ ~ ~ ~ ~ ~ ~ ~ ~ ~ ~ ~ ~ ~ j j j j < [ ~ .                   ",
"                  v#*+w#}@x#y#z#A#B#i#C#D#t#j#E#1#U $#2#H@A 2+[ [ [ [ [ [ [ [ ~ ~ ~ ~ ~ ~ ~ F#i 2#H@A j < [ .                   ",
"                    G#H#K@t@I#J#K#L#M#N#u O#+#0 j#k#e %#i H@A j j j j < < ^@[ [ ~ ~ ~ ~ ~ A e b#U i H@A < *                     ",
"                    P#_+}@P+t@Q#R#S#B#q N#T#U#+#V#W##.1#$#2#H@H@A A j j < < [ [ [ [ [ ~ A )#h h r ##i A < *                     ",
"                    X#_+:+Y#X@Z#z#`# $.$+$N#T#U#@$#$#$$$%$#.u#e i H@A A A A H@A j j j e |#+#&$O#h *$i A [ .                     ",
"                      =$-$}@|@t@;$R#>$,$'$+$)$T#u !$O#~$#$%$#.k#{$##S@i i T@i 2#i e 0#&$O#]$.#O#^$/$i < *                       ",
"                      ($_$-#d+X@:$<$> S#,$[$}$+$|$C#1$2$&$#$t#j#E#)#3$e {$4$|#h O#5$9#|$6$q 7$8$9$S@j 0$.                       ",
"                        a$5#b$s+X@:$c$d$e$f$g$[$}$q +$|$N#9#!$+#t#j#h :#t#5$N#|$i#h$}$8 2  #i$j$*$H@[ }                         ",
"                          k$}@d+l$t@Q#m$n$o$S#f$p$q$r$r$s$}$h$h$+$t$u$+$}$v$w$x$y$g$z$A$h#B$C$9$T@[ *                           ",
"                          D$E$K@g@d+t@:$F$G$> H$S#S#I$z$J$p$p$K$K$L$M$K$N$O$P$z$Q$R$S#S$( T$:#A [ U$.                           ",
"                            V$W$O+X$e+t@Y$Z$>#7#> n$`$e$S# %.%+%@%+%+%#%Q$$%%%&%*%A#=%`@-%:#j $#;%.                             ",
"                              >%,%H#}#W@'%t@Z#Z$)%F$]#R#> `#!%>$>$>$>$~%n${%R#K#]%^%/%(%_%~ e :%.                               ",
"                                <%[%}%O+}#8@|%t@Z#Z#1%M@2%F$3%4%]#5%6%]#3%7%7%8%9%0%]@[ ~ 1#w..                                 ",
"                                    a%b%c%h+<+j@d%e%|%f%g%:$M@M@h%i%J#2%Z@j%k%l%m%*$~ ~ n%.                                     ",
"                                      o%p%q%4%V@w+=@5#4#<+j@X v+'@'@'@r%s%t%u%A+k+~ { } .                                       ",
"                                          v%>%w%x%y%T+}+z%A%-+B%C%t%D%E%F%A+G%< * . .                                           ",
"                                                H%I%J%K%L%M%s%>+N%O%'+P%Q%} . .                                                 ",
"                                                                                                                                ",
"                                                                                                                                ",
"                                                                                                                                ",
"                                                                                                                                ",
"                                                                                                                                "};
