/* XPM */
static char * cactus_icon_xpm[] = {
"16 16 128 2",
"  	c None",
". 	c #3FA34E",
"+ 	c #47B254",
"@ 	c #46AF52",
"# 	c #44AE50",
"$ 	c #49B755",
"% 	c #68C763",
"& 	c #7ED06E",
"* 	c #6BC763",
"= 	c #49B553",
"- 	c #41A94F",
"; 	c #83CE6D",
"> 	c #ECE692",
", 	c #E1DE87",
"' 	c #D7D67C",
") 	c #D8D977",
"! 	c #A0D16C",
"~ 	c #47B053",
"{ 	c #B7DF84",
"] 	c #DED98A",
"^ 	c #9D9B5F",
"/ 	c #919154",
"( 	c #BBBD67",
"_ 	c #BDD470",
": 	c #45AF52",
"< 	c #4CB758",
"[ 	c #D5E58F",
"} 	c #CFCA81",
"| 	c #949259",
"1 	c #89894F",
"2 	c #9FA057",
"3 	c #C6D571",
"4 	c #48B255",
"5 	c #55C560",
"6 	c #F1ED9A",
"7 	c #E7E290",
"8 	c #9C9A5E",
"9 	c #919053",
"0 	c #AAAC5D",
"a 	c #C5D572",
"b 	c #47AE54",
"c 	c #57C460",
"d 	c #D3E58F",
"e 	c #D7E690",
"f 	c #D0DD89",
"g 	c #C4D47F",
"h 	c #C3D77B",
"i 	c #A0D474",
"j 	c #3F9749",
"k 	c #53C35D",
"l 	c #64D072",
"m 	c #6FD27F",
"n 	c #7BDB8E",
"o 	c #77D589",
"p 	c #6ED47E",
"q 	c #5DC969",
"r 	c #419E4B",
"s 	c #47B054",
"t 	c #50B75D",
"u 	c #58BC68",
"v 	c #6ED07E",
"w 	c #59AA66",
"x 	c #50A15B",
"y 	c #489F51",
"z 	c #41A24C",
"A 	c #A4A14F",
"B 	c #B59243",
"C 	c #63904C",
"D 	c #50A25D",
"E 	c #51A45D",
"F 	c #499C53",
"G 	c #419649",
"H 	c #4EB255",
"I 	c #E3E7A3",
"J 	c #81C06F",
"K 	c #B38030",
"L 	c #AD731F",
"M 	c #79934F",
"N 	c #44964F",
"O 	c #59C264",
"P 	c #4BAC55",
"Q 	c #41A149",
"R 	c #62B95F",
"S 	c #D3D698",
"T 	c #DFE39C",
"U 	c #88C06F",
"V 	c #B27D2D",
"W 	c #A16B1E",
"X 	c #8A964C",
"Y 	c #47A952",
"Z 	c #54C55E",
"` 	c #52C85C",
" .	c #4DC155",
"..	c #6E986B",
"+.	c #918784",
"@.	c #DDE19C",
"#.	c #E2E6A2",
"$.	c #DDE29A",
"%.	c #88C06E",
"&.	c #84AB58",
"*.	c #8AB861",
"=.	c #70BC61",
"-.	c #7BAD5E",
";.	c #8FB765",
">.	c #93B968",
",.	c #8BA66E",
"'.	c #86807F",
").	c #ADAA85",
"!.	c #DDE19A",
"~.	c #E2E6A1",
"{.	c #E0E49E",
"].	c #D2DB93",
"^.	c #C3D188",
"/.	c #C2D084",
"(.	c #C2CE81",
"_.	c #CDD383",
":.	c #CFD484",
"<.	c #D1D687",
"[.	c #D3D88B",
"}.	c #D0D58F",
"|.	c #DBE097",
"1.	c #E4E8A4",
"2.	c #DFE39D",
"3.	c #DCE199",
"4.	c #DBDF96",
"5.	c #D9DE94",
"6.	c #DADF96",
"7.	c #E1E6A1",
"            . + @ #             ",
"          $ % & & * =           ",
"        - ; > , ' ) !           ",
"        ~ { ] ^ / ( _ :         ",
"        < [ } | 1 2 3 4         ",
"        5 6 7 8 9 0 a b         ",
"        c d e f g h i j         ",
"        k l m n o p q r         ",
"        s t u v w x y z         ",
"        A B C D E F G H         ",
"    I J K L M N O P Q R S I     ",
"  I T U V W X Y Z `  ...+.@.I   ",
"  #.$.%.&.*.=.-.;.>.,.'.).!.~.  ",
"    {.].^./.(._.:.<.[.}.|.{.1.  ",
"      ~.2.3.4.5.5.6.3.T 7.      ",
"              #.#.              "};
