/* XPM */
static char *trxxpmanifest[]={
"24 24 9 1",
". c None",
"# c #000000",
"c c #000080",
"a c #00ff00",
"e c #9d9da1",
"g c #e0dfe3",
"b c #ff0000",
"d c #ffff00",
"f c #ffffff",
"........................",
"........................",
"....##...##.####........",
".....##.##..#####.......",
"......###...##.##.......",
"......###...#####.......",
".....#####..####........",
".....##.##..##..........",
"....##...##.##..........",
"........................",
".####################...",
".#aaaaaaaaaaaa#b#c#d#e..",
".####################e..",
".#ffffffffffffffffff#e..",
".#ffffffffffffffffff#e..",
".#ffffffffffffffffff#e..",
".#ffffffffffffffffff#e..",
".#ffffggggggfggggggf#e..",
".#ffffgffff#fgffff#f#e..",
".#ffffg#####fg#####f#e..",
".#ffffffffffffffffff#e..",
".####################e..",
"..eeeeeeeeeeeeeeeeeeee..",
"........................"};
