<?xml version="1.0" encoding="UTF-8" standalone="no"?>
<!-- Generator: Adobe Illustrator 12.0.0, SVG Export Plug-In . SVG Version: 6.00 Build 51448)  -->
<svg
   xmlns:dc="http://purl.org/dc/elements/1.1/"
   xmlns:cc="http://web.resource.org/cc/"
   xmlns:rdf="http://www.w3.org/1999/02/22-rdf-syntax-ns#"
   xmlns:svg="http://www.w3.org/2000/svg"
   xmlns="http://www.w3.org/2000/svg"
   xmlns:sodipodi="http://sodipodi.sourceforge.net/DTD/sodipodi-0.dtd"
   xmlns:inkscape="http://www.inkscape.org/namespaces/inkscape"
   height="500"
   id="Layer_1"
   inkscape:version="0.44"
   sodipodi:docbase="D:\Projects\iconeditor\Images"
   sodipodi:docname="open.svg"
   sodipodi:version="0.32"
   space="preserve"
   style="overflow:visible;enable-background:new 0 0 135.704 113.099;"
   version="1.0"
   viewBox="0 0 135.704 113.099"
   width="500"
   inkscape:export-filename="D:\Projects\iconeditor\Images\open.png"
   inkscape:export-xdpi="3.5999999"
   inkscape:export-ydpi="3.5999999">
  <metadata
     id="metadata3">
    <rdf:RDF>
      <cc:Work
         rdf:about="">
        <dc:title>Cartella Dossier Directory</dc:title>
        <dc:description />
        <dc:subject>
          <rdf:Bag>
            <rdf:li>file</rdf:li>
          </rdf:Bag>
        </dc:subject>
        <dc:publisher>
          <cc:Agent
             rdf:about="http://www.openclipart.org/">
            <dc:title>Open Clip Art Library</dc:title>
          </cc:Agent>
        </dc:publisher>
        <dc:creator>
          <cc:Agent>
            <dc:title>Architetto Francesco Rollandin</dc:title>
          </cc:Agent>
        </dc:creator>
        <dc:rights>
          <cc:Agent>
            <dc:title>Architetto Francesco Rollandin</dc:title>
          </cc:Agent>
        </dc:rights>
        <dc:date />
        <dc:format>image/svg+xml</dc:format>
        <dc:type
           rdf:resource="http://purl.org/dc/dcmitype/StillImage" />
        <cc:license
           rdf:resource="http://web.resource.org/cc/PublicDomain" />
        <dc:language>en</dc:language>
      </cc:Work>
      <cc:License
         rdf:about="http://web.resource.org/cc/PublicDomain">
        <cc:permits
           rdf:resource="http://web.resource.org/cc/Reproduction" />
        <cc:permits
           rdf:resource="http://web.resource.org/cc/Distribution" />
        <cc:permits
           rdf:resource="http://web.resource.org/cc/DerivativeWorks" />
      </cc:License>
    </rdf:RDF>
  </metadata>
  <defs
     id="defs41" />
  <sodipodi:namedview
     bordercolor="#666666"
     borderopacity="1.0"
     id="base"
     inkscape:current-layer="g3"
     inkscape:cx="250"
     inkscape:cy="250"
     inkscape:pageopacity="0.0"
     inkscape:pageshadow="2"
     inkscape:window-height="815"
     inkscape:window-width="1152"
     inkscape:window-x="-4"
     inkscape:window-y="-4"
     inkscape:zoom="1.24"
     pagecolor="#ffffff"
     width="500px"
     height="500px" />
  <g
     id="g3">
    <path
       d="M 67.104027,18.549719 C 77.544686,19.058939 87.996799,18.923508 98.446045,18.798912 C 104.88341,18.72307 113.0456,17.641428 119.25196,19.763181 C 123.1684,21.103045 122.66155,29.144942 122.83242,32.199364 C 123.22854,39.321232 123.03764,46.453935 123.05673,53.580317 C 123.09013,65.955104 123.37746,78.338016 122.90399,90.708289 C 122.75223,94.639403 122.9355,99.14564 121.62588,102.93501 C 120.57876,105.95873 113.98964,106.05624 111.37803,106.34606 C 97.099202,107.93603 82.547382,107.60196 68.196963,107.59203 C 53.496233,107.58389 38.765913,107.92428 24.075682,107.32297 C 22.098848,107.24171 15.608038,107.80602 14.297466,105.88741 C 12.37886,103.08128 12.463813,98.381811 12.142136,95.196472 C 10.901246,82.902045 10.675975,70.498364 10.488889,58.156984 C 10.367663,50.153911 10.301799,42.150838 10.72752,34.151377 C 11.043471,28.223107 10.000168,12.971764 15.499221,8.6406789 C 17.653597,6.9450829 23.293921,7.516602 25.830109,7.4272167 C 32.874548,7.1744125 40.213936,6.7202669 47.242146,7.2674084 C 56.62614,8.0014445 57.72576,18.08835 67.104027,18.549719"
       id="path5"
       style="fill:#f4f4f4" />
    <linearGradient
       gradientTransform="matrix(20.0002,-189.5038,-189.5038,-20.0002,91344.95,-35826.25)"
       gradientUnits="userSpaceOnUse"
       id="XMLID_4_"
       x1="-237.854"
       x2="-236.063"
       y1="456.59521"
       y2="456.59521">
      <stop
         id="stop8"
         offset="0"
         style="stop-color:#FFFFFF" />
      <stop
         id="stop10"
         offset="1"
         style="stop-color:#000000" />
    </linearGradient>
    <path
       d="M 14.637522,7.2691432 C 11.800761,8.9255767 11.441605,13.026292 10.961449,15.356872 C 10.050115,19.772457 9.6688697,24.243886 9.4201497,28.699165 C 9.0465881,35.389489 9.1906346,42.085867 9.3990217,48.778208 C 9.6928767,58.174531 9.6458227,67.891108 12.019713,77.171036 C 12.513313,79.106682 12.724582,81.018778 15.817744,81.39622 C 22.852025,82.257403 30.317487,82.034034 37.42379,82.076421 C 52.709067,82.166576 68.01739,82.141008 83.302666,82.038071 C 92.564869,81.976173 101.90102,81.916294 111.11522,81.186979 C 114.5272,80.917858 121.839,80.863363 122.83965,77.859984 C 125.64184,69.457385 124.39439,59.824908 124.3627,51.263529 C 124.33293,43.650799 124.48081,36.011155 124.20713,28.403135 C 124.07366,24.767323 124.26092,20.51321 122.27403,17.077894 C 121.01026,14.887931 116.69847,14.914842 113.85113,14.791047 C 98.3229,14.121611 82.702471,15.076985 67.149268,14.514525 C 61.560255,14.312014 59.732783,12.13416 56.602168,9.3689523 C 52.406567,5.666534 45.742007,6.0379194 39.624822,6.0581031 C 33.529726,6.0776145 27.409664,6.0789598 21.326091,6.3763375 C 19.462126,6.4685114 16.198986,6.3588446 14.637522,7.2691432 M 14.815179,79.981321 C 12.943531,79.289011 13.106785,73.583666 12.950255,72.41434 C 12.115743,66.095403 11.686483,59.750228 11.365741,53.410435 C 10.682958,39.930215 9.4710457,25.639946 13.474585,12.346764 C 14.605832,8.5891771 15.644888,7.8612076 20.961172,7.5974695 C 28.131817,7.240213 35.350478,7.26107 42.533607,7.2550142 C 49.615903,7.2482864 53.212269,8.1525294 57.293592,12.125413 C 62.467749,17.161994 73.309665,15.949607 81.0613,15.987957 C 91.168577,16.038418 101.29411,15.693943 111.39851,15.920005 C 119.51792,16.100988 121.27147,16.81752 122.02722,22.547756 C 123.0682,30.464593 122.49298,38.489077 122.59956,46.434845 C 122.71672,55.321858 122.8723,64.267406 122.01283,73.138273 C 121.84765,74.833056 122.29996,78.013382 119.58707,78.81805 C 114.65972,80.282736 108.38985,80.214781 103.14655,80.42335 C 88.942574,80.992539 74.698276,80.851924 60.477024,80.87749 C 52.152086,80.892292 43.827147,80.925259 35.502206,80.863363 C 29.89783,80.818957 19.99798,81.892746 14.815179,79.981321"
       id="path12"
       style="fill:black;fill-opacity:1;stroke:black;stroke-width:4.3631649;stroke-linejoin:round;stroke-miterlimit:4;stroke-dasharray:none;stroke-opacity:1" />
    <path
       d="M 52.818517,9.8857422 C 54.583445,11.028781 59.526004,15.93951 60.092042,17.522249 C 59.426734,15.661425 52.615201,13.682326 50.984863,13.15234 C 44.561823,11.062187 38.63896,11.741148 32.049833,11.576826 C 28.172529,11.480217 24.076636,11.051352 20.511462,12.841752 C 15.071591,15.573847 14.699323,21.00373 12.992622,25.927101 C 13.910882,23.28168 13.514752,10.41302 16.186483,9.6916243 C 22.722157,7.9256029 30.619944,8.6307481 37.318843,8.6415819 C 41.442417,8.6479023 49.118754,7.4931263 52.818517,9.8857422"
       id="path14"
       style="fill:white" />
    <radialGradient
       cx="17.7124"
       cy="54.591301"
       gradientUnits="userSpaceOnUse"
       id="XMLID_5_"
       r="117.15"
       gradientTransform="matrix(0.954531,0,0,0.902873,3.076957,6.367244)">
      <stop
         id="stop17"
         offset="0"
         style="stop-color:#8BBBFF" />
      <stop
         id="stop19"
         offset="1"
         style="stop-color:#0D56AC" />
    </radialGradient>
    <path
       d="M 129.92456,39.786212 C 133.92597,43.228869 130.39039,55.182015 129.71266,59.318982 C 128.57392,66.25576 127.48669,73.19254 126.44149,80.142861 C 125.4526,86.722102 126.19522,103.94985 117.44981,105.71044 C 104.13793,108.38927 89.605183,107.57488 76.07948,107.59745 C 61.461793,107.62002 46.83838,107.75364 32.222602,107.55322 C 26.945955,107.48098 21.509903,107.58389 16.276208,106.84896 C 13.259892,106.42371 12.830352,103.32506 12.121136,100.88638 C 8.8299132,89.562543 7.218665,77.662667 5.7248241,66.025529 C 4.9306547,59.848969 0.55222134,41.308457 8.4586007,38.326265 C 13.068985,36.588233 19.074895,37.238301 23.908638,37.12725 C 44.689731,36.650532 65.500414,36.65324 86.285324,36.967441 C 95.967128,37.114608 105.65848,37.314143 115.32599,37.862188 C 118.75274,38.0545 127.10775,37.365607 129.92456,39.786212"
       id="path21"
       style="fill:url(#XMLID_5_)" />
    <radialGradient
       cx="-251.42821"
       cy="451.17819"
       gradientTransform="matrix(100.4235,0,0,-100.4235,25312.97,45304.69)"
       gradientUnits="userSpaceOnUse"
       id="XMLID_6_"
       r="1.8016">
      <stop
         id="stop24"
         offset="0"
         style="stop-color:#8BBBFF" />
      <stop
         id="stop26"
         offset="1"
         style="stop-color:#0D56AC" />
    </radialGradient>
    <path
       d="M 10.087984,36.986401 C -0.085405638,39.611054 3.5523122,54.813642 4.4218896,62.369793 C 5.7763688,74.143265 7.4802069,86.01425 10.375298,97.545748 C 11.097878,100.42321 11.713551,104.48615 13.83452,106.82008 C 15.957396,109.16123 24.326723,108.19695 27.115863,108.26467 C 41.255329,108.60956 55.410068,108.41185 69.552397,108.40733 C 79.911922,108.41456 90.282901,108.41636 100.63479,108.01186 C 106.83543,107.77079 115.1914,108.24211 120.90807,105.48021 C 123.92439,104.02568 124.22889,98.091092 124.76534,95.406847 C 126.13318,88.557645 127.10775,81.638021 128.12052,74.734648 C 128.8975,69.435683 129.79095,64.161997 130.64142,58.875671 C 131.34491,54.498539 134.77837,42.870429 130.49825,39.18851 C 128.01168,37.049601 121.34143,37.464923 118.30411,37.251845 C 109.32676,36.622542 100.3112,36.411271 91.312839,36.239724 C 74.508322,35.923717 57.69426,35.897534 40.88688,36.056439 C 31.396934,36.146728 19.365071,34.597395 10.087984,36.986401 M 15.081136,105.77002 C 13.237938,104.98724 12.624174,99.712648 12.248088,98.186796 C 10.804837,92.311794 9.7281257,86.351022 8.7315968,80.394763 C 6.8759892,69.312891 4.5870239,57.689294 5.3010123,46.421431 C 5.7916418,38.704569 10.214938,38.326265 16.992107,38.058112 C 26.134604,37.696962 35.293329,37.644594 44.443462,37.600355 C 67.541202,37.489301 90.705757,37.524512 113.77868,38.655814 C 117.30185,38.829166 126.41859,37.951573 129.34995,40.383914 C 133.52984,43.985478 128.89368,59.088749 128.13101,63.571517 C 127.16885,69.314697 126.32409,75.074129 125.44879,80.830852 C 124.62215,86.268861 125.03928,103.27088 117.80776,104.85271 C 106.21403,107.39248 93.332627,106.68374 81.515533,106.765 C 71.825135,106.82911 62.129012,106.80201 52.437658,106.81918 C 44.873956,106.83634 37.30739,106.83904 29.745595,106.70452 C 25.511296,106.63048 19.077757,107.45841 15.081136,105.77002"
       id="path28"
       style="fill:black;fill-opacity:1;stroke:black;stroke-width:5.03919506;stroke-linejoin:round;stroke-miterlimit:4;stroke-dasharray:none;stroke-opacity:1" />
    <path
       d="M 118.96084,20.930597 C 118.96084,22.556672 64.566883,22.556672 64.566883,20.930597 C 64.566883,19.302716 118.96084,19.302716 118.96084,20.930597"
       id="path30"
       style="fill:white" />
    <path
       d="M 128.35915,40.730618 C 128.35915,43.805805 129.3805,46.89273 128.39733,49.949862 C 127.21179,53.627265 121.40444,48.582909 119.18419,47.798313 C 105.84081,43.078993 90.237082,42.88036 76.17016,42.568869 C 62.200601,42.259183 47.759502,41.678634 33.884441,43.494313 C 28.11621,44.248213 22.110302,45.515849 17.151515,48.537766 C 14.833913,49.950764 12.800763,51.784501 11.372784,54.029045 C 10.011623,56.167953 10.174848,59.307245 8.8518677,61.205085 C 8.7449594,61.359477 7.5470241,56.250114 7.5031154,55.896188 C 7.0458949,52.111341 6.8244439,48.288573 7.4162522,44.506435 C 7.9784716,40.911193 7.7064307,40.485037 11.244876,40.176255 C 23.844685,39.072038 36.638262,39.189412 49.278161,39.067523 C 54.384902,39.017867 128.35915,38.273899 128.35915,40.730618"
       id="path32"
       style="fill:#b4d7f9" />
    <path
       d="M 118.64986,100.34563 C 118.64986,98.752947 40.938996,99.481565 34.501246,99.511372 C 31.900596,99.523111 18.048802,98.00627 16.554058,100.63454 C 15.85191,101.87329 17.577907,102.18568 18.550469,102.39063 C 29.046315,104.59274 118.64986,105.22748 118.64986,100.34563"
       id="path34"
       style="fill:#68a0f2" />
    <path
       d="M 18.14518,24.609293 C 18.14518,26.804542 18.190044,29.186302 17.438828,31.330102 C 17.184922,32.057564 15.690127,32.722855 15.154635,31.645241 C 14.360465,30.03739 14.231603,16.081261 17.290875,16.081261 C 18.283587,16.081261 18.14518,24.058337 18.14518,24.609293"
       id="path36"
       style="fill:#e5e5e5" />
    <path
       d="M 69.693669,21.949197 C 65.60908,25.538046 48.830081,19.364109 54.002684,14.818499 C 53.717987,15.06944 60.03502,19.5307 60.781216,19.788012 C 62.944601,21.47077 69.08982,22.479757 69.693669,21.949197"
       id="path38"
       style="fill:#e5e5e5"
       sodipodi:nodetypes="cccc" />
  </g>
</svg>
