<?xml version="1.0" encoding="UTF-8" standalone="no"?>
<!-- Generator: Adobe Illustrator 12.0.0, SVG Export Plug-In . SVG Version: 6.00 Build 51448)  -->
<svg
   xmlns:dc="http://purl.org/dc/elements/1.1/"
   xmlns:cc="http://web.resource.org/cc/"
   xmlns:rdf="http://www.w3.org/1999/02/22-rdf-syntax-ns#"
   xmlns:svg="http://www.w3.org/2000/svg"
   xmlns="http://www.w3.org/2000/svg"
   xmlns:sodipodi="http://sodipodi.sourceforge.net/DTD/sodipodi-0.dtd"
   xmlns:inkscape="http://www.inkscape.org/namespaces/inkscape"
   height="500"
   id="Layer_1"
   inkscape:version="0.44"
   sodipodi:docbase="D:\Projects\iconeditor\Images"
   sodipodi:docname="close.svg"
   sodipodi:version="0.32"
   space="preserve"
   style="overflow:visible;enable-background:new 0 0 136.93 136.927;"
   version="1.0"
   viewBox="0 0 136.93 136.927"
   width="500"
   inkscape:export-filename="D:\Projects\iconeditor\Images\close.png"
   inkscape:export-xdpi="3.5999999"
   inkscape:export-ydpi="3.5999999">
  <metadata
     id="metadata3">
    <rdf:RDF>
      <cc:Work
         rdf:about="">
        <dc:title>Tasto 8</dc:title>
        <dc:description />
        <dc:subject>
          <rdf:Bag>
            <rdf:li>unsorted</rdf:li>
          </rdf:Bag>
        </dc:subject>
        <dc:publisher>
          <cc:Agent
             rdf:about="http://www.openclipart.org/">
            <dc:title>Open Clip Art Library</dc:title>
          </cc:Agent>
        </dc:publisher>
        <dc:creator>
          <cc:Agent>
            <dc:title>Architetto Francesco Rollandin</dc:title>
          </cc:Agent>
        </dc:creator>
        <dc:rights>
          <cc:Agent>
            <dc:title>Architetto Francesco Rollandin</dc:title>
          </cc:Agent>
        </dc:rights>
        <dc:date />
        <dc:format>image/svg+xml</dc:format>
        <dc:type
           rdf:resource="http://purl.org/dc/dcmitype/StillImage" />
        <cc:license
           rdf:resource="http://web.resource.org/cc/PublicDomain" />
        <dc:language>en</dc:language>
      </cc:Work>
      <cc:License
         rdf:about="http://web.resource.org/cc/PublicDomain">
        <cc:permits
           rdf:resource="http://web.resource.org/cc/Reproduction" />
        <cc:permits
           rdf:resource="http://web.resource.org/cc/Distribution" />
        <cc:permits
           rdf:resource="http://web.resource.org/cc/DerivativeWorks" />
      </cc:License>
    </rdf:RDF>
  </metadata>
  <defs
     id="defs35" />
  <sodipodi:namedview
     bordercolor="#666666"
     borderopacity="1.0"
     id="base"
     inkscape:current-layer="g3"
     inkscape:cx="250"
     inkscape:cy="246.65522"
     inkscape:pageopacity="0.0"
     inkscape:pageshadow="2"
     inkscape:window-height="815"
     inkscape:window-width="1152"
     inkscape:window-x="-4"
     inkscape:window-y="-4"
     inkscape:zoom="1.24"
     pagecolor="#ffffff"
     width="500px"
     height="500px" />
  <g
     id="g3">
    <radialGradient
       cx="66.347702"
       cy="21.809099"
       gradientUnits="userSpaceOnUse"
       id="XMLID_2_"
       r="91.945702"
       gradientTransform="matrix(0.939516,0,0,0.939516,4.030759,4.472231)">
      <stop
         id="stop6"
         offset="0"
         style="stop-color:#818181;stop-opacity:1;" />
      <stop
         id="stop8"
         offset="1"
         style="stop-color:#414141;stop-opacity:1;" />
    </radialGradient>
    <path
       d="M 128.97693,97.781163 C 122.77895,91.585055 116.58566,85.390829 110.38862,79.194724 C 107.29949,76.105597 104.21036,73.01553 101.12124,69.926403 C 99.322063,68.12723 101.02165,67.757061 102.7419,66.036808 C 110.3454,58.431429 117.95078,50.826051 125.55428,43.222551 C 128.08815,40.685859 131.12279,38.291034 131.54463,34.454052 C 132.12431,29.151426 127.68322,25.854666 124.3564,22.528781 C 118.93257,17.104958 108.07835,1.2421763 98.967873,6.8924229 C 91.773059,11.355122 85.701909,19.823916 79.771686,25.754138 C 76.503112,29.022713 73.235477,32.290348 69.966902,35.557044 C 67.946943,37.577002 68.250407,37.051813 66.212598,35.015883 C 58.648558,27.451843 51.082639,19.887803 43.51672,12.323763 C 41.329527,10.13657 38.964767,7.0699919 35.947043,6.0365239 C 30.190631,4.0682392 26.541552,8.3571279 22.9573,11.937622 C 17.694134,17.200788 2.5848444,27.531701 5.6072662,36.376301 C 6.6388542,39.394965 9.7044932,41.758786 11.890746,43.947857 C 16.028373,48.085484 20.16506,52.222171 24.303626,56.360737 C 27.730979,59.78809 31.158332,63.215443 34.586624,66.645614 C 36.622554,68.681544 37.147743,68.37902 35.127785,70.399918 C 27.640785,77.885039 20.155665,85.372039 12.668665,92.858099 C 10.646827,94.879936 7.9908172,96.930903 6.4603462,99.399003 C 2.9381023,105.07556 6.8981602,109.58617 10.709775,113.39591 C 15.85832,118.54445 25.65277,132.88898 34.024794,131.97201 C 41.607624,131.14148 50.016288,118.7596 54.898951,113.876 C 58.672045,110.10666 62.442322,106.33639 66.213537,102.56517 C 68.249467,100.52924 67.946943,100.00405 69.965962,102.02495 C 77.712268,109.76844 85.457635,117.51286 93.202062,125.25823 C 95.910683,127.96685 98.613673,131.5248 102.69492,131.97201 C 107.99567,132.55169 111.29149,128.1106 114.61832,124.78471 C 120.20092,119.20211 137.9944,106.79111 128.97693,97.781163"
       id="path10"
       style="fill:url(#XMLID_2_)" />
    <path
       d="M 34.196725,9.5287039 C 36.194135,11.529872 13.315052,32.528045 10.627098,34.352585 C 6.1662782,37.380643 15.189385,25.007223 16.057498,24.056433 C 17.455497,22.526902 31.697614,7.0295919 34.196725,9.5287039"
       id="path12"
       style="fill:white;fill-opacity:0.24864864" />
    <path
       d="M 40.657774,73.63561 C 42.698402,75.683754 14.176587,102.08978 11.348646,104.29858 C 10.007017,105.34708 7.8696192,106.27344 9.2431912,103.68977 C 11.6305,99.201713 15.561433,95.290505 19.010395,91.625455 C 20.562475,89.977544 38.181211,71.158108 40.657774,73.63561"
       id="path14"
       style="fill:white;fill-opacity:0.24864864" />
    <path
       d="M 97.898703,73.63561 C 95.862773,75.676238 124.378,102.08978 127.20501,104.29858 C 128.54757,105.34708 130.68591,106.27344 129.31234,103.68977 C 126.92691,99.201713 122.99504,95.290505 119.54702,91.625455 C 117.99681,89.977544 100.3762,71.158108 97.898703,73.63561"
       id="path16"
       style="fill:white;fill-opacity:0.24864864" />
    <path
       d="M 34.196725,9.5287039 C 35.926373,7.8018739 68.195915,40.791085 66.827041,42.160899 C 65.363275,43.628422 29.924748,13.815713 34.196725,9.5287039"
       id="path18"
       style="fill:white;fill-opacity:0.24864864" />
    <path
       d="M 102.7513,9.5287039 C 100.75107,11.531751 123.63109,32.528045 126.31998,34.352585 C 130.77892,37.380643 121.75863,25.007223 120.88864,24.056433 C 119.49346,22.528781 105.24665,7.0295919 102.7513,9.5287039"
       id="path20"
       style="fill:white;fill-opacity:0.24864864" />
    <path
       d="M 102.7513,9.5287039 C 101.02634,7.8056319 68.985108,40.540234 70.360559,41.916625 C 71.844054,43.404817 107.01576,13.800681 102.7513,9.5287039"
       id="path22"
       style="fill:white;fill-opacity:0.24864864" />
    <path
       d="M 128.5814,33.887524 C 126.85457,32.160695 109.05169,51.48747 107.53625,53.016062 C 104.70925,55.87031 100.95024,58.929373 99.054303,62.550266 C 97.589603,65.348143 104.23667,60.822497 104.58993,60.549098 C 107.46954,58.318688 132.47475,37.773361 128.5814,33.887524"
       id="path24"
       style="fill:black;fill-opacity:0.27567568" />
    <path
       d="M 67.999556,94.469368 C 66.506666,92.97178 49.346414,111.2012 47.808427,112.73825 C 43.406796,117.13894 38.721432,121.41749 34.78768,126.25881 C 32.608004,128.94019 33.258149,130.03473 36.290905,128.08241 C 39.302053,126.14701 71.693731,98.157903 67.999556,94.469368"
       id="path26"
       style="fill:black;fill-opacity:0.27567568" />
    <path
       d="M 10.526569,33.887524 C 12.244943,32.165392 30.059098,51.489349 31.570779,53.016062 C 34.39966,55.872189 38.154904,58.929373 40.053665,62.550266 C 41.519309,65.348143 34.873176,60.822497 34.519918,60.549098 C 31.641243,58.321506 6.6322772,37.761147 10.526569,33.887524"
       id="path28"
       style="fill:black;fill-opacity:0.24324325" />
    <path
       d="M 71.239945,94.606537 C 72.745989,93.096736 89.215697,110.65534 90.677583,112.11817 C 95.080153,116.51886 99.764583,120.79929 103.69645,125.63779 C 105.87331,128.32011 105.22504,129.41277 102.19416,127.46233 C 99.182083,125.52599 67.495036,98.339233 71.239945,94.606537"
       id="path30"
       style="fill:black;fill-opacity:0.24324325" />
    <path
       d="M 33.043939,4.4929002 C 26.115952,4.4929002 19.865354,13.526343 15.466542,17.925155 C 10.134791,23.255966 0.050970926,30.394405 5.7115522,38.981578 C 9.3192922,44.455196 15.457147,49.015604 20.04856,53.607017 C 25.10973,58.669127 30.173719,63.726539 35.232071,68.792407 C 27.028221,76.985923 18.833766,85.188833 10.634614,93.387986 C 6.6350962,97.387503 2.1968245,101.61532 4.818073,107.93732 C 6.8417892,112.82374 12.873479,117.0619 16.481219,120.66964 C 19.955548,124.14396 23.374445,128.65458 27.497039,131.413 C 33.62456,135.51398 38.82196,131.45809 43.058236,127.2237 C 51.493207,118.78873 59.933815,110.35845 68.363149,101.91878 C 76.557604,110.12263 84.761454,118.31709 92.960606,126.51436 C 96.960123,130.512 101.18418,134.95027 107.509,132.3309 C 112.39354,130.30813 116.63264,124.27832 120.24132,120.66964 C 123.71471,117.19625 128.22626,113.77829 130.98374,109.6557 C 135.04714,103.58455 131.03823,98.339233 126.79538,94.094501 C 118.35947,85.659531 109.92919,77.220802 101.48953,68.791468 C 109.68398,60.587618 117.88783,52.391284 126.08792,44.192131 C 130.07335,40.206706 134.47498,36.008011 131.92419,29.705741 C 129.93336,24.792074 123.85375,20.522915 120.24132,16.909538 C 116.76417,13.43427 113.33118,8.8785589 109.1851,6.1426899 C 103.06227,2.1018331 97.891183,6.1304759 93.663364,10.356417 C 85.228393,18.791388 76.789664,27.221661 68.36033,35.66133 C 62.603918,29.897402 56.841869,24.142869 51.082639,18.381759 C 46.634032,13.935971 40.074335,4.4891422 33.043939,4.4929002 M 27.472612,128.6527 C 21.160007,122.34197 -0.45636747,107.48447 9.2187642,97.809343 C 18.892016,88.137973 28.56339,78.463781 38.237582,68.791468 C 32.080936,62.635762 25.92429,56.477237 19.765766,50.320591 C 14.898135,45.452961 0.80446243,35.588987 8.5648612,27.830467 C 14.774119,21.622148 20.986196,15.41289 27.196394,9.2045709 C 35.00095,1.403773 43.852127,14.161455 48.889809,19.197259 C 55.364011,25.671461 61.838213,32.145662 68.312415,38.617985 C 68.410125,38.715695 84.603615,22.422616 85.811832,21.216278 C 90.655974,16.372135 101.40403,1.0758821 109.24711,8.9283529 C 115.93834,14.050592 121.65341,21.330899 127.62121,27.294004 C 135.76681,35.437725 123.33702,43.935644 117.95548,49.319068 C 111.46436,55.810181 104.97419,62.301294 98.482143,68.793347 C 108.17042,78.478813 119.8439,87.723646 128.22438,98.535593 C 135.96881,106.2772 121.54161,116.36384 116.71719,121.18637 C 111.52167,126.37907 104.915,135.46607 97.378213,127.93021 C 91.12949,121.68243 84.881712,115.43278 78.632054,109.185 C 76.613975,107.16786 69.686926,97.591383 67.247004,100.02848 C 60.800048,106.47543 54.353092,112.92051 47.907076,119.36747 C 43.248958,124.02183 34.777346,135.97528 27.472612,128.6527"
       id="path32"
       style="fill:#970f00;stroke:black;stroke-width:5.14591455;stroke-miterlimit:4;stroke-dasharray:none;stroke-opacity:1" />
  </g>
</svg>
