/* XPM */
static char *next1[]={
"8 6 2 1",
". c None",
"# c #000000",
"...#....",
"...##...",
"...###..",
"...###..",
"...##...",
"...#...."};
