/* XPM */
static char *prev1[]={
"8 6 2 1",
". c None",
"# c #000000",
"....#...",
"...##...",
"..###...",
"..###...",
"...##...",
"....#..."};
