/* XPM */
static char *TDBDateEdit[]={
"18 18 8 1",
"# c None",
"e c #000000",
"c c #000080",
"d c #0000ff",
"f c #800000",
". c #808080",
"a c #c0c0c0",
"b c #ffffff",
"...............###",
".a.baaaabaaaaa.###",
"...............###",
".a.bbbbabbbbbb.###",
".b.baababaaaab.###",
".a.bbcccccccccccc#",
".b.bacdddcdddcddce",
".a.bbcccccccccccce",
".b.bacbbbbbbbbbbce",
".a.bbcbbfbbffffbce",
".....cbffbbfbbbbce",
"#####cbbfbbfffabce",
"#####cbbfbbbbbfbce",
"#####cbbfbbabafbce",
"#####cbfffbfffabce",
"#####cbbbbbbbbbbce",
"#####cccccccccccce",
"######eeeeeeeeeeee"};
